<?xml version="1.0" encoding="UTF-8"?>
<!-- Sun Feb 1 19:59:45 2026 Generated by QCAD 3.32.6 SVG Exporter -->
<svg width="360mm" height="240mm" viewBox="-90 -210 360 240" version="1.1" xmlns="http://www.w3.org/2000/svg" style="stroke-linecap:round;stroke-linejoin:round;fill:none">
    <g transform="scale(1,-1)">
        <!-- Text: Front
 -->
        <g>
            <path d="M-9.4063,-15.8245 L-9.4063,-9.8245 L-5.3586,-9.8245 L-5.3586,-10.5326 L-8.6123,-10.5326 L-8.6123,-12.3907 L-5.7965,-12.3907 L-5.7965,-13.0987 L-8.6123,-13.0987 L-8.6123,-15.8245 Z M-4.43,-15.8245 L-4.43,-11.478 L-3.767,-11.478 L-3.767,-12.1369 C-3.5978,-11.8286 -3.4416,-11.6253 -3.2984,-11.5271 C-3.1551,-11.4289 -2.9975,-11.3798 -2.8256,-11.3798 C-2.5774,-11.3798 -2.325,-11.4589 -2.0685,-11.6171 L-2.3222,-12.3006 C-2.5023,-12.1942 -2.6824,-12.141 -2.8625,-12.141 C-3.0235,-12.141 -3.1681,-12.1894 -3.2963,-12.2863 C-3.4246,-12.3832 -3.516,-12.5175 -3.5705,-12.6894 C-3.6524,-12.9514 -3.6933,-13.2379 -3.6933,-13.5489 L-3.6933,-15.8245 Z M-1.9051,-13.6512 C-1.9051,-12.8463 -1.6814,-12.2502 -1.2339,-11.8627 C-0.8601,-11.5407 -0.4044,-11.3798 0.1331,-11.3798 C0.7306,-11.3798 1.219,-11.5755 1.5983,-11.9671 C1.9776,-12.3586 2.1672,-12.8995 2.1672,-13.5898 C2.1672,-14.1492 2.0833,-14.5892 1.9155,-14.9098 C1.7477,-15.2304 1.5035,-15.4793 1.1829,-15.6567 C0.8623,-15.8341 0.5124,-15.9227 0.1331,-15.9227 C-0.4754,-15.9227 -0.9672,-15.7276 -1.3423,-15.3375 C-1.7175,-14.9473 -1.9051,-14.3852 -1.9051,-13.6512 M-1.1479,-13.6512 C-1.1479,-14.2079 -1.0265,-14.6246 -0.7837,-14.9016 C-0.5408,-15.1785 -0.2353,-15.317 0.1331,-15.317 C0.4987,-15.317 0.8029,-15.1778 1.0458,-14.8995 C1.2886,-14.6212 1.41,-14.1969 1.41,-13.6267 C1.41,-13.0892 1.2879,-12.6819 1.0437,-12.405 C0.7995,-12.128 0.496,-11.9896 0.1331,-11.9896 C-0.2353,-11.9896 -0.5408,-12.1274 -0.7837,-12.4029 C-1.0265,-12.6785 -1.1479,-13.0946 -1.1479,-13.6512 M3.0303,-15.8245 L3.0303,-11.478 L3.6933,-11.478 L3.6933,-12.096 C4.0126,-11.6185 4.4737,-11.3798 5.0767,-11.3798 C5.3386,-11.3798 5.5794,-11.4268 5.799,-11.521 C6.0187,-11.6151 6.1831,-11.7386 6.2922,-11.8914 C6.4014,-12.0441 6.4778,-12.2256 6.5214,-12.4357 C6.5487,-12.5721 6.5623,-12.8109 6.5623,-13.1519 L6.5623,-15.8245 L5.8256,-15.8245 L5.8256,-13.1806 C5.8256,-12.8804 5.797,-12.656 5.7397,-12.5073 C5.6824,-12.3586 5.5808,-12.2399 5.4348,-12.1512 C5.2888,-12.0626 5.1176,-12.0182 4.9211,-12.0182 C4.6074,-12.0182 4.3366,-12.1178 4.1087,-12.317 C3.8809,-12.5162 3.767,-12.8941 3.767,-13.4507 L3.767,-15.8245 Z M9.2999,-15.1656 L9.4063,-15.8163 C9.199,-15.86 9.0134,-15.8818 8.8497,-15.8818 C8.5823,-15.8818 8.375,-15.8395 8.2276,-15.7549 C8.0803,-15.6703 7.9766,-15.5592 7.9166,-15.4214 C7.8565,-15.2836 7.8265,-14.9937 7.8265,-14.5517 L7.8265,-12.051 L7.2863,-12.051 L7.2863,-11.478 L7.8265,-11.478 L7.8265,-10.4016 L8.5591,-9.9596 L8.5591,-11.478 L9.2999,-11.478 L9.2999,-12.051 L8.5591,-12.051 L8.5591,-14.5926 C8.5591,-14.8027 8.5721,-14.9377 8.598,-14.9978 C8.6239,-15.0578 8.6662,-15.1055 8.7249,-15.141 C8.7835,-15.1765 8.8674,-15.1942 8.9766,-15.1942 C9.0584,-15.1942 9.1662,-15.1847 9.2999,-15.1656" style="fill:#000000;fill-rule:nonzero;"/>
            <path d="M0,-25.1755" style="stroke:#000000;stroke-width:0.25;"/>
        </g>
        <!-- Text: Top
 -->
        <g>
            <path d="M162.9859,-16.8245 L162.9859,-11.5326 L161.0091,-11.5326 L161.0091,-10.8245 L165.7649,-10.8245 L165.7649,-11.5326 L163.7799,-11.5326 L163.7799,-16.8245 Z M165.282,-14.6512 C165.282,-13.8463 165.5057,-13.2502 165.9532,-12.8627 C166.327,-12.5407 166.7826,-12.3798 167.3202,-12.3798 C167.9177,-12.3798 168.4061,-12.5755 168.7854,-12.9671 C169.1646,-13.3586 169.3543,-13.8995 169.3543,-14.5898 C169.3543,-15.1492 169.2704,-15.5892 169.1026,-15.9098 C168.9348,-16.2304 168.6906,-16.4793 168.37,-16.6567 C168.0494,-16.8341 167.6994,-16.9227 167.3202,-16.9227 C166.7117,-16.9227 166.2199,-16.7276 165.8447,-16.3375 C165.4695,-15.9473 165.282,-15.3852 165.282,-14.6512 M166.0391,-14.6512 C166.0391,-15.2079 166.1605,-15.6246 166.4034,-15.9016 C166.6462,-16.1785 166.9518,-16.317 167.3202,-16.317 C167.6858,-16.317 167.99,-16.1778 168.2329,-15.8995 C168.4757,-15.6212 168.5971,-15.1969 168.5971,-14.6267 C168.5971,-14.0892 168.475,-13.6819 168.2308,-13.405 C167.9866,-13.128 167.6831,-12.9896 167.3202,-12.9896 C166.9518,-12.9896 166.6462,-13.1274 166.4034,-13.4029 C166.1605,-13.6785 166.0391,-14.0946 166.0391,-14.6512 M170.2174,-18.4903 L170.2174,-12.478 L170.8886,-12.478 L170.8886,-13.0428 C171.0468,-12.8218 171.2255,-12.656 171.4247,-12.5455 C171.6239,-12.435 171.8654,-12.3798 172.1491,-12.3798 C172.5202,-12.3798 172.8476,-12.4753 173.1314,-12.6662 C173.4152,-12.8572 173.6294,-13.1267 173.774,-13.4746 C173.9186,-13.8225 173.9909,-14.2038 173.9909,-14.6185 C173.9909,-15.0632 173.9111,-15.4637 173.7515,-15.8197 C173.5918,-16.1758 173.3599,-16.4486 173.0557,-16.6383 C172.7515,-16.8279 172.4315,-16.9227 172.0959,-16.9227 C171.8504,-16.9227 171.63,-16.8709 171.435,-16.7672 C171.2399,-16.6635 171.0796,-16.5326 170.9541,-16.3743 L170.9541,-18.4903 Z M170.8845,-14.6758 C170.8845,-15.2351 170.9977,-15.6485 171.2242,-15.9159 C171.4506,-16.1833 171.7249,-16.317 172.0468,-16.317 C172.3742,-16.317 172.6546,-16.1785 172.8879,-15.9016 C173.1212,-15.6246 173.2378,-15.1956 173.2378,-14.6144 C173.2378,-14.0605 173.1239,-13.6458 172.8961,-13.3702 C172.6682,-13.0946 172.3961,-12.9568 172.0796,-12.9568 C171.7658,-12.9568 171.4882,-13.1035 171.2467,-13.3968 C171.0052,-13.6901 170.8845,-14.1165 170.8845,-14.6758" style="fill:#000000;fill-rule:nonzero;"/>
            <path d="M167.5,-26.1755" style="stroke:#000000;stroke-width:0.25;"/>
        </g>
        <!-- Line -->
        <path d="M-67.5,0 L67.5,0 " style="stroke:#000000;stroke-width:0.09;"/>
        <!-- Line -->
        <path d="M67.5,0 L67.5,6 " style="stroke:#000000;stroke-width:0.09;"/>
        <!-- Line -->
        <path d="M67.5,6 L-67.5,6 " style="stroke:#000000;stroke-width:0.09;"/>
        <!-- Line -->
        <path d="M-67.5,6 L-67.5,0 " style="stroke:#000000;stroke-width:0.09;"/>
        <!-- Line -->
        <path d="M-67.5,6 L67.5,6 " style="stroke:#000000;stroke-width:0.09;"/>
        <!-- Line -->
        <path d="M67.5,6 L67.5,14 " style="stroke:#000000;stroke-width:0.09;"/>
        <!-- Line -->
        <path d="M67.5,14 L-67.5,14 " style="stroke:#000000;stroke-width:0.09;"/>
        <!-- Line -->
        <path d="M-67.5,14 L-67.5,6 " style="stroke:#000000;stroke-width:0.09;"/>
        <!-- Line -->
        <path d="M67.5,14 L67.5,14 " style="stroke:#000000;stroke-width:0.09;"/>
        <!-- Line -->
        <path d="M67.5,14 L67.5,14 " style="stroke:#000000;stroke-width:0.09;"/>
        <!-- Line -->
        <path d="M67.5,14 L67.5,14 " style="stroke:#000000;stroke-width:0.09;"/>
        <!-- Line -->
        <path d="M67.5,14 L67.5,14 " style="stroke:#000000;stroke-width:0.09;"/>
        <!-- Line -->
        <path d="M109,0 L226,0 " style="stroke:#000000;stroke-width:0.09;"/>
        <!-- Line -->
        <path d="M235,9 L235,177 " style="stroke:#000000;stroke-width:0.09;"/>
        <!-- Line -->
        <path d="M226,186 L109,186 " style="stroke:#000000;stroke-width:0.09;"/>
        <!-- Line -->
        <path d="M100,177 L100,9 " style="stroke:#000000;stroke-width:0.09;"/>
        <!-- Line -->
        <path d="M109,3.9 L226,3.9 " style="stroke:#000000;stroke-width:0.09;"/>
        <!-- Line -->
        <path d="M231.1,9 L231.1,177 " style="stroke:#000000;stroke-width:0.09;"/>
        <!-- Line -->
        <path d="M226,182.1 L109,182.1 " style="stroke:#000000;stroke-width:0.09;"/>
        <!-- Line -->
        <path d="M103.9,177 L103.9,9 " style="stroke:#000000;stroke-width:0.09;"/>
        <!-- Arc -->
        <path d="M103.9,9 A5.1,5.1 0 0,1 109,3.9" style="stroke:#000000;stroke-width:0.09;"/>
        <!-- Arc -->
        <path d="M100,9 A9,9 0 0,1 109,0" style="stroke:#000000;stroke-width:0.09;"/>
        <!-- Arc -->
        <path d="M226,3.9 A5.1,5.1 0 0,1 231.1,9" style="stroke:#000000;stroke-width:0.09;"/>
        <!-- Arc -->
        <path d="M226,0 A9,9 0 0,1 235,9" style="stroke:#000000;stroke-width:0.09;"/>
        <!-- Arc -->
        <path d="M103.9,177 A5.1,5.1 0 0,0 109,182.1" style="stroke:#000000;stroke-width:0.09;"/>
        <!-- Arc -->
        <path d="M100,177 A9,9 0 0,0 109,186" style="stroke:#000000;stroke-width:0.09;"/>
        <!-- Arc -->
        <path d="M226,182.1 A5.1,5.1 0 0,0 231.1,177" style="stroke:#000000;stroke-width:0.09;"/>
        <!-- Arc -->
        <path d="M226,186 A9,9 0 0,0 235,177" style="stroke:#000000;stroke-width:0.09;"/>
        <!-- Aligned Dimension -->
        <g>
            <g>
                <path d="M-2.2222,21.5694 L-1.6667,22.125 L-1.6667,19.625 M-0.8333,22.125 L-0.2778,22.125 C-0.2505,22.125 -0.1962,22.1196 -0.1694,22.1143 C-0.1426,22.109 -0.0904,22.0932 -0.0652,22.0827 C-0.04,22.0723 0.0082,22.0465 0.0309,22.0314 C0.0536,22.0162 0.0958,21.9816 0.1151,21.9623 C0.1344,21.943 0.169,21.9008 0.1841,21.8781 C0.1993,21.8554 0.225,21.8073 0.2355,21.782 C0.2459,21.7568 0.2618,21.7046 0.2671,21.6778 C0.2724,21.6511 0.2778,21.5967 0.2778,21.5694 C0.2778,21.5422 0.2724,21.4878 0.2671,21.4611 C0.2618,21.4343 0.2459,21.3821 0.2355,21.3568 C0.225,21.3316 0.1993,21.2835 0.1841,21.2608 C0.169,21.2381 0.1344,21.1959 0.1151,21.1766 C0.0958,21.1573 0.0536,21.1227 0.0309,21.1075 C0.0082,21.0924 -0.04,21.0666 -0.0652,21.0562 C-0.0904,21.0457 -0.1426,21.0299 -0.1694,21.0246 C-0.1962,21.0192 -0.2505,21.0139 -0.2778,21.0139 C-0.2505,21.0139 -0.1962,21.0085 -0.1694,21.0032 C-0.1426,20.9979 -0.0904,20.982 -0.0652,20.9716 C-0.04,20.9612 0.0082,20.9354 0.0309,20.9203 C0.0535,20.9051 0.0957,20.8705 0.115,20.8512 C0.1343,20.8319 0.169,20.7897 0.1841,20.767 C0.1993,20.7443 0.225,20.6962 0.2355,20.6709 C0.2459,20.6457 0.2618,20.5935 0.2671,20.5667 C0.2724,20.54 0.2778,20.4856 0.2778,20.4583 L0.2778,20.1806 C0.2778,20.1533 0.2724,20.099 0.2671,20.0722 C0.2618,20.0454 0.2459,19.9932 0.2355,19.968 C0.225,19.9428 0.1993,19.8946 0.1842,19.8719 C0.169,19.8492 0.1344,19.807 0.1151,19.7877 C0.0958,19.7684 0.0536,19.7338 0.0309,19.7186 C0.0082,19.7035 -0.04,19.6777 -0.0652,19.6673 C-0.0904,19.6568 -0.1426,19.641 -0.1694,19.6357 C-0.1962,19.6304 -0.2505,19.625 -0.2778,19.625 L-0.8333,19.625 M-0.2778,21.0139 L-0.5556,21.0139 M2.2222,22.125 L1.1111,22.125 L1.1111,21.0139 L1.6667,21.0139 C1.694,21.0139 1.7483,21.0085 1.775,21.0032 C1.8018,20.9979 1.854,20.982 1.8792,20.9716 C1.9045,20.9612 1.9526,20.9354 1.9753,20.9203 C1.998,20.9051 2.0402,20.8705 2.0595,20.8512 C2.0788,20.8319 2.1134,20.7897 2.1286,20.767 C2.1437,20.7443 2.1695,20.6962 2.1799,20.6709 C2.1904,20.6457 2.2062,20.5935 2.2115,20.5667 C2.2169,20.54 2.2222,20.4856 2.2222,20.4583 L2.2222,20.1806 C2.2222,20.1533 2.2169,20.099 2.2115,20.0722 C2.2062,20.0454 2.1904,19.9932 2.1799,19.968 C2.1695,19.9428 2.1438,19.8946 2.1286,19.8719 C2.1134,19.8492 2.0788,19.807 2.0595,19.7877 C2.0402,19.7684 1.998,19.7338 1.9753,19.7186 C1.9526,19.7035 1.9045,19.6777 1.8793,19.6673 C1.8541,19.6568 1.8018,19.641 1.7751,19.6357 C1.7483,19.6304 1.694,19.625 1.6667,19.625 L1.1111,19.625" style="stroke:#808080;stroke-width:0.13;"/>
            </g>
            <path d="M-67.5,19 L-65,19.4163 L-65,18.5837 Z" style="stroke:#808080;stroke-width:0.13;fill:#808080;fill-rule:evenodd;"/>
            <path d="M67.5,19 L65,18.5837 L65,19.4163 Z" style="stroke:#808080;stroke-width:0.13;fill:#808080;fill-rule:evenodd;"/>
        </g>
        <path d="M-67.5,14.625 L-67.5,20.25 M67.5,14.625 L67.5,20.25 M-67.5,19 L67.5,19 " style="stroke:#808080;stroke-width:0.13;"/>
        <!-- Aligned Dimension -->
        <g>
            <g>
                <path d="M-73.1806,9.4444 C-73.1533,9.4444 -73.0989,9.4498 -73.0722,9.4551 C-73.0454,9.4604 -72.9932,9.4763 -72.968,9.4867 C-72.9427,9.4972 -72.8946,9.5229 -72.8719,9.5381 C-72.8492,9.5532 -72.807,9.5879 -72.7877,9.6072 C-72.7684,9.6265 -72.7338,9.6687 -72.7186,9.6913 C-72.7035,9.714 -72.6777,9.7622 -72.6673,9.7874 C-72.6568,9.8126 -72.641,9.8648 -72.6357,9.8916 C-72.6304,9.9184 -72.625,9.9727 -72.625,10 C-72.625,10.0273 -72.6304,10.0816 -72.6357,10.1084 C-72.641,10.1352 -72.6568,10.1874 -72.6673,10.2126 C-72.6777,10.2378 -72.7035,10.286 -72.7186,10.3087 C-72.7338,10.3313 -72.7684,10.3735 -72.7877,10.3928 C-72.807,10.4121 -72.8492,10.4468 -72.8719,10.4619 C-72.8946,10.4771 -72.9427,10.5028 -72.968,10.5133 C-72.9932,10.5237 -73.0454,10.5396 -73.0722,10.5449 C-73.0989,10.5502 -73.1533,10.5556 -73.1806,10.5556 L-73.4583,10.5556 C-73.4856,10.5556 -73.5399,10.5502 -73.5667,10.5449 C-73.5935,10.5396 -73.6457,10.5237 -73.6709,10.5133 C-73.6962,10.5028 -73.7443,10.4771 -73.767,10.4619 C-73.7897,10.4468 -73.8319,10.4121 -73.8512,10.3928 C-73.8705,10.3735 -73.9051,10.3313 -73.9203,10.3087 C-73.9354,10.286 -73.9612,10.2378 -73.9716,10.2126 C-73.982,10.1874 -73.9979,10.1352 -74.0032,10.1084 C-74.0085,10.0816 -74.0139,10.0273 -74.0139,10 C-74.0139,9.9727 -74.0085,9.9184 -74.0032,9.8916 C-73.9979,9.8648 -73.982,9.8126 -73.9716,9.7874 C-73.9612,9.7622 -73.9354,9.714 -73.9203,9.6913 C-73.9051,9.6687 -73.8705,9.6265 -73.8512,9.6072 C-73.8319,9.5879 -73.7897,9.5532 -73.767,9.5381 C-73.7443,9.5229 -73.6962,9.4972 -73.6709,9.4867 C-73.6457,9.4763 -73.5935,9.4604 -73.5667,9.4551 C-73.5399,9.4498 -73.4856,9.4444 -73.4583,9.4444 Z M-74.5,9.5139 C-74.4761,9.5139 -74.4286,9.5186 -74.4052,9.5232 C-74.3817,9.5279 -74.336,9.5418 -74.314,9.5509 C-74.2919,9.56 -74.2498,9.5825 -74.2299,9.5958 C-74.2101,9.6091 -74.1732,9.6394 -74.1563,9.6563 C-74.1394,9.6732 -74.1091,9.7101 -74.0958,9.7299 C-74.0825,9.7498 -74.06,9.7919 -74.0509,9.814 C-74.0418,9.836 -74.0279,9.8817 -74.0232,9.9052 C-74.0186,9.9286 -74.0139,9.9761 -74.0139,10 C-74.0139,10.0239 -74.0186,10.0714 -74.0232,10.0948 C-74.0279,10.1183 -74.0418,10.164 -74.0509,10.186 C-74.06,10.2081 -74.0825,10.2502 -74.0958,10.2701 C-74.1091,10.2899 -74.1394,10.3268 -74.1563,10.3437 C-74.1732,10.3606 -74.2101,10.3909 -74.2299,10.4042 C-74.2498,10.4175 -74.2919,10.44 -74.314,10.4491 C-74.336,10.4582 -74.3817,10.4721 -74.4052,10.4768 C-74.4286,10.4814 -74.4761,10.4861 -74.5,10.4861 L-74.6389,10.4861 C-74.6628,10.4861 -74.7103,10.4814 -74.7337,10.4768 C-74.7571,10.4721 -74.8029,10.4582 -74.8249,10.4491 C-74.847,10.44 -74.8891,10.4175 -74.909,10.4042 C-74.9288,10.3909 -74.9657,10.3606 -74.9826,10.3437 C-74.9995,10.3268 -75.0298,10.2899 -75.0431,10.2701 C-75.0563,10.2502 -75.0789,10.2081 -75.088,10.186 C-75.0971,10.164 -75.111,10.1183 -75.1157,10.0948 C-75.1203,10.0714 -75.125,10.0239 -75.125,10 C-75.125,9.9761 -75.1203,9.9286 -75.1157,9.9052 C-75.111,9.8817 -75.0971,9.836 -75.088,9.814 C-75.0789,9.7919 -75.0563,9.7498 -75.0431,9.7299 C-75.0298,9.7101 -74.9995,9.6732 -74.9826,9.6563 C-74.9657,9.6394 -74.9288,9.6091 -74.909,9.5958 C-74.8891,9.5825 -74.847,9.56 -74.8249,9.5509 C-74.8029,9.5418 -74.7571,9.5279 -74.7337,9.5232 C-74.7103,9.5186 -74.6628,9.5139 -74.6389,9.5139 Z" style="stroke:#808080;stroke-width:0.13;"/>
            </g>
            <path d="M-72,14 L-71.5837,11.5 L-72.4163,11.5 Z" style="stroke:#808080;stroke-width:0.13;fill:#808080;fill-rule:evenodd;"/>
            <path d="M-72,6 L-72.4163,8.5 L-71.5837,8.5 Z" style="stroke:#808080;stroke-width:0.13;fill:#808080;fill-rule:evenodd;"/>
        </g>
        <path d="M-68.125,14 L-73.25,14 M-68.125,6 L-73.25,6 M-72,14 L-72,6 " style="stroke:#808080;stroke-width:0.13;"/>
        <!-- Aligned Dimension -->
        <g>
            <g>
                <path d="M-82.125,3.2778 C-82.0841,3.2069 -81.9887,3.0737 -81.9347,3.0122 C-81.8807,2.9506 -81.7611,2.8387 -81.6961,2.7888 C-81.6312,2.739 -81.4921,2.6525 -81.4186,2.6163 C-81.3452,2.5801 -81.1919,2.5224 -81.1128,2.5012 C-81.0337,2.48 -80.8721,2.4534 -80.7904,2.448 C-80.7632,2.4462 -80.7088,2.4444 -80.6816,2.4444 L-80.1805,2.4444 C-80.1532,2.4444 -80.0989,2.4498 -80.0721,2.4551 C-80.0454,2.4604 -79.9931,2.4763 -79.9679,2.4867 C-79.9427,2.4972 -79.8946,2.5229 -79.8719,2.5381 C-79.8492,2.5532 -79.807,2.5879 -79.7877,2.6072 C-79.7684,2.6265 -79.7338,2.6687 -79.7186,2.6913 C-79.7034,2.714 -79.6777,2.7622 -79.6673,2.7874 C-79.6568,2.8126 -79.641,2.8648 -79.6356,2.8916 C-79.6303,2.9184 -79.625,2.9727 -79.625,3 C-79.625,3.0273 -79.6303,3.0816 -79.6356,3.1084 C-79.641,3.1352 -79.6568,3.1874 -79.6673,3.2126 C-79.6777,3.2378 -79.7034,3.286 -79.7186,3.3087 C-79.7338,3.3313 -79.7684,3.3735 -79.7877,3.3928 C-79.807,3.4121 -79.8492,3.4468 -79.8719,3.4619 C-79.8946,3.4771 -79.9427,3.5028 -79.9679,3.5133 C-79.9931,3.5237 -80.0454,3.5396 -80.0721,3.5449 C-80.0989,3.5502 -80.1532,3.5556 -80.1805,3.5556 L-80.4583,3.5556 C-80.4856,3.5556 -80.5399,3.5502 -80.5667,3.5449 C-80.5935,3.5396 -80.6457,3.5237 -80.6709,3.5133 C-80.6961,3.5028 -80.7443,3.4771 -80.767,3.4619 C-80.7897,3.4468 -80.8318,3.4121 -80.8511,3.3928 C-80.8704,3.3735 -80.9051,3.3313 -80.9202,3.3086 C-80.9354,3.2859 -80.9611,3.2378 -80.9716,3.2126 C-80.982,3.1874 -80.9979,3.1351 -81.0032,3.1084 C-81.0085,3.0816 -81.0139,3.0273 -81.0139,3 L-81.0139,2.4779" style="stroke:#808080;stroke-width:0.13;"/>
            </g>
            <path d="M-79,6 L-79.4163,8.5 L-78.5837,8.5 Z" style="stroke:#808080;stroke-width:0.13;fill:#808080;fill-rule:evenodd;"/>
            <path d="M-79,0 L-78.5837,-2.5 L-79.4163,-2.5 Z" style="stroke:#808080;stroke-width:0.13;fill:#808080;fill-rule:evenodd;"/>
        </g>
        <path d="M-68.125,6 L-80.25,6 M-68.125,0 L-80.25,0 M-79,11 L-79,-5 " style="stroke:#808080;stroke-width:0.13;"/>
        <!-- Rotated Dimension -->
        <g>
            <g>
                <path d="M163.8889,193.5694 L164.4444,194.125 L164.4444,191.625 M166.3889,191.625 L165.2778,191.625 L166.3514,193.4714 C166.3582,193.4832 166.3696,193.508 166.374,193.5209 C166.3784,193.5338 166.3846,193.5603 166.3865,193.5738 C166.3883,193.5873 166.3892,193.6146 166.3884,193.6282 C166.3875,193.6418 166.3832,193.6687 166.3797,193.6819 C166.3779,193.6886 166.3737,193.7018 166.3713,193.7083 C166.3644,193.7347 166.3457,193.7859 166.3338,193.8105 C166.322,193.8351 166.2936,193.8817 166.2772,193.9035 C166.2607,193.9253 166.2238,193.9655 166.2034,193.9837 C166.1831,194.0019 166.139,194.0341 166.1155,194.0479 C166.092,194.0618 166.0425,194.0848 166.0167,194.0938 C165.9909,194.1028 165.9379,194.1157 165.9109,194.1195 C165.8839,194.1233 165.8293,194.1256 165.8021,194.1241 C165.7748,194.1225 165.7209,194.1141 165.6945,194.1073 C165.668,194.1005 165.6168,194.0817 165.5922,194.0699 C165.5676,194.058 165.521,194.0296 165.4992,194.0132 C165.4774,193.9968 165.4372,193.9599 165.419,193.9395 C165.4008,193.9191 165.3686,193.8751 165.3548,193.8516 C165.3409,193.828 165.3179,193.7785 165.3089,193.7528 C165.3051,193.7419 165.2984,193.7197 165.2955,193.7086 M167.2222,194.125 L168.3333,194.125 L167.6389,191.625 M167.7778,193.0139 L168.3333,193.0139 M169.1667,191.625 L169.1667,191.7639 M171.1111,191.625 L170,191.625 L171.0736,193.4714 C171.0805,193.4832 171.0918,193.508 171.0962,193.5209 C171.1006,193.5338 171.1069,193.5603 171.1087,193.5738 C171.1105,193.5873 171.1115,193.6146 171.1106,193.6282 C171.1098,193.6418 171.1054,193.6687 171.1019,193.6819 C171.1001,193.6886 171.0959,193.7018 171.0935,193.7083 C171.0866,193.7347 171.0679,193.7859 171.056,193.8105 C171.0442,193.8351 171.0158,193.8817 170.9994,193.9035 C170.983,193.9253 170.946,193.9655 170.9257,193.9837 C170.9053,194.0019 170.8612,194.0341 170.8377,194.0479 C170.8142,194.0618 170.7647,194.0848 170.7389,194.0938 C170.7132,194.1028 170.6601,194.1157 170.6331,194.1195 C170.6061,194.1233 170.5515,194.1256 170.5243,194.1241 C170.497,194.1225 170.4431,194.1141 170.4167,194.1073 C170.3902,194.1005 170.339,194.0817 170.3144,194.0699 C170.2898,194.058 170.2432,194.0296 170.2214,194.0132 C170.1996,193.9968 170.1594,193.9599 170.1412,193.9395 C170.123,193.9191 170.0908,193.8751 170.077,193.8516 C170.0631,193.828 170.0401,193.7785 170.0311,193.7528 C170.0273,193.7419 170.0206,193.7197 170.0177,193.7086" style="stroke:#808080;stroke-width:0.13;"/>
            </g>
            <path d="M103.9,191 L106.4,191.4163 L106.4,190.5837 Z" style="stroke:#808080;stroke-width:0.13;fill:#808080;fill-rule:evenodd;"/>
            <path d="M231.1,191 L228.6,190.5837 L228.6,191.4163 Z" style="stroke:#808080;stroke-width:0.13;fill:#808080;fill-rule:evenodd;"/>
        </g>
        <path d="M103.9,191 L231.1,191 M103.9,177.625 L103.9,192.25 M231.1,177.625 L231.1,192.25 " style="stroke:#808080;stroke-width:0.13;"/>
        <!-- Rotated Dimension -->
        <g>
            <g>
                <path d="M238.4306,89.3889 L237.875,89.9444 L240.375,89.9444 M237.875,90.7778 L237.875,91.8889 L240.375,91.1944 M238.9861,91.3333 L238.9861,91.8889 M239.8194,92.7222 C239.8467,92.7222 239.9011,92.7276 239.9278,92.7329 C239.9546,92.7382 240.0068,92.7541 240.032,92.7645 C240.0573,92.775 240.1054,92.8007 240.1281,92.8159 C240.1508,92.831 240.193,92.8656 240.2123,92.8849 C240.2316,92.9042 240.2662,92.9464 240.2814,92.9691 C240.2965,92.9918 240.3223,93.04 240.3327,93.0652 C240.3432,93.0904 240.359,93.1426 240.3643,93.1694 C240.3696,93.1962 240.375,93.2505 240.375,93.2778 C240.375,93.3051 240.3696,93.3594 240.3643,93.3862 C240.359,93.4129 240.3432,93.4652 240.3327,93.4904 C240.3223,93.5156 240.2965,93.5637 240.2814,93.5864 C240.2662,93.6091 240.2316,93.6513 240.2123,93.6706 C240.193,93.6899 240.1508,93.7245 240.1281,93.7397 C240.1054,93.7549 240.0573,93.7806 240.032,93.791 C240.0068,93.8015 239.9546,93.8173 239.9278,93.8227 C239.9011,93.828 239.8467,93.8333 239.8194,93.8333 L239.5417,93.8333 C239.5144,93.8333 239.4601,93.828 239.4333,93.8227 C239.4065,93.8173 239.3543,93.8015 239.3291,93.791 C239.3038,93.7806 239.2557,93.7549 239.233,93.7397 C239.2103,93.7245 239.1681,93.6899 239.1488,93.6706 C239.1295,93.6513 239.0949,93.6091 239.0797,93.5864 C239.0646,93.5637 239.0388,93.5156 239.0284,93.4904 C239.018,93.4652 239.0021,93.4129 238.9968,93.3862 C238.9915,93.3594 238.9861,93.3051 238.9861,93.2778 C238.9861,93.2505 238.9915,93.1962 238.9968,93.1694 C239.0021,93.1426 239.018,93.0904 239.0284,93.0652 C239.0388,93.04 239.0646,92.9918 239.0797,92.9691 C239.0949,92.9464 239.1295,92.9042 239.1488,92.8849 C239.1681,92.8656 239.2103,92.831 239.233,92.8159 C239.2557,92.8007 239.3038,92.775 239.3291,92.7645 C239.3543,92.7541 239.4065,92.7382 239.4333,92.7329 C239.4601,92.7276 239.5144,92.7222 239.5417,92.7222 Z M238.5,92.7917 C238.5239,92.7917 238.5714,92.7963 238.5948,92.801 C238.6183,92.8057 238.664,92.8195 238.686,92.8287 C238.7081,92.8378 238.7502,92.8603 238.7701,92.8736 C238.7899,92.8869 238.8268,92.9172 238.8437,92.934 C238.8606,92.9509 238.8909,92.9879 238.9042,93.0077 C238.9175,93.0276 238.94,93.0697 238.9491,93.0918 C238.9582,93.1138 238.9721,93.1595 238.9768,93.1829 C238.9814,93.2064 238.9861,93.2539 238.9861,93.2778 C238.9861,93.3017 238.9814,93.3492 238.9768,93.3726 C238.9721,93.396 238.9582,93.4417 238.9491,93.4638 C238.94,93.4859 238.9175,93.528 238.9042,93.5478 C238.8909,93.5677 238.8606,93.6046 238.8437,93.6215 C238.8268,93.6384 238.7899,93.6687 238.7701,93.682 C238.7502,93.6952 238.7081,93.7177 238.686,93.7269 C238.664,93.736 238.6183,93.7499 238.5948,93.7545 C238.5714,93.7592 238.5239,93.7639 238.5,93.7639 L238.3611,93.7639 C238.3372,93.7639 238.2897,93.7592 238.2663,93.7545 C238.2429,93.7499 238.1971,93.736 238.1751,93.7269 C238.153,93.7177 238.1109,93.6952 238.091,93.682 C238.0712,93.6687 238.0343,93.6384 238.0174,93.6215 C238.0005,93.6046 237.9702,93.5677 237.9569,93.5478 C237.9437,93.528 237.9211,93.4859 237.912,93.4638 C237.9029,93.4417 237.889,93.396 237.8843,93.3726 C237.8797,93.3492 237.875,93.3017 237.875,93.2778 C237.875,93.2539 237.8797,93.2064 237.8843,93.1829 C237.889,93.1595 237.9029,93.1138 237.912,93.0918 C237.9211,93.0697 237.9437,93.0276 237.9569,93.0077 C237.9702,92.9879 238.0005,92.9509 238.0174,92.934 C238.0343,92.9172 238.0712,92.8869 238.091,92.8736 C238.1109,92.8603 238.153,92.8378 238.1751,92.8287 C238.1971,92.8195 238.2429,92.8057 238.2663,92.801 C238.2897,92.7963 238.3372,92.7917 238.3611,92.7917 Z M240.375,94.6667 L240.2361,94.6667 M240.375,96.6111 L240.375,95.5 L238.5286,96.5736 C238.5168,96.5805 238.492,96.5918 238.4791,96.5962 C238.4662,96.6006 238.4397,96.6069 238.4262,96.6087 C238.4127,96.6105 238.3854,96.6115 238.3718,96.6106 C238.3582,96.6098 238.3313,96.6054 238.3181,96.6019 C238.3114,96.6001 238.2982,96.5959 238.2918,96.5935 C238.2653,96.5866 238.2141,96.5679 238.1895,96.556 C238.1649,96.5442 238.1183,96.5158 238.0965,96.4994 C238.0747,96.483 238.0345,96.446 238.0163,96.4257 C237.9981,96.4053 237.9659,96.3612 237.9521,96.3377 C237.9382,96.3142 237.9152,96.2647 237.9062,96.2389 C237.8972,96.2132 237.8843,96.1601 237.8805,96.1331 C237.8767,96.1061 237.8744,96.0515 237.8759,96.0243 C237.8775,95.997 237.8859,95.9431 237.8927,95.9167 C237.8995,95.8902 237.9183,95.839 237.9301,95.8144 C237.942,95.7898 237.9704,95.7432 237.9868,95.7214 C238.0032,95.6996 238.0401,95.6594 238.0605,95.6412 C238.0809,95.623 238.1249,95.5908 238.1484,95.577 C238.172,95.5631 238.2215,95.5401 238.2472,95.5311 C238.2581,95.5273 238.2803,95.5206 238.2914,95.5177" style="stroke:#808080;stroke-width:0.13;"/>
            </g>
            <path d="M241,3.9 L240.5837,6.4 L241.4163,6.4 Z" style="stroke:#808080;stroke-width:0.13;fill:#808080;fill-rule:evenodd;"/>
            <path d="M241,182.1 L241.4163,179.6 L240.5837,179.6 Z" style="stroke:#808080;stroke-width:0.13;fill:#808080;fill-rule:evenodd;"/>
        </g>
        <path d="M241,3.9 L241,182.1 M226.625,3.9 L242.25,3.9 M226.625,182.1 L242.25,182.1 " style="stroke:#808080;stroke-width:0.13;"/>
        <!-- Rotated Dimension -->
        <g>
            <g>
                <path d="M244.4306,90.7778 L243.875,91.3333 L246.375,91.3333 M245.8195,92.1667 C245.8468,92.1667 245.9011,92.172 245.9279,92.1773 C245.9546,92.1827 246.0069,92.1985 246.0321,92.209 C246.0573,92.2194 246.1054,92.2451 246.1281,92.2603 C246.1508,92.2755 246.193,92.3101 246.2123,92.3294 C246.2316,92.3487 246.2662,92.3909 246.2814,92.4136 C246.2966,92.4363 246.3223,92.4844 246.3327,92.5096 C246.3432,92.5348 246.359,92.5871 246.3644,92.6138 C246.3697,92.6406 246.375,92.6949 246.375,92.7222 C246.375,92.7495 246.3697,92.8038 246.3644,92.8306 C246.359,92.8574 246.3432,92.9096 246.3327,92.9348 C246.3223,92.96 246.2966,93.0082 246.2814,93.0309 C246.2662,93.0536 246.2316,93.0958 246.2123,93.1151 C246.193,93.1344 246.1508,93.169 246.1281,93.1841 C246.1054,93.1993 246.0573,93.225 246.0321,93.2355 C246.0069,93.2459 245.9546,93.2618 245.9279,93.2671 C245.9011,93.2724 245.8468,93.2778 245.8195,93.2778 L245.5417,93.2778 C245.5144,93.2778 245.4601,93.2724 245.4333,93.2671 C245.4065,93.2618 245.3543,93.2459 245.3291,93.2355 C245.3039,93.225 245.2557,93.1993 245.233,93.1841 C245.2104,93.169 245.1682,93.1344 245.1489,93.1151 C245.1296,93.0958 245.0949,93.0536 245.0798,93.0309 C245.0646,93.0082 245.0389,92.96 245.0284,92.9348 C245.018,92.9096 245.0021,92.8574 244.9968,92.8306 C244.9915,92.8038 244.9861,92.7495 244.9861,92.7222 C244.9861,92.6949 244.9915,92.6406 244.9968,92.6138 C245.0021,92.5871 245.018,92.5348 245.0284,92.5096 C245.0389,92.4844 245.0646,92.4363 245.0798,92.4136 C245.0949,92.3909 245.1296,92.3487 245.1489,92.3294 C245.1682,92.3101 245.2104,92.2755 245.233,92.2603 C245.2557,92.2451 245.3039,92.2194 245.3291,92.209 C245.3543,92.1985 245.4065,92.1827 245.4333,92.1773 C245.4601,92.172 245.5144,92.1667 245.5417,92.1667 Z M244.5,92.2361 C244.5239,92.2361 244.5714,92.2408 244.5949,92.2455 C244.6183,92.2501 244.664,92.264 244.6861,92.2731 C244.7081,92.2823 244.7502,92.3048 244.7701,92.318 C244.79,92.3313 244.8269,92.3616 244.8438,92.3785 C244.8606,92.3954 244.8909,92.4323 244.9042,92.4522 C244.9175,92.472 244.94,92.5141 244.9491,92.5362 C244.9583,92.5583 244.9721,92.604 244.9768,92.6274 C244.9815,92.6508 244.9861,92.6983 244.9861,92.7222 C244.9861,92.7461 244.9815,92.7936 244.9768,92.8171 C244.9721,92.8405 244.9583,92.8862 244.9491,92.9082 C244.94,92.9303 244.9175,92.9724 244.9042,92.9923 C244.8909,93.0121 244.8606,93.0491 244.8438,93.066 C244.8269,93.0828 244.79,93.1131 244.7701,93.1264 C244.7502,93.1397 244.7081,93.1622 244.6861,93.1713 C244.664,93.1805 244.6183,93.1943 244.5949,93.199 C244.5714,93.2037 244.5239,93.2083 244.5,93.2083 L244.3611,93.2083 C244.3373,93.2083 244.2897,93.2037 244.2663,93.199 C244.2429,93.1943 244.1972,93.1805 244.1751,93.1713 C244.153,93.1622 244.1109,93.1397 244.0911,93.1264 C244.0712,93.1131 244.0343,93.0828 244.0174,93.066 C244.0005,93.0491 243.9702,93.0121 243.957,92.9923 C243.9437,92.9724 243.9212,92.9303 243.912,92.9082 C243.9029,92.8862 243.889,92.8405 243.8844,92.8171 C243.8797,92.7936 243.875,92.7461 243.875,92.7222 C243.875,92.6983 243.8797,92.6508 243.8844,92.6274 C243.889,92.604 243.9029,92.5583 243.912,92.5362 C243.9212,92.5141 243.9437,92.472 243.957,92.4522 C243.9702,92.4323 244.0005,92.3954 244.0174,92.3785 C244.0343,92.3616 244.0712,92.3313 244.0911,92.318 C244.1109,92.3048 244.153,92.2823 244.1751,92.2731 C244.1972,92.264 244.2429,92.2501 244.2663,92.2455 C244.2897,92.2408 244.3373,92.2361 244.3611,92.2361 Z M243.875,94.9444 C243.9159,94.8735 244.0113,94.7404 244.0653,94.6788 C244.1193,94.6173 244.2389,94.5053 244.3039,94.4555 C244.3688,94.4056 244.5079,94.3192 244.5814,94.2829 C244.6548,94.2467 244.8081,94.1891 244.8872,94.1679 C244.9663,94.1467 245.1279,94.12 245.2096,94.1147 C245.2368,94.1129 245.2912,94.1111 245.3184,94.1111 L245.8195,94.1111 C245.8468,94.1111 245.9011,94.1165 245.9279,94.1218 C245.9546,94.1271 246.0069,94.143 246.0321,94.1534 C246.0573,94.1638 246.1054,94.1896 246.1281,94.2047 C246.1508,94.2199 246.193,94.2545 246.2123,94.2738 C246.2316,94.2931 246.2662,94.3353 246.2814,94.358 C246.2966,94.3807 246.3223,94.4288 246.3327,94.4541 C246.3432,94.4793 246.359,94.5315 246.3644,94.5583 C246.3697,94.5851 246.375,94.6394 246.375,94.6667 C246.375,94.694 246.3697,94.7483 246.3644,94.7751 C246.359,94.8018 246.3432,94.8541 246.3327,94.8793 C246.3223,94.9045 246.2966,94.9526 246.2814,94.9753 C246.2662,94.998 246.2316,95.0402 246.2123,95.0595 C246.193,95.0788 246.1508,95.1134 246.1281,95.1286 C246.1054,95.1438 246.0573,95.1695 246.0321,95.1799 C246.0069,95.1904 245.9546,95.2062 245.9279,95.2115 C245.9011,95.2169 245.8468,95.2222 245.8195,95.2222 L245.5417,95.2222 C245.5144,95.2222 245.4601,95.2169 245.4333,95.2115 C245.4065,95.2062 245.3543,95.1904 245.3291,95.1799 C245.3039,95.1695 245.2557,95.1437 245.233,95.1286 C245.2103,95.1134 245.1682,95.0788 245.1489,95.0595 C245.1296,95.0402 245.0949,94.998 245.0798,94.9753 C245.0646,94.9526 245.0389,94.9045 245.0284,94.8792 C245.018,94.854 245.0021,94.8018 244.9968,94.775 C244.9915,94.7483 244.9861,94.694 244.9861,94.6667 L244.9861,94.1446" style="stroke:#808080;stroke-width:0.13;"/>
            </g>
            <path d="M247,186 L247.4163,183.5 L246.5837,183.5 Z" style="stroke:#808080;stroke-width:0.13;fill:#808080;fill-rule:evenodd;"/>
            <path d="M247,0 L246.5837,2.5 L247.4163,2.5 Z" style="stroke:#808080;stroke-width:0.13;fill:#808080;fill-rule:evenodd;"/>
        </g>
        <path d="M247,186 L247,0 M226.625,186 L248.25,186 M226.625,0 L248.25,0 " style="stroke:#808080;stroke-width:0.13;"/>
        <!-- Aligned Dimension -->
        <g>
            <g>
                <path d="M165.2778,199.5694 L165.8333,200.125 L165.8333,197.625 M166.6667,200.125 L167.2222,200.125 C167.2495,200.125 167.3038,200.1196 167.3306,200.1143 C167.3574,200.109 167.4096,200.0932 167.4348,200.0827 C167.46,200.0723 167.5082,200.0465 167.5309,200.0314 C167.5536,200.0162 167.5958,199.9816 167.6151,199.9623 C167.6344,199.943 167.669,199.9008 167.6841,199.8781 C167.6993,199.8554 167.725,199.8073 167.7355,199.782 C167.7459,199.7568 167.7618,199.7046 167.7671,199.6778 C167.7724,199.6511 167.7778,199.5967 167.7778,199.5694 C167.7778,199.5422 167.7724,199.4878 167.7671,199.4611 C167.7618,199.4343 167.7459,199.3821 167.7355,199.3568 C167.725,199.3316 167.6993,199.2835 167.6841,199.2608 C167.669,199.2381 167.6344,199.1959 167.6151,199.1766 C167.5958,199.1573 167.5536,199.1227 167.5309,199.1075 C167.5082,199.0924 167.46,199.0666 167.4348,199.0562 C167.4096,199.0457 167.3574,199.0299 167.3306,199.0246 C167.3038,199.0192 167.2495,199.0139 167.2222,199.0139 C167.2495,199.0139 167.3038,199.0085 167.3306,199.0032 C167.3574,198.9979 167.4096,198.982 167.4348,198.9716 C167.46,198.9612 167.5082,198.9354 167.5309,198.9203 C167.5535,198.9051 167.5957,198.8705 167.615,198.8512 C167.6343,198.8319 167.669,198.7897 167.6841,198.767 C167.6993,198.7443 167.725,198.6962 167.7355,198.6709 C167.7459,198.6457 167.7618,198.5935 167.7671,198.5667 C167.7724,198.54 167.7778,198.4856 167.7778,198.4583 L167.7778,198.1806 C167.7778,198.1533 167.7724,198.099 167.7671,198.0722 C167.7618,198.0454 167.7459,197.9932 167.7355,197.968 C167.725,197.9428 167.6993,197.8946 167.6842,197.8719 C167.669,197.8492 167.6344,197.807 167.6151,197.7877 C167.5958,197.7684 167.5536,197.7338 167.5309,197.7186 C167.5082,197.7035 167.46,197.6777 167.4348,197.6673 C167.4096,197.6568 167.3574,197.641 167.3306,197.6357 C167.3038,197.6304 167.2495,197.625 167.2222,197.625 L166.6667,197.625 M167.2222,199.0139 L166.9444,199.0139 M169.7222,200.125 L168.6111,200.125 L168.6111,199.0139 L169.1667,199.0139 C169.194,199.0139 169.2483,199.0085 169.275,199.0032 C169.3018,198.9979 169.354,198.982 169.3792,198.9716 C169.4045,198.9612 169.4526,198.9354 169.4753,198.9203 C169.498,198.9051 169.5402,198.8705 169.5595,198.8512 C169.5788,198.8319 169.6134,198.7897 169.6286,198.767 C169.6437,198.7443 169.6695,198.6962 169.6799,198.6709 C169.6904,198.6457 169.7062,198.5935 169.7115,198.5667 C169.7169,198.54 169.7222,198.4856 169.7222,198.4583 L169.7222,198.1806 C169.7222,198.1533 169.7169,198.099 169.7115,198.0722 C169.7062,198.0454 169.6904,197.9932 169.6799,197.968 C169.6695,197.9428 169.6438,197.8946 169.6286,197.8719 C169.6134,197.8492 169.5788,197.807 169.5595,197.7877 C169.5402,197.7684 169.498,197.7338 169.4753,197.7186 C169.4526,197.7035 169.4045,197.6777 169.3793,197.6673 C169.3541,197.6568 169.3018,197.641 169.2751,197.6357 C169.2483,197.6304 169.194,197.625 169.1667,197.625 L168.6111,197.625" style="stroke:#808080;stroke-width:0.13;"/>
            </g>
            <path d="M100,197 L102.5,197.4163 L102.5,196.5837 Z" style="stroke:#808080;stroke-width:0.13;fill:#808080;fill-rule:evenodd;"/>
            <path d="M235,197 L232.5,196.5837 L232.5,197.4163 Z" style="stroke:#808080;stroke-width:0.13;fill:#808080;fill-rule:evenodd;"/>
        </g>
        <path d="M100,177.625 L100,198.25 M235,177.625 L235,198.25 M100,197 L235,197 " style="stroke:#808080;stroke-width:0.13;"/>
        <!-- Rotated Dimension -->
        <g>
            <g>
                <path d="M104.2222,-5.375 C104.2931,-5.3341 104.4263,-5.2387 104.4878,-5.1847 C104.5494,-5.1307 104.6613,-5.0111 104.7112,-4.9461 C104.761,-4.8812 104.8475,-4.7421 104.8837,-4.6686 C104.9199,-4.5952 104.9776,-4.4419 104.9988,-4.3628 C105.02,-4.2837 105.0466,-4.1221 105.052,-4.0404 C105.0538,-4.0132 105.0556,-3.9588 105.0556,-3.9316 L105.0556,-3.4305 C105.0556,-3.4032 105.0502,-3.3489 105.0449,-3.3221 C105.0396,-3.2954 105.0237,-3.2431 105.0133,-3.2179 C105.0028,-3.1927 104.9771,-3.1446 104.9619,-3.1219 C104.9468,-3.0992 104.9121,-3.057 104.8928,-3.0377 C104.8735,-3.0184 104.8313,-2.9838 104.8087,-2.9686 C104.786,-2.9534 104.7378,-2.9277 104.7126,-2.9173 C104.6874,-2.9068 104.6352,-2.891 104.6084,-2.8856 C104.5816,-2.8803 104.5273,-2.875 104.5,-2.875 C104.4727,-2.875 104.4184,-2.8803 104.3916,-2.8856 C104.3648,-2.891 104.3126,-2.9068 104.2874,-2.9173 C104.2622,-2.9277 104.214,-2.9534 104.1913,-2.9686 C104.1687,-2.9838 104.1265,-3.0184 104.1072,-3.0377 C104.0879,-3.057 104.0532,-3.0992 104.0381,-3.1219 C104.0229,-3.1446 103.9972,-3.1927 103.9867,-3.2179 C103.9763,-3.2431 103.9604,-3.2954 103.9551,-3.3221 C103.9498,-3.3489 103.9444,-3.4032 103.9444,-3.4305 L103.9444,-3.7083 C103.9444,-3.7356 103.9498,-3.7899 103.9551,-3.8167 C103.9604,-3.8435 103.9763,-3.8957 103.9867,-3.9209 C103.9972,-3.9461 104.0229,-3.9943 104.0381,-4.017 C104.0532,-4.0397 104.0879,-4.0818 104.1072,-4.1011 C104.1265,-4.1204 104.1687,-4.1551 104.1914,-4.1702 C104.2141,-4.1854 104.2622,-4.2111 104.2874,-4.2216 C104.3126,-4.232 104.3649,-4.2479 104.3916,-4.2532 C104.4184,-4.2585 104.4727,-4.2639 104.5,-4.2639 L105.0222,-4.2639" style="stroke:#808080;stroke-width:0.13;"/>
            </g>
            <path d="M100,-6 L102.5,-5.5837 L102.5,-6.4163 Z" style="stroke:#808080;stroke-width:0.13;fill:#808080;fill-rule:evenodd;"/>
            <path d="M109,-6 L106.5,-6.4163 L106.5,-5.5837 Z" style="stroke:#808080;stroke-width:0.13;fill:#808080;fill-rule:evenodd;"/>
        </g>
        <path d="M100,-6 L109,-6 M100,8.375 L100,-7.25 M109,-0.625 L109,-7.25 " style="stroke:#808080;stroke-width:0.13;"/>
        <!-- Rotated Dimension -->
        <g>
            <g>
                <path d="M93.375,4.2222 C93.3341,4.2931 93.2387,4.4263 93.1847,4.4878 C93.1307,4.5494 93.0111,4.6613 92.9461,4.7112 C92.8812,4.761 92.7421,4.8475 92.6686,4.8837 C92.5952,4.9199 92.4419,4.9776 92.3628,4.9988 C92.2837,5.02 92.1221,5.0466 92.0404,5.052 C92.0132,5.0538 91.9588,5.0556 91.9316,5.0556 L91.4305,5.0556 C91.4032,5.0556 91.3489,5.0502 91.3221,5.0449 C91.2954,5.0396 91.2431,5.0237 91.2179,5.0133 C91.1927,5.0028 91.1446,4.9771 91.1219,4.9619 C91.0992,4.9468 91.057,4.9121 91.0377,4.8928 C91.0184,4.8735 90.9838,4.8313 90.9686,4.8087 C90.9534,4.786 90.9277,4.7378 90.9173,4.7126 C90.9068,4.6874 90.891,4.6352 90.8856,4.6084 C90.8803,4.5816 90.875,4.5273 90.875,4.5 C90.875,4.4727 90.8803,4.4184 90.8856,4.3916 C90.891,4.3648 90.9068,4.3126 90.9173,4.2874 C90.9277,4.2622 90.9534,4.214 90.9686,4.1913 C90.9838,4.1687 91.0184,4.1265 91.0377,4.1072 C91.057,4.0879 91.0992,4.0532 91.1219,4.0381 C91.1446,4.0229 91.1927,3.9972 91.2179,3.9867 C91.2431,3.9763 91.2954,3.9604 91.3221,3.9551 C91.3489,3.9498 91.4032,3.9444 91.4305,3.9444 L91.7083,3.9444 C91.7356,3.9444 91.7899,3.9498 91.8167,3.9551 C91.8435,3.9604 91.8957,3.9763 91.9209,3.9867 C91.9461,3.9972 91.9943,4.0229 92.017,4.0381 C92.0397,4.0532 92.0818,4.0879 92.1011,4.1072 C92.1204,4.1265 92.1551,4.1687 92.1702,4.1914 C92.1854,4.2141 92.2111,4.2622 92.2216,4.2874 C92.232,4.3126 92.2479,4.3649 92.2532,4.3916 C92.2585,4.4184 92.2639,4.4727 92.2639,4.5 L92.2639,5.0222" style="stroke:#808080;stroke-width:0.13;"/>
            </g>
            <path d="M94,9 L94.4163,6.5 L93.5837,6.5 Z" style="stroke:#808080;stroke-width:0.13;fill:#808080;fill-rule:evenodd;"/>
            <path d="M94,0 L93.5837,2.5 L94.4163,2.5 Z" style="stroke:#808080;stroke-width:0.13;fill:#808080;fill-rule:evenodd;"/>
        </g>
        <path d="M94,9 L94,0 M99.375,9 L92.75,9 M108.375,0 L92.75,0 " style="stroke:#808080;stroke-width:0.13;"/>
        <!-- Rotated Dimension -->
        <g>
            <g>
                <path d="M105.8944,173.125 L104.7833,173.125 L104.7833,172.0139 L105.3389,172.0139 C105.3662,172.0139 105.4205,172.0085 105.4472,172.0032 C105.474,171.9979 105.5263,171.982 105.5515,171.9716 C105.5767,171.9612 105.6248,171.9354 105.6475,171.9203 C105.6702,171.9051 105.7124,171.8705 105.7317,171.8512 C105.751,171.8319 105.7856,171.7897 105.8008,171.767 C105.816,171.7443 105.8417,171.6962 105.8521,171.6709 C105.8626,171.6457 105.8784,171.5935 105.8838,171.5667 C105.8891,171.54 105.8944,171.4856 105.8944,171.4583 L105.8944,171.1806 C105.8944,171.1533 105.8891,171.099 105.8838,171.0722 C105.8784,171.0454 105.8626,170.9932 105.8522,170.968 C105.8417,170.9428 105.816,170.8946 105.8008,170.8719 C105.7857,170.8492 105.751,170.807 105.7317,170.7877 C105.7124,170.7684 105.6702,170.7338 105.6475,170.7186 C105.6249,170.7035 105.5767,170.6777 105.5515,170.6673 C105.5263,170.6568 105.474,170.641 105.4473,170.6357 C105.4205,170.6304 105.3662,170.625 105.3389,170.625 L104.7833,170.625 M106.7278,170.625 L106.7278,170.7639 M107.5611,172.5694 L108.1167,173.125 L108.1167,170.625" style="stroke:#808080;stroke-width:0.13;"/>
            </g>
            <path d="M109,170 L111.5,170.4163 L111.5,169.5837 Z" style="stroke:#808080;stroke-width:0.13;fill:#808080;fill-rule:evenodd;"/>
            <path d="M103.9,170 L101.4,169.5837 L101.4,170.4163 Z" style="stroke:#808080;stroke-width:0.13;fill:#808080;fill-rule:evenodd;"/>
        </g>
        <path d="M114,170 L98.9,170 M109,181.475 L109,168.75 M103.9,176.375 L103.9,168.75 " style="stroke:#808080;stroke-width:0.13;"/>
        <!-- Rotated Dimension -->
        <g>
            <g>
                <path d="M90.875,178.9944 L90.875,177.8833 L91.9861,177.8833 L91.9861,178.4389 C91.9861,178.4662 91.9915,178.5205 91.9968,178.5472 C92.0021,178.574 92.018,178.6263 92.0284,178.6515 C92.0388,178.6767 92.0646,178.7248 92.0797,178.7475 C92.0949,178.7702 92.1295,178.8124 92.1488,178.8317 C92.1681,178.851 92.2103,178.8856 92.233,178.9008 C92.2557,178.916 92.3038,178.9417 92.3291,178.9521 C92.3543,178.9626 92.4065,178.9784 92.4333,178.9838 C92.46,178.9891 92.5144,178.9944 92.5417,178.9944 L92.8194,178.9944 C92.8467,178.9944 92.901,178.9891 92.9278,178.9838 C92.9546,178.9784 93.0068,178.9626 93.032,178.9522 C93.0572,178.9417 93.1054,178.916 93.1281,178.9008 C93.1508,178.8857 93.193,178.851 93.2123,178.8317 C93.2316,178.8124 93.2662,178.7702 93.2814,178.7475 C93.2965,178.7249 93.3223,178.6767 93.3327,178.6515 C93.3432,178.6263 93.359,178.574 93.3643,178.5473 C93.3696,178.5205 93.375,178.4662 93.375,178.4389 L93.375,177.8833 M93.375,179.8278 L93.2361,179.8278 M91.4306,180.6611 L90.875,181.2167 L93.375,181.2167" style="stroke:#808080;stroke-width:0.13;"/>
            </g>
            <path d="M94,182.1 L93.5837,184.6 L94.4163,184.6 Z" style="stroke:#808080;stroke-width:0.13;fill:#808080;fill-rule:evenodd;"/>
            <path d="M94,177 L94.4163,174.5 L93.5837,174.5 Z" style="stroke:#808080;stroke-width:0.13;fill:#808080;fill-rule:evenodd;"/>
        </g>
        <path d="M94,187.1 L94,172 M108.375,182.1 L92.75,182.1 M103.275,177 L92.75,177 " style="stroke:#808080;stroke-width:0.13;"/>
        <!-- Aligned Dimension -->
        <g>
            <g>
                <path d="M249.875,-4.5139 L249.875,-3.9583 C249.875,-3.931 249.8803,-3.8767 249.8856,-3.8499 C249.891,-3.8232 249.9068,-3.7709 249.9173,-3.7457 C249.9277,-3.7205 249.9534,-3.6724 249.9686,-3.6497 C249.9838,-3.627 250.0184,-3.5848 250.0377,-3.5655 C250.057,-3.5462 250.0992,-3.5116 250.1219,-3.4964 C250.1446,-3.4812 250.1927,-3.4555 250.2179,-3.4451 C250.2431,-3.4346 250.2954,-3.4188 250.3221,-3.4135 C250.3489,-3.4081 250.4032,-3.4028 250.4305,-3.4028 C250.4578,-3.4028 250.5121,-3.4081 250.5389,-3.4135 C250.5657,-3.4188 250.6179,-3.4346 250.6431,-3.4451 C250.6683,-3.4555 250.7165,-3.4812 250.7392,-3.4964 C250.7619,-3.5116 250.8041,-3.5462 250.8234,-3.5655 C250.8427,-3.5848 250.8773,-3.627 250.8925,-3.6497 C250.9076,-3.6724 250.9333,-3.7205 250.9438,-3.7457 C250.9542,-3.7709 250.9701,-3.8232 250.9754,-3.8499 C250.9807,-3.8767 250.9861,-3.931 250.9861,-3.9583 C250.9861,-3.931 250.9914,-3.8767 250.9968,-3.85 C251.0021,-3.8232 251.0179,-3.771 251.0284,-3.7458 C251.0388,-3.7205 251.0645,-3.6724 251.0797,-3.6497 C251.0949,-3.627 251.1295,-3.5848 251.1488,-3.5655 C251.1681,-3.5462 251.2103,-3.5116 251.233,-3.4964 C251.2557,-3.4813 251.3038,-3.4555 251.329,-3.4451 C251.3542,-3.4346 251.4065,-3.4188 251.4333,-3.4135 C251.46,-3.4081 251.5143,-3.4028 251.5416,-3.4028 L251.8194,-3.4028 C251.8467,-3.4028 251.901,-3.4081 251.9278,-3.4135 C251.9545,-3.4188 252.0068,-3.4346 252.032,-3.4451 C252.0572,-3.4555 252.1054,-3.4812 252.1281,-3.4964 C252.1507,-3.5116 252.1929,-3.5462 252.2122,-3.5655 C252.2315,-3.5848 252.2662,-3.627 252.2813,-3.6497 C252.2965,-3.6724 252.3222,-3.7205 252.3327,-3.7457 C252.3431,-3.7709 252.359,-3.8232 252.3643,-3.8499 C252.3696,-3.8767 252.375,-3.931 252.375,-3.9583 L252.375,-4.5139 M250.9861,-3.9583 L250.9861,-4.2361 M252.375,-2.5694 L252.2361,-2.5694 M252.375,-1.4583 C252.3341,-1.3874 252.2387,-1.2543 252.1847,-1.1927 C252.1307,-1.1312 252.0111,-1.0192 251.9461,-0.9694 C251.8812,-0.9195 251.7421,-0.833 251.6686,-0.7968 C251.5952,-0.7606 251.4419,-0.7029 251.3628,-0.6818 C251.2837,-0.6606 251.1221,-0.6339 251.0404,-0.6286 C251.0132,-0.6268 250.9588,-0.625 250.9316,-0.625 L250.4305,-0.625 C250.4032,-0.625 250.3489,-0.6304 250.3221,-0.6357 C250.2954,-0.641 250.2431,-0.6568 250.2179,-0.6673 C250.1927,-0.6777 250.1446,-0.7035 250.1219,-0.7186 C250.0992,-0.7338 250.057,-0.7684 250.0377,-0.7877 C250.0184,-0.807 249.9838,-0.8492 249.9686,-0.8719 C249.9534,-0.8946 249.9277,-0.9427 249.9173,-0.968 C249.9068,-0.9932 249.891,-1.0454 249.8856,-1.0722 C249.8803,-1.0989 249.875,-1.1533 249.875,-1.1806 C249.875,-1.2078 249.8803,-1.2622 249.8856,-1.2889 C249.891,-1.3157 249.9068,-1.3679 249.9173,-1.3932 C249.9277,-1.4184 249.9534,-1.4665 249.9686,-1.4892 C249.9838,-1.5119 250.0184,-1.5541 250.0377,-1.5734 C250.057,-1.5927 250.0992,-1.6273 250.1219,-1.6425 C250.1446,-1.6576 250.1927,-1.6834 250.2179,-1.6938 C250.2431,-1.7043 250.2954,-1.7201 250.3221,-1.7254 C250.3489,-1.7308 250.4032,-1.7361 250.4305,-1.7361 L250.7083,-1.7361 C250.7356,-1.7361 250.7899,-1.7308 250.8167,-1.7254 C250.8435,-1.7201 250.8957,-1.7043 250.9209,-1.6938 C250.9461,-1.6834 250.9943,-1.6576 251.017,-1.6425 C251.0397,-1.6273 251.0818,-1.5927 251.1011,-1.5734 C251.1204,-1.5541 251.1551,-1.5119 251.1702,-1.4892 C251.1854,-1.4665 251.2111,-1.4184 251.2216,-1.3931 C251.232,-1.3679 251.2479,-1.3157 251.2532,-1.2889 C251.2585,-1.2622 251.2639,-1.2078 251.2639,-1.1806 L251.2639,-0.6583" style="stroke:#808080;stroke-width:0.13;"/>
            </g>
            <path d="M253,3.9 L252.5837,6.4 L253.4163,6.4 Z" style="stroke:#808080;stroke-width:0.13;fill:#808080;fill-rule:evenodd;"/>
            <path d="M253,0 L253.4163,-2.5 L252.5837,-2.5 Z" style="stroke:#808080;stroke-width:0.13;fill:#808080;fill-rule:evenodd;"/>
        </g>
        <path d="M226.625,3.9 L254.25,3.9 M226.625,0 L254.25,0 M253,8.9 L253,-5 " style="stroke:#808080;stroke-width:0.13;"/>
        <!-- Aligned Dimension -->
        <g>
            <g>
                <path d="M235.625,-2.875 L236.1806,-2.875 C236.2078,-2.875 236.2622,-2.8803 236.2889,-2.8856 C236.3157,-2.891 236.3679,-2.9068 236.3932,-2.9173 C236.4184,-2.9277 236.4665,-2.9534 236.4892,-2.9686 C236.5119,-2.9838 236.5541,-3.0184 236.5734,-3.0377 C236.5927,-3.057 236.6273,-3.0992 236.6425,-3.1219 C236.6576,-3.1446 236.6834,-3.1927 236.6938,-3.2179 C236.7043,-3.2431 236.7201,-3.2954 236.7254,-3.3221 C236.7308,-3.3489 236.7361,-3.4032 236.7361,-3.4305 C236.7361,-3.4578 236.7308,-3.5121 236.7254,-3.5389 C236.7201,-3.5657 236.7043,-3.6179 236.6938,-3.6431 C236.6834,-3.6683 236.6576,-3.7165 236.6425,-3.7392 C236.6273,-3.7619 236.5927,-3.8041 236.5734,-3.8234 C236.5541,-3.8427 236.5119,-3.8773 236.4892,-3.8925 C236.4665,-3.9076 236.4184,-3.9333 236.3932,-3.9438 C236.3679,-3.9542 236.3157,-3.9701 236.2889,-3.9754 C236.2622,-3.9807 236.2078,-3.9861 236.1806,-3.9861 C236.2078,-3.9861 236.2622,-3.9914 236.2889,-3.9968 C236.3157,-4.0021 236.3679,-4.0179 236.3931,-4.0284 C236.4184,-4.0388 236.4665,-4.0645 236.4892,-4.0797 C236.5119,-4.0949 236.5541,-4.1295 236.5734,-4.1488 C236.5927,-4.1681 236.6273,-4.2103 236.6425,-4.233 C236.6576,-4.2557 236.6834,-4.3038 236.6938,-4.329 C236.7043,-4.3542 236.7201,-4.4065 236.7254,-4.4333 C236.7308,-4.46 236.7361,-4.5143 236.7361,-4.5416 L236.7361,-4.8194 C236.7361,-4.8467 236.7308,-4.901 236.7254,-4.9278 C236.7201,-4.9545 236.7043,-5.0068 236.6938,-5.032 C236.6834,-5.0572 236.6577,-5.1054 236.6425,-5.1281 C236.6273,-5.1507 236.5927,-5.1929 236.5734,-5.2122 C236.5541,-5.2315 236.5119,-5.2662 236.4892,-5.2813 C236.4665,-5.2965 236.4184,-5.3222 236.3932,-5.3327 C236.3679,-5.3431 236.3157,-5.359 236.2889,-5.3643 C236.2622,-5.3696 236.2078,-5.375 236.1806,-5.375 L235.625,-5.375 M236.1806,-3.9861 L235.9028,-3.9861 M237.5694,-5.375 L237.5694,-5.2361 M238.6806,-5.375 C238.7515,-5.3341 238.8846,-5.2387 238.9462,-5.1847 C239.0077,-5.1307 239.1197,-5.0111 239.1695,-4.9461 C239.2194,-4.8812 239.3058,-4.7421 239.3421,-4.6686 C239.3783,-4.5952 239.4359,-4.4419 239.4571,-4.3628 C239.4783,-4.2837 239.505,-4.1221 239.5103,-4.0404 C239.5121,-4.0132 239.5139,-3.9588 239.5139,-3.9316 L239.5139,-3.4305 C239.5139,-3.4032 239.5085,-3.3489 239.5032,-3.3221 C239.4979,-3.2954 239.482,-3.2431 239.4716,-3.2179 C239.4612,-3.1927 239.4354,-3.1446 239.4203,-3.1219 C239.4051,-3.0992 239.3705,-3.057 239.3512,-3.0377 C239.3319,-3.0184 239.2897,-2.9838 239.267,-2.9686 C239.2443,-2.9534 239.1962,-2.9277 239.1709,-2.9173 C239.1457,-2.9068 239.0935,-2.891 239.0667,-2.8856 C239.0399,-2.8803 238.9856,-2.875 238.9583,-2.875 C238.931,-2.875 238.8767,-2.8803 238.8499,-2.8856 C238.8232,-2.891 238.7709,-2.9068 238.7457,-2.9173 C238.7205,-2.9277 238.6724,-2.9534 238.6497,-2.9686 C238.627,-2.9838 238.5848,-3.0184 238.5655,-3.0377 C238.5462,-3.057 238.5116,-3.0992 238.4964,-3.1219 C238.4812,-3.1446 238.4555,-3.1927 238.4451,-3.2179 C238.4346,-3.2431 238.4188,-3.2954 238.4135,-3.3221 C238.4081,-3.3489 238.4028,-3.4032 238.4028,-3.4305 L238.4028,-3.7083 C238.4028,-3.7356 238.4081,-3.7899 238.4135,-3.8167 C238.4188,-3.8435 238.4346,-3.8957 238.4451,-3.9209 C238.4555,-3.9461 238.4813,-3.9943 238.4964,-4.017 C238.5116,-4.0397 238.5462,-4.0818 238.5655,-4.1011 C238.5848,-4.1204 238.627,-4.1551 238.6497,-4.1702 C238.6724,-4.1854 238.7205,-4.2111 238.7458,-4.2216 C238.771,-4.232 238.8232,-4.2479 238.85,-4.2532 C238.8767,-4.2585 238.931,-4.2639 238.9583,-4.2639 L239.4806,-4.2639" style="stroke:#808080;stroke-width:0.13;"/>
            </g>
            <path d="M231.1,-6 L228.6,-6.4163 L228.6,-5.5837 Z" style="stroke:#808080;stroke-width:0.13;fill:#808080;fill-rule:evenodd;"/>
            <path d="M235,-6 L237.5,-5.5837 L237.5,-6.4163 Z" style="stroke:#808080;stroke-width:0.13;fill:#808080;fill-rule:evenodd;"/>
        </g>
        <path d="M231.1,8.375 L231.1,-7.25 M235,8.375 L235,-7.25 M226.1,-6 L240,-6 " style="stroke:#808080;stroke-width:0.13;"/>
        <!-- Line -->
        <path d="M270,-30 L-90,-30 " style="stroke:#808080;stroke-width:0.13;"/>
        <!-- Line -->
        <path d="M-90,-30 L-90,210 " style="stroke:#808080;stroke-width:0.13;"/>
        <!-- Line -->
        <path d="M-90,210 L270,210 " style="stroke:#808080;stroke-width:0.13;"/>
        <!-- Line -->
        <path d="M270,210 L270,-30 " style="stroke:#808080;stroke-width:0.13;"/>
    </g>
</svg>
