<?xml version="1.0" encoding="UTF-8"?>
<!-- Sun Feb 1 19:59:23 2026 Generated by QCAD 3.32.6 SVG Exporter -->
<svg width="240mm" height="150mm" viewBox="-60 -120 240 150" version="1.1" xmlns="http://www.w3.org/2000/svg" style="stroke-linecap:round;stroke-linejoin:round;fill:none">
    <g transform="scale(1,-1)">
        <!-- Text: Front -->
        <g>
            <path d="M-6.2709,-21.9673 L-6.2709,-17.9673 L-3.5724,-17.9673 L-3.5724,-18.4393 L-5.7416,-18.4393 L-5.7416,-19.678 L-3.8643,-19.678 L-3.8643,-20.1501 L-5.7416,-20.1501 L-5.7416,-21.9673 Z M-2.9533,-21.9673 L-2.9533,-19.0696 L-2.5113,-19.0696 L-2.5113,-19.5089 C-2.3985,-19.3033 -2.2944,-19.1678 -2.1989,-19.1023 C-2.1034,-19.0368 -1.9984,-19.0041 -1.8838,-19.0041 C-1.7182,-19.0041 -1.55,-19.0568 -1.379,-19.1623 L-1.5482,-19.618 C-1.6682,-19.5471 -1.7883,-19.5116 -1.9083,-19.5116 C-2.0156,-19.5116 -2.1121,-19.5439 -2.1975,-19.6085 C-2.283,-19.673 -2.344,-19.7626 -2.3804,-19.8772 C-2.4349,-20.0518 -2.4622,-20.2428 -2.4622,-20.4502 L-2.4622,-21.9673 Z M-1.2701,-20.5184 C-1.2701,-19.9818 -1.1209,-19.5844 -0.8226,-19.3261 C-0.5734,-19.1114 -0.2696,-19.0041 0.0887,-19.0041 C0.4871,-19.0041 0.8127,-19.1346 1.0655,-19.3956 C1.3184,-19.6567 1.4448,-20.0173 1.4448,-20.4775 C1.4448,-20.8504 1.3889,-21.1437 1.277,-21.3574 C1.1651,-21.5712 1.0023,-21.7372 0.7886,-21.8554 C0.5749,-21.9736 0.3416,-22.0327 0.0887,-22.0327 C-0.3169,-22.0327 -0.6448,-21.9027 -0.8949,-21.6426 C-1.145,-21.3824 -1.2701,-21.0077 -1.2701,-20.5184 M-0.7653,-20.5184 C-0.7653,-20.8895 -0.6843,-21.1673 -0.5225,-21.352 C-0.3606,-21.5366 -0.1568,-21.6289 0.0887,-21.6289 C0.3325,-21.6289 0.5353,-21.5362 0.6972,-21.3506 C0.8591,-21.1651 0.94,-20.8822 0.94,-20.502 C0.94,-20.1437 0.8586,-19.8722 0.6958,-19.6876 C0.533,-19.503 0.3307,-19.4106 0.0887,-19.4106 C-0.1568,-19.4106 -0.3606,-19.5025 -0.5225,-19.6862 C-0.6843,-19.8699 -0.7653,-20.1473 -0.7653,-20.5184 M2.0202,-21.9673 L2.0202,-19.0696 L2.4622,-19.0696 L2.4622,-19.4816 C2.675,-19.1633 2.9824,-19.0041 3.3844,-19.0041 C3.5591,-19.0041 3.7196,-19.0355 3.866,-19.0982 C4.0125,-19.161 4.1221,-19.2433 4.1948,-19.3452 C4.2676,-19.447 4.3185,-19.568 4.3476,-19.708 C4.3658,-19.799 4.3749,-19.9582 4.3749,-20.1855 L4.3749,-21.9673 L3.8838,-21.9673 L3.8838,-20.2046 C3.8838,-20.0045 3.8647,-19.8549 3.8265,-19.7558 C3.7883,-19.6567 3.7205,-19.5775 3.6232,-19.5184 C3.5259,-19.4593 3.4117,-19.4297 3.2808,-19.4297 C3.0716,-19.4297 2.891,-19.4961 2.7392,-19.6289 C2.5873,-19.7617 2.5113,-20.0136 2.5113,-20.3847 L2.5113,-21.9673 Z M6.1999,-21.528 L6.2709,-21.9618 C6.1326,-21.9909 6.0089,-22.0055 5.8998,-22.0055 C5.7215,-22.0055 5.5833,-21.9773 5.4851,-21.9209 C5.3868,-21.8645 5.3177,-21.7904 5.2777,-21.6985 C5.2377,-21.6066 5.2177,-21.4134 5.2177,-21.1187 L5.2177,-19.4516 L4.8575,-19.4516 L4.8575,-19.0696 L5.2177,-19.0696 L5.2177,-18.352 L5.7061,-18.0573 L5.7061,-19.0696 L6.1999,-19.0696 L6.1999,-19.4516 L5.7061,-19.4516 L5.7061,-21.146 C5.7061,-21.286 5.7147,-21.3761 5.732,-21.4161 C5.7493,-21.4561 5.7775,-21.4879 5.8166,-21.5116 C5.8557,-21.5352 5.9116,-21.5471 5.9844,-21.5471 C6.039,-21.5471 6.1108,-21.5407 6.1999,-21.528" style="fill:#000000;fill-rule:nonzero;"/>
        </g>
        <!-- Text: Side -->
        <g>
            <path d="M124.6503,-20.7149 L125.1496,-20.6712 C125.1732,-20.8713 125.2282,-21.0355 125.3147,-21.1637 C125.4011,-21.292 125.5352,-21.3956 125.7171,-21.4748 C125.899,-21.5539 126.1036,-21.5935 126.331,-21.5935 C126.5329,-21.5935 126.7112,-21.5634 126.8658,-21.5034 C127.0204,-21.4434 127.1355,-21.3611 127.211,-21.2565 C127.2865,-21.1519 127.3242,-21.0377 127.3242,-20.9141 C127.3242,-20.7885 127.2878,-20.6789 127.2151,-20.5853 C127.1423,-20.4916 127.0222,-20.4129 126.8549,-20.3492 C126.7476,-20.3074 126.5102,-20.2424 126.1428,-20.1542 C125.7753,-20.0659 125.5179,-19.9827 125.3706,-19.9045 C125.1796,-19.8045 125.0373,-19.6803 124.9436,-19.5321 C124.8499,-19.3838 124.8031,-19.2178 124.8031,-19.0341 C124.8031,-18.8322 124.8604,-18.6435 124.975,-18.4679 C125.0895,-18.2924 125.2569,-18.1592 125.477,-18.0682 C125.6971,-17.9773 125.9418,-17.9318 126.211,-17.9318 C126.5075,-17.9318 126.7689,-17.9795 126.9954,-18.075 C127.2219,-18.1705 127.3961,-18.3111 127.5179,-18.4966 C127.6398,-18.6821 127.7053,-18.8922 127.7144,-19.1269 L127.2069,-19.1651 C127.1796,-18.9122 127.0873,-18.7212 126.9299,-18.5921 C126.7726,-18.4629 126.5402,-18.3984 126.2328,-18.3984 C125.9127,-18.3984 125.6794,-18.457 125.5329,-18.5744 C125.3865,-18.6917 125.3133,-18.8331 125.3133,-18.9986 C125.3133,-19.1423 125.3651,-19.2606 125.4688,-19.3533 C125.5707,-19.4461 125.8367,-19.5412 126.2669,-19.6385 C126.6971,-19.7358 126.9922,-19.8208 127.1523,-19.8936 C127.3851,-20.0009 127.557,-20.1369 127.668,-20.3015 C127.779,-20.4661 127.8344,-20.6558 127.8344,-20.8704 C127.8344,-21.0832 127.7735,-21.2838 127.6516,-21.472 C127.5297,-21.6603 127.3547,-21.8067 127.1264,-21.9113 C126.8981,-22.0159 126.6412,-22.0682 126.3556,-22.0682 C125.9936,-22.0682 125.6903,-22.0155 125.4456,-21.91 C125.201,-21.8045 125.0091,-21.6457 124.8699,-21.4338 C124.7308,-21.2219 124.6575,-20.9823 124.6503,-20.7149 M128.4968,-18.5648 L128.4968,-18 L128.9879,-18 L128.9879,-18.5648 Z M128.4968,-22 L128.4968,-19.1023 L128.9879,-19.1023 L128.9879,-22 Z M131.6147,-22 L131.6147,-21.6344 C131.431,-21.9218 131.1609,-22.0655 130.8044,-22.0655 C130.5734,-22.0655 130.361,-22.0018 130.1673,-21.8745 C129.9735,-21.7472 129.8235,-21.5693 129.7171,-21.3411 C129.6106,-21.1128 129.5574,-20.8504 129.5574,-20.5539 C129.5574,-20.2647 129.6056,-20.0023 129.702,-19.7667 C129.7985,-19.5312 129.9431,-19.3506 130.1359,-19.2251 C130.3287,-19.0996 130.5442,-19.0368 130.7825,-19.0368 C130.9572,-19.0368 131.1127,-19.0737 131.2491,-19.1473 C131.3855,-19.221 131.4965,-19.317 131.582,-19.4352 L131.582,-18 L132.0704,-18 L132.0704,-22 Z M130.0622,-20.5539 C130.0622,-20.925 130.1404,-21.2024 130.2969,-21.3861 C130.4533,-21.5698 130.6379,-21.6617 130.8508,-21.6617 C131.0654,-21.6617 131.2477,-21.5739 131.3978,-21.3984 C131.5479,-21.2228 131.6229,-20.955 131.6229,-20.5948 C131.6229,-20.1983 131.5465,-19.9072 131.3937,-19.7217 C131.2409,-19.5362 131.0527,-19.4434 130.8289,-19.4434 C130.6106,-19.4434 130.4283,-19.5325 130.2819,-19.7108 C130.1354,-19.889 130.0622,-20.1701 130.0622,-20.5539 M134.8259,-21.0668 L135.3334,-21.1296 C135.2533,-21.4261 135.1051,-21.6562 134.8886,-21.8199 C134.6722,-21.9836 134.3957,-22.0655 134.0592,-22.0655 C133.6353,-22.0655 133.2993,-21.935 133.051,-21.6739 C132.8027,-21.4129 132.6785,-21.0468 132.6785,-20.5757 C132.6785,-20.0882 132.804,-19.7099 133.0551,-19.4407 C133.3061,-19.1714 133.6317,-19.0368 134.0319,-19.0368 C134.4193,-19.0368 134.7358,-19.1687 134.9814,-19.4325 C135.227,-19.6962 135.3497,-20.0673 135.3497,-20.5457 C135.3497,-20.5748 135.3488,-20.6185 135.347,-20.6767 L133.186,-20.6767 C133.2042,-20.995 133.2943,-21.2387 133.4562,-21.4079 C133.618,-21.5771 133.82,-21.6617 134.0619,-21.6617 C134.242,-21.6617 134.3957,-21.6144 134.523,-21.5198 C134.6503,-21.4252 134.7513,-21.2742 134.8259,-21.0668 M133.2133,-20.2729 L134.8313,-20.2729 C134.8095,-20.0291 134.7476,-19.8463 134.6458,-19.7244 C134.4893,-19.5352 134.2865,-19.4407 134.0373,-19.4407 C133.8118,-19.4407 133.6221,-19.5161 133.4684,-19.6671 C133.3147,-19.8181 133.2297,-20.02 133.2133,-20.2729" style="fill:#000000;fill-rule:nonzero;"/>
        </g>
        <!-- Line -->
        <path d="M-42.5,0 L42.5,0 " style="stroke:#000000;stroke-width:0.25;"/>
        <!-- Line -->
        <path d="M42.5,0 L42.5,7.5 " style="stroke:#000000;stroke-width:0.25;"/>
        <!-- Line -->
        <path d="M42.5,7.5 L-42.5,7.5 " style="stroke:#000000;stroke-width:0.25;"/>
        <!-- Line -->
        <path d="M-42.5,7.5 L-42.5,0 " style="stroke:#000000;stroke-width:0.25;"/>
        <!-- Line -->
        <path d="M-42.5,2.5 L-42.5,22.5 " style="stroke:#000000;stroke-width:0.25;"/>
        <!-- Line -->
        <path d="M-37.5,27.5 L37.5,27.5 " style="stroke:#000000;stroke-width:0.25;"/>
        <!-- Line -->
        <path d="M42.5,22.5 L42.5,7.5 " style="stroke:#000000;stroke-width:0.25;"/>
        <!-- Arc -->
        <path d="M-42.5,22.5 A5,5 0 0,0 -37.5,27.5" style="stroke:#000000;stroke-width:0.25;"/>
        <!-- Arc -->
        <path d="M37.5,27.5 A5,5 0 0,0 42.5,22.5" style="stroke:#000000;stroke-width:0.25;"/>
        <!-- Line -->
        <path d="M12.5,12.5 L12.5,92.5 " style="stroke:#000000;stroke-width:0.25;"/>
        <!-- Line -->
        <path d="M7.5,97.5 L-7.5,97.5 " style="stroke:#000000;stroke-width:0.25;"/>
        <!-- Line -->
        <path d="M-12.5,92.5 L-12.5,12.5 " style="stroke:#000000;stroke-width:0.25;"/>
        <!-- Arc -->
        <path d="M-12.5,12.5 A5,5 0 0,0 -17.5,7.5" style="stroke:#000000;stroke-width:0.25;"/>
        <!-- Arc -->
        <path d="M12.5,12.5 A5,5 0 0,1 17.5,7.5" style="stroke:#000000;stroke-width:0.25;"/>
        <!-- Arc -->
        <path d="M-12.5,92.5 A5,5 0 0,0 -7.5,97.5" style="stroke:#000000;stroke-width:0.25;"/>
        <!-- Arc -->
        <path d="M7.5,97.5 A5,5 0 0,0 12.5,92.5" style="stroke:#000000;stroke-width:0.25;"/>
        <!-- Circle -->
        <circle cx="0" cy="82.5" r="2.6" style="stroke:#000000;stroke-width:0.25;"/>
        <!-- Circle -->
        <circle cx="0" cy="32.5" r="2.6" style="stroke:#000000;stroke-width:0.25;"/>
        <!-- Rotated Dimension -->
        <g>
            <g>
                <path d="M46.875,11.9444 L46.875,10.8333 L45.0286,11.9069 C45.0168,11.9138 44.992,11.9251 44.9791,11.9295 C44.9662,11.9339 44.9397,11.9402 44.9262,11.942 C44.9127,11.9438 44.8854,11.9448 44.8718,11.9439 C44.8582,11.9431 44.8313,11.9387 44.8181,11.9352 C44.8114,11.9335 44.7982,11.9292 44.7918,11.9268 C44.7653,11.92 44.7141,11.9012 44.6895,11.8894 C44.6649,11.8775 44.6183,11.8491 44.5965,11.8327 C44.5747,11.8163 44.5345,11.7794 44.5163,11.759 C44.4981,11.7386 44.4659,11.6946 44.4521,11.6711 C44.4382,11.6475 44.4152,11.598 44.4062,11.5723 C44.3972,11.5465 44.3843,11.4935 44.3805,11.4664 C44.3767,11.4394 44.3744,11.3849 44.3759,11.3576 C44.3775,11.3304 44.3859,11.2764 44.3927,11.25 C44.3995,11.2236 44.4183,11.1723 44.4301,11.1477 C44.442,11.1231 44.4704,11.0765 44.4868,11.0547 C44.5032,11.0329 44.5401,10.9927 44.5605,10.9746 C44.5809,10.9564 44.6249,10.9242 44.6484,10.9103 C44.672,10.8964 44.7215,10.8735 44.7472,10.8645 C44.7581,10.8606 44.7803,10.8539 44.7914,10.851 M44.375,12.7778 L44.375,13.8889 L46.875,13.1944 M45.4861,13.3333 L45.4861,13.8889 M46.875,14.7222 L46.7361,14.7222 M44.375,16.6667 L44.375,15.5556 L45.4861,15.5556 L45.4861,16.1111 C45.4861,16.1384 45.4915,16.1927 45.4968,16.2195 C45.5021,16.2462 45.518,16.2985 45.5284,16.3237 C45.5388,16.3489 45.5646,16.3971 45.5797,16.4197 C45.5949,16.4424 45.6295,16.4846 45.6488,16.5039 C45.6681,16.5232 45.7103,16.5579 45.733,16.573 C45.7557,16.5882 45.8038,16.6139 45.8291,16.6244 C45.8543,16.6348 45.9065,16.6507 45.9333,16.656 C45.96,16.6613 46.0144,16.6667 46.0417,16.6667 L46.3194,16.6667 C46.3467,16.6667 46.401,16.6613 46.4278,16.656 C46.4546,16.6507 46.5068,16.6348 46.532,16.6244 C46.5572,16.6139 46.6054,16.5882 46.6281,16.573 C46.6508,16.5579 46.693,16.5233 46.7123,16.504 C46.7316,16.4847 46.7662,16.4425 46.7814,16.4198 C46.7965,16.3971 46.8223,16.3489 46.8327,16.3237 C46.8432,16.2985 46.859,16.2463 46.8643,16.2195 C46.8696,16.1927 46.875,16.1384 46.875,16.1111 L46.875,15.5556" style="stroke:#808080;stroke-width:0.25;"/>
            </g>
            <path d="M47.5,27.5 L47.9163,25 L47.0837,25 Z" style="stroke:#808080;stroke-width:0.25;fill:#808080;fill-rule:evenodd;"/>
            <path d="M47.5,0 L47.0837,2.5 L47.9163,2.5 Z" style="stroke:#808080;stroke-width:0.25;fill:#808080;fill-rule:evenodd;"/>
        </g>
        <path d="M47.5,27.5 L47.5,0 M38.125,27.5 L48.75,27.5 M43.125,0 L48.75,0 " style="stroke:#808080;stroke-width:0.25;"/>
        <!-- Rotated Dimension -->
        <g>
            <g>
                <path d="M-1.5278,-3.8194 C-1.5278,-3.8467 -1.5224,-3.9011 -1.5171,-3.9278 C-1.5118,-3.9546 -1.4959,-4.0068 -1.4855,-4.032 C-1.475,-4.0573 -1.4493,-4.1054 -1.4341,-4.1281 C-1.419,-4.1508 -1.3844,-4.193 -1.3651,-4.2123 C-1.3458,-4.2316 -1.3036,-4.2662 -1.2809,-4.2814 C-1.2582,-4.2965 -1.21,-4.3223 -1.1848,-4.3327 C-1.1596,-4.3432 -1.1074,-4.359 -1.0806,-4.3643 C-1.0538,-4.3696 -0.9995,-4.375 -0.9722,-4.375 C-0.9449,-4.375 -0.8906,-4.3696 -0.8638,-4.3643 C-0.8371,-4.359 -0.7848,-4.3432 -0.7596,-4.3327 C-0.7344,-4.3223 -0.6863,-4.2965 -0.6636,-4.2814 C-0.6409,-4.2662 -0.5987,-4.2316 -0.5794,-4.2123 C-0.5601,-4.193 -0.5255,-4.1508 -0.5103,-4.1281 C-0.4951,-4.1054 -0.4694,-4.0573 -0.459,-4.032 C-0.4485,-4.0068 -0.4327,-3.9546 -0.4273,-3.9278 C-0.422,-3.9011 -0.4167,-3.8467 -0.4167,-3.8194 L-0.4167,-3.5417 C-0.4167,-3.5144 -0.422,-3.4601 -0.4273,-3.4333 C-0.4327,-3.4065 -0.4485,-3.3543 -0.459,-3.3291 C-0.4694,-3.3038 -0.4951,-3.2557 -0.5103,-3.233 C-0.5255,-3.2103 -0.5601,-3.1681 -0.5794,-3.1488 C-0.5987,-3.1295 -0.6409,-3.0949 -0.6636,-3.0797 C-0.6863,-3.0646 -0.7344,-3.0388 -0.7596,-3.0284 C-0.7848,-3.018 -0.8371,-3.0021 -0.8638,-2.9968 C-0.8906,-2.9915 -0.9449,-2.9861 -0.9722,-2.9861 C-0.9995,-2.9861 -1.0538,-2.9915 -1.0806,-2.9968 C-1.1074,-3.0021 -1.1596,-3.018 -1.1848,-3.0284 C-1.21,-3.0388 -1.2582,-3.0646 -1.2809,-3.0797 C-1.3036,-3.0949 -1.3458,-3.1295 -1.3651,-3.1488 C-1.3844,-3.1681 -1.419,-3.2103 -1.4341,-3.233 C-1.4493,-3.2557 -1.475,-3.3038 -1.4855,-3.3291 C-1.4959,-3.3543 -1.5118,-3.4065 -1.5171,-3.4333 C-1.5224,-3.4601 -1.5278,-3.5144 -1.5278,-3.5417 Z M-1.4583,-2.5 C-1.4583,-2.5239 -1.4537,-2.5714 -1.449,-2.5948 C-1.4443,-2.6183 -1.4305,-2.664 -1.4213,-2.686 C-1.4122,-2.7081 -1.3897,-2.7502 -1.3764,-2.7701 C-1.3631,-2.7899 -1.3328,-2.8268 -1.316,-2.8437 C-1.2991,-2.8606 -1.2621,-2.8909 -1.2423,-2.9042 C-1.2224,-2.9175 -1.1803,-2.94 -1.1582,-2.9491 C-1.1362,-2.9582 -1.0905,-2.9721 -1.0671,-2.9768 C-1.0436,-2.9814 -0.9961,-2.9861 -0.9722,-2.9861 C-0.9483,-2.9861 -0.9008,-2.9814 -0.8774,-2.9768 C-0.854,-2.9721 -0.8083,-2.9582 -0.7862,-2.9491 C-0.7641,-2.94 -0.722,-2.9175 -0.7022,-2.9042 C-0.6823,-2.8909 -0.6454,-2.8606 -0.6285,-2.8437 C-0.6116,-2.8268 -0.5813,-2.7899 -0.568,-2.7701 C-0.5548,-2.7502 -0.5323,-2.7081 -0.5231,-2.686 C-0.514,-2.664 -0.5001,-2.6183 -0.4955,-2.5948 C-0.4908,-2.5714 -0.4861,-2.5239 -0.4861,-2.5 L-0.4861,-2.3611 C-0.4861,-2.3372 -0.4908,-2.2897 -0.4955,-2.2663 C-0.5001,-2.2429 -0.514,-2.1971 -0.5231,-2.1751 C-0.5323,-2.153 -0.5548,-2.1109 -0.568,-2.091 C-0.5813,-2.0712 -0.6116,-2.0343 -0.6285,-2.0174 C-0.6454,-2.0005 -0.6823,-1.9702 -0.7022,-1.9569 C-0.722,-1.9437 -0.7641,-1.9211 -0.7862,-1.912 C-0.8083,-1.9029 -0.854,-1.889 -0.8774,-1.8843 C-0.9008,-1.8797 -0.9483,-1.875 -0.9722,-1.875 C-0.9961,-1.875 -1.0436,-1.8797 -1.0671,-1.8843 C-1.0905,-1.889 -1.1362,-1.9029 -1.1582,-1.912 C-1.1803,-1.9211 -1.2224,-1.9437 -1.2423,-1.9569 C-1.2621,-1.9702 -1.2991,-2.0005 -1.316,-2.0174 C-1.3328,-2.0343 -1.3631,-2.0712 -1.3764,-2.091 C-1.3897,-2.1109 -1.4122,-2.153 -1.4213,-2.1751 C-1.4305,-2.1971 -1.4443,-2.2429 -1.449,-2.2663 C-1.4537,-2.2897 -1.4583,-2.3372 -1.4583,-2.3611 Z M1.5278,-1.875 L0.4167,-1.875 L0.4167,-2.9861 L0.9722,-2.9861 C0.9995,-2.9861 1.0538,-2.9915 1.0806,-2.9968 C1.1074,-3.0021 1.1596,-3.018 1.1848,-3.0284 C1.21,-3.0388 1.2582,-3.0646 1.2809,-3.0797 C1.3035,-3.0949 1.3457,-3.1295 1.365,-3.1488 C1.3843,-3.1681 1.419,-3.2103 1.4341,-3.233 C1.4493,-3.2557 1.475,-3.3038 1.4855,-3.3291 C1.4959,-3.3543 1.5118,-3.4065 1.5171,-3.4333 C1.5224,-3.46 1.5278,-3.5144 1.5278,-3.5417 L1.5278,-3.8194 C1.5278,-3.8467 1.5224,-3.901 1.5171,-3.9278 C1.5118,-3.9546 1.4959,-4.0068 1.4855,-4.032 C1.475,-4.0572 1.4493,-4.1054 1.4342,-4.1281 C1.419,-4.1508 1.3844,-4.193 1.3651,-4.2123 C1.3458,-4.2316 1.3036,-4.2662 1.2809,-4.2814 C1.2582,-4.2965 1.21,-4.3223 1.1848,-4.3327 C1.1596,-4.3432 1.1074,-4.359 1.0806,-4.3643 C1.0538,-4.3696 0.9995,-4.375 0.9722,-4.375 L0.4167,-4.375" style="stroke:#808080;stroke-width:0.25;"/>
            </g>
            <path d="M-42.5,-5 L-40,-4.5837 L-40,-5.4163 Z" style="stroke:#808080;stroke-width:0.25;fill:#808080;fill-rule:evenodd;"/>
            <path d="M42.5,-5 L40,-5.4163 L40,-4.5837 Z" style="stroke:#808080;stroke-width:0.25;fill:#808080;fill-rule:evenodd;"/>
        </g>
        <path d="M-42.5,-5 L42.5,-5 M-42.5,-0.625 L-42.5,-6.25 M42.5,-0.625 L42.5,-6.25 " style="stroke:#808080;stroke-width:0.25;"/>
        <!-- Aligned Dimension -->
        <g>
            <g>
                <path d="M-50.625,1.8056 L-50.625,2.9167 L-48.125,2.2222 M-49.5139,2.3611 L-49.5139,2.9167 M-48.125,3.75 L-48.2639,3.75 M-50.625,5.6944 L-50.625,4.5833 L-49.5139,4.5833 L-49.5139,5.1389 C-49.5139,5.1662 -49.5085,5.2205 -49.5032,5.2472 C-49.4979,5.274 -49.482,5.3263 -49.4716,5.3515 C-49.4612,5.3767 -49.4354,5.4248 -49.4203,5.4475 C-49.4051,5.4702 -49.3705,5.5124 -49.3512,5.5317 C-49.3319,5.551 -49.2897,5.5856 -49.267,5.6008 C-49.2443,5.616 -49.1962,5.6417 -49.1709,5.6521 C-49.1457,5.6626 -49.0935,5.6784 -49.0667,5.6838 C-49.04,5.6891 -48.9856,5.6944 -48.9583,5.6944 L-48.6806,5.6944 C-48.6533,5.6944 -48.599,5.6891 -48.5722,5.6838 C-48.5454,5.6784 -48.4932,5.6626 -48.468,5.6522 C-48.4428,5.6417 -48.3946,5.616 -48.3719,5.6008 C-48.3492,5.5857 -48.307,5.551 -48.2877,5.5317 C-48.2684,5.5124 -48.2338,5.4702 -48.2186,5.4475 C-48.2035,5.4249 -48.1777,5.3767 -48.1673,5.3515 C-48.1568,5.3263 -48.141,5.274 -48.1357,5.2473 C-48.1304,5.2205 -48.125,5.1662 -48.125,5.1389 L-48.125,4.5833" style="stroke:#808080;stroke-width:0.25;"/>
            </g>
            <path d="M-47.5,7.5 L-47.0837,5 L-47.9163,5 Z" style="stroke:#808080;stroke-width:0.25;fill:#808080;fill-rule:evenodd;"/>
            <path d="M-47.5,0 L-47.9163,2.5 L-47.0837,2.5 Z" style="stroke:#808080;stroke-width:0.25;fill:#808080;fill-rule:evenodd;"/>
        </g>
        <path d="M-43.125,7.5 L-48.75,7.5 M-43.125,0 L-48.75,0 M-47.5,7.5 L-47.5,0 " style="stroke:#808080;stroke-width:0.25;"/>
        <!-- Rotated Dimension -->
        <g>
            <g>
                <path d="M-0.4167,103.125 L-1.5278,103.125 L-0.4542,104.9714 C-0.4473,104.9832 -0.436,105.008 -0.4316,105.0209 C-0.4272,105.0338 -0.4209,105.0603 -0.4191,105.0738 C-0.4173,105.0873 -0.4163,105.1146 -0.4172,105.1282 C-0.418,105.1418 -0.4224,105.1687 -0.4259,105.1819 C-0.4277,105.1886 -0.4319,105.2018 -0.4343,105.2083 C-0.4411,105.2347 -0.4599,105.2859 -0.4717,105.3105 C-0.4836,105.3351 -0.512,105.3817 -0.5284,105.4035 C-0.5448,105.4253 -0.5818,105.4655 -0.6021,105.4837 C-0.6225,105.5019 -0.6665,105.5341 -0.6901,105.5479 C-0.7136,105.5618 -0.7631,105.5848 -0.7888,105.5938 C-0.8146,105.6028 -0.8677,105.6157 -0.8947,105.6195 C-0.9217,105.6233 -0.9762,105.6256 -1.0035,105.6241 C-1.0307,105.6225 -1.0847,105.6141 -1.1111,105.6073 C-1.1375,105.6005 -1.1888,105.5817 -1.2134,105.5699 C-1.238,105.558 -1.2846,105.5296 -1.3064,105.5132 C-1.3282,105.4968 -1.3684,105.4599 -1.3866,105.4395 C-1.4047,105.4191 -1.4369,105.3751 -1.4508,105.3516 C-1.4647,105.328 -1.4876,105.2785 -1.4967,105.2528 C-1.5005,105.2419 -1.5072,105.2197 -1.5101,105.2086 M1.5278,105.625 L0.4167,105.625 L0.4167,104.5139 L0.9722,104.5139 C0.9995,104.5139 1.0538,104.5085 1.0806,104.5032 C1.1074,104.4979 1.1596,104.482 1.1848,104.4716 C1.21,104.4612 1.2582,104.4354 1.2809,104.4203 C1.3035,104.4051 1.3457,104.3705 1.365,104.3512 C1.3843,104.3319 1.419,104.2897 1.4341,104.267 C1.4493,104.2443 1.475,104.1962 1.4855,104.1709 C1.4959,104.1457 1.5118,104.0935 1.5171,104.0667 C1.5224,104.04 1.5278,103.9856 1.5278,103.9583 L1.5278,103.6806 C1.5278,103.6533 1.5224,103.599 1.5171,103.5722 C1.5118,103.5454 1.4959,103.4932 1.4855,103.468 C1.475,103.4428 1.4493,103.3946 1.4342,103.3719 C1.419,103.3492 1.3844,103.307 1.3651,103.2877 C1.3458,103.2684 1.3036,103.2338 1.2809,103.2186 C1.2582,103.2035 1.21,103.1777 1.1848,103.1673 C1.1596,103.1568 1.1074,103.141 1.0806,103.1357 C1.0538,103.1304 0.9995,103.125 0.9722,103.125 L0.4167,103.125" style="stroke:#808080;stroke-width:0.25;"/>
            </g>
            <path d="M-12.5,102.5 L-10,102.9163 L-10,102.0837 Z" style="stroke:#808080;stroke-width:0.25;fill:#808080;fill-rule:evenodd;"/>
            <path d="M12.5,102.5 L10,102.0837 L10,102.9163 Z" style="stroke:#808080;stroke-width:0.25;fill:#808080;fill-rule:evenodd;"/>
        </g>
        <path d="M-12.5,102.5 L12.5,102.5 M-12.5,93.125 L-12.5,103.75 M12.5,93.125 L12.5,103.75 " style="stroke:#808080;stroke-width:0.25;"/>
        <!-- Rotated Dimension -->
        <g>
            <g>
                <path d="M-0.8333,90.125 L-1.9444,90.125 L-1.9444,89.0139 L-1.3889,89.0139 C-1.3616,89.0139 -1.3073,89.0085 -1.2805,89.0032 C-1.2538,88.9979 -1.2015,88.982 -1.1763,88.9716 C-1.1511,88.9612 -1.1029,88.9354 -1.0803,88.9203 C-1.0576,88.9051 -1.0154,88.8705 -0.9961,88.8512 C-0.9768,88.8319 -0.9421,88.7897 -0.927,88.767 C-0.9118,88.7443 -0.8861,88.6962 -0.8756,88.6709 C-0.8652,88.6457 -0.8493,88.5935 -0.844,88.5667 C-0.8387,88.54 -0.8333,88.4856 -0.8333,88.4583 L-0.8333,88.1806 C-0.8333,88.1533 -0.8387,88.099 -0.844,88.0722 C-0.8493,88.0454 -0.8652,87.9932 -0.8756,87.968 C-0.8861,87.9428 -0.9118,87.8946 -0.927,87.8719 C-0.9421,87.8492 -0.9767,87.807 -0.996,87.7877 C-1.0153,87.7684 -1.0575,87.7338 -1.0802,87.7186 C-1.1029,87.7035 -1.1511,87.6777 -1.1763,87.6673 C-1.2015,87.6568 -1.2537,87.641 -1.2805,87.6357 C-1.3073,87.6304 -1.3616,87.625 -1.3889,87.625 L-1.9444,87.625 M0,87.625 L0,87.7639 M1.9444,87.625 L0.8333,87.625 L1.9069,89.4714 C1.9138,89.4832 1.9251,89.508 1.9295,89.5209 C1.9339,89.5338 1.9402,89.5603 1.942,89.5738 C1.9438,89.5873 1.9448,89.6146 1.9439,89.6282 C1.9431,89.6418 1.9387,89.6687 1.9352,89.6819 C1.9335,89.6886 1.9292,89.7018 1.9268,89.7083 C1.92,89.7347 1.9012,89.7859 1.8894,89.8105 C1.8775,89.8351 1.8491,89.8817 1.8327,89.9035 C1.8163,89.9253 1.7794,89.9655 1.759,89.9837 C1.7386,90.0019 1.6946,90.0341 1.6711,90.0479 C1.6475,90.0618 1.598,90.0848 1.5723,90.0938 C1.5465,90.1028 1.4935,90.1157 1.4664,90.1195 C1.4394,90.1233 1.3849,90.1256 1.3576,90.1241 C1.3304,90.1225 1.2764,90.1141 1.25,90.1073 C1.2236,90.1005 1.1723,90.0817 1.1477,90.0699 C1.1231,90.058 1.0765,90.0296 1.0547,90.0132 C1.0329,89.9968 0.9927,89.9599 0.9746,89.9395 C0.9564,89.9191 0.9242,89.8751 0.9103,89.8516 C0.8964,89.828 0.8735,89.7785 0.8645,89.7528 C0.8606,89.7419 0.8539,89.7197 0.851,89.7086" style="stroke:#808080;stroke-width:0.25;"/>
            </g>
            <path d="M-2.6,87 L-5.1,86.5837 L-5.1,87.4163 Z" style="stroke:#808080;stroke-width:0.25;fill:#808080;fill-rule:evenodd;"/>
            <path d="M2.6,87 L5.1,87.4163 L5.1,86.5837 Z" style="stroke:#808080;stroke-width:0.25;fill:#808080;fill-rule:evenodd;"/>
        </g>
        <path d="M-7.6,87 L7.6,87 M-2.6,83.125 L-2.6,88.25 M2.6,83.125 L2.6,88.25 " style="stroke:#808080;stroke-width:0.25;"/>
        <!-- Aligned Dimension -->
        <g>
            <g>
                <path d="M-8.8889,79.5694 L-8.3333,80.125 L-8.3333,77.625 M-6.3889,77.625 L-7.5,77.625 L-6.4264,79.4714 C-6.4195,79.4832 -6.4082,79.508 -6.4038,79.5209 C-6.3994,79.5338 -6.3931,79.5603 -6.3913,79.5738 C-6.3895,79.5873 -6.3885,79.6146 -6.3894,79.6282 C-6.3902,79.6418 -6.3946,79.6687 -6.3981,79.6819 C-6.3999,79.6886 -6.4041,79.7018 -6.4065,79.7083 C-6.4134,79.7347 -6.4321,79.7859 -6.444,79.8105 C-6.4558,79.8351 -6.4842,79.8817 -6.5006,79.9035 C-6.517,79.9253 -6.554,79.9655 -6.5743,79.9837 C-6.5947,80.0019 -6.6388,80.0341 -6.6623,80.0479 C-6.6858,80.0618 -6.7353,80.0848 -6.7611,80.0938 C-6.7868,80.1028 -6.8399,80.1157 -6.8669,80.1195 C-6.8939,80.1233 -6.9485,80.1256 -6.9757,80.1241 C-7.003,80.1225 -7.0569,80.1141 -7.0833,80.1073 C-7.1098,80.1005 -7.161,80.0817 -7.1856,80.0699 C-7.2102,80.058 -7.2568,80.0296 -7.2786,80.0132 C-7.3004,79.9968 -7.3406,79.9599 -7.3588,79.9395 C-7.377,79.9191 -7.4092,79.8751 -7.423,79.8516 C-7.4369,79.828 -7.4599,79.7785 -7.4689,79.7528 C-7.4727,79.7419 -7.4794,79.7197 -7.4823,79.7086 M-5.5556,77.625 L-5.5556,77.7639 M-3.6111,80.125 L-4.7222,80.125 L-4.7222,79.0139 L-4.1667,79.0139 C-4.1394,79.0139 -4.0851,79.0085 -4.0583,79.0032 C-4.0315,78.9979 -3.9793,78.982 -3.9541,78.9716 C-3.9289,78.9612 -3.8807,78.9354 -3.858,78.9203 C-3.8353,78.9051 -3.7931,78.8705 -3.7738,78.8512 C-3.7545,78.8319 -3.7199,78.7897 -3.7047,78.767 C-3.6896,78.7443 -3.6639,78.6962 -3.6534,78.6709 C-3.643,78.6457 -3.6271,78.5935 -3.6218,78.5667 C-3.6165,78.54 -3.6111,78.4856 -3.6111,78.4583 L-3.6111,78.1806 C-3.6111,78.1533 -3.6165,78.099 -3.6218,78.0722 C-3.6271,78.0454 -3.643,77.9932 -3.6534,77.968 C-3.6638,77.9428 -3.6896,77.8946 -3.7047,77.8719 C-3.7199,77.8492 -3.7545,77.807 -3.7738,77.7877 C-3.7931,77.7684 -3.8353,77.7338 -3.858,77.7186 C-3.8807,77.7035 -3.9288,77.6777 -3.9541,77.6673 C-3.9793,77.6568 -4.0315,77.641 -4.0583,77.6357 C-4.085,77.6304 -4.1394,77.625 -4.1667,77.625 L-4.7222,77.625" style="stroke:#808080;stroke-width:0.25;"/>
            </g>
            <path d="M0,77 L-2.5,76.5837 L-2.5,77.4163 Z" style="stroke:#808080;stroke-width:0.25;fill:#808080;fill-rule:evenodd;"/>
            <path d="M-12.5,77 L-10,77.4163 L-10,76.5837 Z" style="stroke:#808080;stroke-width:0.25;fill:#808080;fill-rule:evenodd;"/>
        </g>
        <path d="M0,81.875 L0,75.75 M-12.5,81.875 L-12.5,75.75 M0,77 L-12.5,77 " style="stroke:#808080;stroke-width:0.25;"/>
        <!-- Rotated Dimension -->
        <g>
            <g>
                <path d="M-39.4444,35.625 L-40.5556,35.625 L-40.5556,34.5139 L-40,34.5139 C-39.9727,34.5139 -39.9184,34.5085 -39.8916,34.5032 C-39.8649,34.4979 -39.8126,34.482 -39.7874,34.4716 C-39.7622,34.4612 -39.7141,34.4354 -39.6914,34.4203 C-39.6687,34.4051 -39.6265,34.3705 -39.6072,34.3512 C-39.5879,34.3319 -39.5532,34.2897 -39.5381,34.267 C-39.5229,34.2443 -39.4972,34.1962 -39.4867,34.1709 C-39.4763,34.1457 -39.4604,34.0935 -39.4551,34.0667 C-39.4498,34.04 -39.4444,33.9856 -39.4444,33.9583 L-39.4444,33.6806 C-39.4444,33.6533 -39.4498,33.599 -39.4551,33.5722 C-39.4604,33.5454 -39.4763,33.4932 -39.4867,33.468 C-39.4972,33.4428 -39.5229,33.3946 -39.5381,33.3719 C-39.5532,33.3492 -39.5879,33.307 -39.6072,33.2877 C-39.6265,33.2684 -39.6687,33.2338 -39.6913,33.2186 C-39.714,33.2035 -39.7622,33.1777 -39.7874,33.1673 C-39.8126,33.1568 -39.8648,33.141 -39.8916,33.1357 C-39.9184,33.1304 -39.9727,33.125 -40,33.125 L-40.5556,33.125" style="stroke:#808080;stroke-width:0.25;"/>
            </g>
            <path d="M-42.5,32.5 L-45,32.0837 L-45,32.9163 Z" style="stroke:#808080;stroke-width:0.25;fill:#808080;fill-rule:evenodd;"/>
            <path d="M-37.5,32.5 L-35,32.9163 L-35,32.0837 Z" style="stroke:#808080;stroke-width:0.25;fill:#808080;fill-rule:evenodd;"/>
        </g>
        <path d="M-47.5,32.5 L-32.5,32.5 M-42.5,23.125 L-42.5,33.75 M-37.5,28.125 L-37.5,33.75 " style="stroke:#808080;stroke-width:0.25;"/>
        <!-- Rotated Dimension -->
        <g>
            <g>
                <path d="M-50.625,25.5556 L-50.625,24.4444 L-49.5139,24.4444 L-49.5139,25 C-49.5139,25.0273 -49.5085,25.0816 -49.5032,25.1084 C-49.4979,25.1351 -49.482,25.1874 -49.4716,25.2126 C-49.4612,25.2378 -49.4354,25.2859 -49.4203,25.3086 C-49.4051,25.3313 -49.3705,25.3735 -49.3512,25.3928 C-49.3319,25.4121 -49.2897,25.4468 -49.267,25.4619 C-49.2443,25.4771 -49.1962,25.5028 -49.1709,25.5133 C-49.1457,25.5237 -49.0935,25.5396 -49.0667,25.5449 C-49.04,25.5502 -48.9856,25.5556 -48.9583,25.5556 L-48.6806,25.5556 C-48.6533,25.5556 -48.599,25.5502 -48.5722,25.5449 C-48.5454,25.5396 -48.4932,25.5237 -48.468,25.5133 C-48.4428,25.5028 -48.3946,25.4771 -48.3719,25.4619 C-48.3492,25.4468 -48.307,25.4121 -48.2877,25.3928 C-48.2684,25.3735 -48.2338,25.3313 -48.2186,25.3087 C-48.2035,25.286 -48.1777,25.2378 -48.1673,25.2126 C-48.1568,25.1874 -48.141,25.1352 -48.1357,25.1084 C-48.1304,25.0816 -48.125,25.0273 -48.125,25 L-48.125,24.4444" style="stroke:#808080;stroke-width:0.25;"/>
            </g>
            <path d="M-47.5,27.5 L-47.9163,30 L-47.0837,30 Z" style="stroke:#808080;stroke-width:0.25;fill:#808080;fill-rule:evenodd;"/>
            <path d="M-47.5,22.5 L-47.0837,20 L-47.9163,20 Z" style="stroke:#808080;stroke-width:0.25;fill:#808080;fill-rule:evenodd;"/>
        </g>
        <path d="M-47.5,32.5 L-47.5,17.5 M-38.125,27.5 L-48.75,27.5 M-43.125,22.5 L-48.75,22.5 " style="stroke:#808080;stroke-width:0.25;"/>
        <!-- Line -->
        <path d="M100,0 L107.5,0 " style="stroke:#000000;stroke-width:0.25;"/>
        <!-- Line -->
        <path d="M107.5,12.5 L107.5,92.5 " style="stroke:#000000;stroke-width:0.25;"/>
        <!-- Line -->
        <path d="M102.5,97.5 L100,97.5 " style="stroke:#000000;stroke-width:0.25;"/>
        <!-- Line -->
        <path d="M100,97.5 L100,0 " style="stroke:#000000;stroke-width:0.25;"/>
        <!-- Line -->
        <path d="M107.5,0 L160,0 " style="stroke:#000000;stroke-width:0.25;"/>
        <!-- Line -->
        <path d="M160,0 L160,7.5 " style="stroke:#000000;stroke-width:0.25;"/>
        <!-- Line -->
        <path d="M147.5,7.5 L112.5,7.5 " style="stroke:#000000;stroke-width:0.25;"/>
        <!-- Line -->
        <path d="M152.5,12.5 L152.5,27.5 " style="stroke:#000000;stroke-width:0.25;"/>
        <!-- Line -->
        <path d="M152.5,27.5 L155,27.5 " style="stroke:#000000;stroke-width:0.25;"/>
        <!-- Line -->
        <path d="M160,22.5 L160,7.5 " style="stroke:#000000;stroke-width:0.25;"/>
        <!-- Line -->
        <path d="M-7.5,20 L-7.5,20 " style="stroke:#000000;stroke-width:0.25;"/>
        <!-- Line -->
        <path d="M-7.5,20 L-7.5,20 " style="stroke:#000000;stroke-width:0.25;"/>
        <!-- Line -->
        <path d="M-7.5,20 L-7.5,20 " style="stroke:#000000;stroke-width:0.25;"/>
        <!-- Line -->
        <path d="M-7.5,20 L-7.5,20 " style="stroke:#000000;stroke-width:0.25;"/>
        <!-- Arc -->
        <path d="M107.5,12.5 A5,5 0 0,1 112.5,7.5" style="stroke:#000000;stroke-width:0.25;"/>
        <!-- Arc -->
        <path d="M147.5,7.5 A5,5 0 0,1 152.5,12.5" style="stroke:#000000;stroke-width:0.25;"/>
        <!-- Arc -->
        <path d="M155,27.5 A5,5 0 0,0 160,22.5" style="stroke:#000000;stroke-width:0.25;"/>
        <!-- Rotated Dimension -->
        <g>
            <g>
                <path d="M49.375,13.3333 L49.375,13.8889 C49.375,13.9162 49.3804,13.9705 49.3857,13.9973 C49.391,14.024 49.4068,14.0763 49.4173,14.1015 C49.4277,14.1267 49.4535,14.1748 49.4686,14.1975 C49.4838,14.2202 49.5184,14.2624 49.5377,14.2817 C49.557,14.301 49.5992,14.3357 49.6219,14.3508 C49.6446,14.366 49.6927,14.3917 49.718,14.4022 C49.7432,14.4126 49.7954,14.4284 49.8222,14.4338 C49.8489,14.4391 49.9033,14.4444 49.9306,14.4444 C49.9578,14.4444 50.0122,14.4391 50.0389,14.4338 C50.0657,14.4284 50.1179,14.4126 50.1432,14.4022 C50.1684,14.3917 50.2165,14.366 50.2392,14.3508 C50.2619,14.3357 50.3041,14.301 50.3234,14.2817 C50.3427,14.2624 50.3773,14.2202 50.3925,14.1975 C50.4076,14.1748 50.4334,14.1267 50.4438,14.1015 C50.4543,14.0763 50.4701,14.024 50.4754,13.9973 C50.4808,13.9705 50.4861,13.9162 50.4861,13.8889 C50.4861,13.9162 50.4915,13.9705 50.4968,13.9972 C50.5021,14.024 50.518,14.0763 50.5284,14.1015 C50.5388,14.1267 50.5646,14.1748 50.5797,14.1975 C50.5949,14.2202 50.6295,14.2624 50.6488,14.2817 C50.6681,14.301 50.7103,14.3356 50.733,14.3508 C50.7557,14.366 50.8038,14.3917 50.8291,14.4021 C50.8543,14.4126 50.9065,14.4284 50.9333,14.4338 C50.96,14.4391 51.0144,14.4444 51.0417,14.4444 L51.3194,14.4444 C51.3467,14.4444 51.401,14.4391 51.4278,14.4338 C51.4546,14.4284 51.5068,14.4126 51.532,14.4022 C51.5572,14.3917 51.6054,14.366 51.6281,14.3508 C51.6508,14.3357 51.693,14.301 51.7123,14.2817 C51.7316,14.2624 51.7662,14.2202 51.7814,14.1975 C51.7965,14.1749 51.8223,14.1267 51.8327,14.1015 C51.8432,14.0763 51.859,14.024 51.8643,13.9973 C51.8696,13.9705 51.875,13.9162 51.875,13.8889 L51.875,13.3333 M50.4861,13.8889 L50.4861,13.6111 M51.875,16.3889 L51.875,15.2778 L50.0286,16.3514 C50.0168,16.3582 49.992,16.3696 49.9791,16.374 C49.9662,16.3784 49.9397,16.3846 49.9262,16.3865 C49.9127,16.3883 49.8854,16.3892 49.8718,16.3884 C49.8582,16.3875 49.8313,16.3832 49.8181,16.3797 C49.8114,16.3779 49.7982,16.3737 49.7918,16.3713 C49.7653,16.3644 49.7141,16.3457 49.6895,16.3338 C49.6649,16.322 49.6183,16.2936 49.5965,16.2772 C49.5747,16.2607 49.5345,16.2238 49.5163,16.2034 C49.4981,16.1831 49.4659,16.139 49.4521,16.1155 C49.4382,16.092 49.4152,16.0425 49.4062,16.0167 C49.3972,15.9909 49.3843,15.9379 49.3805,15.9109 C49.3767,15.8839 49.3744,15.8293 49.3759,15.8021 C49.3775,15.7748 49.3859,15.7209 49.3927,15.6945 C49.3995,15.668 49.4183,15.6168 49.4301,15.5922 C49.442,15.5676 49.4704,15.521 49.4868,15.4992 C49.5032,15.4774 49.5401,15.4372 49.5605,15.419 C49.5809,15.4008 49.6249,15.3686 49.6484,15.3548 C49.672,15.3409 49.7215,15.3179 49.7472,15.3089 C49.7581,15.3051 49.7803,15.2984 49.7914,15.2955 M51.875,17.2222 L51.7361,17.2222 M49.375,19.1667 L49.375,18.0556 L50.4861,18.0556 L50.4861,18.6111 C50.4861,18.6384 50.4915,18.6927 50.4968,18.7195 C50.5021,18.7462 50.518,18.7985 50.5284,18.8237 C50.5388,18.8489 50.5646,18.8971 50.5797,18.9197 C50.5949,18.9424 50.6295,18.9846 50.6488,19.0039 C50.6681,19.0232 50.7103,19.0579 50.733,19.073 C50.7557,19.0882 50.8038,19.1139 50.8291,19.1244 C50.8543,19.1348 50.9065,19.1507 50.9333,19.156 C50.96,19.1613 51.0144,19.1667 51.0417,19.1667 L51.3194,19.1667 C51.3467,19.1667 51.401,19.1613 51.4278,19.156 C51.4546,19.1507 51.5068,19.1348 51.532,19.1244 C51.5572,19.1139 51.6054,19.0882 51.6281,19.073 C51.6508,19.0579 51.693,19.0233 51.7123,19.004 C51.7316,18.9847 51.7662,18.9425 51.7814,18.9198 C51.7965,18.8971 51.8223,18.8489 51.8327,18.8237 C51.8432,18.7985 51.859,18.7463 51.8643,18.7195 C51.8696,18.6927 51.875,18.6384 51.875,18.6111 L51.875,18.0556" style="stroke:#808080;stroke-width:0.25;"/>
            </g>
            <path d="M52.5,32.5 L52.9163,30 L52.0837,30 Z" style="stroke:#808080;stroke-width:0.25;fill:#808080;fill-rule:evenodd;"/>
            <path d="M52.5,0 L52.0837,2.5 L52.9163,2.5 Z" style="stroke:#808080;stroke-width:0.25;fill:#808080;fill-rule:evenodd;"/>
        </g>
        <path d="M52.5,32.5 L52.5,0 M0.625,32.5 L53.75,32.5 M43.125,0 L53.75,0 " style="stroke:#808080;stroke-width:0.25;"/>
        <!-- Rotated Dimension -->
        <g>
            <g>
                <path d="M56.3194,38.3333 C56.3467,38.3333 56.4011,38.3387 56.4278,38.344 C56.4546,38.3493 56.5068,38.3652 56.532,38.3756 C56.5573,38.3861 56.6054,38.4118 56.6281,38.427 C56.6508,38.4421 56.693,38.4768 56.7123,38.4961 C56.7316,38.5154 56.7662,38.5575 56.7814,38.5802 C56.7965,38.6029 56.8223,38.6511 56.8327,38.6763 C56.8432,38.7015 56.859,38.7537 56.8643,38.7805 C56.8696,38.8073 56.875,38.8616 56.875,38.8889 C56.875,38.9162 56.8696,38.9705 56.8643,38.9973 C56.859,39.024 56.8432,39.0763 56.8327,39.1015 C56.8223,39.1267 56.7965,39.1748 56.7814,39.1975 C56.7662,39.2202 56.7316,39.2624 56.7123,39.2817 C56.693,39.301 56.6508,39.3357 56.6281,39.3508 C56.6054,39.366 56.5573,39.3917 56.532,39.4022 C56.5068,39.4126 56.4546,39.4284 56.4278,39.4338 C56.4011,39.4391 56.3467,39.4444 56.3194,39.4444 L56.0417,39.4444 C56.0144,39.4444 55.9601,39.4391 55.9333,39.4338 C55.9065,39.4284 55.8543,39.4126 55.8291,39.4022 C55.8038,39.3917 55.7557,39.366 55.733,39.3508 C55.7103,39.3357 55.6681,39.301 55.6488,39.2817 C55.6295,39.2624 55.5949,39.2202 55.5797,39.1975 C55.5646,39.1748 55.5388,39.1267 55.5284,39.1015 C55.518,39.0763 55.5021,39.024 55.4968,38.9973 C55.4915,38.9705 55.4861,38.9162 55.4861,38.8889 C55.4861,38.8616 55.4915,38.8073 55.4968,38.7805 C55.5021,38.7537 55.518,38.7015 55.5284,38.6763 C55.5388,38.6511 55.5646,38.6029 55.5797,38.5802 C55.5949,38.5575 55.6295,38.5154 55.6488,38.4961 C55.6681,38.4768 55.7103,38.4421 55.733,38.427 C55.7557,38.4118 55.8038,38.3861 55.8291,38.3756 C55.8543,38.3652 55.9065,38.3493 55.9333,38.344 C55.9601,38.3387 56.0144,38.3333 56.0417,38.3333 Z M55,38.4028 C55.0239,38.4028 55.0714,38.4075 55.0948,38.4121 C55.1183,38.4168 55.164,38.4306 55.186,38.4398 C55.2081,38.4489 55.2502,38.4714 55.2701,38.4847 C55.2899,38.498 55.3268,38.5283 55.3437,38.5452 C55.3606,38.562 55.3909,38.599 55.4042,38.6188 C55.4175,38.6387 55.44,38.6808 55.4491,38.7029 C55.4582,38.7249 55.4721,38.7706 55.4768,38.7941 C55.4814,38.8175 55.4861,38.865 55.4861,38.8889 C55.4861,38.9128 55.4814,38.9603 55.4768,38.9837 C55.4721,39.0071 55.4582,39.0529 55.4491,39.0749 C55.44,39.097 55.4175,39.1391 55.4042,39.159 C55.3909,39.1788 55.3606,39.2157 55.3437,39.2326 C55.3268,39.2495 55.2899,39.2798 55.2701,39.2931 C55.2502,39.3063 55.2081,39.3289 55.186,39.338 C55.164,39.3471 55.1183,39.361 55.0948,39.3657 C55.0714,39.3703 55.0239,39.375 55,39.375 L54.8611,39.375 C54.8372,39.375 54.7897,39.3703 54.7663,39.3657 C54.7429,39.361 54.6971,39.3471 54.6751,39.338 C54.653,39.3289 54.6109,39.3063 54.591,39.2931 C54.5712,39.2798 54.5343,39.2495 54.5174,39.2326 C54.5005,39.2157 54.4702,39.1788 54.4569,39.159 C54.4437,39.1391 54.4211,39.097 54.412,39.0749 C54.4029,39.0529 54.389,39.0071 54.3843,38.9837 C54.3797,38.9603 54.375,38.9128 54.375,38.8889 C54.375,38.865 54.3797,38.8175 54.3843,38.7941 C54.389,38.7706 54.4029,38.7249 54.412,38.7029 C54.4211,38.6808 54.4437,38.6387 54.4569,38.6188 C54.4702,38.599 54.5005,38.562 54.5174,38.5452 C54.5343,38.5283 54.5712,38.498 54.591,38.4847 C54.6109,38.4714 54.653,38.4489 54.6751,38.4398 C54.6971,38.4306 54.7429,38.4168 54.7663,38.4121 C54.7897,38.4075 54.8372,38.4028 54.8611,38.4028 Z M56.875,41.3889 L56.875,40.2778 L55.0286,41.3514 C55.0168,41.3582 54.992,41.3696 54.9791,41.374 C54.9662,41.3784 54.9397,41.3846 54.9262,41.3865 C54.9127,41.3883 54.8854,41.3892 54.8718,41.3884 C54.8582,41.3875 54.8313,41.3832 54.8181,41.3797 C54.8114,41.3779 54.7982,41.3737 54.7918,41.3713 C54.7653,41.3644 54.7141,41.3457 54.6895,41.3338 C54.6649,41.322 54.6183,41.2936 54.5965,41.2772 C54.5747,41.2607 54.5345,41.2238 54.5163,41.2034 C54.4981,41.1831 54.4659,41.139 54.4521,41.1155 C54.4382,41.092 54.4152,41.0425 54.4062,41.0167 C54.3972,40.9909 54.3843,40.9379 54.3805,40.9109 C54.3767,40.8839 54.3744,40.8293 54.3759,40.8021 C54.3775,40.7748 54.3859,40.7209 54.3927,40.6945 C54.3995,40.668 54.4183,40.6168 54.4301,40.5922 C54.442,40.5676 54.4704,40.521 54.4868,40.4992 C54.5032,40.4774 54.5401,40.4372 54.5605,40.419 C54.5809,40.4008 54.6249,40.3686 54.6484,40.3548 C54.672,40.3409 54.7215,40.3179 54.7472,40.3089 C54.7581,40.3051 54.7803,40.2984 54.7914,40.2955 M56.875,42.2222 L56.7361,42.2222 M54.375,44.1667 L54.375,43.0556 L55.4861,43.0556 L55.4861,43.6111 C55.4861,43.6384 55.4915,43.6927 55.4968,43.7195 C55.5021,43.7462 55.518,43.7985 55.5284,43.8237 C55.5388,43.8489 55.5646,43.8971 55.5797,43.9197 C55.5949,43.9424 55.6295,43.9846 55.6488,44.0039 C55.6681,44.0232 55.7103,44.0579 55.733,44.073 C55.7557,44.0882 55.8038,44.1139 55.8291,44.1244 C55.8543,44.1348 55.9065,44.1507 55.9333,44.156 C55.96,44.1613 56.0144,44.1667 56.0417,44.1667 L56.3194,44.1667 C56.3467,44.1667 56.401,44.1613 56.4278,44.156 C56.4546,44.1507 56.5068,44.1348 56.532,44.1244 C56.5572,44.1139 56.6054,44.0882 56.6281,44.073 C56.6508,44.0579 56.693,44.0233 56.7123,44.004 C56.7316,43.9847 56.7662,43.9425 56.7814,43.9198 C56.7965,43.8971 56.8223,43.8489 56.8327,43.8237 C56.8432,43.7985 56.859,43.7463 56.8643,43.7195 C56.8696,43.6927 56.875,43.6384 56.875,43.6111 L56.875,43.0556" style="stroke:#808080;stroke-width:0.25;"/>
            </g>
            <path d="M57.5,82.5 L57.9163,80 L57.0837,80 Z" style="stroke:#808080;stroke-width:0.25;fill:#808080;fill-rule:evenodd;"/>
            <path d="M57.5,0 L57.0837,2.5 L57.9163,2.5 Z" style="stroke:#808080;stroke-width:0.25;fill:#808080;fill-rule:evenodd;"/>
        </g>
        <path d="M57.5,82.5 L57.5,0 M0.625,82.5 L58.75,82.5 M43.125,0 L58.75,0 " style="stroke:#808080;stroke-width:0.25;"/>
        <!-- Line -->
        <path d="M100,29.9 L107.5,29.9 " style="stroke:#000000;stroke-width:0.25;"/>
        <!-- Line -->
        <path d="M100,35.1 L107.5,35.1 " style="stroke:#000000;stroke-width:0.25;"/>
        <!-- Line -->
        <path d="M100,35.1 L100,29.9 " style="stroke:#000000;stroke-width:0.25;"/>
        <!-- Rotated Dimension -->
        <g>
            <g>
                <path d="M86.875,13.3333 L86.875,13.8889 C86.875,13.9162 86.8804,13.9705 86.8857,13.9973 C86.891,14.024 86.9068,14.0763 86.9173,14.1015 C86.9277,14.1267 86.9535,14.1748 86.9686,14.1975 C86.9838,14.2202 87.0184,14.2624 87.0377,14.2817 C87.057,14.301 87.0992,14.3357 87.1219,14.3508 C87.1446,14.366 87.1927,14.3917 87.218,14.4022 C87.2432,14.4126 87.2954,14.4284 87.3222,14.4338 C87.3489,14.4391 87.4033,14.4444 87.4306,14.4444 C87.4578,14.4444 87.5122,14.4391 87.5389,14.4338 C87.5657,14.4284 87.6179,14.4126 87.6432,14.4022 C87.6684,14.3917 87.7165,14.366 87.7392,14.3508 C87.7619,14.3357 87.8041,14.301 87.8234,14.2817 C87.8427,14.2624 87.8773,14.2202 87.8925,14.1975 C87.9076,14.1748 87.9334,14.1267 87.9438,14.1015 C87.9543,14.0763 87.9701,14.024 87.9754,13.9973 C87.9808,13.9705 87.9861,13.9162 87.9861,13.8889 C87.9861,13.9162 87.9915,13.9705 87.9968,13.9972 C88.0021,14.024 88.018,14.0763 88.0284,14.1015 C88.0388,14.1267 88.0646,14.1748 88.0797,14.1975 C88.0949,14.2202 88.1295,14.2624 88.1488,14.2817 C88.1681,14.301 88.2103,14.3356 88.233,14.3508 C88.2557,14.366 88.3038,14.3917 88.3291,14.4021 C88.3543,14.4126 88.4065,14.4284 88.4333,14.4338 C88.46,14.4391 88.5144,14.4444 88.5417,14.4444 L88.8194,14.4444 C88.8467,14.4444 88.901,14.4391 88.9278,14.4338 C88.9546,14.4284 89.0068,14.4126 89.032,14.4022 C89.0572,14.3917 89.1054,14.366 89.1281,14.3508 C89.1508,14.3357 89.193,14.301 89.2123,14.2817 C89.2316,14.2624 89.2662,14.2202 89.2814,14.1975 C89.2965,14.1749 89.3223,14.1267 89.3327,14.1015 C89.3432,14.0763 89.359,14.024 89.3643,13.9973 C89.3696,13.9705 89.375,13.9162 89.375,13.8889 L89.375,13.3333 M87.9861,13.8889 L87.9861,13.6111 M89.375,16.3889 L89.375,15.2778 L87.5286,16.3514 C87.5168,16.3582 87.492,16.3696 87.4791,16.374 C87.4662,16.3784 87.4397,16.3846 87.4262,16.3865 C87.4127,16.3883 87.3854,16.3892 87.3718,16.3884 C87.3582,16.3875 87.3313,16.3832 87.3181,16.3797 C87.3114,16.3779 87.2982,16.3737 87.2918,16.3713 C87.2653,16.3644 87.2141,16.3457 87.1895,16.3338 C87.1649,16.322 87.1183,16.2936 87.0965,16.2772 C87.0747,16.2607 87.0345,16.2238 87.0163,16.2034 C86.9981,16.1831 86.9659,16.139 86.9521,16.1155 C86.9382,16.092 86.9152,16.0425 86.9062,16.0167 C86.8972,15.9909 86.8843,15.9379 86.8805,15.9109 C86.8767,15.8839 86.8744,15.8293 86.8759,15.8021 C86.8775,15.7748 86.8859,15.7209 86.8927,15.6945 C86.8995,15.668 86.9183,15.6168 86.9301,15.5922 C86.942,15.5676 86.9704,15.521 86.9868,15.4992 C87.0032,15.4774 87.0401,15.4372 87.0605,15.419 C87.0809,15.4008 87.1249,15.3686 87.1484,15.3548 C87.172,15.3409 87.2215,15.3179 87.2472,15.3089 C87.2581,15.3051 87.2803,15.2984 87.2914,15.2955 M89.375,17.2222 L89.2361,17.2222 M86.875,19.1667 L86.875,18.0556 L87.9861,18.0556 L87.9861,18.6111 C87.9861,18.6384 87.9915,18.6927 87.9968,18.7195 C88.0021,18.7462 88.018,18.7985 88.0284,18.8237 C88.0388,18.8489 88.0646,18.8971 88.0797,18.9197 C88.0949,18.9424 88.1295,18.9846 88.1488,19.0039 C88.1681,19.0232 88.2103,19.0579 88.233,19.073 C88.2557,19.0882 88.3038,19.1139 88.3291,19.1244 C88.3543,19.1348 88.4065,19.1507 88.4333,19.156 C88.46,19.1613 88.5144,19.1667 88.5417,19.1667 L88.8194,19.1667 C88.8467,19.1667 88.901,19.1613 88.9278,19.156 C88.9546,19.1507 89.0068,19.1348 89.032,19.1244 C89.0572,19.1139 89.1054,19.0882 89.1281,19.073 C89.1508,19.0579 89.193,19.0233 89.2123,19.004 C89.2316,18.9847 89.2662,18.9425 89.2814,18.9198 C89.2965,18.8971 89.3223,18.8489 89.3327,18.8237 C89.3432,18.7985 89.359,18.7463 89.3643,18.7195 C89.3696,18.6927 89.375,18.6384 89.375,18.6111 L89.375,18.0556" style="stroke:#808080;stroke-width:0.25;"/>
            </g>
            <path d="M90,32.5 L90.4163,30 L89.5837,30 Z" style="stroke:#808080;stroke-width:0.25;fill:#808080;fill-rule:evenodd;"/>
            <path d="M90,0 L89.5837,2.5 L90.4163,2.5 Z" style="stroke:#808080;stroke-width:0.25;fill:#808080;fill-rule:evenodd;"/>
        </g>
        <path d="M90,32.5 L90,0 M99.375,32.5 L88.75,32.5 M99.375,0 L88.75,0 " style="stroke:#808080;stroke-width:0.25;"/>
        <!-- Aligned Dimension -->
        <g>
            <g>
                <path d="M109.375,31.6667 L109.375,30.5556 L110.4861,30.5556 L110.4861,31.1111 C110.4861,31.1384 110.4915,31.1927 110.4968,31.2195 C110.5021,31.2462 110.518,31.2985 110.5284,31.3237 C110.5388,31.3489 110.5646,31.3971 110.5797,31.4197 C110.5949,31.4424 110.6295,31.4846 110.6488,31.5039 C110.6681,31.5232 110.7103,31.5579 110.733,31.573 C110.7557,31.5882 110.8038,31.6139 110.8291,31.6244 C110.8543,31.6348 110.9065,31.6507 110.9333,31.656 C110.96,31.6613 111.0144,31.6667 111.0417,31.6667 L111.3194,31.6667 C111.3467,31.6667 111.401,31.6613 111.4278,31.656 C111.4546,31.6507 111.5068,31.6348 111.532,31.6244 C111.5572,31.6139 111.6054,31.5882 111.6281,31.573 C111.6508,31.5579 111.693,31.5233 111.7123,31.504 C111.7316,31.4847 111.7662,31.4425 111.7814,31.4198 C111.7965,31.3971 111.8223,31.3489 111.8327,31.3237 C111.8432,31.2985 111.859,31.2463 111.8643,31.2195 C111.8696,31.1927 111.875,31.1384 111.875,31.1111 L111.875,30.5556 M111.875,32.5 L111.7361,32.5 M111.875,34.4444 L111.875,33.3333 L110.0286,34.4069 C110.0168,34.4138 109.992,34.4251 109.9791,34.4295 C109.9662,34.4339 109.9397,34.4402 109.9262,34.442 C109.9127,34.4438 109.8854,34.4448 109.8718,34.4439 C109.8582,34.4431 109.8313,34.4387 109.8181,34.4352 C109.8114,34.4335 109.7982,34.4292 109.7918,34.4268 C109.7653,34.42 109.7141,34.4012 109.6895,34.3894 C109.6649,34.3775 109.6183,34.3491 109.5965,34.3327 C109.5747,34.3163 109.5345,34.2794 109.5163,34.259 C109.4981,34.2386 109.4659,34.1946 109.4521,34.1711 C109.4382,34.1475 109.4152,34.098 109.4062,34.0723 C109.3972,34.0465 109.3843,33.9935 109.3805,33.9664 C109.3767,33.9394 109.3744,33.8849 109.3759,33.8576 C109.3775,33.8304 109.3859,33.7764 109.3927,33.75 C109.3995,33.7236 109.4183,33.6723 109.4301,33.6477 C109.442,33.6231 109.4704,33.5765 109.4868,33.5547 C109.5032,33.5329 109.5401,33.4927 109.5605,33.4746 C109.5809,33.4564 109.6249,33.4242 109.6484,33.4103 C109.672,33.3964 109.7215,33.3735 109.7472,33.3645 C109.7581,33.3606 109.7803,33.3539 109.7914,33.351" style="stroke:#808080;stroke-width:0.25;"/>
            </g>
            <path d="M112.5,35.1 L112.0837,37.6 L112.9163,37.6 Z" style="stroke:#808080;stroke-width:0.25;fill:#808080;fill-rule:evenodd;"/>
            <path d="M112.5,29.9 L112.9163,27.4 L112.0837,27.4 Z" style="stroke:#808080;stroke-width:0.25;fill:#808080;fill-rule:evenodd;"/>
        </g>
        <path d="M108.125,35.1 L113.75,35.1 M108.125,29.9 L113.75,29.9 M112.5,40.1 L112.5,24.9 " style="stroke:#808080;stroke-width:0.25;"/>
        <!-- Aligned Dimension -->
        <g>
            <g>
                <path d="M129.3056,-6.875 C129.2346,-6.9159 129.1015,-7.0113 129.04,-7.0653 C128.9784,-7.1193 128.8664,-7.2389 128.8166,-7.3038 C128.7668,-7.3688 128.6803,-7.5079 128.6441,-7.5814 C128.6079,-7.6548 128.5502,-7.8081 128.529,-7.8872 C128.5078,-7.9663 128.4811,-8.1279 128.4758,-8.2096 C128.474,-8.2368 128.4722,-8.2911 128.4722,-8.3183 L128.4722,-8.8195 C128.4722,-8.8467 128.4776,-8.9011 128.4829,-8.9278 C128.4882,-8.9546 128.5041,-9.0068 128.5145,-9.0321 C128.525,-9.0573 128.5507,-9.1054 128.5659,-9.1281 C128.581,-9.1508 128.6157,-9.193 128.635,-9.2123 C128.6542,-9.2316 128.6964,-9.2662 128.7191,-9.2814 C128.7418,-9.2965 128.79,-9.3223 128.8152,-9.3327 C128.8404,-9.3432 128.8926,-9.359 128.9194,-9.3643 C128.9462,-9.3697 129.0005,-9.375 129.0278,-9.375 C129.0551,-9.375 129.1094,-9.3697 129.1362,-9.3643 C129.1629,-9.359 129.2152,-9.3432 129.2404,-9.3327 C129.2656,-9.3223 129.3137,-9.2965 129.3364,-9.2814 C129.3591,-9.2662 129.4013,-9.2316 129.4206,-9.2123 C129.4399,-9.193 129.4746,-9.1508 129.4897,-9.1281 C129.5049,-9.1054 129.5306,-9.0573 129.5411,-9.0321 C129.5515,-9.0068 129.5673,-8.9546 129.5727,-8.9278 C129.578,-8.9011 129.5833,-8.8467 129.5833,-8.8195 L129.5833,-8.5417 C129.5833,-8.5144 129.578,-8.4601 129.5727,-8.4333 C129.5673,-8.4065 129.5515,-8.3543 129.541,-8.3291 C129.5306,-8.3039 129.5049,-8.2557 129.4897,-8.233 C129.4745,-8.2103 129.4399,-8.1681 129.4206,-8.1488 C129.4013,-8.1295 129.3591,-8.0949 129.3364,-8.0797 C129.3137,-8.0646 129.2656,-8.0388 129.2404,-8.0284 C129.2152,-8.018 129.1629,-8.0021 129.1361,-7.9968 C129.1094,-7.9915 129.0551,-7.9861 129.0278,-7.9861 L128.5057,-7.9861 M130.718,-7.0131 C130.6788,-7.0655 130.611,-7.1776 130.5827,-7.2366 C130.5545,-7.2957 130.5099,-7.4188 130.4937,-7.4822 C130.4882,-7.5037 130.4787,-7.547 130.4747,-7.5688 C130.4478,-7.6941 130.4189,-7.9488 130.417,-8.0769 C130.4168,-8.0888 130.4167,-8.1126 130.4167,-8.1245 C130.4162,-8.2527 130.4403,-8.508 130.4648,-8.6339 C130.4671,-8.6455 130.4718,-8.6689 130.4743,-8.6805 C130.4862,-8.7449 130.5226,-8.8707 130.5469,-8.9315 C130.5712,-8.9924 130.6314,-9.1087 130.667,-9.1636 C130.6791,-9.1822 130.7045,-9.2185 130.7177,-9.2363 C130.7258,-9.2488 130.7442,-9.2721 130.7545,-9.2828 C130.7649,-9.2935 130.7875,-9.3127 130.7997,-9.3212 C130.8119,-9.3297 130.8379,-9.3442 130.8515,-9.3501 C130.8651,-9.356 130.8934,-9.3652 130.9079,-9.3683 C130.9225,-9.3715 130.952,-9.3749 130.9669,-9.3752 C130.9817,-9.3755 131.0114,-9.3731 131.026,-9.3704 C131.0406,-9.3678 131.0692,-9.3597 131.083,-9.3542 C131.0969,-9.3488 131.1233,-9.3353 131.1358,-9.3272 C131.1483,-9.3192 131.1717,-9.3007 131.1824,-9.2904 C131.1931,-9.2801 131.2123,-9.2575 131.2208,-9.2452 C131.2222,-9.2432 131.225,-9.239 131.2264,-9.2369 C131.2656,-9.1845 131.3334,-9.0725 131.3617,-9.0134 C131.3899,-8.9543 131.4346,-8.8312 131.4507,-8.7678 C131.4562,-8.7463 131.4657,-8.703 131.4698,-8.6813 C131.4966,-8.5559 131.5256,-8.3013 131.5275,-8.1731 C131.5277,-8.1612 131.5278,-8.1374 131.5278,-8.1255 C131.5283,-7.9972 131.5041,-7.7418 131.4795,-7.616 C131.4773,-7.6043 131.4725,-7.5809 131.47,-7.5693 C131.458,-7.5048 131.4216,-7.3789 131.3973,-7.318 C131.373,-7.2572 131.3127,-7.1408 131.277,-7.0858 C131.265,-7.0674 131.24,-7.0315 131.2268,-7.014 C131.2188,-7.0014 131.2004,-6.9781 131.1901,-6.9674 C131.1797,-6.9567 131.1571,-6.9374 131.1449,-6.9289 C131.1327,-6.9204 131.1067,-6.9059 131.0931,-6.9 C131.0795,-6.894 131.0512,-6.8849 131.0367,-6.8817 C131.0221,-6.8785 130.9926,-6.8751 130.9778,-6.8748 C130.9629,-6.8745 130.9332,-6.8769 130.9186,-6.8795 C130.904,-6.8822 130.8754,-6.8903 130.8615,-6.8957 C130.8477,-6.9011 130.8212,-6.9147 130.8087,-6.9227 C130.7962,-6.9307 130.7729,-6.9491 130.7621,-6.9595 C130.7514,-6.9698 130.7322,-6.9924 130.7237,-7.0046 C130.7222,-7.0067 130.7194,-7.0109 130.718,-7.0131" style="stroke:#808080;stroke-width:0.25;"/>
            </g>
            <path d="M100,-10 L102.5,-9.5837 L102.5,-10.4163 Z" style="stroke:#808080;stroke-width:0.25;fill:#808080;fill-rule:evenodd;"/>
            <path d="M160,-10 L157.5,-10.4163 L157.5,-9.5837 Z" style="stroke:#808080;stroke-width:0.25;fill:#808080;fill-rule:evenodd;"/>
        </g>
        <path d="M100,-0.625 L100,-11.25 M160,-0.625 L160,-11.25 M100,-10 L160,-10 " style="stroke:#808080;stroke-width:0.25;"/>
        <!-- Rotated Dimension -->
        <g>
            <g>
                <path d="M79.375,46.1111 C79.3341,46.182 79.2387,46.3151 79.1847,46.3767 C79.1307,46.4383 79.0111,46.5502 78.9461,46.6001 C78.8812,46.6499 78.7421,46.7364 78.6686,46.7726 C78.5952,46.8088 78.4419,46.8665 78.3628,46.8877 C78.2837,46.9089 78.1221,46.9355 78.0404,46.9409 C78.0132,46.9427 77.9588,46.9444 77.9316,46.9444 L77.4305,46.9444 C77.4032,46.9444 77.3489,46.9391 77.3221,46.9338 C77.2954,46.9284 77.2431,46.9126 77.2179,46.9022 C77.1927,46.8917 77.1446,46.866 77.1219,46.8508 C77.0992,46.8357 77.057,46.801 77.0377,46.7817 C77.0184,46.7624 76.9838,46.7202 76.9686,46.6975 C76.9534,46.6748 76.9277,46.6267 76.9173,46.6015 C76.9068,46.5763 76.891,46.524 76.8856,46.4973 C76.8803,46.4705 76.875,46.4162 76.875,46.3889 C76.875,46.3616 76.8803,46.3073 76.8856,46.2805 C76.891,46.2537 76.9068,46.2015 76.9173,46.1763 C76.9277,46.1511 76.9534,46.1029 76.9686,46.0802 C76.9838,46.0575 77.0184,46.0154 77.0377,45.9961 C77.057,45.9768 77.0992,45.9421 77.1219,45.927 C77.1446,45.9118 77.1927,45.8861 77.2179,45.8756 C77.2431,45.8652 77.2954,45.8493 77.3221,45.844 C77.3489,45.8387 77.4032,45.8333 77.4305,45.8333 L77.7083,45.8333 C77.7356,45.8333 77.7899,45.8387 77.8167,45.844 C77.8435,45.8493 77.8957,45.8652 77.9209,45.8756 C77.9461,45.8861 77.9943,45.9118 78.017,45.927 C78.0397,45.9421 78.0818,45.9768 78.1011,45.9961 C78.1204,46.0154 78.1551,46.0576 78.1702,46.0803 C78.1854,46.1029 78.2111,46.1511 78.2216,46.1763 C78.232,46.2015 78.2479,46.2538 78.2532,46.2805 C78.2585,46.3073 78.2639,46.3616 78.2639,46.3889 L78.2639,46.9111 M76.875,47.7778 L76.875,48.8889 L79.375,48.1944 M77.9861,48.3333 L77.9861,48.8889 M79.375,49.7222 L79.2361,49.7222 M76.875,51.6667 L76.875,50.5556 L77.9861,50.5556 L77.9861,51.1111 C77.9861,51.1384 77.9914,51.1927 77.9968,51.2195 C78.0021,51.2462 78.0179,51.2985 78.0284,51.3237 C78.0388,51.3489 78.0645,51.3971 78.0797,51.4197 C78.0949,51.4424 78.1295,51.4846 78.1488,51.5039 C78.1681,51.5232 78.2103,51.5579 78.233,51.573 C78.2557,51.5882 78.3038,51.6139 78.329,51.6244 C78.3542,51.6348 78.4065,51.6507 78.4333,51.656 C78.46,51.6613 78.5143,51.6667 78.5416,51.6667 L78.8194,51.6667 C78.8467,51.6667 78.901,51.6613 78.9278,51.656 C78.9545,51.6507 79.0068,51.6348 79.032,51.6244 C79.0572,51.6139 79.1054,51.5882 79.1281,51.573 C79.1507,51.5579 79.1929,51.5233 79.2122,51.504 C79.2315,51.4847 79.2662,51.4425 79.2813,51.4198 C79.2965,51.3971 79.3222,51.3489 79.3327,51.3237 C79.3431,51.2985 79.359,51.2463 79.3643,51.2195 C79.3696,51.1927 79.375,51.1384 79.375,51.1111 L79.375,50.5556" style="stroke:#808080;stroke-width:0.25;"/>
            </g>
            <path d="M80,0 L79.5837,2.5 L80.4163,2.5 Z" style="stroke:#808080;stroke-width:0.25;fill:#808080;fill-rule:evenodd;"/>
            <path d="M80,97.5 L80.4163,95 L79.5837,95 Z" style="stroke:#808080;stroke-width:0.25;fill:#808080;fill-rule:evenodd;"/>
        </g>
        <path d="M80,0 L80,97.5 M99.375,0 L78.75,0 M99.375,97.5 L78.75,97.5 " style="stroke:#808080;stroke-width:0.25;"/>
        <!-- Rotated Dimension -->
        <g>
            <g>
                <path d="M61.875,46.1111 C61.8341,46.182 61.7387,46.3151 61.6847,46.3767 C61.6307,46.4383 61.5111,46.5502 61.4461,46.6001 C61.3812,46.6499 61.2421,46.7364 61.1686,46.7726 C61.0952,46.8088 60.9419,46.8665 60.8628,46.8877 C60.7837,46.9089 60.6221,46.9355 60.5404,46.9409 C60.5132,46.9427 60.4588,46.9444 60.4316,46.9444 L59.9305,46.9444 C59.9032,46.9444 59.8489,46.9391 59.8221,46.9338 C59.7954,46.9284 59.7431,46.9126 59.7179,46.9022 C59.6927,46.8917 59.6446,46.866 59.6219,46.8508 C59.5992,46.8357 59.557,46.801 59.5377,46.7817 C59.5184,46.7624 59.4838,46.7202 59.4686,46.6975 C59.4534,46.6748 59.4277,46.6267 59.4173,46.6015 C59.4068,46.5763 59.391,46.524 59.3856,46.4973 C59.3803,46.4705 59.375,46.4162 59.375,46.3889 C59.375,46.3616 59.3803,46.3073 59.3856,46.2805 C59.391,46.2537 59.4068,46.2015 59.4173,46.1763 C59.4277,46.1511 59.4534,46.1029 59.4686,46.0802 C59.4838,46.0575 59.5184,46.0154 59.5377,45.9961 C59.557,45.9768 59.5992,45.9421 59.6219,45.927 C59.6446,45.9118 59.6927,45.8861 59.7179,45.8756 C59.7431,45.8652 59.7954,45.8493 59.8221,45.844 C59.8489,45.8387 59.9032,45.8333 59.9305,45.8333 L60.2083,45.8333 C60.2356,45.8333 60.2899,45.8387 60.3167,45.844 C60.3435,45.8493 60.3957,45.8652 60.4209,45.8756 C60.4461,45.8861 60.4943,45.9118 60.517,45.927 C60.5397,45.9421 60.5818,45.9768 60.6011,45.9961 C60.6204,46.0154 60.6551,46.0576 60.6702,46.0803 C60.6854,46.1029 60.7111,46.1511 60.7216,46.1763 C60.732,46.2015 60.7479,46.2538 60.7532,46.2805 C60.7585,46.3073 60.7639,46.3616 60.7639,46.3889 L60.7639,46.9111 M59.375,47.7778 L59.375,48.8889 L61.875,48.1944 M60.4861,48.3333 L60.4861,48.8889 M61.875,49.7222 L61.7361,49.7222 M59.375,51.6667 L59.375,50.5556 L60.4861,50.5556 L60.4861,51.1111 C60.4861,51.1384 60.4914,51.1927 60.4968,51.2195 C60.5021,51.2462 60.5179,51.2985 60.5284,51.3237 C60.5388,51.3489 60.5645,51.3971 60.5797,51.4197 C60.5949,51.4424 60.6295,51.4846 60.6488,51.5039 C60.6681,51.5232 60.7103,51.5579 60.733,51.573 C60.7557,51.5882 60.8038,51.6139 60.829,51.6244 C60.8542,51.6348 60.9065,51.6507 60.9333,51.656 C60.96,51.6613 61.0143,51.6667 61.0416,51.6667 L61.3194,51.6667 C61.3467,51.6667 61.401,51.6613 61.4278,51.656 C61.4545,51.6507 61.5068,51.6348 61.532,51.6244 C61.5572,51.6139 61.6054,51.5882 61.6281,51.573 C61.6507,51.5579 61.6929,51.5233 61.7122,51.504 C61.7315,51.4847 61.7662,51.4425 61.7813,51.4198 C61.7965,51.3971 61.8222,51.3489 61.8327,51.3237 C61.8431,51.2985 61.859,51.2463 61.8643,51.2195 C61.8696,51.1927 61.875,51.1384 61.875,51.1111 L61.875,50.5556" style="stroke:#808080;stroke-width:0.25;"/>
            </g>
            <path d="M62.5,97.5 L62.9163,95 L62.0837,95 Z" style="stroke:#808080;stroke-width:0.25;fill:#808080;fill-rule:evenodd;"/>
            <path d="M62.5,0 L62.0837,2.5 L62.9163,2.5 Z" style="stroke:#808080;stroke-width:0.25;fill:#808080;fill-rule:evenodd;"/>
        </g>
        <path d="M62.5,97.5 L62.5,0 M8.125,97.5 L63.75,97.5 M43.125,0 L63.75,0 " style="stroke:#808080;stroke-width:0.25;"/>
        <!-- Rotated Dimension -->
        <g>
            <g>
                <path d="M91.875,1.8056 L91.875,2.9167 L94.375,2.2222 M92.9861,2.3611 L92.9861,2.9167 M94.375,3.75 L94.2361,3.75 M91.875,5.6944 L91.875,4.5833 L92.9861,4.5833 L92.9861,5.1389 C92.9861,5.1662 92.9915,5.2205 92.9968,5.2472 C93.0021,5.274 93.018,5.3263 93.0284,5.3515 C93.0388,5.3767 93.0646,5.4248 93.0797,5.4475 C93.0949,5.4702 93.1295,5.5124 93.1488,5.5317 C93.1681,5.551 93.2103,5.5856 93.233,5.6008 C93.2557,5.616 93.3038,5.6417 93.3291,5.6521 C93.3543,5.6626 93.4065,5.6784 93.4333,5.6838 C93.46,5.6891 93.5144,5.6944 93.5417,5.6944 L93.8194,5.6944 C93.8467,5.6944 93.901,5.6891 93.9278,5.6838 C93.9546,5.6784 94.0068,5.6626 94.032,5.6522 C94.0572,5.6417 94.1054,5.616 94.1281,5.6008 C94.1508,5.5857 94.193,5.551 94.2123,5.5317 C94.2316,5.5124 94.2662,5.4702 94.2814,5.4475 C94.2965,5.4249 94.3223,5.3767 94.3327,5.3515 C94.3432,5.3263 94.359,5.274 94.3643,5.2473 C94.3696,5.2205 94.375,5.1662 94.375,5.1389 L94.375,4.5833" style="stroke:#808080;stroke-width:0.25;"/>
            </g>
            <path d="M95,7.5 L95.4163,5 L94.5837,5 Z" style="stroke:#808080;stroke-width:0.25;fill:#808080;fill-rule:evenodd;"/>
            <path d="M95,0 L94.5837,2.5 L95.4163,2.5 Z" style="stroke:#808080;stroke-width:0.25;fill:#808080;fill-rule:evenodd;"/>
        </g>
        <path d="M95,7.5 L95,0 M111.875,7.5 L93.75,7.5 M99.375,0 L93.75,0 " style="stroke:#808080;stroke-width:0.25;"/>
        <!-- Rotated Dimension -->
        <g>
            <g>
                <path d="M154.3056,-1.875 L155.4167,-1.875 L154.7222,-4.375 M154.8611,-2.9861 L155.4167,-2.9861 M156.25,-4.375 L156.25,-4.2361 M158.1944,-1.875 L157.0833,-1.875 L157.0833,-2.9861 L157.6389,-2.9861 C157.6662,-2.9861 157.7205,-2.9915 157.7472,-2.9968 C157.774,-3.0021 157.8263,-3.018 157.8515,-3.0284 C157.8767,-3.0388 157.9248,-3.0646 157.9475,-3.0797 C157.9702,-3.0949 158.0124,-3.1295 158.0317,-3.1488 C158.051,-3.1681 158.0856,-3.2103 158.1008,-3.233 C158.116,-3.2557 158.1417,-3.3038 158.1521,-3.3291 C158.1626,-3.3543 158.1784,-3.4065 158.1838,-3.4333 C158.1891,-3.46 158.1944,-3.5144 158.1944,-3.5417 L158.1944,-3.8194 C158.1944,-3.8467 158.1891,-3.901 158.1838,-3.9278 C158.1784,-3.9546 158.1626,-4.0068 158.1522,-4.032 C158.1417,-4.0572 158.116,-4.1054 158.1008,-4.1281 C158.0857,-4.1508 158.051,-4.193 158.0317,-4.2123 C158.0124,-4.2316 157.9702,-4.2662 157.9475,-4.2814 C157.9249,-4.2965 157.8767,-4.3223 157.8515,-4.3327 C157.8263,-4.3432 157.774,-4.359 157.7473,-4.3643 C157.7205,-4.3696 157.6662,-4.375 157.6389,-4.375 L157.0833,-4.375" style="stroke:#808080;stroke-width:0.25;"/>
            </g>
            <path d="M152.5,-5 L155,-4.5837 L155,-5.4163 Z" style="stroke:#808080;stroke-width:0.25;fill:#808080;fill-rule:evenodd;"/>
            <path d="M160,-5 L157.5,-5.4163 L157.5,-4.5837 Z" style="stroke:#808080;stroke-width:0.25;fill:#808080;fill-rule:evenodd;"/>
        </g>
        <path d="M152.5,-5 L160,-5 M152.5,11.875 L152.5,-6.25 M160,-0.625 L160,-6.25 " style="stroke:#808080;stroke-width:0.25;"/>
        <!-- Arc -->
        <path d="M102.5,97.5 A5,5 0 0,0 107.5,92.5" style="stroke:#000000;stroke-width:0.25;"/>
        <!-- Rotated Dimension -->
        <g>
            <g>
                <path d="M101.8056,105.625 L102.9167,105.625 L102.2222,103.125 M102.3611,104.5139 L102.9167,104.5139 M103.75,103.125 L103.75,103.2639 M105.6944,105.625 L104.5833,105.625 L104.5833,104.5139 L105.1389,104.5139 C105.1662,104.5139 105.2205,104.5085 105.2472,104.5032 C105.274,104.4979 105.3263,104.482 105.3515,104.4716 C105.3767,104.4612 105.4248,104.4354 105.4475,104.4203 C105.4702,104.4051 105.5124,104.3705 105.5317,104.3512 C105.551,104.3319 105.5856,104.2897 105.6008,104.267 C105.616,104.2443 105.6417,104.1962 105.6521,104.1709 C105.6626,104.1457 105.6784,104.0935 105.6838,104.0667 C105.6891,104.04 105.6944,103.9856 105.6944,103.9583 L105.6944,103.6806 C105.6944,103.6533 105.6891,103.599 105.6838,103.5722 C105.6784,103.5454 105.6626,103.4932 105.6522,103.468 C105.6417,103.4428 105.616,103.3946 105.6008,103.3719 C105.5857,103.3492 105.551,103.307 105.5317,103.2877 C105.5124,103.2684 105.4702,103.2338 105.4475,103.2186 C105.4249,103.2035 105.3767,103.1777 105.3515,103.1673 C105.3263,103.1568 105.274,103.141 105.2473,103.1357 C105.2205,103.1304 105.1662,103.125 105.1389,103.125 L104.5833,103.125" style="stroke:#808080;stroke-width:0.25;"/>
            </g>
            <path d="M100,102.5 L102.5,102.9163 L102.5,102.0837 Z" style="stroke:#808080;stroke-width:0.25;fill:#808080;fill-rule:evenodd;"/>
            <path d="M107.5,102.5 L105,102.0837 L105,102.9163 Z" style="stroke:#808080;stroke-width:0.25;fill:#808080;fill-rule:evenodd;"/>
        </g>
        <path d="M100,102.5 L107.5,102.5 M100,98.125 L100,103.75 M107.5,93.125 L107.5,103.75 " style="stroke:#808080;stroke-width:0.25;"/>
        <!-- Rotated Dimension -->
        <g>
            <g>
                <path d="M158.0556,35.625 L156.9444,35.625 L156.9444,34.5139 L157.5,34.5139 C157.5273,34.5139 157.5816,34.5085 157.6084,34.5032 C157.6351,34.4979 157.6874,34.482 157.7126,34.4716 C157.7378,34.4612 157.7859,34.4354 157.8086,34.4203 C157.8313,34.4051 157.8735,34.3705 157.8928,34.3512 C157.9121,34.3319 157.9468,34.2897 157.9619,34.267 C157.9771,34.2443 158.0028,34.1962 158.0133,34.1709 C158.0237,34.1457 158.0396,34.0935 158.0449,34.0667 C158.0502,34.04 158.0556,33.9856 158.0556,33.9583 L158.0556,33.6806 C158.0556,33.6533 158.0502,33.599 158.0449,33.5722 C158.0396,33.5454 158.0237,33.4932 158.0133,33.468 C158.0028,33.4428 157.9771,33.3946 157.9619,33.3719 C157.9468,33.3492 157.9121,33.307 157.8928,33.2877 C157.8735,33.2684 157.8313,33.2338 157.8087,33.2186 C157.786,33.2035 157.7378,33.1777 157.7126,33.1673 C157.6874,33.1568 157.6352,33.141 157.6084,33.1357 C157.5816,33.1304 157.5273,33.125 157.5,33.125 L156.9444,33.125" style="stroke:#808080;stroke-width:0.25;"/>
            </g>
            <path d="M155,32.5 L152.5,32.0837 L152.5,32.9163 Z" style="stroke:#808080;stroke-width:0.25;fill:#808080;fill-rule:evenodd;"/>
            <path d="M160,32.5 L162.5,32.9163 L162.5,32.0837 Z" style="stroke:#808080;stroke-width:0.25;fill:#808080;fill-rule:evenodd;"/>
        </g>
        <path d="M150,32.5 L165,32.5 M155,28.125 L155,33.75 M160,23.125 L160,33.75 " style="stroke:#808080;stroke-width:0.25;"/>
        <!-- Rotated Dimension -->
        <g>
            <g>
                <path d="M161.875,25.5556 L161.875,24.4444 L162.9861,24.4444 L162.9861,25 C162.9861,25.0273 162.9915,25.0816 162.9968,25.1084 C163.0021,25.1351 163.018,25.1874 163.0284,25.2126 C163.0388,25.2378 163.0646,25.2859 163.0797,25.3086 C163.0949,25.3313 163.1295,25.3735 163.1488,25.3928 C163.1681,25.4121 163.2103,25.4468 163.233,25.4619 C163.2557,25.4771 163.3038,25.5028 163.3291,25.5133 C163.3543,25.5237 163.4065,25.5396 163.4333,25.5449 C163.46,25.5502 163.5144,25.5556 163.5417,25.5556 L163.8194,25.5556 C163.8467,25.5556 163.901,25.5502 163.9278,25.5449 C163.9546,25.5396 164.0068,25.5237 164.032,25.5133 C164.0572,25.5028 164.1054,25.4771 164.1281,25.4619 C164.1508,25.4468 164.193,25.4121 164.2123,25.3928 C164.2316,25.3735 164.2662,25.3313 164.2814,25.3087 C164.2965,25.286 164.3223,25.2378 164.3327,25.2126 C164.3432,25.1874 164.359,25.1352 164.3643,25.1084 C164.3696,25.0816 164.375,25.0273 164.375,25 L164.375,24.4444" style="stroke:#808080;stroke-width:0.25;"/>
            </g>
            <path d="M165,27.5 L164.5837,30 L165.4163,30 Z" style="stroke:#808080;stroke-width:0.25;fill:#808080;fill-rule:evenodd;"/>
            <path d="M165,22.5 L165.4163,20 L164.5837,20 Z" style="stroke:#808080;stroke-width:0.25;fill:#808080;fill-rule:evenodd;"/>
        </g>
        <path d="M165,32.5 L165,17.5 M155.625,27.5 L166.25,27.5 M160.625,22.5 L166.25,22.5 " style="stroke:#808080;stroke-width:0.25;"/>
        <!-- Rotated Dimension -->
        <g>
            <g>
                <path d="M169.375,11.9444 L169.375,10.8333 L167.5286,11.9069 C167.5168,11.9138 167.492,11.9251 167.4791,11.9295 C167.4662,11.9339 167.4397,11.9402 167.4262,11.942 C167.4127,11.9438 167.3854,11.9448 167.3718,11.9439 C167.3582,11.9431 167.3313,11.9387 167.3181,11.9352 C167.3114,11.9335 167.2982,11.9292 167.2918,11.9268 C167.2653,11.92 167.2141,11.9012 167.1895,11.8894 C167.1649,11.8775 167.1183,11.8491 167.0965,11.8327 C167.0747,11.8163 167.0345,11.7794 167.0163,11.759 C166.9981,11.7386 166.9659,11.6946 166.9521,11.6711 C166.9382,11.6475 166.9152,11.598 166.9062,11.5723 C166.8972,11.5465 166.8843,11.4935 166.8805,11.4664 C166.8767,11.4394 166.8744,11.3849 166.8759,11.3576 C166.8775,11.3304 166.8859,11.2764 166.8927,11.25 C166.8995,11.2236 166.9183,11.1723 166.9301,11.1477 C166.942,11.1231 166.9704,11.0765 166.9868,11.0547 C167.0032,11.0329 167.0401,10.9927 167.0605,10.9746 C167.0809,10.9564 167.1249,10.9242 167.1484,10.9103 C167.172,10.8964 167.2215,10.8735 167.2472,10.8645 C167.2581,10.8606 167.2803,10.8539 167.2914,10.851 M166.875,12.7778 L166.875,13.8889 L169.375,13.1944 M167.9861,13.3333 L167.9861,13.8889 M169.375,14.7222 L169.2361,14.7222 M166.875,16.6667 L166.875,15.5556 L167.9861,15.5556 L167.9861,16.1111 C167.9861,16.1384 167.9915,16.1927 167.9968,16.2195 C168.0021,16.2462 168.018,16.2985 168.0284,16.3237 C168.0388,16.3489 168.0646,16.3971 168.0797,16.4197 C168.0949,16.4424 168.1295,16.4846 168.1488,16.5039 C168.1681,16.5232 168.2103,16.5579 168.233,16.573 C168.2557,16.5882 168.3038,16.6139 168.3291,16.6244 C168.3543,16.6348 168.4065,16.6507 168.4333,16.656 C168.46,16.6613 168.5144,16.6667 168.5417,16.6667 L168.8194,16.6667 C168.8467,16.6667 168.901,16.6613 168.9278,16.656 C168.9546,16.6507 169.0068,16.6348 169.032,16.6244 C169.0572,16.6139 169.1054,16.5882 169.1281,16.573 C169.1508,16.5579 169.193,16.5233 169.2123,16.504 C169.2316,16.4847 169.2662,16.4425 169.2814,16.4198 C169.2965,16.3971 169.3223,16.3489 169.3327,16.3237 C169.3432,16.2985 169.359,16.2463 169.3643,16.2195 C169.3696,16.1927 169.375,16.1384 169.375,16.1111 L169.375,15.5556" style="stroke:#808080;stroke-width:0.25;"/>
            </g>
            <path d="M170,27.5 L170.4163,25 L169.5837,25 Z" style="stroke:#808080;stroke-width:0.25;fill:#808080;fill-rule:evenodd;"/>
            <path d="M170,0 L169.5837,2.5 L170.4163,2.5 Z" style="stroke:#808080;stroke-width:0.25;fill:#808080;fill-rule:evenodd;"/>
        </g>
        <path d="M170,27.5 L170,0 M153.125,27.5 L171.25,27.5 M160.625,0 L171.25,0 " style="stroke:#808080;stroke-width:0.25;"/>
        <!-- Line -->
        <path d="M100,85.1 L107.5,85.1 " style="stroke:#000000;stroke-width:0.25;"/>
        <!-- Line -->
        <path d="M100,79.9 L107.5,79.9 " style="stroke:#000000;stroke-width:0.25;"/>
        <!-- Line -->
        <path d="M100,85.1 L100,79.9 " style="stroke:#000000;stroke-width:0.25;"/>
        <!-- Rotated Dimension -->
        <g>
            <g>
                <path d="M83.8194,38.3333 C83.8467,38.3333 83.9011,38.3387 83.9278,38.344 C83.9546,38.3493 84.0068,38.3652 84.032,38.3756 C84.0573,38.3861 84.1054,38.4118 84.1281,38.427 C84.1508,38.4421 84.193,38.4768 84.2123,38.4961 C84.2316,38.5154 84.2662,38.5575 84.2814,38.5802 C84.2965,38.6029 84.3223,38.6511 84.3327,38.6763 C84.3432,38.7015 84.359,38.7537 84.3643,38.7805 C84.3696,38.8073 84.375,38.8616 84.375,38.8889 C84.375,38.9162 84.3696,38.9705 84.3643,38.9973 C84.359,39.024 84.3432,39.0763 84.3327,39.1015 C84.3223,39.1267 84.2965,39.1748 84.2814,39.1975 C84.2662,39.2202 84.2316,39.2624 84.2123,39.2817 C84.193,39.301 84.1508,39.3357 84.1281,39.3508 C84.1054,39.366 84.0573,39.3917 84.032,39.4022 C84.0068,39.4126 83.9546,39.4284 83.9278,39.4338 C83.9011,39.4391 83.8467,39.4444 83.8194,39.4444 L83.5417,39.4444 C83.5144,39.4444 83.4601,39.4391 83.4333,39.4338 C83.4065,39.4284 83.3543,39.4126 83.3291,39.4022 C83.3038,39.3917 83.2557,39.366 83.233,39.3508 C83.2103,39.3357 83.1681,39.301 83.1488,39.2817 C83.1295,39.2624 83.0949,39.2202 83.0797,39.1975 C83.0646,39.1748 83.0388,39.1267 83.0284,39.1015 C83.018,39.0763 83.0021,39.024 82.9968,38.9973 C82.9915,38.9705 82.9861,38.9162 82.9861,38.8889 C82.9861,38.8616 82.9915,38.8073 82.9968,38.7805 C83.0021,38.7537 83.018,38.7015 83.0284,38.6763 C83.0388,38.6511 83.0646,38.6029 83.0797,38.5802 C83.0949,38.5575 83.1295,38.5154 83.1488,38.4961 C83.1681,38.4768 83.2103,38.4421 83.233,38.427 C83.2557,38.4118 83.3038,38.3861 83.3291,38.3756 C83.3543,38.3652 83.4065,38.3493 83.4333,38.344 C83.4601,38.3387 83.5144,38.3333 83.5417,38.3333 Z M82.5,38.4028 C82.5239,38.4028 82.5714,38.4075 82.5948,38.4121 C82.6183,38.4168 82.664,38.4306 82.686,38.4398 C82.7081,38.4489 82.7502,38.4714 82.7701,38.4847 C82.7899,38.498 82.8268,38.5283 82.8437,38.5452 C82.8606,38.562 82.8909,38.599 82.9042,38.6188 C82.9175,38.6387 82.94,38.6808 82.9491,38.7029 C82.9582,38.7249 82.9721,38.7706 82.9768,38.7941 C82.9814,38.8175 82.9861,38.865 82.9861,38.8889 C82.9861,38.9128 82.9814,38.9603 82.9768,38.9837 C82.9721,39.0071 82.9582,39.0529 82.9491,39.0749 C82.94,39.097 82.9175,39.1391 82.9042,39.159 C82.8909,39.1788 82.8606,39.2157 82.8437,39.2326 C82.8268,39.2495 82.7899,39.2798 82.7701,39.2931 C82.7502,39.3063 82.7081,39.3289 82.686,39.338 C82.664,39.3471 82.6183,39.361 82.5948,39.3657 C82.5714,39.3703 82.5239,39.375 82.5,39.375 L82.3611,39.375 C82.3372,39.375 82.2897,39.3703 82.2663,39.3657 C82.2429,39.361 82.1971,39.3471 82.1751,39.338 C82.153,39.3289 82.1109,39.3063 82.091,39.2931 C82.0712,39.2798 82.0343,39.2495 82.0174,39.2326 C82.0005,39.2157 81.9702,39.1788 81.9569,39.159 C81.9437,39.1391 81.9211,39.097 81.912,39.0749 C81.9029,39.0529 81.889,39.0071 81.8843,38.9837 C81.8797,38.9603 81.875,38.9128 81.875,38.8889 C81.875,38.865 81.8797,38.8175 81.8843,38.7941 C81.889,38.7706 81.9029,38.7249 81.912,38.7029 C81.9211,38.6808 81.9437,38.6387 81.9569,38.6188 C81.9702,38.599 82.0005,38.562 82.0174,38.5452 C82.0343,38.5283 82.0712,38.498 82.091,38.4847 C82.1109,38.4714 82.153,38.4489 82.1751,38.4398 C82.1971,38.4306 82.2429,38.4168 82.2663,38.4121 C82.2897,38.4075 82.3372,38.4028 82.3611,38.4028 Z M84.375,41.3889 L84.375,40.2778 L82.5286,41.3514 C82.5168,41.3582 82.492,41.3696 82.4791,41.374 C82.4662,41.3784 82.4397,41.3846 82.4262,41.3865 C82.4127,41.3883 82.3854,41.3892 82.3718,41.3884 C82.3582,41.3875 82.3313,41.3832 82.3181,41.3797 C82.3114,41.3779 82.2982,41.3737 82.2918,41.3713 C82.2653,41.3644 82.2141,41.3457 82.1895,41.3338 C82.1649,41.322 82.1183,41.2936 82.0965,41.2772 C82.0747,41.2607 82.0345,41.2238 82.0163,41.2034 C81.9981,41.1831 81.9659,41.139 81.9521,41.1155 C81.9382,41.092 81.9152,41.0425 81.9062,41.0167 C81.8972,40.9909 81.8843,40.9379 81.8805,40.9109 C81.8767,40.8839 81.8744,40.8293 81.8759,40.8021 C81.8775,40.7748 81.8859,40.7209 81.8927,40.6945 C81.8995,40.668 81.9183,40.6168 81.9301,40.5922 C81.942,40.5676 81.9704,40.521 81.9868,40.4992 C82.0032,40.4774 82.0401,40.4372 82.0605,40.419 C82.0809,40.4008 82.1249,40.3686 82.1484,40.3548 C82.172,40.3409 82.2215,40.3179 82.2472,40.3089 C82.2581,40.3051 82.2803,40.2984 82.2914,40.2955 M84.375,42.2222 L84.2361,42.2222 M81.875,44.1667 L81.875,43.0556 L82.9861,43.0556 L82.9861,43.6111 C82.9861,43.6384 82.9915,43.6927 82.9968,43.7195 C83.0021,43.7462 83.018,43.7985 83.0284,43.8237 C83.0388,43.8489 83.0646,43.8971 83.0797,43.9197 C83.0949,43.9424 83.1295,43.9846 83.1488,44.0039 C83.1681,44.0232 83.2103,44.0579 83.233,44.073 C83.2557,44.0882 83.3038,44.1139 83.3291,44.1244 C83.3543,44.1348 83.4065,44.1507 83.4333,44.156 C83.46,44.1613 83.5144,44.1667 83.5417,44.1667 L83.8194,44.1667 C83.8467,44.1667 83.901,44.1613 83.9278,44.156 C83.9546,44.1507 84.0068,44.1348 84.032,44.1244 C84.0572,44.1139 84.1054,44.0882 84.1281,44.073 C84.1508,44.0579 84.193,44.0233 84.2123,44.004 C84.2316,43.9847 84.2662,43.9425 84.2814,43.9198 C84.2965,43.8971 84.3223,43.8489 84.3327,43.8237 C84.3432,43.7985 84.359,43.7463 84.3643,43.7195 C84.3696,43.6927 84.375,43.6384 84.375,43.6111 L84.375,43.0556" style="stroke:#808080;stroke-width:0.25;"/>
            </g>
            <path d="M85,82.5 L85.4163,80 L84.5837,80 Z" style="stroke:#808080;stroke-width:0.25;fill:#808080;fill-rule:evenodd;"/>
            <path d="M85,0 L84.5837,2.5 L85.4163,2.5 Z" style="stroke:#808080;stroke-width:0.25;fill:#808080;fill-rule:evenodd;"/>
        </g>
        <path d="M85,82.5 L85,0 M99.375,82.5 L83.75,82.5 M99.375,0 L83.75,0 " style="stroke:#808080;stroke-width:0.25;"/>
        <!-- Line -->
        <path d="M-60,120 L180,120 " style="stroke:#808080;stroke-width:0.25;"/>
        <!-- Line -->
        <path d="M180,120 L180,-30 " style="stroke:#808080;stroke-width:0.25;"/>
        <!-- Line -->
        <path d="M180,-30 L-60,-30 " style="stroke:#808080;stroke-width:0.25;"/>
        <!-- Line -->
        <path d="M-60,-30 L-60,120 " style="stroke:#808080;stroke-width:0.25;"/>
    </g>
</svg>
