<?xml version="1.0" encoding="UTF-8"?>
<!-- Wed Feb 4 18:08:31 2026 Generated by QCAD 3.32.6 SVG Exporter -->
<svg width="179mm" height="93mm" viewBox="-40 -65 179 93" version="1.1" xmlns="http://www.w3.org/2000/svg" style="stroke-linecap:round;stroke-linejoin:round;fill:none">
    <g transform="scale(1,-1)">
        <!-- Text: Side -->
        <g>
            <path d="M94.6503,-20.7149 L95.1496,-20.6712 C95.1732,-20.8713 95.2282,-21.0355 95.3147,-21.1637 C95.4011,-21.292 95.5352,-21.3956 95.7171,-21.4748 C95.899,-21.5539 96.1036,-21.5935 96.331,-21.5935 C96.5329,-21.5935 96.7112,-21.5634 96.8658,-21.5034 C97.0204,-21.4434 97.1355,-21.3611 97.211,-21.2565 C97.2865,-21.1519 97.3242,-21.0377 97.3242,-20.9141 C97.3242,-20.7885 97.2878,-20.6789 97.2151,-20.5853 C97.1423,-20.4916 97.0222,-20.4129 96.8549,-20.3492 C96.7476,-20.3074 96.5102,-20.2424 96.1428,-20.1542 C95.7753,-20.0659 95.5179,-19.9827 95.3706,-19.9045 C95.1796,-19.8045 95.0373,-19.6803 94.9436,-19.5321 C94.8499,-19.3838 94.8031,-19.2178 94.8031,-19.0341 C94.8031,-18.8322 94.8604,-18.6435 94.975,-18.4679 C95.0895,-18.2924 95.2569,-18.1592 95.477,-18.0682 C95.6971,-17.9773 95.9418,-17.9318 96.211,-17.9318 C96.5075,-17.9318 96.7689,-17.9795 96.9954,-18.075 C97.2219,-18.1705 97.3961,-18.3111 97.5179,-18.4966 C97.6398,-18.6821 97.7053,-18.8922 97.7144,-19.1269 L97.2069,-19.1651 C97.1796,-18.9122 97.0873,-18.7212 96.9299,-18.5921 C96.7726,-18.4629 96.5402,-18.3984 96.2328,-18.3984 C95.9127,-18.3984 95.6794,-18.457 95.5329,-18.5744 C95.3865,-18.6917 95.3133,-18.8331 95.3133,-18.9986 C95.3133,-19.1423 95.3651,-19.2606 95.4688,-19.3533 C95.5707,-19.4461 95.8367,-19.5412 96.2669,-19.6385 C96.6971,-19.7358 96.9922,-19.8208 97.1523,-19.8936 C97.3851,-20.0009 97.557,-20.1369 97.668,-20.3015 C97.779,-20.4661 97.8344,-20.6558 97.8344,-20.8704 C97.8344,-21.0832 97.7735,-21.2838 97.6516,-21.472 C97.5297,-21.6603 97.3547,-21.8067 97.1264,-21.9113 C96.8981,-22.0159 96.6412,-22.0682 96.3556,-22.0682 C95.9936,-22.0682 95.6903,-22.0155 95.4456,-21.91 C95.201,-21.8045 95.0091,-21.6457 94.8699,-21.4338 C94.7308,-21.2219 94.6575,-20.9823 94.6503,-20.7149 M98.4968,-18.5648 L98.4968,-18 L98.9879,-18 L98.9879,-18.5648 Z M98.4968,-22 L98.4968,-19.1023 L98.9879,-19.1023 L98.9879,-22 Z M101.6147,-22 L101.6147,-21.6344 C101.431,-21.9218 101.1609,-22.0655 100.8044,-22.0655 C100.5734,-22.0655 100.361,-22.0018 100.1673,-21.8745 C99.9735,-21.7472 99.8235,-21.5693 99.7171,-21.3411 C99.6106,-21.1128 99.5574,-20.8504 99.5574,-20.5539 C99.5574,-20.2647 99.6056,-20.0023 99.702,-19.7667 C99.7985,-19.5312 99.9431,-19.3506 100.1359,-19.2251 C100.3287,-19.0996 100.5442,-19.0368 100.7825,-19.0368 C100.9572,-19.0368 101.1127,-19.0737 101.2491,-19.1473 C101.3855,-19.221 101.4965,-19.317 101.582,-19.4352 L101.582,-18 L102.0704,-18 L102.0704,-22 Z M100.0622,-20.5539 C100.0622,-20.925 100.1404,-21.2024 100.2969,-21.3861 C100.4533,-21.5698 100.6379,-21.6617 100.8508,-21.6617 C101.0654,-21.6617 101.2477,-21.5739 101.3978,-21.3984 C101.5479,-21.2228 101.6229,-20.955 101.6229,-20.5948 C101.6229,-20.1983 101.5465,-19.9072 101.3937,-19.7217 C101.2409,-19.5362 101.0527,-19.4434 100.8289,-19.4434 C100.6106,-19.4434 100.4283,-19.5325 100.2819,-19.7108 C100.1354,-19.889 100.0622,-20.1701 100.0622,-20.5539 M104.8259,-21.0668 L105.3334,-21.1296 C105.2533,-21.4261 105.1051,-21.6562 104.8886,-21.8199 C104.6722,-21.9836 104.3957,-22.0655 104.0592,-22.0655 C103.6353,-22.0655 103.2993,-21.935 103.051,-21.6739 C102.8027,-21.4129 102.6785,-21.0468 102.6785,-20.5757 C102.6785,-20.0882 102.804,-19.7099 103.0551,-19.4407 C103.3061,-19.1714 103.6317,-19.0368 104.0319,-19.0368 C104.4193,-19.0368 104.7358,-19.1687 104.9814,-19.4325 C105.227,-19.6962 105.3497,-20.0673 105.3497,-20.5457 C105.3497,-20.5748 105.3488,-20.6185 105.347,-20.6767 L103.186,-20.6767 C103.2042,-20.995 103.2943,-21.2387 103.4562,-21.4079 C103.618,-21.5771 103.82,-21.6617 104.0619,-21.6617 C104.242,-21.6617 104.3957,-21.6144 104.523,-21.5198 C104.6503,-21.4252 104.7513,-21.2742 104.8259,-21.0668 M103.2133,-20.2729 L104.8313,-20.2729 C104.8095,-20.0291 104.7476,-19.8463 104.6458,-19.7244 C104.4893,-19.5352 104.2865,-19.4407 104.0373,-19.4407 C103.8118,-19.4407 103.6221,-19.5161 103.4684,-19.6671 C103.3147,-19.8181 103.2297,-20.02 103.2133,-20.2729" style="fill:#000000;fill-rule:nonzero;"/>
        </g>
        <!-- Line -->
        <path d="M-20,0 L20,0 " style="stroke:#000000;stroke-width:0.25;"/>
        <!-- Line -->
        <path d="M20,0 L20,50 " style="stroke:#000000;stroke-width:0.25;"/>
        <!-- Line -->
        <path d="M20,50 L-20,50 " style="stroke:#000000;stroke-width:0.25;"/>
        <!-- Line -->
        <path d="M-20,50 L-20,0 " style="stroke:#000000;stroke-width:0.25;"/>
        <!-- Line -->
        <path d="M-20,0 L20,0 " style="stroke:#000000;stroke-width:0.25;"/>
        <!-- Line -->
        <path d="M20,0 L20,32.5 " style="stroke:#000000;stroke-width:0.25;"/>
        <!-- Line -->
        <path d="M20,32.5 L-20,32.5 " style="stroke:#000000;stroke-width:0.25;"/>
        <!-- Line -->
        <path d="M-20,32.5 L-20,0 " style="stroke:#000000;stroke-width:0.25;"/>
        <!-- Circle -->
        <circle cx="0" cy="37.5" r="5" style="stroke:#000000;stroke-width:0.25;"/>
        <!-- Circle -->
        <circle cx="0" cy="21.5" r="5" style="stroke:#000000;stroke-width:0.25;"/>
        <!-- Circle -->
        <circle cx="0" cy="37.5" r="2.6" style="stroke:#000000;stroke-width:0.25;"/>
        <!-- Circle -->
        <circle cx="0" cy="21.5" r="2.6" style="stroke:#000000;stroke-width:0.25;"/>
        <!-- Line -->
        <path d="M70,0 L95,0 " style="stroke:#000000;stroke-width:0.25;"/>
        <!-- Line -->
        <path d="M95,0 L95,0 " style="stroke:#000000;stroke-width:0.25;"/>
        <!-- Line -->
        <path d="M95,0 L70,0 " style="stroke:#000000;stroke-width:0.25;"/>
        <!-- Line -->
        <path d="M70,0 L70,0 " style="stroke:#000000;stroke-width:0.25;"/>
        <!-- Line -->
        <path d="M70,0 L70,0 " style="stroke:#000000;stroke-width:0.25;"/>
        <!-- Line -->
        <path d="M70,0 L70,50 " style="stroke:#000000;stroke-width:0.25;"/>
        <!-- Line -->
        <path d="M70,50 L70,50 " style="stroke:#000000;stroke-width:0.25;"/>
        <!-- Line -->
        <path d="M70,50 L70,0 " style="stroke:#000000;stroke-width:0.25;"/>
        <!-- Line -->
        <path d="M70,50 L75,50 " style="stroke:#000000;stroke-width:0.25;"/>
        <!-- Line -->
        <path d="M70,50 L70,50 " style="stroke:#000000;stroke-width:0.25;"/>
        <!-- Line -->
        <path d="M80,27.5 L80,27.5 " style="stroke:#000000;stroke-width:0.25;"/>
        <!-- Line -->
        <path d="M80,27.5 L80,27.5 " style="stroke:#000000;stroke-width:0.25;"/>
        <!-- Line -->
        <path d="M80,27.5 L80,27.5 " style="stroke:#000000;stroke-width:0.25;"/>
        <!-- Line -->
        <path d="M80,45 L80,27.5 " style="stroke:#000000;stroke-width:0.25;"/>
        <!-- Arc -->
        <path d="M80,27.5 A17.5,17.5 0 0,1 115,27.5" style="stroke:#000000;stroke-width:0.25;"/>
        <!-- Arc -->
        <path d="M95,0 A30.1136,30.1136 0 0,1 125,27.5" style="stroke:#000000;stroke-width:0.25;"/>
        <!-- Arc -->
        <path d="M115,27.5 A5,5 0 0,0 125,27.5" style="stroke:#000000;stroke-width:0.25;"/>
        <!-- Line -->
        <path d="M70,34.9 L77.1,34.9 " style="stroke:#000000;stroke-width:0.25;"/>
        <!-- Line -->
        <path d="M82.2,18.9 L82.2,18.9 " style="stroke:#000000;stroke-width:0.25;"/>
        <!-- Line -->
        <path d="M112.7411,18.9 L122.9479,18.9 " style="stroke:#000000;stroke-width:0.25;"/>
        <!-- Line -->
        <path d="M114.6665,24.1 L124.5071,24.1 " style="stroke:#000000;stroke-width:0.25;"/>
        <!-- Arc -->
        <path d="M75,50 A5,5 0 0,0 80,45" style="stroke:#000000;stroke-width:0.25;"/>
        <!-- Aligned Dimension -->
        <g>
            <g>
                <path d="M-0.6944,-5.375 L-0.6944,-4.2639 M-0.2778,-4.8195 L-1.6667,-4.8195 L-1.1111,-2.875 M0.8569,-3.0131 C0.8177,-3.0655 0.7499,-3.1776 0.7216,-3.2366 C0.6934,-3.2957 0.6488,-3.4188 0.6326,-3.4822 C0.6271,-3.5037 0.6176,-3.547 0.6136,-3.5688 C0.5867,-3.6941 0.5578,-3.9488 0.5559,-4.0769 C0.5557,-4.0888 0.5556,-4.1126 0.5556,-4.1245 C0.5551,-4.2527 0.5792,-4.508 0.6037,-4.6339 C0.606,-4.6455 0.6107,-4.6689 0.6132,-4.6805 C0.6251,-4.7449 0.6615,-4.8707 0.6858,-4.9315 C0.71,-4.9924 0.7703,-5.1087 0.8059,-5.1636 C0.818,-5.1822 0.8433,-5.2185 0.8566,-5.2363 C0.8647,-5.2488 0.8831,-5.2721 0.8934,-5.2828 C0.9037,-5.2935 0.9264,-5.3127 0.9386,-5.3212 C0.9508,-5.3297 0.9768,-5.3442 0.9904,-5.3501 C1.004,-5.356 1.0323,-5.3652 1.0468,-5.3683 C1.0614,-5.3715 1.0909,-5.3749 1.1058,-5.3752 C1.1206,-5.3755 1.1502,-5.3731 1.1649,-5.3704 C1.1795,-5.3678 1.2081,-5.3597 1.2219,-5.3542 C1.2358,-5.3488 1.2622,-5.3353 1.2747,-5.3272 C1.2872,-5.3192 1.3105,-5.3007 1.3212,-5.2904 C1.3319,-5.2801 1.3512,-5.2575 1.3597,-5.2452 C1.3611,-5.2432 1.3639,-5.239 1.3653,-5.2369 C1.4045,-5.1845 1.4723,-5.0725 1.5005,-5.0134 C1.5288,-4.9543 1.5734,-4.8312 1.5896,-4.7678 C1.5951,-4.7463 1.6046,-4.703 1.6086,-4.6813 C1.6355,-4.5559 1.6645,-4.3013 1.6664,-4.1731 C1.6666,-4.1612 1.6667,-4.1374 1.6666,-4.1255 C1.6671,-3.9972 1.643,-3.7418 1.6184,-3.616 C1.6162,-3.6043 1.6114,-3.5809 1.6089,-3.5693 C1.5969,-3.5048 1.5605,-3.3789 1.5362,-3.318 C1.5119,-3.2572 1.4516,-3.1408 1.4159,-3.0858 C1.4039,-3.0674 1.3789,-3.0315 1.3657,-3.014 C1.3577,-3.0014 1.3393,-2.9781 1.329,-2.9674 C1.3186,-2.9567 1.296,-2.9374 1.2838,-2.9289 C1.2716,-2.9204 1.2456,-2.9059 1.232,-2.9 C1.2184,-2.894 1.1901,-2.8849 1.1756,-2.8817 C1.161,-2.8785 1.1315,-2.8751 1.1166,-2.8748 C1.1018,-2.8745 1.0721,-2.8769 1.0575,-2.8795 C1.0429,-2.8822 1.0143,-2.8903 1.0004,-2.8957 C0.9866,-2.9011 0.9601,-2.9147 0.9476,-2.9227 C0.9351,-2.9307 0.9117,-2.9491 0.901,-2.9595 C0.8903,-2.9698 0.871,-2.9924 0.8626,-3.0046 C0.8611,-3.0067 0.8583,-3.0109 0.8569,-3.0131" style="stroke:#808080;stroke-width:0.25;"/>
            </g>
            <path d="M-20,-6 L-17.5,-5.5837 L-17.5,-6.4163 Z" style="stroke:#808080;stroke-width:0.25;fill:#808080;fill-rule:evenodd;"/>
            <path d="M20,-6 L17.5,-6.4163 L17.5,-5.5837 Z" style="stroke:#808080;stroke-width:0.25;fill:#808080;fill-rule:evenodd;"/>
        </g>
        <path d="M-20,-0.625 L-20,-7.25 M20,-0.625 L20,-7.25 M-20,-6 L20,-6 " style="stroke:#808080;stroke-width:0.25;"/>
        <!-- Aligned Dimension -->
        <g>
            <g>
                <path d="M-29.125,13.3333 L-29.125,13.8889 C-29.125,13.9162 -29.1196,13.9705 -29.1143,13.9973 C-29.109,14.024 -29.0932,14.0763 -29.0827,14.1015 C-29.0723,14.1267 -29.0465,14.1748 -29.0314,14.1975 C-29.0162,14.2202 -28.9816,14.2624 -28.9623,14.2817 C-28.943,14.301 -28.9008,14.3357 -28.8781,14.3508 C-28.8554,14.366 -28.8073,14.3917 -28.782,14.4022 C-28.7568,14.4126 -28.7046,14.4284 -28.6778,14.4338 C-28.6511,14.4391 -28.5967,14.4444 -28.5694,14.4444 C-28.5422,14.4444 -28.4878,14.4391 -28.4611,14.4338 C-28.4343,14.4284 -28.3821,14.4126 -28.3568,14.4022 C-28.3316,14.3917 -28.2835,14.366 -28.2608,14.3508 C-28.2381,14.3357 -28.1959,14.301 -28.1766,14.2817 C-28.1573,14.2624 -28.1227,14.2202 -28.1075,14.1975 C-28.0924,14.1748 -28.0666,14.1267 -28.0562,14.1015 C-28.0457,14.0763 -28.0299,14.024 -28.0246,13.9973 C-28.0192,13.9705 -28.0139,13.9162 -28.0139,13.8889 C-28.0139,13.9162 -28.0085,13.9705 -28.0032,13.9972 C-27.9979,14.024 -27.982,14.0763 -27.9716,14.1015 C-27.9612,14.1267 -27.9354,14.1748 -27.9203,14.1975 C-27.9051,14.2202 -27.8705,14.2624 -27.8512,14.2817 C-27.8319,14.301 -27.7897,14.3356 -27.767,14.3508 C-27.7443,14.366 -27.6962,14.3917 -27.6709,14.4021 C-27.6457,14.4126 -27.5935,14.4284 -27.5667,14.4338 C-27.54,14.4391 -27.4856,14.4444 -27.4583,14.4444 L-27.1806,14.4444 C-27.1533,14.4444 -27.099,14.4391 -27.0722,14.4338 C-27.0454,14.4284 -26.9932,14.4126 -26.968,14.4022 C-26.9428,14.3917 -26.8946,14.366 -26.8719,14.3508 C-26.8492,14.3357 -26.807,14.301 -26.7877,14.2817 C-26.7684,14.2624 -26.7338,14.2202 -26.7186,14.1975 C-26.7035,14.1749 -26.6777,14.1267 -26.6673,14.1015 C-26.6568,14.0763 -26.641,14.024 -26.6357,13.9973 C-26.6304,13.9705 -26.625,13.9162 -26.625,13.8889 L-26.625,13.3333 M-28.0139,13.8889 L-28.0139,13.6111 M-26.625,16.3889 L-26.625,15.2778 L-28.4714,16.3514 C-28.4832,16.3582 -28.508,16.3696 -28.5209,16.374 C-28.5338,16.3784 -28.5603,16.3846 -28.5738,16.3865 C-28.5873,16.3883 -28.6146,16.3892 -28.6282,16.3884 C-28.6418,16.3875 -28.6687,16.3832 -28.6819,16.3797 C-28.6886,16.3779 -28.7018,16.3737 -28.7083,16.3713 C-28.7347,16.3644 -28.7859,16.3457 -28.8105,16.3338 C-28.8351,16.322 -28.8817,16.2936 -28.9035,16.2772 C-28.9253,16.2607 -28.9655,16.2238 -28.9837,16.2034 C-29.0019,16.1831 -29.0341,16.139 -29.0479,16.1155 C-29.0618,16.092 -29.0848,16.0425 -29.0938,16.0167 C-29.1028,15.9909 -29.1157,15.9379 -29.1195,15.9109 C-29.1233,15.8839 -29.1256,15.8293 -29.1241,15.8021 C-29.1225,15.7748 -29.1141,15.7209 -29.1073,15.6945 C-29.1005,15.668 -29.0817,15.6168 -29.0699,15.5922 C-29.058,15.5676 -29.0296,15.521 -29.0132,15.4992 C-28.9968,15.4774 -28.9599,15.4372 -28.9395,15.419 C-28.9191,15.4008 -28.8751,15.3686 -28.8516,15.3548 C-28.828,15.3409 -28.7785,15.3179 -28.7528,15.3089 C-28.7419,15.3051 -28.7197,15.2984 -28.7086,15.2955 M-26.625,17.2222 L-26.7639,17.2222 M-29.125,19.1667 L-29.125,18.0556 L-28.0139,18.0556 L-28.0139,18.6111 C-28.0139,18.6384 -28.0085,18.6927 -28.0032,18.7195 C-27.9979,18.7462 -27.982,18.7985 -27.9716,18.8237 C-27.9612,18.8489 -27.9354,18.8971 -27.9203,18.9197 C-27.9051,18.9424 -27.8705,18.9846 -27.8512,19.0039 C-27.8319,19.0232 -27.7897,19.0579 -27.767,19.073 C-27.7443,19.0882 -27.6962,19.1139 -27.6709,19.1244 C-27.6457,19.1348 -27.5935,19.1507 -27.5667,19.156 C-27.54,19.1613 -27.4856,19.1667 -27.4583,19.1667 L-27.1806,19.1667 C-27.1533,19.1667 -27.099,19.1613 -27.0722,19.156 C-27.0454,19.1507 -26.9932,19.1348 -26.968,19.1244 C-26.9428,19.1139 -26.8946,19.0882 -26.8719,19.073 C-26.8492,19.0579 -26.807,19.0233 -26.7877,19.004 C-26.7684,18.9847 -26.7338,18.9425 -26.7186,18.9198 C-26.7035,18.8971 -26.6777,18.8489 -26.6673,18.8237 C-26.6568,18.7985 -26.641,18.7463 -26.6357,18.7195 C-26.6304,18.6927 -26.625,18.6384 -26.625,18.6111 L-26.625,18.0556" style="stroke:#808080;stroke-width:0.25;"/>
            </g>
            <path d="M-26,32.5 L-25.5837,30 L-26.4163,30 Z" style="stroke:#808080;stroke-width:0.25;fill:#808080;fill-rule:evenodd;"/>
            <path d="M-26,0 L-26.4163,2.5 L-25.5837,2.5 Z" style="stroke:#808080;stroke-width:0.25;fill:#808080;fill-rule:evenodd;"/>
        </g>
        <path d="M-20.625,32.5 L-27.25,32.5 M-20.625,0 L-27.25,0 M-26,32.5 L-26,0 " style="stroke:#808080;stroke-width:0.25;"/>
        <!-- Rotated Dimension -->
        <g>
            <g>
                <path d="M28.375,9.2222 L28.375,8.1111 L26.5286,9.1847 C26.5168,9.1916 26.492,9.2029 26.4791,9.2073 C26.4662,9.2117 26.4397,9.218 26.4262,9.2198 C26.4127,9.2216 26.3854,9.2226 26.3718,9.2217 C26.3582,9.2209 26.3313,9.2165 26.3181,9.213 C26.3114,9.2112 26.2982,9.207 26.2918,9.2046 C26.2653,9.1978 26.2141,9.179 26.1895,9.1672 C26.1649,9.1553 26.1183,9.1269 26.0965,9.1105 C26.0747,9.0941 26.0345,9.0571 26.0163,9.0368 C25.9981,9.0164 25.9659,8.9723 25.9521,8.9488 C25.9382,8.9253 25.9152,8.8758 25.9062,8.85 C25.8972,8.8243 25.8843,8.7712 25.8805,8.7442 C25.8767,8.7172 25.8744,8.6626 25.8759,8.6354 C25.8775,8.6081 25.8859,8.5542 25.8927,8.5278 C25.8995,8.5014 25.9183,8.4501 25.9301,8.4255 C25.942,8.4009 25.9704,8.3543 25.9868,8.3325 C26.0032,8.3107 26.0401,8.2705 26.0605,8.2523 C26.0809,8.2341 26.1249,8.2019 26.1484,8.1881 C26.172,8.1742 26.2215,8.1512 26.2472,8.1422 C26.2581,8.1384 26.2803,8.1317 26.2914,8.1288 M26.4306,10.0556 L25.875,10.6111 L28.375,10.6111 M28.375,11.4444 L28.2361,11.4444 M25.875,13.3889 L25.875,12.2778 L26.9861,12.2778 L26.9861,12.8333 C26.9861,12.8606 26.9915,12.9149 26.9968,12.9417 C27.0021,12.9685 27.018,13.0207 27.0284,13.0459 C27.0388,13.0711 27.0646,13.1193 27.0797,13.142 C27.0949,13.1647 27.1295,13.2069 27.1488,13.2262 C27.1681,13.2455 27.2103,13.2801 27.233,13.2953 C27.2557,13.3104 27.3038,13.3361 27.3291,13.3466 C27.3543,13.357 27.4065,13.3729 27.4333,13.3782 C27.46,13.3835 27.5144,13.3889 27.5417,13.3889 L27.8194,13.3889 C27.8467,13.3889 27.901,13.3835 27.9278,13.3782 C27.9546,13.3729 28.0068,13.357 28.032,13.3466 C28.0572,13.3362 28.1054,13.3104 28.1281,13.2953 C28.1508,13.2801 28.193,13.2455 28.2123,13.2262 C28.2316,13.2069 28.2662,13.1647 28.2814,13.142 C28.2965,13.1193 28.3223,13.0712 28.3327,13.0459 C28.3432,13.0207 28.359,12.9685 28.3643,12.9417 C28.3696,12.915 28.375,12.8606 28.375,12.8333 L28.375,12.2778" style="stroke:#808080;stroke-width:0.25;"/>
            </g>
            <path d="M29,21.5 L29.4163,19 L28.5837,19 Z" style="stroke:#808080;stroke-width:0.25;fill:#808080;fill-rule:evenodd;"/>
            <path d="M29,0 L28.5837,2.5 L29.4163,2.5 Z" style="stroke:#808080;stroke-width:0.25;fill:#808080;fill-rule:evenodd;"/>
        </g>
        <path d="M29,21.5 L29,0 M0.625,21.5 L30.25,21.5 M20.625,0 L30.25,0 " style="stroke:#808080;stroke-width:0.25;"/>
        <!-- Rotated Dimension -->
        <g>
            <g>
                <path d="M31.875,15.8333 L31.875,16.3889 C31.875,16.4162 31.8804,16.4705 31.8857,16.4973 C31.891,16.524 31.9068,16.5763 31.9173,16.6015 C31.9277,16.6267 31.9535,16.6748 31.9686,16.6975 C31.9838,16.7202 32.0184,16.7624 32.0377,16.7817 C32.057,16.801 32.0992,16.8357 32.1219,16.8508 C32.1446,16.866 32.1927,16.8917 32.218,16.9022 C32.2432,16.9126 32.2954,16.9284 32.3222,16.9338 C32.3489,16.9391 32.4033,16.9444 32.4306,16.9444 C32.4578,16.9444 32.5122,16.9391 32.5389,16.9338 C32.5657,16.9284 32.6179,16.9126 32.6432,16.9022 C32.6684,16.8917 32.7165,16.866 32.7392,16.8508 C32.7619,16.8357 32.8041,16.801 32.8234,16.7817 C32.8427,16.7624 32.8773,16.7202 32.8925,16.6975 C32.9076,16.6748 32.9334,16.6267 32.9438,16.6015 C32.9543,16.5763 32.9701,16.524 32.9754,16.4973 C32.9808,16.4705 32.9861,16.4162 32.9861,16.3889 C32.9861,16.4162 32.9915,16.4705 32.9968,16.4972 C33.0021,16.524 33.018,16.5763 33.0284,16.6015 C33.0388,16.6267 33.0646,16.6748 33.0797,16.6975 C33.0949,16.7202 33.1295,16.7624 33.1488,16.7817 C33.1681,16.801 33.2103,16.8356 33.233,16.8508 C33.2557,16.866 33.3038,16.8917 33.3291,16.9021 C33.3543,16.9126 33.4065,16.9284 33.4333,16.9338 C33.46,16.9391 33.5144,16.9444 33.5417,16.9444 L33.8194,16.9444 C33.8467,16.9444 33.901,16.9391 33.9278,16.9338 C33.9546,16.9284 34.0068,16.9126 34.032,16.9022 C34.0572,16.8917 34.1054,16.866 34.1281,16.8508 C34.1508,16.8357 34.193,16.801 34.2123,16.7817 C34.2316,16.7624 34.2662,16.7202 34.2814,16.6975 C34.2965,16.6749 34.3223,16.6267 34.3327,16.6015 C34.3432,16.5763 34.359,16.524 34.3643,16.4973 C34.3696,16.4705 34.375,16.4162 34.375,16.3889 L34.375,15.8333 M32.9861,16.3889 L32.9861,16.1111 M31.875,17.7778 L31.875,18.8889 L34.375,18.1944 M32.9861,18.3333 L32.9861,18.8889 M34.375,19.7222 L34.2361,19.7222 M31.875,21.6667 L31.875,20.5556 L32.9861,20.5556 L32.9861,21.1111 C32.9861,21.1384 32.9915,21.1927 32.9968,21.2195 C33.0021,21.2462 33.018,21.2985 33.0284,21.3237 C33.0388,21.3489 33.0646,21.3971 33.0797,21.4197 C33.0949,21.4424 33.1295,21.4846 33.1488,21.5039 C33.1681,21.5232 33.2103,21.5579 33.233,21.573 C33.2557,21.5882 33.3038,21.6139 33.3291,21.6244 C33.3543,21.6348 33.4065,21.6507 33.4333,21.656 C33.46,21.6613 33.5144,21.6667 33.5417,21.6667 L33.8194,21.6667 C33.8467,21.6667 33.901,21.6613 33.9278,21.656 C33.9546,21.6507 34.0068,21.6348 34.032,21.6244 C34.0572,21.6139 34.1054,21.5882 34.1281,21.573 C34.1508,21.5579 34.193,21.5233 34.2123,21.504 C34.2316,21.4847 34.2662,21.4425 34.2814,21.4198 C34.2965,21.3971 34.3223,21.3489 34.3327,21.3237 C34.3432,21.2985 34.359,21.2463 34.3643,21.2195 C34.3696,21.1927 34.375,21.1384 34.375,21.1111 L34.375,20.5556" style="stroke:#808080;stroke-width:0.25;"/>
            </g>
            <path d="M35,37.5 L35.4163,35 L34.5837,35 Z" style="stroke:#808080;stroke-width:0.25;fill:#808080;fill-rule:evenodd;"/>
            <path d="M35,0 L34.5837,2.5 L35.4163,2.5 Z" style="stroke:#808080;stroke-width:0.25;fill:#808080;fill-rule:evenodd;"/>
        </g>
        <path d="M35,37.5 L35,0 M0.625,37.5 L36.25,37.5 M20.625,0 L36.25,0 " style="stroke:#808080;stroke-width:0.25;"/>
        <!-- Aligned Dimension -->
        <g>
            <g>
                <path d="M-0.8333,47.125 L-1.9444,47.125 L-1.9444,46.0139 L-1.3889,46.0139 C-1.3616,46.0139 -1.3073,46.0085 -1.2805,46.0032 C-1.2538,45.9979 -1.2015,45.982 -1.1763,45.9716 C-1.1511,45.9612 -1.1029,45.9354 -1.0803,45.9203 C-1.0576,45.9051 -1.0154,45.8705 -0.9961,45.8512 C-0.9768,45.8319 -0.9421,45.7897 -0.927,45.767 C-0.9118,45.7443 -0.8861,45.6962 -0.8756,45.6709 C-0.8652,45.6457 -0.8493,45.5935 -0.844,45.5667 C-0.8387,45.54 -0.8333,45.4856 -0.8333,45.4583 L-0.8333,45.1806 C-0.8333,45.1533 -0.8387,45.099 -0.844,45.0722 C-0.8493,45.0454 -0.8652,44.9932 -0.8756,44.968 C-0.8861,44.9428 -0.9118,44.8946 -0.927,44.8719 C-0.9421,44.8492 -0.9767,44.807 -0.996,44.7877 C-1.0153,44.7684 -1.0575,44.7338 -1.0802,44.7186 C-1.1029,44.7035 -1.1511,44.6777 -1.1763,44.6673 C-1.2015,44.6568 -1.2537,44.641 -1.2805,44.6357 C-1.3073,44.6304 -1.3616,44.625 -1.3889,44.625 L-1.9444,44.625 M0,44.625 L0,44.7639 M1.9444,44.625 L0.8333,44.625 L1.9069,46.4714 C1.9138,46.4832 1.9251,46.508 1.9295,46.5209 C1.9339,46.5338 1.9402,46.5603 1.942,46.5738 C1.9438,46.5873 1.9448,46.6146 1.9439,46.6282 C1.9431,46.6418 1.9387,46.6687 1.9352,46.6819 C1.9335,46.6886 1.9292,46.7018 1.9268,46.7083 C1.92,46.7347 1.9012,46.7859 1.8894,46.8105 C1.8775,46.8351 1.8491,46.8817 1.8327,46.9035 C1.8163,46.9253 1.7794,46.9655 1.759,46.9837 C1.7386,47.0019 1.6946,47.0341 1.6711,47.0479 C1.6475,47.0618 1.598,47.0848 1.5723,47.0938 C1.5465,47.1028 1.4935,47.1157 1.4664,47.1195 C1.4394,47.1233 1.3849,47.1256 1.3576,47.1241 C1.3304,47.1225 1.2764,47.1141 1.25,47.1073 C1.2236,47.1005 1.1723,47.0817 1.1477,47.0699 C1.1231,47.058 1.0765,47.0296 1.0547,47.0132 C1.0329,46.9968 0.9927,46.9599 0.9746,46.9395 C0.9564,46.9191 0.9242,46.8751 0.9103,46.8516 C0.8964,46.828 0.8735,46.7785 0.8645,46.7528 C0.8606,46.7419 0.8539,46.7197 0.851,46.7086" style="stroke:#808080;stroke-width:0.25;"/>
            </g>
            <path d="M-2.6,44 L-5.1,43.5837 L-5.1,44.4163 Z" style="stroke:#808080;stroke-width:0.25;fill:#808080;fill-rule:evenodd;"/>
            <path d="M2.6,44 L5.1,44.4163 L5.1,43.5837 Z" style="stroke:#808080;stroke-width:0.25;fill:#808080;fill-rule:evenodd;"/>
        </g>
        <path d="M-2.6,38.125 L-2.6,45.25 M2.6,38.125 L2.6,45.25 M-7.6,44 L7.6,44 " style="stroke:#808080;stroke-width:0.25;"/>
        <!-- Aligned Dimension -->
        <g>
            <g>
                <path d="M-1.25,14.5694 L-0.6944,15.125 L-0.6944,12.625 M0.4402,14.9869 C0.401,14.9345 0.3332,14.8224 0.305,14.7634 C0.2767,14.7043 0.2321,14.5812 0.2159,14.5178 C0.2105,14.4963 0.201,14.453 0.1969,14.4312 C0.17,14.3059 0.1411,14.0512 0.1392,13.9231 C0.139,13.9112 0.1389,13.8874 0.1389,13.8755 C0.1384,13.7473 0.1625,13.492 0.187,13.3661 C0.1893,13.3545 0.1941,13.3311 0.1965,13.3195 C0.2085,13.2551 0.2448,13.1293 0.2691,13.0685 C0.2934,13.0076 0.3536,12.8913 0.3893,12.8364 C0.4013,12.8178 0.4267,12.7815 0.44,12.7637 C0.448,12.7512 0.4664,12.7279 0.4768,12.7172 C0.4871,12.7065 0.5097,12.6873 0.5219,12.6788 C0.5341,12.6703 0.5601,12.6558 0.5737,12.6499 C0.5874,12.644 0.6156,12.6348 0.6302,12.6317 C0.6447,12.6285 0.6742,12.6251 0.6891,12.6248 C0.7039,12.6245 0.7336,12.6269 0.7482,12.6296 C0.7628,12.6322 0.7914,12.6403 0.8053,12.6458 C0.8191,12.6512 0.8456,12.6647 0.8581,12.6728 C0.8706,12.6808 0.8939,12.6993 0.9046,12.7096 C0.9153,12.7199 0.9345,12.7425 0.943,12.7548 C0.9444,12.7568 0.9472,12.761 0.9486,12.7631 C0.9878,12.8155 1.0556,12.9275 1.0839,12.9866 C1.1121,13.0457 1.1568,13.1688 1.173,13.2322 C1.1784,13.2537 1.1879,13.297 1.192,13.3187 C1.2189,13.4441 1.2478,13.6987 1.2497,13.8269 C1.2499,13.8388 1.25,13.8626 1.25,13.8745 C1.2505,14.0028 1.2263,14.2582 1.2018,14.384 C1.1995,14.3957 1.1947,14.4191 1.1922,14.4307 C1.1803,14.4952 1.1438,14.6211 1.1195,14.682 C1.0952,14.7428 1.0349,14.8592 0.9992,14.9142 C0.9873,14.9326 0.9622,14.9685 0.9491,14.986 C0.941,14.9986 0.9226,15.0219 0.9123,15.0326 C0.902,15.0433 0.8793,15.0626 0.8671,15.0711 C0.8549,15.0796 0.829,15.0941 0.8153,15.1 C0.8017,15.106 0.7734,15.1151 0.7589,15.1183 C0.7444,15.1215 0.7148,15.1249 0.7,15.1252 C0.6851,15.1255 0.6555,15.1231 0.6408,15.1205 C0.6262,15.1178 0.5976,15.1097 0.5838,15.1043 C0.5699,15.0989 0.5434,15.0853 0.5309,15.0773 C0.5184,15.0693 0.4951,15.0509 0.4844,15.0405 C0.4737,15.0302 0.4544,15.0076 0.4459,14.9954 C0.4444,14.9933 0.4416,14.9891 0.4402,14.9869" style="stroke:#808080;stroke-width:0.25;"/>
            </g>
            <path d="M-5,12 L-2.5,12.4163 L-2.5,11.5837 Z" style="stroke:#808080;stroke-width:0.25;fill:#808080;fill-rule:evenodd;"/>
            <path d="M5,12 L2.5,11.5837 L2.5,12.4163 Z" style="stroke:#808080;stroke-width:0.25;fill:#808080;fill-rule:evenodd;"/>
        </g>
        <path d="M-5,20.875 L-5,10.75 M5,20.875 L5,10.75 M-5,12 L5,12 " style="stroke:#808080;stroke-width:0.25;"/>
        <!-- Rotated Dimension -->
        <g>
            <g>
                <path d="M82.875,48.0556 L82.875,46.9444 L83.9861,46.9444 L83.9861,47.5 C83.9861,47.5273 83.9915,47.5816 83.9968,47.6084 C84.0021,47.6351 84.018,47.6874 84.0284,47.7126 C84.0388,47.7378 84.0646,47.7859 84.0797,47.8086 C84.0949,47.8313 84.1295,47.8735 84.1488,47.8928 C84.1681,47.9121 84.2103,47.9468 84.233,47.9619 C84.2557,47.9771 84.3038,48.0028 84.3291,48.0133 C84.3543,48.0237 84.4065,48.0396 84.4333,48.0449 C84.46,48.0502 84.5144,48.0556 84.5417,48.0556 L84.8194,48.0556 C84.8467,48.0556 84.901,48.0502 84.9278,48.0449 C84.9546,48.0396 85.0068,48.0237 85.032,48.0133 C85.0572,48.0028 85.1054,47.9771 85.1281,47.9619 C85.1508,47.9468 85.193,47.9121 85.2123,47.8928 C85.2316,47.8735 85.2662,47.8313 85.2814,47.8087 C85.2965,47.786 85.3223,47.7378 85.3327,47.7126 C85.3432,47.6874 85.359,47.6352 85.3643,47.6084 C85.3696,47.5816 85.375,47.5273 85.375,47.5 L85.375,46.9444" style="stroke:#808080;stroke-width:0.25;"/>
            </g>
            <path d="M86,50 L85.5837,52.5 L86.4163,52.5 Z" style="stroke:#808080;stroke-width:0.25;fill:#808080;fill-rule:evenodd;"/>
            <path d="M86,45 L86.4163,42.5 L85.5837,42.5 Z" style="stroke:#808080;stroke-width:0.25;fill:#808080;fill-rule:evenodd;"/>
        </g>
        <path d="M86,55 L86,40 M75.625,50 L87.25,50 M80.625,45 L87.25,45 " style="stroke:#808080;stroke-width:0.25;"/>
        <!-- Line -->
        <path d="M100,27.5 L95,27.5 " style="stroke:#808080;stroke-width:0.25;"/>
        <!-- Line -->
        <path d="M97.5,30 L97.5,25 " style="stroke:#808080;stroke-width:0.25;"/>
        <!-- Aligned Dimension -->
        <g>
            <g>
                <path d="M94.9306,16.1111 L94.375,16.6667 L96.875,16.6667 M94.375,17.5 L94.375,18.6111 L96.875,17.9167 M95.4861,18.0556 L95.4861,18.6111 M96.875,19.4444 L96.7361,19.4444 M94.375,21.3889 L94.375,20.2778 L95.4861,20.2778 L95.4861,20.8333 C95.4861,20.8606 95.4915,20.9149 95.4968,20.9417 C95.5021,20.9685 95.518,21.0207 95.5284,21.0459 C95.5388,21.0711 95.5646,21.1193 95.5797,21.142 C95.5949,21.1647 95.6295,21.2069 95.6488,21.2262 C95.6681,21.2455 95.7103,21.2801 95.733,21.2953 C95.7557,21.3104 95.8038,21.3361 95.8291,21.3466 C95.8543,21.357 95.9065,21.3729 95.9333,21.3782 C95.96,21.3835 96.0144,21.3889 96.0417,21.3889 L96.3194,21.3889 C96.3467,21.3889 96.401,21.3835 96.4278,21.3782 C96.4546,21.3729 96.5068,21.357 96.532,21.3466 C96.5572,21.3362 96.6054,21.3104 96.6281,21.2953 C96.6508,21.2801 96.693,21.2455 96.7123,21.2262 C96.7316,21.2069 96.7662,21.1647 96.7814,21.142 C96.7965,21.1193 96.8223,21.0712 96.8327,21.0459 C96.8432,21.0207 96.859,20.9685 96.8643,20.9417 C96.8696,20.915 96.875,20.8606 96.875,20.8333 L96.875,20.2778" style="stroke:#808080;stroke-width:0.25;"/>
            </g>
            <path d="M97.5,27.5 L97.9163,25 L97.0837,25 Z" style="stroke:#808080;stroke-width:0.25;fill:#808080;fill-rule:evenodd;"/>
            <path d="M97.5,10 L97.0837,12.5 L97.9163,12.5 Z" style="stroke:#808080;stroke-width:0.25;fill:#808080;fill-rule:evenodd;"/>
        </g>
        <path d="M98.125,27.5 L98.75,27.5 M98.125,10 L98.75,10 M97.5,27.5 L97.5,10 " style="stroke:#808080;stroke-width:0.25;"/>
        <!-- Aligned Dimension -->
        <g>
            <g>
                <path d="M103.6111,30.0694 L104.1667,30.625 L104.1667,28.125 M105,30.625 L106.1111,30.625 L105.4167,28.125 M105.5556,29.5139 L106.1111,29.5139 M106.9444,28.125 L106.9444,28.2639 M108.8889,30.625 L107.7778,30.625 L107.7778,29.5139 L108.3333,29.5139 C108.3606,29.5139 108.4149,29.5085 108.4417,29.5032 C108.4685,29.4979 108.5207,29.482 108.5459,29.4716 C108.5711,29.4612 108.6193,29.4354 108.642,29.4203 C108.6647,29.4051 108.7069,29.3705 108.7262,29.3512 C108.7455,29.3319 108.7801,29.2897 108.7953,29.267 C108.8104,29.2443 108.8361,29.1962 108.8466,29.1709 C108.857,29.1457 108.8729,29.0935 108.8782,29.0667 C108.8835,29.04 108.8889,28.9856 108.8889,28.9583 L108.8889,28.6806 C108.8889,28.6533 108.8835,28.599 108.8782,28.5722 C108.8729,28.5454 108.857,28.4932 108.8466,28.468 C108.8362,28.4428 108.8104,28.3946 108.7953,28.3719 C108.7801,28.3492 108.7455,28.307 108.7262,28.2877 C108.7069,28.2684 108.6647,28.2338 108.642,28.2186 C108.6193,28.2035 108.5712,28.1777 108.5459,28.1673 C108.5207,28.1568 108.4685,28.141 108.4417,28.1357 C108.415,28.1304 108.3606,28.125 108.3333,28.125 L107.7778,28.125" style="stroke:#808080;stroke-width:0.25;"/>
            </g>
            <path d="M97.5,27.5 L100,27.9163 L100,27.0837 Z" style="stroke:#808080;stroke-width:0.25;fill:#808080;fill-rule:evenodd;"/>
            <path d="M115,27.5 L112.5,27.0837 L112.5,27.9163 Z" style="stroke:#808080;stroke-width:0.25;fill:#808080;fill-rule:evenodd;"/>
        </g>
        <path d="M97.5,28.125 L97.5,28.75 M115,28.125 L115,28.75 M97.5,27.5 L115,27.5 " style="stroke:#808080;stroke-width:0.25;"/>
        <!-- Rotated Dimension -->
        <g>
            <g>
                <path d="M127.875,13.3333 L127.875,13.8889 C127.875,13.9162 127.8804,13.9705 127.8857,13.9973 C127.891,14.024 127.9068,14.0763 127.9173,14.1015 C127.9277,14.1267 127.9535,14.1748 127.9686,14.1975 C127.9838,14.2202 128.0184,14.2624 128.0377,14.2817 C128.057,14.301 128.0992,14.3357 128.1219,14.3508 C128.1446,14.366 128.1927,14.3917 128.218,14.4022 C128.2432,14.4126 128.2954,14.4284 128.3222,14.4338 C128.3489,14.4391 128.4033,14.4444 128.4306,14.4444 C128.4578,14.4444 128.5122,14.4391 128.5389,14.4338 C128.5657,14.4284 128.6179,14.4126 128.6432,14.4022 C128.6684,14.3917 128.7165,14.366 128.7392,14.3508 C128.7619,14.3357 128.8041,14.301 128.8234,14.2817 C128.8427,14.2624 128.8773,14.2202 128.8925,14.1975 C128.9076,14.1748 128.9334,14.1267 128.9438,14.1015 C128.9543,14.0763 128.9701,14.024 128.9754,13.9973 C128.9808,13.9705 128.9861,13.9162 128.9861,13.8889 C128.9861,13.9162 128.9915,13.9705 128.9968,13.9972 C129.0021,14.024 129.018,14.0763 129.0284,14.1015 C129.0388,14.1267 129.0646,14.1748 129.0797,14.1975 C129.0949,14.2202 129.1295,14.2624 129.1488,14.2817 C129.1681,14.301 129.2103,14.3356 129.233,14.3508 C129.2557,14.366 129.3038,14.3917 129.3291,14.4021 C129.3543,14.4126 129.4065,14.4284 129.4333,14.4338 C129.46,14.4391 129.5144,14.4444 129.5417,14.4444 L129.8194,14.4444 C129.8467,14.4444 129.901,14.4391 129.9278,14.4338 C129.9546,14.4284 130.0068,14.4126 130.032,14.4022 C130.0572,14.3917 130.1054,14.366 130.1281,14.3508 C130.1508,14.3357 130.193,14.301 130.2123,14.2817 C130.2316,14.2624 130.2662,14.2202 130.2814,14.1975 C130.2965,14.1749 130.3223,14.1267 130.3327,14.1015 C130.3432,14.0763 130.359,14.024 130.3643,13.9973 C130.3696,13.9705 130.375,13.9162 130.375,13.8889 L130.375,13.3333 M128.9861,13.8889 L128.9861,13.6111 M130.375,16.3889 L130.375,15.2778 L128.5286,16.3514 C128.5168,16.3582 128.492,16.3696 128.4791,16.374 C128.4662,16.3784 128.4397,16.3846 128.4262,16.3865 C128.4127,16.3883 128.3854,16.3892 128.3718,16.3884 C128.3582,16.3875 128.3313,16.3832 128.3181,16.3797 C128.3114,16.3779 128.2982,16.3737 128.2918,16.3713 C128.2653,16.3644 128.2141,16.3457 128.1895,16.3338 C128.1649,16.322 128.1183,16.2936 128.0965,16.2772 C128.0747,16.2607 128.0345,16.2238 128.0163,16.2034 C127.9981,16.1831 127.9659,16.139 127.9521,16.1155 C127.9382,16.092 127.9152,16.0425 127.9062,16.0167 C127.8972,15.9909 127.8843,15.9379 127.8805,15.9109 C127.8767,15.8839 127.8744,15.8293 127.8759,15.8021 C127.8775,15.7748 127.8859,15.7209 127.8927,15.6945 C127.8995,15.668 127.9183,15.6168 127.9301,15.5922 C127.942,15.5676 127.9704,15.521 127.9868,15.4992 C128.0032,15.4774 128.0401,15.4372 128.0605,15.419 C128.0809,15.4008 128.1249,15.3686 128.1484,15.3548 C128.172,15.3409 128.2215,15.3179 128.2472,15.3089 C128.2581,15.3051 128.2803,15.2984 128.2914,15.2955 M130.375,17.2222 L130.2361,17.2222 M127.875,19.1667 L127.875,18.0556 L128.9861,18.0556 L128.9861,18.6111 C128.9861,18.6384 128.9915,18.6927 128.9968,18.7195 C129.0021,18.7462 129.018,18.7985 129.0284,18.8237 C129.0388,18.8489 129.0646,18.8971 129.0797,18.9197 C129.0949,18.9424 129.1295,18.9846 129.1488,19.0039 C129.1681,19.0232 129.2103,19.0579 129.233,19.073 C129.2557,19.0882 129.3038,19.1139 129.3291,19.1244 C129.3543,19.1348 129.4065,19.1507 129.4333,19.156 C129.46,19.1613 129.5144,19.1667 129.5417,19.1667 L129.8194,19.1667 C129.8467,19.1667 129.901,19.1613 129.9278,19.156 C129.9546,19.1507 130.0068,19.1348 130.032,19.1244 C130.0572,19.1139 130.1054,19.0882 130.1281,19.073 C130.1508,19.0579 130.193,19.0233 130.2123,19.004 C130.2316,18.9847 130.2662,18.9425 130.2814,18.9198 C130.2965,18.8971 130.3223,18.8489 130.3327,18.8237 C130.3432,18.7985 130.359,18.7463 130.3643,18.7195 C130.3696,18.6927 130.375,18.6384 130.375,18.6111 L130.375,18.0556" style="stroke:#808080;stroke-width:0.25;"/>
            </g>
            <path d="M131,32.5 L131.4163,30 L130.5837,30 Z" style="stroke:#808080;stroke-width:0.25;fill:#808080;fill-rule:evenodd;"/>
            <path d="M131,0 L130.5837,2.5 L131.4163,2.5 Z" style="stroke:#808080;stroke-width:0.25;fill:#808080;fill-rule:evenodd;"/>
        </g>
        <path d="M131,32.5 L131,0 M120.625,32.5 L132.25,32.5 M95.625,0 L132.25,0 " style="stroke:#808080;stroke-width:0.25;"/>
        <!-- Line -->
        <path d="M77.1,32.5 L80,32.5 " style="stroke:#000000;stroke-width:0.25;"/>
        <!-- Line -->
        <path d="M77.1,42.5 L80,42.5 " style="stroke:#000000;stroke-width:0.25;"/>
        <!-- Line -->
        <path d="M77.1,42.5 L80,42.5 " style="stroke:#000000;stroke-width:0.25;"/>
        <!-- Line -->
        <path d="M77.1,26.5 L80,26.5 " style="stroke:#000000;stroke-width:0.25;"/>
        <!-- Line -->
        <path d="M77.1,42.5 L77.1,40.1 " style="stroke:#000000;stroke-width:0.25;"/>
        <!-- Line -->
        <path d="M77.1,34.9 L77.1,32.5 " style="stroke:#000000;stroke-width:0.25;"/>
        <!-- Line -->
        <path d="M77.1,16.5 L83.8893,16.5 " style="stroke:#000000;stroke-width:0.25;"/>
        <!-- Line -->
        <path d="M77.1,26.5 L77.1,24.1 " style="stroke:#000000;stroke-width:0.25;"/>
        <!-- Line -->
        <path d="M77.1,16.5 L77.1,18.9 " style="stroke:#000000;stroke-width:0.25;"/>
        <!-- Line -->
        <path d="M77.1,24.1 L70,24.1 " style="stroke:#000000;stroke-width:0.25;"/>
        <!-- Line -->
        <path d="M77.1,18.9 L70,18.9 " style="stroke:#000000;stroke-width:0.25;"/>
        <!-- Line -->
        <path d="M70,40.1 L77.1,40.1 " style="stroke:#000000;stroke-width:0.25;"/>
        <!-- Line -->
        <path d="M70,40.1 L70,34.9 " style="stroke:#000000;stroke-width:0.25;"/>
        <!-- Line -->
        <path d="M70,24.1 L70,18.9 " style="stroke:#000000;stroke-width:0.25;"/>
        <!-- Rotated Dimension -->
        <g>
            <g>
                <path d="M118.75,40.5694 L119.3056,41.125 L119.3056,38.625 M120.4402,40.9869 C120.401,40.9345 120.3332,40.8224 120.305,40.7634 C120.2767,40.7043 120.2321,40.5812 120.2159,40.5178 C120.2105,40.4963 120.201,40.453 120.1969,40.4312 C120.17,40.3059 120.1411,40.0512 120.1392,39.9231 C120.139,39.9112 120.1389,39.8874 120.1389,39.8755 C120.1384,39.7473 120.1625,39.492 120.187,39.3661 C120.1893,39.3545 120.1941,39.3311 120.1965,39.3195 C120.2085,39.2551 120.2448,39.1293 120.2691,39.0685 C120.2934,39.0076 120.3536,38.8913 120.3893,38.8364 C120.4013,38.8178 120.4267,38.7815 120.44,38.7637 C120.448,38.7512 120.4664,38.7279 120.4768,38.7172 C120.4871,38.7065 120.5097,38.6873 120.5219,38.6788 C120.5341,38.6703 120.5601,38.6558 120.5737,38.6499 C120.5874,38.644 120.6156,38.6348 120.6302,38.6317 C120.6447,38.6285 120.6742,38.6251 120.6891,38.6248 C120.7039,38.6245 120.7336,38.6269 120.7482,38.6296 C120.7628,38.6322 120.7914,38.6403 120.8053,38.6458 C120.8191,38.6512 120.8456,38.6647 120.8581,38.6728 C120.8706,38.6808 120.8939,38.6993 120.9046,38.7096 C120.9153,38.7199 120.9345,38.7425 120.943,38.7548 C120.9444,38.7568 120.9472,38.761 120.9486,38.7631 C120.9878,38.8155 121.0556,38.9275 121.0839,38.9866 C121.1121,39.0457 121.1568,39.1688 121.173,39.2322 C121.1784,39.2537 121.1879,39.297 121.192,39.3187 C121.2189,39.4441 121.2478,39.6987 121.2497,39.8269 C121.2499,39.8388 121.25,39.8626 121.25,39.8745 C121.2505,40.0028 121.2263,40.2582 121.2018,40.384 C121.1995,40.3957 121.1947,40.4191 121.1922,40.4307 C121.1803,40.4952 121.1438,40.6211 121.1195,40.682 C121.0952,40.7428 121.0349,40.8592 120.9992,40.9142 C120.9873,40.9326 120.9622,40.9685 120.9491,40.986 C120.941,40.9986 120.9226,41.0219 120.9123,41.0326 C120.902,41.0433 120.8793,41.0626 120.8671,41.0711 C120.8549,41.0796 120.829,41.0941 120.8153,41.1 C120.8017,41.106 120.7734,41.1151 120.7589,41.1183 C120.7444,41.1215 120.7148,41.1249 120.7,41.1252 C120.6851,41.1255 120.6555,41.1231 120.6408,41.1205 C120.6262,41.1178 120.5976,41.1097 120.5838,41.1043 C120.5699,41.0989 120.5434,41.0853 120.5309,41.0773 C120.5184,41.0693 120.4951,41.0509 120.4844,41.0405 C120.4737,41.0302 120.4544,41.0076 120.4459,40.9954 C120.4444,40.9933 120.4416,40.9891 120.4402,40.9869" style="stroke:#808080;stroke-width:0.25;"/>
            </g>
            <path d="M115,38 L117.5,38.4163 L117.5,37.5837 Z" style="stroke:#808080;stroke-width:0.25;fill:#808080;fill-rule:evenodd;"/>
            <path d="M125,38 L122.5,37.5837 L122.5,38.4163 Z" style="stroke:#808080;stroke-width:0.25;fill:#808080;fill-rule:evenodd;"/>
        </g>
        <path d="M115,38 L125,38 M115,28.125 L115,39.25 M125,28.125 L125,39.25 " style="stroke:#808080;stroke-width:0.25;"/>
        <!-- Text: Front -->
        <g>
            <path d="M-6.2709,-21.9673 L-6.2709,-17.9673 L-3.5724,-17.9673 L-3.5724,-18.4393 L-5.7416,-18.4393 L-5.7416,-19.678 L-3.8643,-19.678 L-3.8643,-20.1501 L-5.7416,-20.1501 L-5.7416,-21.9673 Z M-2.9533,-21.9673 L-2.9533,-19.0696 L-2.5113,-19.0696 L-2.5113,-19.5089 C-2.3985,-19.3033 -2.2944,-19.1678 -2.1989,-19.1023 C-2.1034,-19.0368 -1.9984,-19.0041 -1.8838,-19.0041 C-1.7182,-19.0041 -1.55,-19.0568 -1.379,-19.1623 L-1.5482,-19.618 C-1.6682,-19.5471 -1.7883,-19.5116 -1.9083,-19.5116 C-2.0156,-19.5116 -2.1121,-19.5439 -2.1975,-19.6085 C-2.283,-19.673 -2.344,-19.7626 -2.3804,-19.8772 C-2.4349,-20.0518 -2.4622,-20.2428 -2.4622,-20.4502 L-2.4622,-21.9673 Z M-1.2701,-20.5184 C-1.2701,-19.9818 -1.1209,-19.5844 -0.8226,-19.3261 C-0.5734,-19.1114 -0.2696,-19.0041 0.0887,-19.0041 C0.4871,-19.0041 0.8127,-19.1346 1.0655,-19.3956 C1.3184,-19.6567 1.4448,-20.0173 1.4448,-20.4775 C1.4448,-20.8504 1.3889,-21.1437 1.277,-21.3574 C1.1651,-21.5712 1.0023,-21.7372 0.7886,-21.8554 C0.5749,-21.9736 0.3416,-22.0327 0.0887,-22.0327 C-0.3169,-22.0327 -0.6448,-21.9027 -0.8949,-21.6426 C-1.145,-21.3824 -1.2701,-21.0077 -1.2701,-20.5184 M-0.7653,-20.5184 C-0.7653,-20.8895 -0.6843,-21.1673 -0.5225,-21.352 C-0.3606,-21.5366 -0.1568,-21.6289 0.0887,-21.6289 C0.3325,-21.6289 0.5353,-21.5362 0.6972,-21.3506 C0.8591,-21.1651 0.94,-20.8822 0.94,-20.502 C0.94,-20.1437 0.8586,-19.8722 0.6958,-19.6876 C0.533,-19.503 0.3307,-19.4106 0.0887,-19.4106 C-0.1568,-19.4106 -0.3606,-19.5025 -0.5225,-19.6862 C-0.6843,-19.8699 -0.7653,-20.1473 -0.7653,-20.5184 M2.0202,-21.9673 L2.0202,-19.0696 L2.4622,-19.0696 L2.4622,-19.4816 C2.675,-19.1633 2.9824,-19.0041 3.3844,-19.0041 C3.5591,-19.0041 3.7196,-19.0355 3.866,-19.0982 C4.0125,-19.161 4.1221,-19.2433 4.1948,-19.3452 C4.2676,-19.447 4.3185,-19.568 4.3476,-19.708 C4.3658,-19.799 4.3749,-19.9582 4.3749,-20.1855 L4.3749,-21.9673 L3.8838,-21.9673 L3.8838,-20.2046 C3.8838,-20.0045 3.8647,-19.8549 3.8265,-19.7558 C3.7883,-19.6567 3.7205,-19.5775 3.6232,-19.5184 C3.5259,-19.4593 3.4117,-19.4297 3.2808,-19.4297 C3.0716,-19.4297 2.891,-19.4961 2.7392,-19.6289 C2.5873,-19.7617 2.5113,-20.0136 2.5113,-20.3847 L2.5113,-21.9673 Z M6.1999,-21.528 L6.2709,-21.9618 C6.1326,-21.9909 6.0089,-22.0055 5.8998,-22.0055 C5.7215,-22.0055 5.5833,-21.9773 5.4851,-21.9209 C5.3868,-21.8645 5.3177,-21.7904 5.2777,-21.6985 C5.2377,-21.6066 5.2177,-21.4134 5.2177,-21.1187 L5.2177,-19.4516 L4.8575,-19.4516 L4.8575,-19.0696 L5.2177,-19.0696 L5.2177,-18.352 L5.7061,-18.0573 L5.7061,-19.0696 L6.1999,-19.0696 L6.1999,-19.4516 L5.7061,-19.4516 L5.7061,-21.146 C5.7061,-21.286 5.7147,-21.3761 5.732,-21.4161 C5.7493,-21.4561 5.7775,-21.4879 5.8166,-21.5116 C5.8557,-21.5352 5.9116,-21.5471 5.9844,-21.5471 C6.039,-21.5471 6.1108,-21.5407 6.1999,-21.528" style="fill:#000000;fill-rule:nonzero;"/>
        </g>
        <!-- Aligned Dimension -->
        <g>
            <g>
                <path d="M-35.125,24.5833 L-35.125,23.4722 L-34.0139,23.4722 L-34.0139,24.0278 C-34.0139,24.0551 -34.0085,24.1094 -34.0032,24.1361 C-33.9979,24.1629 -33.982,24.2152 -33.9716,24.2404 C-33.9612,24.2656 -33.9354,24.3137 -33.9203,24.3364 C-33.9051,24.3591 -33.8705,24.4013 -33.8512,24.4206 C-33.8319,24.4399 -33.7897,24.4745 -33.767,24.4897 C-33.7443,24.5049 -33.6961,24.5306 -33.6709,24.541 C-33.6457,24.5515 -33.5935,24.5673 -33.5667,24.5727 C-33.5399,24.578 -33.4856,24.5833 -33.4583,24.5833 L-33.1805,24.5833 C-33.1533,24.5833 -33.099,24.578 -33.0722,24.5727 C-33.0454,24.5673 -32.9932,24.5515 -32.968,24.5411 C-32.9428,24.5306 -32.8946,24.5049 -32.8719,24.4897 C-32.8492,24.4746 -32.807,24.4399 -32.7877,24.4206 C-32.7684,24.4013 -32.7338,24.3591 -32.7186,24.3364 C-32.7035,24.3137 -32.6777,24.2656 -32.6673,24.2404 C-32.6568,24.2152 -32.641,24.1629 -32.6357,24.1362 C-32.6303,24.1094 -32.625,24.0551 -32.625,24.0278 L-32.625,23.4722 M-34.9869,25.718 C-34.9345,25.6788 -34.8224,25.611 -34.7634,25.5827 C-34.7043,25.5545 -34.5812,25.5099 -34.5178,25.4937 C-34.4963,25.4882 -34.453,25.4787 -34.4312,25.4747 C-34.3059,25.4478 -34.0512,25.4189 -33.9231,25.417 C-33.9112,25.4168 -33.8874,25.4167 -33.8755,25.4167 C-33.7473,25.4162 -33.492,25.4403 -33.3661,25.4648 C-33.3545,25.4671 -33.3311,25.4718 -33.3195,25.4743 C-33.2551,25.4862 -33.1293,25.5226 -33.0685,25.5469 C-33.0076,25.5712 -32.8913,25.6314 -32.8364,25.667 C-32.8178,25.6791 -32.7815,25.7045 -32.7637,25.7177 C-32.7512,25.7258 -32.7279,25.7442 -32.7172,25.7545 C-32.7065,25.7649 -32.6873,25.7875 -32.6788,25.7997 C-32.6703,25.8119 -32.6558,25.8379 -32.6499,25.8515 C-32.644,25.8651 -32.6348,25.8934 -32.6317,25.9079 C-32.6285,25.9225 -32.6251,25.952 -32.6248,25.9669 C-32.6245,25.9817 -32.6269,26.0114 -32.6296,26.026 C-32.6322,26.0406 -32.6403,26.0692 -32.6458,26.083 C-32.6512,26.0969 -32.6647,26.1233 -32.6728,26.1358 C-32.6808,26.1483 -32.6993,26.1717 -32.7096,26.1824 C-32.7199,26.1931 -32.7425,26.2123 -32.7548,26.2208 C-32.7568,26.2222 -32.761,26.225 -32.7631,26.2264 C-32.8155,26.2656 -32.9275,26.3334 -32.9866,26.3617 C-33.0457,26.3899 -33.1688,26.4346 -33.2322,26.4507 C-33.2537,26.4562 -33.297,26.4657 -33.3187,26.4698 C-33.4441,26.4966 -33.6987,26.5256 -33.8269,26.5275 C-33.8388,26.5277 -33.8626,26.5278 -33.8745,26.5278 C-34.0028,26.5283 -34.2582,26.5041 -34.384,26.4795 C-34.3957,26.4773 -34.4191,26.4725 -34.4307,26.47 C-34.4952,26.458 -34.6211,26.4216 -34.682,26.3973 C-34.7428,26.373 -34.8592,26.3127 -34.9142,26.277 C-34.9326,26.265 -34.9685,26.24 -34.986,26.2268 C-34.9986,26.2188 -35.0219,26.2004 -35.0326,26.1901 C-35.0433,26.1797 -35.0626,26.1571 -35.0711,26.1449 C-35.0796,26.1327 -35.0941,26.1067 -35.1,26.0931 C-35.106,26.0795 -35.1151,26.0512 -35.1183,26.0367 C-35.1215,26.0221 -35.1249,25.9926 -35.1252,25.9778 C-35.1255,25.9629 -35.1231,25.9332 -35.1205,25.9186 C-35.1178,25.904 -35.1097,25.8754 -35.1043,25.8615 C-35.0989,25.8477 -35.0853,25.8212 -35.0773,25.8087 C-35.0693,25.7962 -35.0509,25.7729 -35.0405,25.7621 C-35.0302,25.7514 -35.0076,25.7322 -34.9954,25.7237 C-34.9933,25.7222 -34.9891,25.7194 -34.9869,25.718" style="stroke:#808080;stroke-width:0.25;"/>
            </g>
            <path d="M-32,50 L-31.5837,47.5 L-32.4163,47.5 Z" style="stroke:#808080;stroke-width:0.25;fill:#808080;fill-rule:evenodd;"/>
            <path d="M-32,0 L-32.4163,2.5 L-31.5837,2.5 Z" style="stroke:#808080;stroke-width:0.25;fill:#808080;fill-rule:evenodd;"/>
        </g>
        <path d="M-20.625,50 L-33.25,50 M-20.625,0 L-33.25,0 M-32,50 L-32,0 " style="stroke:#808080;stroke-width:0.25;"/>
        <!-- Aligned Dimension -->
        <g>
            <g>
                <path d="M94.9306,3.75 L94.375,4.3056 L96.875,4.3056 M94.5131,5.4402 C94.5655,5.401 94.6776,5.3332 94.7366,5.305 C94.7957,5.2767 94.9188,5.2321 94.9822,5.2159 C95.0037,5.2105 95.047,5.201 95.0688,5.1969 C95.1941,5.17 95.4488,5.1411 95.5769,5.1392 C95.5888,5.139 95.6126,5.1389 95.6245,5.1389 C95.7527,5.1384 96.008,5.1625 96.1339,5.187 C96.1455,5.1893 96.1689,5.1941 96.1805,5.1965 C96.2449,5.2085 96.3707,5.2448 96.4315,5.2691 C96.4924,5.2934 96.6087,5.3536 96.6636,5.3893 C96.6822,5.4013 96.7185,5.4267 96.7363,5.44 C96.7488,5.448 96.7721,5.4664 96.7828,5.4768 C96.7935,5.4871 96.8127,5.5097 96.8212,5.5219 C96.8297,5.5341 96.8442,5.5601 96.8501,5.5737 C96.856,5.5874 96.8652,5.6156 96.8683,5.6302 C96.8715,5.6447 96.8749,5.6742 96.8752,5.6891 C96.8755,5.7039 96.8731,5.7336 96.8704,5.7482 C96.8678,5.7628 96.8597,5.7914 96.8542,5.8053 C96.8488,5.8191 96.8353,5.8456 96.8272,5.8581 C96.8192,5.8706 96.8007,5.8939 96.7904,5.9046 C96.7801,5.9153 96.7575,5.9345 96.7452,5.943 C96.7432,5.9444 96.739,5.9472 96.7369,5.9486 C96.6845,5.9878 96.5725,6.0556 96.5134,6.0839 C96.4543,6.1121 96.3312,6.1568 96.2678,6.173 C96.2463,6.1784 96.203,6.1879 96.1813,6.192 C96.0559,6.2189 95.8013,6.2478 95.6731,6.2497 C95.6612,6.2499 95.6374,6.25 95.6255,6.25 C95.4972,6.2505 95.2418,6.2263 95.116,6.2018 C95.1043,6.1995 95.0809,6.1947 95.0693,6.1922 C95.0048,6.1803 94.8789,6.1438 94.818,6.1195 C94.7572,6.0952 94.6408,6.0349 94.5858,5.9992 C94.5674,5.9873 94.5315,5.9622 94.514,5.9491 C94.5014,5.941 94.4781,5.9226 94.4674,5.9123 C94.4567,5.902 94.4374,5.8793 94.4289,5.8671 C94.4204,5.8549 94.4059,5.829 94.4,5.8153 C94.394,5.8017 94.3849,5.7734 94.3817,5.7589 C94.3785,5.7444 94.3751,5.7148 94.3748,5.7 C94.3745,5.6851 94.3769,5.6555 94.3795,5.6408 C94.3822,5.6262 94.3903,5.5976 94.3957,5.5838 C94.4011,5.5699 94.4147,5.5434 94.4227,5.5309 C94.4307,5.5184 94.4491,5.4951 94.4595,5.4844 C94.4698,5.4737 94.4924,5.4544 94.5046,5.4459 C94.5067,5.4444 94.5109,5.4416 94.5131,5.4402" style="stroke:#808080;stroke-width:0.25;"/>
            </g>
            <path d="M97.5,10 L97.9163,7.5 L97.0837,7.5 Z" style="stroke:#808080;stroke-width:0.25;fill:#808080;fill-rule:evenodd;"/>
            <path d="M97.5,0 L97.0837,2.5 L97.9163,2.5 Z" style="stroke:#808080;stroke-width:0.25;fill:#808080;fill-rule:evenodd;"/>
        </g>
        <path d="M98.125,10 L98.75,10 M98.125,0 L98.75,0 M97.5,10 L97.5,0 " style="stroke:#808080;stroke-width:0.25;"/>
        <!-- Rotated Dimension -->
        <g>
            <g>
                <path d="M109.4444,44.625 L108.3333,44.625 L109.4069,46.4714 C109.4138,46.4832 109.4251,46.508 109.4295,46.5209 C109.4339,46.5338 109.4402,46.5603 109.442,46.5738 C109.4438,46.5873 109.4448,46.6146 109.4439,46.6282 C109.4431,46.6418 109.4387,46.6687 109.4352,46.6819 C109.4335,46.6886 109.4292,46.7018 109.4268,46.7083 C109.42,46.7347 109.4012,46.7859 109.3894,46.8105 C109.3775,46.8351 109.3491,46.8817 109.3327,46.9035 C109.3163,46.9253 109.2794,46.9655 109.259,46.9837 C109.2386,47.0019 109.1946,47.0341 109.1711,47.0479 C109.1475,47.0618 109.098,47.0848 109.0723,47.0938 C109.0465,47.1028 108.9935,47.1157 108.9664,47.1195 C108.9394,47.1233 108.8849,47.1256 108.8576,47.1241 C108.8304,47.1225 108.7764,47.1141 108.75,47.1073 C108.7236,47.1005 108.6723,47.0817 108.6477,47.0699 C108.6231,47.058 108.5765,47.0296 108.5547,47.0132 C108.5329,46.9968 108.4927,46.9599 108.4746,46.9395 C108.4564,46.9191 108.4242,46.8751 108.4103,46.8516 C108.3964,46.828 108.3735,46.7785 108.3645,46.7528 C108.3606,46.7419 108.3539,46.7197 108.351,46.7086 M110.2778,47.125 L111.3889,47.125 L110.6944,44.625 M110.8333,46.0139 L111.3889,46.0139 M112.2222,44.625 L112.2222,44.7639 M114.1667,47.125 L113.0556,47.125 L113.0556,46.0139 L113.6111,46.0139 C113.6384,46.0139 113.6927,46.0085 113.7195,46.0032 C113.7462,45.9979 113.7985,45.982 113.8237,45.9716 C113.8489,45.9612 113.8971,45.9354 113.9197,45.9203 C113.9424,45.9051 113.9846,45.8705 114.0039,45.8512 C114.0232,45.8319 114.0579,45.7897 114.073,45.767 C114.0882,45.7443 114.1139,45.6962 114.1244,45.6709 C114.1348,45.6457 114.1507,45.5935 114.156,45.5667 C114.1613,45.54 114.1667,45.4856 114.1667,45.4583 L114.1667,45.1806 C114.1667,45.1533 114.1613,45.099 114.156,45.0722 C114.1507,45.0454 114.1348,44.9932 114.1244,44.968 C114.1139,44.9428 114.0882,44.8946 114.073,44.8719 C114.0579,44.8492 114.0233,44.807 114.004,44.7877 C113.9847,44.7684 113.9425,44.7338 113.9198,44.7186 C113.8971,44.7035 113.8489,44.6777 113.8237,44.6673 C113.7985,44.6568 113.7463,44.641 113.7195,44.6357 C113.6927,44.6304 113.6384,44.625 113.6111,44.625 L113.0556,44.625" style="stroke:#808080;stroke-width:0.25;"/>
            </g>
            <path d="M97.5,44 L100,44.4163 L100,43.5837 Z" style="stroke:#808080;stroke-width:0.25;fill:#808080;fill-rule:evenodd;"/>
            <path d="M125,44 L122.5,43.5837 L122.5,44.4163 Z" style="stroke:#808080;stroke-width:0.25;fill:#808080;fill-rule:evenodd;"/>
        </g>
        <path d="M97.5,44 L125,44 M97.5,28.125 L97.5,45.25 M125,28.125 L125,45.25 " style="stroke:#808080;stroke-width:0.25;"/>
        <!-- Rotated Dimension -->
        <g>
            <g>
                <path d="M81.7361,-5.375 L80.625,-5.375 L81.6986,-3.5286 C81.7055,-3.5168 81.7168,-3.492 81.7212,-3.4791 C81.7256,-3.4662 81.7319,-3.4397 81.7337,-3.4262 C81.7355,-3.4126 81.7365,-3.3854 81.7356,-3.3718 C81.7348,-3.3582 81.7304,-3.3313 81.7269,-3.3181 C81.7251,-3.3114 81.7209,-3.2982 81.7185,-3.2917 C81.7116,-3.2653 81.6929,-3.214 81.681,-3.1894 C81.6692,-3.1649 81.6408,-3.1182 81.6244,-3.0964 C81.608,-3.0746 81.571,-3.0345 81.5507,-3.0163 C81.5303,-2.9981 81.4862,-2.9659 81.4627,-2.952 C81.4392,-2.9382 81.3897,-2.9152 81.3639,-2.9062 C81.3382,-2.8972 81.2851,-2.8843 81.2581,-2.8805 C81.2311,-2.8767 81.1765,-2.8744 81.1493,-2.8759 C81.122,-2.8774 81.0681,-2.8858 81.0417,-2.8927 C81.0152,-2.8995 80.964,-2.9182 80.9394,-2.9301 C80.9148,-2.9419 80.8682,-2.9703 80.8464,-2.9868 C80.8246,-3.0032 80.7844,-3.0401 80.7662,-3.0605 C80.748,-3.0808 80.7158,-3.1249 80.702,-3.1484 C80.6881,-3.1719 80.6651,-3.2214 80.6561,-3.2472 C80.6523,-3.2581 80.6456,-3.2802 80.6427,-3.2914 M82.5694,-5.375 L82.5694,-5.2361 M83.6806,-5.375 C83.7515,-5.3341 83.8846,-5.2387 83.9462,-5.1847 C84.0077,-5.1307 84.1197,-5.0111 84.1695,-4.9461 C84.2194,-4.8812 84.3058,-4.7421 84.3421,-4.6686 C84.3783,-4.5952 84.4359,-4.4419 84.4571,-4.3628 C84.4783,-4.2837 84.505,-4.1221 84.5103,-4.0404 C84.5121,-4.0132 84.5139,-3.9588 84.5139,-3.9316 L84.5139,-3.4305 C84.5139,-3.4032 84.5085,-3.3489 84.5032,-3.3221 C84.4979,-3.2954 84.482,-3.2431 84.4716,-3.2179 C84.4612,-3.1927 84.4354,-3.1446 84.4203,-3.1219 C84.4051,-3.0992 84.3705,-3.057 84.3512,-3.0377 C84.3319,-3.0184 84.2897,-2.9838 84.267,-2.9686 C84.2443,-2.9534 84.1962,-2.9277 84.1709,-2.9173 C84.1457,-2.9068 84.0935,-2.891 84.0667,-2.8856 C84.0399,-2.8803 83.9856,-2.875 83.9583,-2.875 C83.931,-2.875 83.8767,-2.8803 83.8499,-2.8856 C83.8232,-2.891 83.7709,-2.9068 83.7457,-2.9173 C83.7205,-2.9277 83.6724,-2.9534 83.6497,-2.9686 C83.627,-2.9838 83.5848,-3.0184 83.5655,-3.0377 C83.5462,-3.057 83.5116,-3.0992 83.4964,-3.1219 C83.4812,-3.1446 83.4555,-3.1927 83.4451,-3.2179 C83.4346,-3.2431 83.4188,-3.2954 83.4135,-3.3221 C83.4081,-3.3489 83.4028,-3.4032 83.4028,-3.4305 L83.4028,-3.7083 C83.4028,-3.7356 83.4081,-3.7899 83.4135,-3.8167 C83.4188,-3.8435 83.4346,-3.8957 83.4451,-3.9209 C83.4555,-3.9461 83.4813,-3.9943 83.4964,-4.017 C83.5116,-4.0397 83.5462,-4.0818 83.5655,-4.1011 C83.5848,-4.1204 83.627,-4.1551 83.6497,-4.1702 C83.6724,-4.1854 83.7205,-4.2111 83.7458,-4.2216 C83.771,-4.232 83.8232,-4.2479 83.85,-4.2532 C83.8767,-4.2585 83.931,-4.2639 83.9583,-4.2639 L84.4806,-4.2639" style="stroke:#808080;stroke-width:0.25;"/>
            </g>
            <path d="M77.1,-6 L74.6,-6.4163 L74.6,-5.5837 Z" style="stroke:#808080;stroke-width:0.25;fill:#808080;fill-rule:evenodd;"/>
            <path d="M80,-6 L82.5,-5.5837 L82.5,-6.4163 Z" style="stroke:#808080;stroke-width:0.25;fill:#808080;fill-rule:evenodd;"/>
        </g>
        <path d="M72.1,-6 L85,-6 M77.1,25.875 L77.1,-7.25 M80,25.875 L80,-7.25 " style="stroke:#808080;stroke-width:0.25;"/>
        <!-- Rotated Dimension -->
        <g>
            <g>
                <path d="M71.8833,59.125 L72.9944,59.125 L72.3,56.625 M72.4389,58.0139 L72.9944,58.0139 M73.8278,56.625 L73.8278,56.7639 M74.6611,58.5694 L75.2167,59.125 L75.2167,56.625" style="stroke:#808080;stroke-width:0.25;"/>
            </g>
            <path d="M77.1,56 L74.6,55.5837 L74.6,56.4163 Z" style="stroke:#808080;stroke-width:0.25;fill:#808080;fill-rule:evenodd;"/>
            <path d="M70,56 L72.5,56.4163 L72.5,55.5837 Z" style="stroke:#808080;stroke-width:0.25;fill:#808080;fill-rule:evenodd;"/>
        </g>
        <path d="M77.1,56 L70,56 M77.1,43.125 L77.1,57.25 M70,43.125 L70,57.25 " style="stroke:#808080;stroke-width:0.25;"/>
        <!-- Rotated Dimension -->
        <g>
            <g>
                <path d="M97.0833,-8.875 L95.9722,-8.875 L95.9722,-9.9861 L96.5278,-9.9861 C96.5551,-9.9861 96.6094,-9.9915 96.6361,-9.9968 C96.6629,-10.0021 96.7151,-10.018 96.7404,-10.0284 C96.7656,-10.0388 96.8137,-10.0646 96.8364,-10.0797 C96.8591,-10.0949 96.9013,-10.1295 96.9206,-10.1488 C96.9399,-10.1681 96.9745,-10.2103 96.9897,-10.233 C97.0049,-10.2557 97.0306,-10.3038 97.041,-10.3291 C97.0515,-10.3543 97.0673,-10.4065 97.0727,-10.4333 C97.078,-10.46 97.0833,-10.5144 97.0833,-10.5417 L97.0833,-10.8194 C97.0833,-10.8467 97.078,-10.901 97.0727,-10.9278 C97.0673,-10.9546 97.0515,-11.0068 97.041,-11.032 C97.0306,-11.0572 97.0049,-11.1054 96.9897,-11.1281 C96.9745,-11.1508 96.9399,-11.193 96.9206,-11.2123 C96.9013,-11.2316 96.8591,-11.2662 96.8364,-11.2814 C96.8137,-11.2965 96.7656,-11.3223 96.7404,-11.3327 C96.7152,-11.3432 96.6629,-11.359 96.6362,-11.3643 C96.6094,-11.3696 96.5551,-11.375 96.5278,-11.375 L95.9722,-11.375 M99.0278,-8.875 L97.9167,-8.875 L97.9167,-9.9861 L98.4722,-9.9861 C98.4995,-9.9861 98.5538,-9.9915 98.5806,-9.9968 C98.6074,-10.0021 98.6596,-10.018 98.6848,-10.0284 C98.71,-10.0388 98.7582,-10.0646 98.7809,-10.0797 C98.8035,-10.0949 98.8457,-10.1295 98.865,-10.1488 C98.8843,-10.1681 98.919,-10.2103 98.9341,-10.233 C98.9493,-10.2557 98.975,-10.3038 98.9855,-10.3291 C98.9959,-10.3543 99.0118,-10.4065 99.0171,-10.4333 C99.0224,-10.46 99.0278,-10.5144 99.0278,-10.5417 L99.0278,-10.8194 C99.0278,-10.8467 99.0224,-10.901 99.0171,-10.9278 C99.0118,-10.9546 98.9959,-11.0068 98.9855,-11.032 C98.975,-11.0572 98.9493,-11.1054 98.9342,-11.1281 C98.919,-11.1508 98.8844,-11.193 98.8651,-11.2123 C98.8458,-11.2316 98.8036,-11.2662 98.7809,-11.2814 C98.7582,-11.2965 98.71,-11.3223 98.6848,-11.3327 C98.6596,-11.3432 98.6074,-11.359 98.5806,-11.3643 C98.5538,-11.3696 98.4995,-11.375 98.4722,-11.375 L97.9167,-11.375" style="stroke:#808080;stroke-width:0.25;"/>
            </g>
            <path d="M70,-12 L72.5,-11.5837 L72.5,-12.4163 Z" style="stroke:#808080;stroke-width:0.25;fill:#808080;fill-rule:evenodd;"/>
            <path d="M125,-12 L122.5,-12.4163 L122.5,-11.5837 Z" style="stroke:#808080;stroke-width:0.25;fill:#808080;fill-rule:evenodd;"/>
        </g>
        <path d="M70,-12 L125,-12 M70,-0.625 L70,-13.25 M125,26.875 L125,-13.25 " style="stroke:#808080;stroke-width:0.25;"/>
        <!-- Line -->
        <path d="M-40,65 L139,65 " style="stroke:#808080;stroke-width:0.25;"/>
        <!-- Line -->
        <path d="M139,65 L139,-28 " style="stroke:#808080;stroke-width:0.25;"/>
        <!-- Line -->
        <path d="M139,-28 L-40,-28 " style="stroke:#808080;stroke-width:0.25;"/>
        <!-- Line -->
        <path d="M-40,-28 L-40,65 " style="stroke:#808080;stroke-width:0.25;"/>
    </g>
</svg>
