<?xml version="1.0" encoding="UTF-8"?>
<!-- Sun Feb 1 19:58:58 2026 Generated by QCAD 3.32.6 SVG Exporter -->
<svg width="170mm" height="120mm" viewBox="-40 -80 170 120" version="1.1" xmlns="http://www.w3.org/2000/svg" style="stroke-linecap:round;stroke-linejoin:round;fill:none">
    <g transform="scale(1,-1)">
        <!-- Text: Side -->
        <g>
            <path d="M-0.3497,-30.7149 L0.1496,-30.6712 C0.1732,-30.8713 0.2282,-31.0355 0.3147,-31.1637 C0.4011,-31.292 0.5352,-31.3956 0.7171,-31.4748 C0.899,-31.5539 1.1036,-31.5935 1.331,-31.5935 C1.5329,-31.5935 1.7112,-31.5634 1.8658,-31.5034 C2.0204,-31.4434 2.1355,-31.3611 2.211,-31.2565 C2.2865,-31.1519 2.3242,-31.0377 2.3242,-30.9141 C2.3242,-30.7885 2.2878,-30.6789 2.2151,-30.5853 C2.1423,-30.4916 2.0222,-30.4129 1.8549,-30.3492 C1.7476,-30.3074 1.5102,-30.2424 1.1428,-30.1542 C0.7753,-30.0659 0.5179,-29.9827 0.3706,-29.9045 C0.1796,-29.8045 0.0373,-29.6803 -0.0564,-29.5321 C-0.1501,-29.3838 -0.1969,-29.2178 -0.1969,-29.0341 C-0.1969,-28.8322 -0.1396,-28.6435 -0.025,-28.4679 C0.0895,-28.2924 0.2569,-28.1592 0.477,-28.0682 C0.6971,-27.9773 0.9418,-27.9318 1.211,-27.9318 C1.5075,-27.9318 1.7689,-27.9795 1.9954,-28.075 C2.2219,-28.1705 2.3961,-28.3111 2.5179,-28.4966 C2.6398,-28.6821 2.7053,-28.8922 2.7144,-29.1269 L2.2069,-29.1651 C2.1796,-28.9122 2.0873,-28.7212 1.9299,-28.5921 C1.7726,-28.4629 1.5402,-28.3984 1.2328,-28.3984 C0.9127,-28.3984 0.6794,-28.457 0.5329,-28.5744 C0.3865,-28.6917 0.3133,-28.8331 0.3133,-28.9986 C0.3133,-29.1423 0.3651,-29.2606 0.4688,-29.3533 C0.5707,-29.4461 0.8367,-29.5412 1.2669,-29.6385 C1.6971,-29.7358 1.9922,-29.8208 2.1523,-29.8936 C2.3851,-30.0009 2.557,-30.1369 2.668,-30.3015 C2.779,-30.4661 2.8344,-30.6558 2.8344,-30.8704 C2.8344,-31.0832 2.7735,-31.2838 2.6516,-31.472 C2.5297,-31.6603 2.3547,-31.8067 2.1264,-31.9113 C1.8981,-32.0159 1.6412,-32.0682 1.3556,-32.0682 C0.9936,-32.0682 0.6903,-32.0155 0.4456,-31.91 C0.201,-31.8045 0.0091,-31.6457 -0.1301,-31.4338 C-0.2692,-31.2219 -0.3425,-30.9823 -0.3497,-30.7149 M3.4968,-28.5648 L3.4968,-28 L3.9879,-28 L3.9879,-28.5648 Z M3.4968,-32 L3.4968,-29.1023 L3.9879,-29.1023 L3.9879,-32 Z M6.6147,-32 L6.6147,-31.6344 C6.431,-31.9218 6.1609,-32.0655 5.8044,-32.0655 C5.5734,-32.0655 5.361,-32.0018 5.1673,-31.8745 C4.9735,-31.7472 4.8235,-31.5693 4.7171,-31.3411 C4.6106,-31.1128 4.5574,-30.8504 4.5574,-30.5539 C4.5574,-30.2647 4.6056,-30.0023 4.702,-29.7667 C4.7985,-29.5312 4.9431,-29.3506 5.1359,-29.2251 C5.3287,-29.0996 5.5442,-29.0368 5.7825,-29.0368 C5.9572,-29.0368 6.1127,-29.0737 6.2491,-29.1473 C6.3855,-29.221 6.4965,-29.317 6.582,-29.4352 L6.582,-28 L7.0704,-28 L7.0704,-32 Z M5.0622,-30.5539 C5.0622,-30.925 5.1404,-31.2024 5.2969,-31.3861 C5.4533,-31.5698 5.6379,-31.6617 5.8508,-31.6617 C6.0654,-31.6617 6.2477,-31.5739 6.3978,-31.3984 C6.5479,-31.2228 6.6229,-30.955 6.6229,-30.5948 C6.6229,-30.1983 6.5465,-29.9072 6.3937,-29.7217 C6.2409,-29.5362 6.0527,-29.4434 5.8289,-29.4434 C5.6106,-29.4434 5.4283,-29.5325 5.2819,-29.7108 C5.1354,-29.889 5.0622,-30.1701 5.0622,-30.5539 M9.8259,-31.0668 L10.3334,-31.1296 C10.2533,-31.4261 10.1051,-31.6562 9.8886,-31.8199 C9.6722,-31.9836 9.3957,-32.0655 9.0592,-32.0655 C8.6353,-32.0655 8.2993,-31.935 8.051,-31.6739 C7.8027,-31.4129 7.6785,-31.0468 7.6785,-30.5757 C7.6785,-30.0882 7.804,-29.7099 8.0551,-29.4407 C8.3061,-29.1714 8.6317,-29.0368 9.0319,-29.0368 C9.4193,-29.0368 9.7358,-29.1687 9.9814,-29.4325 C10.227,-29.6962 10.3497,-30.0673 10.3497,-30.5457 C10.3497,-30.5748 10.3488,-30.6185 10.347,-30.6767 L8.186,-30.6767 C8.2042,-30.995 8.2943,-31.2387 8.4562,-31.4079 C8.618,-31.5771 8.82,-31.6617 9.0619,-31.6617 C9.242,-31.6617 9.3957,-31.6144 9.523,-31.5198 C9.6503,-31.4252 9.7513,-31.2742 9.8259,-31.0668 M8.2133,-30.2729 L9.8313,-30.2729 C9.8095,-30.0291 9.7476,-29.8463 9.6458,-29.7244 C9.4893,-29.5352 9.2865,-29.4407 9.0373,-29.4407 C8.8118,-29.4407 8.6221,-29.5161 8.4684,-29.6671 C8.3147,-29.8181 8.2297,-30.02 8.2133,-30.2729" style="fill:#000000;fill-rule:nonzero;"/>
        </g>
        <!-- Text: Front -->
        <g>
            <path d="M78.7291,-31.9673 L78.7291,-27.9673 L81.4276,-27.9673 L81.4276,-28.4393 L79.2584,-28.4393 L79.2584,-29.678 L81.1357,-29.678 L81.1357,-30.1501 L79.2584,-30.1501 L79.2584,-31.9673 Z M82.0467,-31.9673 L82.0467,-29.0696 L82.4887,-29.0696 L82.4887,-29.5089 C82.6015,-29.3033 82.7056,-29.1678 82.8011,-29.1023 C82.8966,-29.0368 83.0016,-29.0041 83.1162,-29.0041 C83.2818,-29.0041 83.45,-29.0568 83.621,-29.1623 L83.4518,-29.618 C83.3318,-29.5471 83.2117,-29.5116 83.0917,-29.5116 C82.9844,-29.5116 82.8879,-29.5439 82.8025,-29.6085 C82.717,-29.673 82.656,-29.7626 82.6196,-29.8772 C82.5651,-30.0518 82.5378,-30.2428 82.5378,-30.4502 L82.5378,-31.9673 Z M83.7299,-30.5184 C83.7299,-29.9818 83.8791,-29.5844 84.1774,-29.3261 C84.4266,-29.1114 84.7304,-29.0041 85.0887,-29.0041 C85.4871,-29.0041 85.8127,-29.1346 86.0655,-29.3956 C86.3184,-29.6567 86.4448,-30.0173 86.4448,-30.4775 C86.4448,-30.8504 86.3889,-31.1437 86.277,-31.3574 C86.1651,-31.5712 86.0023,-31.7372 85.7886,-31.8554 C85.5749,-31.9736 85.3416,-32.0327 85.0887,-32.0327 C84.6831,-32.0327 84.3552,-31.9027 84.1051,-31.6426 C83.855,-31.3824 83.7299,-31.0077 83.7299,-30.5184 M84.2347,-30.5184 C84.2347,-30.8895 84.3157,-31.1673 84.4775,-31.352 C84.6394,-31.5366 84.8432,-31.6289 85.0887,-31.6289 C85.3325,-31.6289 85.5353,-31.5362 85.6972,-31.3506 C85.8591,-31.1651 85.94,-30.8822 85.94,-30.502 C85.94,-30.1437 85.8586,-29.8722 85.6958,-29.6876 C85.533,-29.503 85.3307,-29.4106 85.0887,-29.4106 C84.8432,-29.4106 84.6394,-29.5025 84.4775,-29.6862 C84.3157,-29.8699 84.2347,-30.1473 84.2347,-30.5184 M87.0202,-31.9673 L87.0202,-29.0696 L87.4622,-29.0696 L87.4622,-29.4816 C87.675,-29.1633 87.9824,-29.0041 88.3844,-29.0041 C88.5591,-29.0041 88.7196,-29.0355 88.866,-29.0982 C89.0125,-29.161 89.1221,-29.2433 89.1948,-29.3452 C89.2676,-29.447 89.3185,-29.568 89.3476,-29.708 C89.3658,-29.799 89.3749,-29.9582 89.3749,-30.1855 L89.3749,-31.9673 L88.8838,-31.9673 L88.8838,-30.2046 C88.8838,-30.0045 88.8647,-29.8549 88.8265,-29.7558 C88.7883,-29.6567 88.7205,-29.5775 88.6232,-29.5184 C88.5259,-29.4593 88.4117,-29.4297 88.2808,-29.4297 C88.0716,-29.4297 87.891,-29.4961 87.7392,-29.6289 C87.5873,-29.7617 87.5113,-30.0136 87.5113,-30.3847 L87.5113,-31.9673 Z M91.1999,-31.528 L91.2709,-31.9618 C91.1326,-31.9909 91.0089,-32.0055 90.8998,-32.0055 C90.7215,-32.0055 90.5833,-31.9773 90.4851,-31.9209 C90.3868,-31.8645 90.3177,-31.7904 90.2777,-31.6985 C90.2377,-31.6066 90.2177,-31.4134 90.2177,-31.1187 L90.2177,-29.4516 L89.8575,-29.4516 L89.8575,-29.0696 L90.2177,-29.0696 L90.2177,-28.352 L90.7061,-28.0573 L90.7061,-29.0696 L91.1999,-29.0696 L91.1999,-29.4516 L90.7061,-29.4516 L90.7061,-31.146 C90.7061,-31.286 90.7147,-31.3761 90.732,-31.4161 C90.7493,-31.4561 90.7775,-31.4879 90.8166,-31.5116 C90.8557,-31.5352 90.9116,-31.5471 90.9844,-31.5471 C91.039,-31.5471 91.1108,-31.5407 91.1999,-31.528" style="fill:#000000;fill-rule:nonzero;"/>
        </g>
        <!-- Line -->
        <path d="M0,0 L35,0 " style="stroke:#000000;stroke-width:0.25;"/>
        <!-- Line -->
        <path d="M35,0 L35,5.5 " style="stroke:#000000;stroke-width:0.25;"/>
        <!-- Line -->
        <path d="M33,7.5 L0,7.5 " style="stroke:#000000;stroke-width:0.25;"/>
        <!-- Line -->
        <path d="M0,42.5 L3,42.5 " style="stroke:#000000;stroke-width:0.25;"/>
        <!-- Line -->
        <path d="M5,44.5 L5,48 " style="stroke:#000000;stroke-width:0.25;"/>
        <!-- Line -->
        <path d="M3,50 L0,50 " style="stroke:#000000;stroke-width:0.25;"/>
        <!-- Arc -->
        <!-- Arc -->
        <!-- Arc -->
        <!-- Arc -->
        <!-- Arc -->
        <!-- Arc -->
        <!-- Arc -->
        <!-- Arc -->
        <!-- Arc -->
        <!-- Arc -->
        <!-- Arc -->
        <!-- Arc -->
        <path d="M0,42.5 A17.5,17.5 0 0,1 0,7.5" style="stroke:#000000;stroke-width:0.25;"/>
        <!-- Arc -->
        <path d="M0,50 A25,25 0 0,1 0,0" style="stroke:#000000;stroke-width:0.25;"/>
        <!-- Line -->
        <path d="M-5,25 L5,25 " style="stroke:#000000;stroke-width:0.25;"/>
        <!-- Line -->
        <path d="M5,25 L5,25 " style="stroke:#000000;stroke-width:0.25;"/>
        <!-- Line -->
        <path d="M0,30 L0,20 " style="stroke:#000000;stroke-width:0.25;"/>
        <!-- Line -->
        <path d="M0,20 L0,20 " style="stroke:#000000;stroke-width:0.25;"/>
        <!-- Line -->
        <path d="M0,20 L0,20 " style="stroke:#000000;stroke-width:0.25;"/>
        <!-- Line -->
        <path d="M0,20 L0,20 " style="stroke:#000000;stroke-width:0.25;"/>
        <!-- Block Reference: Screw / entities: 8 -->
        <g>
            <!-- Line -->
            <path d="M25,0 L25,0 " style="stroke:#000000;stroke-width:0.25;"/>
            <!-- Line -->
            <path d="M25,0 L25,0 " style="stroke:#000000;stroke-width:0.25;"/>
            <!-- Line -->
            <path d="M25,0 L25,0 " style="stroke:#000000;stroke-width:0.25;"/>
            <!-- Line -->
            <path d="M25,0 L25,0 " style="stroke:#000000;stroke-width:0.25;"/>
            <!-- Line -->
            <path d="M24.9,0 L30.1,0 " style="stroke:#000000;stroke-width:0.25;"/>
            <!-- Line -->
            <path d="M30.1,0 L30.1,7.5 " style="stroke:#000000;stroke-width:0.25;"/>
            <!-- Line -->
            <path d="M30.1,7.5 L24.9,7.5 " style="stroke:#000000;stroke-width:0.25;"/>
            <!-- Line -->
            <path d="M24.9,7.5 L24.9,0 " style="stroke:#000000;stroke-width:0.25;"/>
            <!-- Line -->
            <path d="M9,0 L9,0 " style="stroke:#000000;stroke-width:0.25;"/>
            <!-- Line -->
            <path d="M9,0 L9,0 " style="stroke:#000000;stroke-width:0.25;"/>
            <!-- Line -->
            <path d="M9,0 L9,0 " style="stroke:#000000;stroke-width:0.25;"/>
            <!-- Line -->
            <path d="M9,0 L9,0 " style="stroke:#000000;stroke-width:0.25;"/>
            <!-- Line -->
            <path d="M8.9,0 L14.1,0 " style="stroke:#000000;stroke-width:0.25;"/>
            <!-- Line -->
            <path d="M14.1,0 L14.1,7.5 " style="stroke:#000000;stroke-width:0.25;"/>
            <!-- Line -->
            <path d="M14.1,7.5 L8.9,7.5 " style="stroke:#000000;stroke-width:0.25;"/>
            <!-- Line -->
            <path d="M8.9,7.5 L8.9,0 " style="stroke:#000000;stroke-width:0.25;"/>
        </g>
        <!-- Aligned Dimension -->
        <g>
            <g>
                <path d="M-11.3889,27.5694 L-10.8333,28.125 L-10.8333,25.625 M-10,28.125 L-8.8889,28.125 L-9.5833,25.625 M-9.4444,27.0139 L-8.8889,27.0139 M-8.0556,25.625 L-8.0556,25.7639 M-6.1111,28.125 L-7.2222,28.125 L-7.2222,27.0139 L-6.6667,27.0139 C-6.6394,27.0139 -6.5851,27.0085 -6.5583,27.0032 C-6.5315,26.9979 -6.4793,26.982 -6.4541,26.9716 C-6.4289,26.9612 -6.3807,26.9354 -6.358,26.9203 C-6.3353,26.9051 -6.2931,26.8705 -6.2738,26.8512 C-6.2545,26.8319 -6.2199,26.7897 -6.2047,26.767 C-6.1896,26.7443 -6.1639,26.6962 -6.1534,26.6709 C-6.143,26.6457 -6.1271,26.5935 -6.1218,26.5667 C-6.1165,26.54 -6.1111,26.4856 -6.1111,26.4583 L-6.1111,26.1806 C-6.1111,26.1533 -6.1165,26.099 -6.1218,26.0722 C-6.1271,26.0454 -6.143,25.9932 -6.1534,25.968 C-6.1638,25.9428 -6.1896,25.8946 -6.2047,25.8719 C-6.2199,25.8492 -6.2545,25.807 -6.2738,25.7877 C-6.2931,25.7684 -6.3353,25.7338 -6.358,25.7186 C-6.3807,25.7035 -6.4288,25.6777 -6.4541,25.6673 C-6.4793,25.6568 -6.5315,25.641 -6.5583,25.6357 C-6.585,25.6304 -6.6394,25.625 -6.6667,25.625 L-7.2222,25.625" style="stroke:#808080;stroke-width:0.25;"/>
            </g>
            <path d="M0,25 L-2.5,24.5837 L-2.5,25.4163 Z" style="stroke:#808080;stroke-width:0.25;fill:#808080;fill-rule:evenodd;"/>
            <path d="M-17.5,25 L-15,25.4163 L-15,24.5837 Z" style="stroke:#808080;stroke-width:0.25;fill:#808080;fill-rule:evenodd;"/>
        </g>
        <path d="M0,25.625 L0,26.25 M-17.5,25.625 L-17.5,26.25 M0,25 L-17.5,25 " style="stroke:#808080;stroke-width:0.25;"/>
        <!-- Aligned Dimension -->
        <g>
            <g>
                <path d="M-12.9167,30.625 L-14.0278,30.625 L-12.9542,32.4714 C-12.9473,32.4832 -12.936,32.508 -12.9316,32.5209 C-12.9272,32.5338 -12.9209,32.5603 -12.9191,32.5738 C-12.9173,32.5873 -12.9163,32.6146 -12.9172,32.6282 C-12.918,32.6418 -12.9224,32.6687 -12.9259,32.6819 C-12.9277,32.6886 -12.9319,32.7018 -12.9343,32.7083 C-12.9411,32.7347 -12.9599,32.7859 -12.9717,32.8105 C-12.9836,32.8351 -13.012,32.8817 -13.0284,32.9035 C-13.0448,32.9253 -13.0818,32.9655 -13.1021,32.9837 C-13.1225,33.0019 -13.1665,33.0341 -13.1901,33.0479 C-13.2136,33.0618 -13.2631,33.0848 -13.2888,33.0938 C-13.3146,33.1028 -13.3677,33.1157 -13.3947,33.1195 C-13.4217,33.1233 -13.4762,33.1256 -13.5035,33.1241 C-13.5307,33.1225 -13.5847,33.1141 -13.6111,33.1073 C-13.6375,33.1005 -13.6888,33.0817 -13.7134,33.0699 C-13.738,33.058 -13.7846,33.0296 -13.8064,33.0132 C-13.8282,32.9968 -13.8684,32.9599 -13.8866,32.9395 C-13.9047,32.9191 -13.9369,32.8751 -13.9508,32.8516 C-13.9647,32.828 -13.9876,32.7785 -13.9967,32.7528 C-14.0005,32.7419 -14.0072,32.7197 -14.0101,32.7086 M-10.9722,33.125 L-12.0833,33.125 L-12.0833,32.0139 L-11.5278,32.0139 C-11.5005,32.0139 -11.4462,32.0085 -11.4194,32.0032 C-11.3926,31.9979 -11.3404,31.982 -11.3152,31.9716 C-11.29,31.9612 -11.2418,31.9354 -11.2191,31.9203 C-11.1965,31.9051 -11.1543,31.8705 -11.135,31.8512 C-11.1157,31.8319 -11.081,31.7897 -11.0659,31.767 C-11.0507,31.7443 -11.025,31.6962 -11.0145,31.6709 C-11.0041,31.6457 -10.9882,31.5935 -10.9829,31.5667 C-10.9776,31.54 -10.9722,31.4856 -10.9722,31.4583 L-10.9722,31.1806 C-10.9722,31.1533 -10.9776,31.099 -10.9829,31.0722 C-10.9882,31.0454 -11.0041,30.9932 -11.0145,30.968 C-11.025,30.9428 -11.0507,30.8946 -11.0658,30.8719 C-11.081,30.8492 -11.1156,30.807 -11.1349,30.7877 C-11.1542,30.7684 -11.1964,30.7338 -11.2191,30.7186 C-11.2418,30.7035 -11.29,30.6777 -11.3152,30.6673 C-11.3404,30.6568 -11.3926,30.641 -11.4194,30.6357 C-11.4462,30.6304 -11.5005,30.625 -11.5278,30.625 L-12.0833,30.625" style="stroke:#808080;stroke-width:0.25;"/>
            </g>
            <path d="M0,30 L-2.5,29.5837 L-2.5,30.4163 Z" style="stroke:#808080;stroke-width:0.25;fill:#808080;fill-rule:evenodd;"/>
            <path d="M-25,30 L-22.5,30.4163 L-22.5,29.5837 Z" style="stroke:#808080;stroke-width:0.25;fill:#808080;fill-rule:evenodd;"/>
        </g>
        <path d="M0,25.625 L0,31.25 M-25,25.625 L-25,31.25 M0,30 L-25,30 " style="stroke:#808080;stroke-width:0.25;"/>
        <!-- Line -->
        <path d="M70,0 L95,0 " style="stroke:#000000;stroke-width:0.25;"/>
        <!-- Line -->
        <path d="M95,0 L95,60 " style="stroke:#000000;stroke-width:0.25;"/>
        <!-- Line -->
        <path d="M95,60 L70,60 " style="stroke:#000000;stroke-width:0.25;"/>
        <!-- Line -->
        <path d="M70,60 L70,0 " style="stroke:#000000;stroke-width:0.25;"/>
        <!-- Line -->
        <path d="M70,30 L95,30 " style="stroke:#000000;stroke-width:0.25;"/>
        <!-- Circle -->
        <circle cx="82.5" cy="52.5" r="2.6" style="stroke:#000000;stroke-width:0.25;"/>
        <!-- Circle -->
        <circle cx="82.5" cy="36.5" r="2.6" style="stroke:#000000;stroke-width:0.25;"/>
        <!-- Arc -->
        <path d="M3,50 A2,2 0 0,0 5,48" style="stroke:#000000;stroke-width:0.25;"/>
        <!-- Arc -->
        <path d="M3,42.5 A2,2 0 0,1 5,44.5" style="stroke:#000000;stroke-width:0.25;"/>
        <!-- Arc -->
        <path d="M33,7.5 A2,2 0 0,0 35,5.5" style="stroke:#000000;stroke-width:0.25;"/>
        <!-- Rotated Dimension -->
        <g>
            <g>
                <path d="M-12.9167,-4.375 L-14.0278,-4.375 L-12.9542,-2.5286 C-12.9473,-2.5168 -12.936,-2.492 -12.9316,-2.4791 C-12.9272,-2.4662 -12.9209,-2.4397 -12.9191,-2.4262 C-12.9173,-2.4127 -12.9163,-2.3854 -12.9172,-2.3718 C-12.918,-2.3582 -12.9224,-2.3313 -12.9259,-2.3181 C-12.9277,-2.3114 -12.9319,-2.2982 -12.9343,-2.2918 C-12.9411,-2.2653 -12.9599,-2.2141 -12.9717,-2.1895 C-12.9836,-2.1649 -13.012,-2.1183 -13.0284,-2.0965 C-13.0448,-2.0747 -13.0818,-2.0345 -13.1021,-2.0163 C-13.1225,-1.9981 -13.1665,-1.9659 -13.1901,-1.9521 C-13.2136,-1.9382 -13.2631,-1.9152 -13.2888,-1.9062 C-13.3146,-1.8972 -13.3677,-1.8843 -13.3947,-1.8805 C-13.4217,-1.8767 -13.4762,-1.8744 -13.5035,-1.8759 C-13.5307,-1.8775 -13.5847,-1.8859 -13.6111,-1.8927 C-13.6375,-1.8995 -13.6888,-1.9183 -13.7134,-1.9301 C-13.738,-1.942 -13.7846,-1.9704 -13.8064,-1.9868 C-13.8282,-2.0032 -13.8684,-2.0401 -13.8866,-2.0605 C-13.9047,-2.0809 -13.9369,-2.1249 -13.9508,-2.1484 C-13.9647,-2.172 -13.9876,-2.2215 -13.9967,-2.2472 C-14.0005,-2.2581 -14.0072,-2.2803 -14.0101,-2.2914 M-10.9722,-1.875 L-12.0833,-1.875 L-12.0833,-2.9861 L-11.5278,-2.9861 C-11.5005,-2.9861 -11.4462,-2.9915 -11.4194,-2.9968 C-11.3926,-3.0021 -11.3404,-3.018 -11.3152,-3.0284 C-11.29,-3.0388 -11.2418,-3.0646 -11.2191,-3.0797 C-11.1965,-3.0949 -11.1543,-3.1295 -11.135,-3.1488 C-11.1157,-3.1681 -11.081,-3.2103 -11.0659,-3.233 C-11.0507,-3.2557 -11.025,-3.3038 -11.0145,-3.3291 C-11.0041,-3.3543 -10.9882,-3.4065 -10.9829,-3.4333 C-10.9776,-3.46 -10.9722,-3.5144 -10.9722,-3.5417 L-10.9722,-3.8194 C-10.9722,-3.8467 -10.9776,-3.901 -10.9829,-3.9278 C-10.9882,-3.9546 -11.0041,-4.0068 -11.0145,-4.032 C-11.025,-4.0572 -11.0507,-4.1054 -11.0658,-4.1281 C-11.081,-4.1508 -11.1156,-4.193 -11.1349,-4.2123 C-11.1542,-4.2316 -11.1964,-4.2662 -11.2191,-4.2814 C-11.2418,-4.2965 -11.29,-4.3223 -11.3152,-4.3327 C-11.3404,-4.3432 -11.3926,-4.359 -11.4194,-4.3643 C-11.4462,-4.3696 -11.5005,-4.375 -11.5278,-4.375 L-12.0833,-4.375" style="stroke:#808080;stroke-width:0.25;"/>
            </g>
            <path d="M-25,-5 L-22.5,-4.5837 L-22.5,-5.4163 Z" style="stroke:#808080;stroke-width:0.25;fill:#808080;fill-rule:evenodd;"/>
            <path d="M0,-5 L-2.5,-5.4163 L-2.5,-4.5837 Z" style="stroke:#808080;stroke-width:0.25;fill:#808080;fill-rule:evenodd;"/>
        </g>
        <path d="M-25,-5 L0,-5 M-25,24.375 L-25,-6.25 M0,-0.625 L0,-6.25 " style="stroke:#808080;stroke-width:0.25;"/>
        <!-- Rotated Dimension -->
        <g>
            <g>
                <path d="M-9.6667,-6.875 L-9.1111,-6.875 C-9.0838,-6.875 -9.0295,-6.8804 -9.0027,-6.8857 C-8.976,-6.891 -8.9237,-6.9069 -8.8985,-6.9173 C-8.8733,-6.9278 -8.8252,-6.9535 -8.8025,-6.9687 C-8.7798,-6.9838 -8.7376,-7.0184 -8.7183,-7.0377 C-8.699,-7.057 -8.6643,-7.0992 -8.6492,-7.1219 C-8.634,-7.1446 -8.6083,-7.1928 -8.5978,-7.218 C-8.5874,-7.2432 -8.5716,-7.2954 -8.5662,-7.3222 C-8.5609,-7.349 -8.5556,-7.4033 -8.5556,-7.4306 C-8.5556,-7.4579 -8.5609,-7.5122 -8.5662,-7.539 C-8.5716,-7.5657 -8.5874,-7.618 -8.5978,-7.6432 C-8.6083,-7.6684 -8.634,-7.7165 -8.6492,-7.7392 C-8.6643,-7.7619 -8.699,-7.8041 -8.7183,-7.8234 C-8.7376,-7.8427 -8.7798,-7.8773 -8.8025,-7.8925 C-8.8252,-7.9077 -8.8733,-7.9334 -8.8985,-7.9438 C-8.9237,-7.9543 -8.976,-7.9701 -9.0027,-7.9755 C-9.0295,-7.9808 -9.0838,-7.9861 -9.1111,-7.9861 C-9.0838,-7.9861 -9.0295,-7.9915 -9.0028,-7.9968 C-8.976,-8.0021 -8.9237,-8.018 -8.8985,-8.0284 C-8.8733,-8.0389 -8.8252,-8.0646 -8.8025,-8.0798 C-8.7798,-8.0949 -8.7376,-8.1296 -8.7183,-8.1489 C-8.699,-8.1682 -8.6644,-8.2103 -8.6492,-8.233 C-8.634,-8.2557 -8.6083,-8.3039 -8.5979,-8.3291 C-8.5874,-8.3543 -8.5716,-8.4065 -8.5662,-8.4333 C-8.5609,-8.4601 -8.5556,-8.5144 -8.5556,-8.5417 L-8.5556,-8.8195 C-8.5556,-8.8468 -8.5609,-8.9011 -8.5662,-8.9278 C-8.5716,-8.9546 -8.5874,-9.0068 -8.5978,-9.0321 C-8.6083,-9.0573 -8.634,-9.1054 -8.6492,-9.1281 C-8.6643,-9.1508 -8.699,-9.193 -8.7183,-9.2123 C-8.7376,-9.2316 -8.7798,-9.2662 -8.8025,-9.2814 C-8.8251,-9.2966 -8.8733,-9.3223 -8.8985,-9.3327 C-8.9237,-9.3432 -8.976,-9.359 -9.0027,-9.3644 C-9.0295,-9.3697 -9.0838,-9.375 -9.1111,-9.375 L-9.6667,-9.375 M-9.1111,-7.9861 L-9.3889,-7.9861 M-6.8889,-6.875 C-6.9598,-6.9159 -7.0929,-7.0113 -7.1545,-7.0653 C-7.2161,-7.1193 -7.328,-7.2389 -7.3779,-7.3039 C-7.4277,-7.3688 -7.5142,-7.5079 -7.5504,-7.5814 C-7.5866,-7.6548 -7.6443,-7.8081 -7.6655,-7.8872 C-7.6867,-7.9663 -7.7133,-8.1279 -7.7187,-8.2096 C-7.7204,-8.2368 -7.7222,-8.2912 -7.7222,-8.3184 L-7.7222,-8.8195 C-7.7222,-8.8468 -7.7169,-8.9011 -7.7115,-8.9279 C-7.7062,-8.9546 -7.6904,-9.0069 -7.6799,-9.0321 C-7.6695,-9.0573 -7.6438,-9.1054 -7.6286,-9.1281 C-7.6134,-9.1508 -7.5788,-9.193 -7.5595,-9.2123 C-7.5402,-9.2316 -7.498,-9.2662 -7.4753,-9.2814 C-7.4526,-9.2966 -7.4045,-9.3223 -7.3793,-9.3327 C-7.3541,-9.3432 -7.3018,-9.359 -7.2751,-9.3644 C-7.2483,-9.3697 -7.194,-9.375 -7.1667,-9.375 C-7.1394,-9.375 -7.0851,-9.3697 -7.0583,-9.3644 C-7.0315,-9.359 -6.9793,-9.3432 -6.9541,-9.3327 C-6.9288,-9.3223 -6.8807,-9.2966 -6.858,-9.2814 C-6.8353,-9.2662 -6.7931,-9.2316 -6.7738,-9.2123 C-6.7545,-9.193 -6.7199,-9.1508 -6.7047,-9.1281 C-6.6896,-9.1054 -6.6638,-9.0573 -6.6534,-9.0321 C-6.643,-9.0069 -6.6271,-8.9546 -6.6218,-8.9279 C-6.6165,-8.9011 -6.6111,-8.8468 -6.6111,-8.8195 L-6.6111,-8.5417 C-6.6111,-8.5144 -6.6165,-8.4601 -6.6218,-8.4333 C-6.6271,-8.4065 -6.643,-8.3543 -6.6534,-8.3291 C-6.6639,-8.3039 -6.6896,-8.2557 -6.7047,-8.233 C-6.7199,-8.2103 -6.7545,-8.1682 -6.7738,-8.1489 C-6.7931,-8.1296 -6.8353,-8.0949 -6.858,-8.0798 C-6.8807,-8.0646 -6.9289,-8.0389 -6.9541,-8.0284 C-6.9793,-8.018 -7.0315,-8.0021 -7.0583,-7.9968 C-7.0851,-7.9915 -7.1394,-7.9861 -7.1667,-7.9861 L-7.6888,-7.9861 M-5.7778,-9.375 L-5.7778,-9.2361 M-3.8333,-6.875 L-4.9444,-6.875 L-4.9444,-7.9861 L-4.3889,-7.9861 C-4.3616,-7.9861 -4.3073,-7.9915 -4.2805,-7.9968 C-4.2538,-8.0021 -4.2015,-8.018 -4.1763,-8.0284 C-4.1511,-8.0389 -4.1029,-8.0646 -4.0803,-8.0798 C-4.0576,-8.0949 -4.0154,-8.1296 -3.9961,-8.1489 C-3.9768,-8.1682 -3.9421,-8.2103 -3.927,-8.233 C-3.9118,-8.2557 -3.8861,-8.3039 -3.8756,-8.3291 C-3.8652,-8.3543 -3.8493,-8.4065 -3.844,-8.4333 C-3.8387,-8.4601 -3.8333,-8.5144 -3.8333,-8.5417 L-3.8333,-8.8195 C-3.8333,-8.8468 -3.8387,-8.9011 -3.844,-8.9278 C-3.8493,-8.9546 -3.8652,-9.0068 -3.8756,-9.0321 C-3.8861,-9.0573 -3.9118,-9.1054 -3.927,-9.1281 C-3.9421,-9.1508 -3.9767,-9.193 -3.996,-9.2123 C-4.0153,-9.2316 -4.0575,-9.2662 -4.0802,-9.2814 C-4.1029,-9.2966 -4.1511,-9.3223 -4.1763,-9.3327 C-4.2015,-9.3432 -4.2537,-9.359 -4.2805,-9.3644 C-4.3073,-9.3697 -4.3616,-9.375 -4.3889,-9.375 L-4.9444,-9.375" style="stroke:#808080;stroke-width:0.25;"/>
            </g>
            <path d="M-25,-10 L-22.5,-9.5837 L-22.5,-10.4163 Z" style="stroke:#808080;stroke-width:0.25;fill:#808080;fill-rule:evenodd;"/>
            <path d="M11.5,-10 L9,-10.4163 L9,-9.5837 Z" style="stroke:#808080;stroke-width:0.25;fill:#808080;fill-rule:evenodd;"/>
        </g>
        <path d="M-25,-10 L11.5,-10 M-25,24.375 L-25,-11.25 M11.5,-0.625 L11.5,-11.25 " style="stroke:#808080;stroke-width:0.25;"/>
        <!-- Rotated Dimension -->
        <g>
            <g>
                <path d="M-0.5556,-11.875 L-1.6667,-11.875 L-1.6667,-12.9861 L-1.1111,-12.9861 C-1.0838,-12.9861 -1.0295,-12.9915 -1.0028,-12.9968 C-0.976,-13.0021 -0.9237,-13.018 -0.8985,-13.0284 C-0.8733,-13.0388 -0.8252,-13.0646 -0.8025,-13.0797 C-0.7798,-13.0949 -0.7376,-13.1295 -0.7183,-13.1488 C-0.699,-13.1681 -0.6644,-13.2103 -0.6492,-13.233 C-0.634,-13.2557 -0.6083,-13.3038 -0.5979,-13.3291 C-0.5874,-13.3543 -0.5716,-13.4065 -0.5662,-13.4333 C-0.5609,-13.46 -0.5556,-13.5144 -0.5556,-13.5417 L-0.5556,-13.8194 C-0.5556,-13.8467 -0.5609,-13.901 -0.5662,-13.9278 C-0.5716,-13.9546 -0.5874,-14.0068 -0.5978,-14.032 C-0.6083,-14.0572 -0.634,-14.1054 -0.6492,-14.1281 C-0.6643,-14.1508 -0.699,-14.193 -0.7183,-14.2123 C-0.7376,-14.2316 -0.7798,-14.2662 -0.8025,-14.2814 C-0.8251,-14.2965 -0.8733,-14.3223 -0.8985,-14.3327 C-0.9237,-14.3432 -0.976,-14.359 -1.0027,-14.3643 C-1.0295,-14.3696 -1.0838,-14.375 -1.1111,-14.375 L-1.6667,-14.375 M1.3889,-14.375 L0.2778,-14.375 L1.3514,-12.5286 C1.3582,-12.5168 1.3696,-12.492 1.374,-12.4791 C1.3784,-12.4662 1.3846,-12.4397 1.3865,-12.4262 C1.3883,-12.4127 1.3892,-12.3854 1.3884,-12.3718 C1.3875,-12.3582 1.3832,-12.3313 1.3797,-12.3181 C1.3779,-12.3114 1.3737,-12.2982 1.3713,-12.2918 C1.3644,-12.2653 1.3457,-12.2141 1.3338,-12.1895 C1.322,-12.1649 1.2936,-12.1183 1.2772,-12.0965 C1.2607,-12.0747 1.2238,-12.0345 1.2034,-12.0163 C1.1831,-11.9981 1.139,-11.9659 1.1155,-11.9521 C1.092,-11.9382 1.0425,-11.9152 1.0167,-11.9062 C0.9909,-11.8972 0.9379,-11.8843 0.9109,-11.8805 C0.8839,-11.8767 0.8293,-11.8744 0.8021,-11.8759 C0.7748,-11.8775 0.7209,-11.8859 0.6945,-11.8927 C0.668,-11.8995 0.6168,-11.9183 0.5922,-11.9301 C0.5676,-11.942 0.521,-11.9704 0.4992,-11.9868 C0.4774,-12.0032 0.4372,-12.0401 0.419,-12.0605 C0.4008,-12.0809 0.3686,-12.1249 0.3548,-12.1484 C0.3409,-12.172 0.3179,-12.2215 0.3089,-12.2472 C0.3051,-12.2581 0.2984,-12.2803 0.2955,-12.2914 M2.2222,-14.375 L2.2222,-14.2361 M4.1667,-11.875 L3.0556,-11.875 L3.0556,-12.9861 L3.6111,-12.9861 C3.6384,-12.9861 3.6927,-12.9915 3.7195,-12.9968 C3.7462,-13.0021 3.7985,-13.018 3.8237,-13.0284 C3.8489,-13.0388 3.8971,-13.0646 3.9197,-13.0797 C3.9424,-13.0949 3.9846,-13.1295 4.0039,-13.1488 C4.0232,-13.1681 4.0579,-13.2103 4.073,-13.233 C4.0882,-13.2557 4.1139,-13.3038 4.1244,-13.3291 C4.1348,-13.3543 4.1507,-13.4065 4.156,-13.4333 C4.1613,-13.46 4.1667,-13.5144 4.1667,-13.5417 L4.1667,-13.8194 C4.1667,-13.8467 4.1613,-13.901 4.156,-13.9278 C4.1507,-13.9546 4.1348,-14.0068 4.1244,-14.032 C4.1139,-14.0572 4.0882,-14.1054 4.073,-14.1281 C4.0579,-14.1508 4.0233,-14.193 4.004,-14.2123 C3.9847,-14.2316 3.9425,-14.2662 3.9198,-14.2814 C3.8971,-14.2965 3.8489,-14.3223 3.8237,-14.3327 C3.7985,-14.3432 3.7463,-14.359 3.7195,-14.3643 C3.6927,-14.3696 3.6384,-14.375 3.6111,-14.375 L3.0556,-14.375" style="stroke:#808080;stroke-width:0.25;"/>
            </g>
            <path d="M-25,-15 L-22.5,-14.5837 L-22.5,-15.4163 Z" style="stroke:#808080;stroke-width:0.25;fill:#808080;fill-rule:evenodd;"/>
            <path d="M27.5,-15 L25,-15.4163 L25,-14.5837 Z" style="stroke:#808080;stroke-width:0.25;fill:#808080;fill-rule:evenodd;"/>
        </g>
        <path d="M-25,-15 L27.5,-15 M-25,24.375 L-25,-16.25 M27.5,-0.625 L27.5,-16.25 " style="stroke:#808080;stroke-width:0.25;"/>
        <!-- Rotated Dimension -->
        <g>
            <g>
                <path d="M4.3056,-16.875 C4.2346,-16.9159 4.1015,-17.0113 4.04,-17.0653 C3.9784,-17.1193 3.8664,-17.2389 3.8166,-17.3038 C3.7668,-17.3688 3.6803,-17.5079 3.6441,-17.5814 C3.6079,-17.6548 3.5502,-17.8081 3.529,-17.8872 C3.5078,-17.9663 3.4811,-18.1279 3.4758,-18.2096 C3.474,-18.2368 3.4722,-18.2911 3.4722,-18.3183 L3.4722,-18.8195 C3.4722,-18.8467 3.4776,-18.9011 3.4829,-18.9278 C3.4882,-18.9546 3.5041,-19.0068 3.5145,-19.0321 C3.525,-19.0573 3.5507,-19.1054 3.5659,-19.1281 C3.581,-19.1508 3.6157,-19.193 3.635,-19.2123 C3.6542,-19.2316 3.6964,-19.2662 3.7191,-19.2814 C3.7418,-19.2965 3.79,-19.3223 3.8152,-19.3327 C3.8404,-19.3432 3.8926,-19.359 3.9194,-19.3643 C3.9462,-19.3697 4.0005,-19.375 4.0278,-19.375 C4.0551,-19.375 4.1094,-19.3697 4.1362,-19.3643 C4.1629,-19.359 4.2152,-19.3432 4.2404,-19.3327 C4.2656,-19.3223 4.3137,-19.2965 4.3364,-19.2814 C4.3591,-19.2662 4.4013,-19.2316 4.4206,-19.2123 C4.4399,-19.193 4.4746,-19.1508 4.4897,-19.1281 C4.5049,-19.1054 4.5306,-19.0573 4.5411,-19.0321 C4.5515,-19.0068 4.5673,-18.9546 4.5727,-18.9278 C4.578,-18.9011 4.5833,-18.8467 4.5833,-18.8195 L4.5833,-18.5417 C4.5833,-18.5144 4.578,-18.4601 4.5727,-18.4333 C4.5673,-18.4065 4.5515,-18.3543 4.541,-18.3291 C4.5306,-18.3039 4.5049,-18.2557 4.4897,-18.233 C4.4745,-18.2103 4.4399,-18.1681 4.4206,-18.1488 C4.4013,-18.1295 4.3591,-18.0949 4.3364,-18.0797 C4.3137,-18.0646 4.2656,-18.0388 4.2404,-18.0284 C4.2152,-18.018 4.1629,-18.0021 4.1361,-17.9968 C4.1094,-17.9915 4.0551,-17.9861 4.0278,-17.9861 L3.5057,-17.9861 M5.718,-17.0131 C5.6788,-17.0655 5.611,-17.1776 5.5827,-17.2366 C5.5545,-17.2957 5.5099,-17.4188 5.4937,-17.4822 C5.4882,-17.5037 5.4787,-17.547 5.4747,-17.5688 C5.4478,-17.6941 5.4189,-17.9488 5.417,-18.0769 C5.4168,-18.0888 5.4167,-18.1126 5.4167,-18.1245 C5.4162,-18.2527 5.4403,-18.508 5.4648,-18.6339 C5.4671,-18.6455 5.4718,-18.6689 5.4743,-18.6805 C5.4862,-18.7449 5.5226,-18.8707 5.5469,-18.9315 C5.5712,-18.9924 5.6314,-19.1087 5.667,-19.1636 C5.6791,-19.1822 5.7045,-19.2185 5.7177,-19.2363 C5.7258,-19.2488 5.7442,-19.2721 5.7545,-19.2828 C5.7649,-19.2935 5.7875,-19.3127 5.7997,-19.3212 C5.8119,-19.3297 5.8379,-19.3442 5.8515,-19.3501 C5.8651,-19.356 5.8934,-19.3652 5.9079,-19.3683 C5.9225,-19.3715 5.952,-19.3749 5.9669,-19.3752 C5.9817,-19.3755 6.0114,-19.3731 6.026,-19.3704 C6.0406,-19.3678 6.0692,-19.3597 6.083,-19.3542 C6.0969,-19.3488 6.1233,-19.3353 6.1358,-19.3272 C6.1483,-19.3192 6.1717,-19.3007 6.1824,-19.2904 C6.1931,-19.2801 6.2123,-19.2575 6.2208,-19.2452 C6.2222,-19.2432 6.225,-19.239 6.2264,-19.2369 C6.2656,-19.1845 6.3334,-19.0725 6.3617,-19.0134 C6.3899,-18.9543 6.4346,-18.8312 6.4507,-18.7678 C6.4562,-18.7463 6.4657,-18.703 6.4698,-18.6813 C6.4966,-18.5559 6.5256,-18.3013 6.5275,-18.1731 C6.5277,-18.1612 6.5278,-18.1374 6.5278,-18.1255 C6.5283,-17.9972 6.5041,-17.7418 6.4795,-17.616 C6.4773,-17.6043 6.4725,-17.5809 6.47,-17.5693 C6.458,-17.5048 6.4216,-17.3789 6.3973,-17.318 C6.373,-17.2572 6.3127,-17.1408 6.277,-17.0858 C6.265,-17.0674 6.24,-17.0315 6.2268,-17.014 C6.2188,-17.0014 6.2004,-16.9781 6.1901,-16.9674 C6.1797,-16.9567 6.1571,-16.9374 6.1449,-16.9289 C6.1327,-16.9204 6.1067,-16.9059 6.0931,-16.9 C6.0795,-16.894 6.0512,-16.8849 6.0367,-16.8817 C6.0221,-16.8785 5.9926,-16.8751 5.9778,-16.8748 C5.9629,-16.8745 5.9332,-16.8769 5.9186,-16.8795 C5.904,-16.8822 5.8754,-16.8903 5.8615,-16.8957 C5.8477,-16.9011 5.8212,-16.9147 5.8087,-16.9227 C5.7962,-16.9307 5.7729,-16.9491 5.7621,-16.9595 C5.7514,-16.9698 5.7322,-16.9924 5.7237,-17.0046 C5.7222,-17.0067 5.7194,-17.0109 5.718,-17.0131" style="stroke:#808080;stroke-width:0.25;"/>
            </g>
            <path d="M-25,-20 L-22.5,-19.5837 L-22.5,-20.4163 Z" style="stroke:#808080;stroke-width:0.25;fill:#808080;fill-rule:evenodd;"/>
            <path d="M35,-20 L32.5,-20.4163 L32.5,-19.5837 Z" style="stroke:#808080;stroke-width:0.25;fill:#808080;fill-rule:evenodd;"/>
        </g>
        <path d="M-25,-20 L35,-20 M-25,24.375 L-25,-21.25 M35,-0.625 L35,-21.25 " style="stroke:#808080;stroke-width:0.25;"/>
        <!-- Rotated Dimension -->
        <g>
            <g>
                <path d="M-11.5278,58.125 L-10.9722,58.125 C-10.9449,58.125 -10.8906,58.1196 -10.8638,58.1143 C-10.8371,58.109 -10.7848,58.0931 -10.7596,58.0827 C-10.7344,58.0723 -10.6863,58.0465 -10.6636,58.0314 C-10.6409,58.0162 -10.5987,57.9816 -10.5794,57.9623 C-10.5601,57.943 -10.5254,57.9008 -10.5103,57.8781 C-10.4951,57.8554 -10.4694,57.8073 -10.4589,57.782 C-10.4485,57.7568 -10.4327,57.7046 -10.4273,57.6778 C-10.422,57.6511 -10.4167,57.5967 -10.4167,57.5694 C-10.4167,57.5421 -10.422,57.4878 -10.4273,57.4611 C-10.4327,57.4343 -10.4485,57.3821 -10.4589,57.3568 C-10.4694,57.3316 -10.4951,57.2835 -10.5103,57.2608 C-10.5254,57.2381 -10.5601,57.1959 -10.5794,57.1766 C-10.5987,57.1573 -10.6409,57.1227 -10.6636,57.1075 C-10.6863,57.0923 -10.7344,57.0666 -10.7596,57.0562 C-10.7848,57.0457 -10.8371,57.0299 -10.8638,57.0246 C-10.8906,57.0192 -10.9449,57.0139 -10.9722,57.0139 C-10.9449,57.0139 -10.8906,57.0085 -10.8639,57.0032 C-10.8371,56.9979 -10.7848,56.982 -10.7596,56.9716 C-10.7344,56.9612 -10.6863,56.9354 -10.6636,56.9203 C-10.6409,56.9051 -10.5987,56.8705 -10.5794,56.8512 C-10.5601,56.8319 -10.5255,56.7897 -10.5103,56.767 C-10.4951,56.7443 -10.4694,56.6961 -10.459,56.6709 C-10.4485,56.6457 -10.4327,56.5935 -10.4273,56.5667 C-10.422,56.5399 -10.4167,56.4856 -10.4167,56.4583 L-10.4167,56.1805 C-10.4167,56.1533 -10.422,56.099 -10.4273,56.0722 C-10.4327,56.0454 -10.4485,55.9932 -10.4589,55.968 C-10.4694,55.9428 -10.4951,55.8946 -10.5103,55.8719 C-10.5254,55.8492 -10.5601,55.807 -10.5794,55.7877 C-10.5987,55.7684 -10.6409,55.7338 -10.6636,55.7186 C-10.6863,55.7035 -10.7344,55.6777 -10.7596,55.6673 C-10.7848,55.6568 -10.8371,55.641 -10.8638,55.6357 C-10.8906,55.6303 -10.9449,55.625 -10.9722,55.625 L-11.5278,55.625 M-10.9722,57.0139 L-11.25,57.0139 M-9.282,57.9869 C-9.3212,57.9345 -9.389,57.8224 -9.4173,57.7634 C-9.4455,57.7043 -9.4901,57.5812 -9.5063,57.5178 C-9.5118,57.4963 -9.5213,57.453 -9.5253,57.4312 C-9.5522,57.3059 -9.5811,57.0512 -9.583,56.9231 C-9.5832,56.9112 -9.5833,56.8874 -9.5833,56.8755 C-9.5838,56.7473 -9.5597,56.492 -9.5352,56.3661 C-9.5329,56.3545 -9.5282,56.3311 -9.5257,56.3195 C-9.5138,56.2551 -9.4774,56.1293 -9.4531,56.0685 C-9.4288,56.0076 -9.3686,55.8913 -9.333,55.8364 C-9.3209,55.8178 -9.2955,55.7815 -9.2823,55.7637 C-9.2742,55.7512 -9.2558,55.7279 -9.2455,55.7172 C-9.2351,55.7065 -9.2125,55.6873 -9.2003,55.6788 C-9.1881,55.6703 -9.1621,55.6558 -9.1485,55.6499 C-9.1349,55.644 -9.1066,55.6348 -9.0921,55.6317 C-9.0775,55.6285 -9.048,55.6251 -9.0331,55.6248 C-9.0183,55.6245 -8.9886,55.6269 -8.974,55.6296 C-8.9594,55.6322 -8.9308,55.6403 -8.917,55.6458 C-8.9031,55.6512 -8.8767,55.6647 -8.8642,55.6728 C-8.8517,55.6808 -8.8283,55.6993 -8.8176,55.7096 C-8.8069,55.7199 -8.7877,55.7425 -8.7792,55.7548 C-8.7778,55.7568 -8.775,55.761 -8.7736,55.7631 C-8.7344,55.8155 -8.6666,55.9275 -8.6383,55.9866 C-8.6101,56.0457 -8.5654,56.1688 -8.5493,56.2322 C-8.5438,56.2537 -8.5343,56.297 -8.5302,56.3187 C-8.5034,56.4441 -8.4744,56.6987 -8.4725,56.8269 C-8.4723,56.8388 -8.4722,56.8626 -8.4722,56.8745 C-8.4717,57.0028 -8.4959,57.2582 -8.5205,57.384 C-8.5227,57.3957 -8.5275,57.4191 -8.53,57.4307 C-8.542,57.4952 -8.5784,57.6211 -8.6027,57.682 C-8.627,57.7428 -8.6873,57.8592 -8.723,57.9142 C-8.735,57.9326 -8.76,57.9685 -8.7732,57.986 C-8.7812,57.9986 -8.7996,58.0219 -8.8099,58.0326 C-8.8203,58.0433 -8.8429,58.0626 -8.8551,58.0711 C-8.8673,58.0796 -8.8933,58.0941 -8.9069,58.1 C-8.9205,58.106 -8.9488,58.1151 -8.9633,58.1183 C-8.9779,58.1215 -9.0074,58.1249 -9.0222,58.1252 C-9.0371,58.1255 -9.0668,58.1231 -9.0814,58.1205 C-9.096,58.1178 -9.1246,58.1097 -9.1385,58.1043 C-9.1523,58.0989 -9.1788,58.0853 -9.1913,58.0773 C-9.2038,58.0693 -9.2271,58.0509 -9.2379,58.0405 C-9.2486,58.0302 -9.2678,58.0076 -9.2763,57.9954 C-9.2778,57.9933 -9.2806,57.9891 -9.282,57.9869" style="stroke:#808080;stroke-width:0.25;"/>
            </g>
            <path d="M-25,55 L-22.5,55.4163 L-22.5,54.5837 Z" style="stroke:#808080;stroke-width:0.25;fill:#808080;fill-rule:evenodd;"/>
            <path d="M5,55 L2.5,54.5837 L2.5,55.4163 Z" style="stroke:#808080;stroke-width:0.25;fill:#808080;fill-rule:evenodd;"/>
        </g>
        <path d="M-25,55 L5,55 M-25,25.625 L-25,56.25 M5,46.875 L5,56.25 " style="stroke:#808080;stroke-width:0.25;"/>
        <!-- Rotated Dimension -->
        <g>
            <g>
                <path d="M36.7361,12.625 L35.625,12.625 L36.6986,14.4714 C36.7055,14.4832 36.7168,14.508 36.7212,14.5209 C36.7256,14.5338 36.7319,14.5603 36.7337,14.5738 C36.7355,14.5873 36.7365,14.6146 36.7356,14.6282 C36.7348,14.6418 36.7304,14.6687 36.7269,14.6819 C36.7251,14.6886 36.7209,14.7018 36.7185,14.7083 C36.7116,14.7347 36.6929,14.7859 36.681,14.8105 C36.6692,14.8351 36.6408,14.8817 36.6244,14.9035 C36.608,14.9253 36.571,14.9655 36.5507,14.9837 C36.5303,15.0019 36.4862,15.0341 36.4627,15.0479 C36.4392,15.0618 36.3897,15.0848 36.3639,15.0938 C36.3382,15.1028 36.2851,15.1157 36.2581,15.1195 C36.2311,15.1233 36.1765,15.1256 36.1493,15.1241 C36.122,15.1225 36.0681,15.1141 36.0417,15.1073 C36.0152,15.1005 35.964,15.0817 35.9394,15.0699 C35.9148,15.058 35.8682,15.0296 35.8464,15.0132 C35.8246,14.9968 35.7844,14.9599 35.7662,14.9395 C35.748,14.9191 35.7158,14.8751 35.702,14.8516 C35.6881,14.828 35.6651,14.7785 35.6561,14.7528 C35.6523,14.7419 35.6456,14.7197 35.6427,14.7086" style="stroke:#808080;stroke-width:0.25;"/>
            </g>
            <path d="M33,12 L30.5,11.5837 L30.5,12.4163 Z" style="stroke:#808080;stroke-width:0.25;fill:#808080;fill-rule:evenodd;"/>
            <path d="M35,12 L37.5,12.4163 L37.5,11.5837 Z" style="stroke:#808080;stroke-width:0.25;fill:#808080;fill-rule:evenodd;"/>
        </g>
        <path d="M28,12 L40,12 M33,8.125 L33,13.25 M35,6.125 L35,13.25 " style="stroke:#808080;stroke-width:0.25;"/>
        <!-- Rotated Dimension -->
        <g>
            <g>
                <path d="M39.375,4.875 L39.375,3.7639 L37.5286,4.8375 C37.5168,4.8443 37.492,4.8557 37.4791,4.8601 C37.4662,4.8645 37.4397,4.8708 37.4262,4.8726 C37.4127,4.8744 37.3854,4.8754 37.3718,4.8745 C37.3582,4.8736 37.3313,4.8693 37.3181,4.8658 C37.3114,4.864 37.2982,4.8598 37.2918,4.8574 C37.2653,4.8505 37.2141,4.8318 37.1895,4.8199 C37.1649,4.8081 37.1183,4.7797 37.0965,4.7633 C37.0747,4.7469 37.0345,4.7099 37.0163,4.6896 C36.9981,4.6692 36.9659,4.6251 36.9521,4.6016 C36.9382,4.5781 36.9152,4.5286 36.9062,4.5028 C36.8972,4.4771 36.8843,4.424 36.8805,4.397 C36.8767,4.37 36.8744,4.3154 36.8759,4.2882 C36.8775,4.2609 36.8859,4.207 36.8927,4.1806 C36.8995,4.1541 36.9183,4.1029 36.9301,4.0783 C36.942,4.0537 36.9704,4.0071 36.9868,3.9853 C37.0032,3.9635 37.0401,3.9233 37.0605,3.9051 C37.0809,3.8869 37.1249,3.8547 37.1484,3.8409 C37.172,3.827 37.2215,3.804 37.2472,3.795 C37.2581,3.7912 37.2803,3.7845 37.2914,3.7816" style="stroke:#808080;stroke-width:0.25;"/>
            </g>
            <path d="M40,7.5 L39.5837,10 L40.4163,10 Z" style="stroke:#808080;stroke-width:0.25;fill:#808080;fill-rule:evenodd;"/>
            <path d="M40,5.5 L40.4163,3 L39.5837,3 Z" style="stroke:#808080;stroke-width:0.25;fill:#808080;fill-rule:evenodd;"/>
        </g>
        <path d="M40,12.5 L40,0.5 M33.625,7.5 L41.25,7.5 M35.625,5.5 L41.25,5.5 " style="stroke:#808080;stroke-width:0.25;"/>
        <!-- Rotated Dimension -->
        <g>
            <g>
                <path d="M73.6111,67.5694 L74.1667,68.125 L74.1667,65.625 M76.1111,65.625 L75,65.625 L76.0736,67.4714 C76.0805,67.4832 76.0918,67.508 76.0962,67.5209 C76.1006,67.5338 76.1069,67.5603 76.1087,67.5738 C76.1105,67.5873 76.1115,67.6146 76.1106,67.6282 C76.1098,67.6418 76.1054,67.6687 76.1019,67.6819 C76.1001,67.6886 76.0959,67.7018 76.0935,67.7083 C76.0866,67.7347 76.0679,67.7859 76.056,67.8105 C76.0442,67.8351 76.0158,67.8817 75.9994,67.9035 C75.983,67.9253 75.946,67.9655 75.9257,67.9837 C75.9053,68.0019 75.8612,68.0341 75.8377,68.0479 C75.8142,68.0618 75.7647,68.0848 75.7389,68.0938 C75.7132,68.1028 75.6601,68.1157 75.6331,68.1195 C75.6061,68.1233 75.5515,68.1256 75.5243,68.1241 C75.497,68.1225 75.4431,68.1141 75.4167,68.1073 C75.3902,68.1005 75.339,68.0817 75.3144,68.0699 C75.2898,68.058 75.2432,68.0296 75.2214,68.0132 C75.1996,67.9968 75.1594,67.9599 75.1412,67.9395 C75.123,67.9191 75.0908,67.8751 75.077,67.8516 C75.0631,67.828 75.0401,67.7785 75.0311,67.7528 C75.0273,67.7419 75.0206,67.7197 75.0177,67.7086 M76.9444,65.625 L76.9444,65.7639 M78.8889,68.125 L77.7778,68.125 L77.7778,67.0139 L78.3333,67.0139 C78.3606,67.0139 78.4149,67.0085 78.4417,67.0032 C78.4685,66.9979 78.5207,66.982 78.5459,66.9716 C78.5711,66.9612 78.6193,66.9354 78.642,66.9203 C78.6647,66.9051 78.7069,66.8705 78.7262,66.8512 C78.7455,66.8319 78.7801,66.7897 78.7953,66.767 C78.8104,66.7443 78.8361,66.6962 78.8466,66.6709 C78.857,66.6457 78.8729,66.5935 78.8782,66.5667 C78.8835,66.54 78.8889,66.4856 78.8889,66.4583 L78.8889,66.1806 C78.8889,66.1533 78.8835,66.099 78.8782,66.0722 C78.8729,66.0454 78.857,65.9932 78.8466,65.968 C78.8362,65.9428 78.8104,65.8946 78.7953,65.8719 C78.7801,65.8492 78.7455,65.807 78.7262,65.7877 C78.7069,65.7684 78.6647,65.7338 78.642,65.7186 C78.6193,65.7035 78.5712,65.6777 78.5459,65.6673 C78.5207,65.6568 78.4685,65.641 78.4417,65.6357 C78.415,65.6304 78.3606,65.625 78.3333,65.625 L77.7778,65.625" style="stroke:#808080;stroke-width:0.25;"/>
            </g>
            <path d="M82.5,65 L80,64.5837 L80,65.4163 Z" style="stroke:#808080;stroke-width:0.25;fill:#808080;fill-rule:evenodd;"/>
            <path d="M70,65 L72.5,65.4163 L72.5,64.5837 Z" style="stroke:#808080;stroke-width:0.25;fill:#808080;fill-rule:evenodd;"/>
        </g>
        <path d="M82.5,65 L70,65 M82.5,53.125 L82.5,66.25 M70,60.625 L70,66.25 " style="stroke:#808080;stroke-width:0.25;"/>
        <!-- Rotated Dimension -->
        <g>
            <g>
                <path d="M82.0833,70.625 L80.9722,70.625 L82.0458,72.4714 C82.0527,72.4832 82.064,72.508 82.0684,72.5209 C82.0728,72.5338 82.0791,72.5603 82.0809,72.5738 C82.0827,72.5873 82.0837,72.6146 82.0828,72.6282 C82.082,72.6418 82.0776,72.6687 82.0741,72.6819 C82.0723,72.6886 82.0681,72.7018 82.0657,72.7083 C82.0589,72.7347 82.0401,72.7859 82.0283,72.8105 C82.0164,72.8351 81.988,72.8817 81.9716,72.9035 C81.9552,72.9253 81.9182,72.9655 81.8979,72.9837 C81.8775,73.0019 81.8335,73.0341 81.8099,73.0479 C81.7864,73.0618 81.7369,73.0848 81.7112,73.0938 C81.6854,73.1028 81.6323,73.1157 81.6053,73.1195 C81.5783,73.1233 81.5238,73.1256 81.4965,73.1241 C81.4693,73.1225 81.4153,73.1141 81.3889,73.1073 C81.3625,73.1005 81.3112,73.0817 81.2866,73.0699 C81.262,73.058 81.2154,73.0296 81.1936,73.0132 C81.1718,72.9968 81.1316,72.9599 81.1134,72.9395 C81.0953,72.9191 81.0631,72.8751 81.0492,72.8516 C81.0353,72.828 81.0124,72.7785 81.0033,72.7528 C80.9995,72.7419 80.9928,72.7197 80.9899,72.7086 M84.0278,73.125 L82.9167,73.125 L82.9167,72.0139 L83.4722,72.0139 C83.4995,72.0139 83.5538,72.0085 83.5806,72.0032 C83.6074,71.9979 83.6596,71.982 83.6848,71.9716 C83.71,71.9612 83.7582,71.9354 83.7809,71.9203 C83.8035,71.9051 83.8457,71.8705 83.865,71.8512 C83.8843,71.8319 83.919,71.7897 83.9341,71.767 C83.9493,71.7443 83.975,71.6962 83.9855,71.6709 C83.9959,71.6457 84.0118,71.5935 84.0171,71.5667 C84.0224,71.54 84.0278,71.4856 84.0278,71.4583 L84.0278,71.1806 C84.0278,71.1533 84.0224,71.099 84.0171,71.0722 C84.0118,71.0454 83.9959,70.9932 83.9855,70.968 C83.975,70.9428 83.9493,70.8946 83.9342,70.8719 C83.919,70.8492 83.8844,70.807 83.8651,70.7877 C83.8458,70.7684 83.8036,70.7338 83.7809,70.7186 C83.7582,70.7035 83.71,70.6777 83.6848,70.6673 C83.6596,70.6568 83.6074,70.641 83.5806,70.6357 C83.5538,70.6304 83.4995,70.625 83.4722,70.625 L82.9167,70.625" style="stroke:#808080;stroke-width:0.25;"/>
            </g>
            <path d="M70,70 L72.5,70.4163 L72.5,69.5837 Z" style="stroke:#808080;stroke-width:0.25;fill:#808080;fill-rule:evenodd;"/>
            <path d="M95,70 L92.5,69.5837 L92.5,70.4163 Z" style="stroke:#808080;stroke-width:0.25;fill:#808080;fill-rule:evenodd;"/>
        </g>
        <path d="M70,70 L95,70 M70,60.625 L70,71.25 M95,60.625 L95,71.25 " style="stroke:#808080;stroke-width:0.25;"/>
        <!-- Aligned Dimension -->
        <g>
            <g>
                <path d="M96.875,13.4722 L96.875,14.0278 C96.875,14.0551 96.8804,14.1094 96.8857,14.1362 C96.891,14.1629 96.9069,14.2152 96.9173,14.2404 C96.9277,14.2656 96.9535,14.3137 96.9686,14.3364 C96.9838,14.3591 97.0184,14.4013 97.0377,14.4206 C97.057,14.4399 97.0992,14.4746 97.1219,14.4897 C97.1446,14.5049 97.1927,14.5306 97.218,14.5411 C97.2432,14.5515 97.2954,14.5673 97.3222,14.5727 C97.3489,14.578 97.4033,14.5833 97.4306,14.5833 C97.4579,14.5833 97.5122,14.578 97.5389,14.5727 C97.5657,14.5673 97.6179,14.5515 97.6432,14.5411 C97.6684,14.5306 97.7165,14.5049 97.7392,14.4897 C97.7619,14.4746 97.8041,14.4399 97.8234,14.4206 C97.8427,14.4013 97.8773,14.3591 97.8925,14.3364 C97.9077,14.3137 97.9334,14.2656 97.9438,14.2404 C97.9543,14.2152 97.9701,14.1629 97.9754,14.1362 C97.9808,14.1094 97.9861,14.0551 97.9861,14.0278 C97.9861,14.0551 97.9915,14.1094 97.9968,14.1361 C98.0021,14.1629 98.018,14.2152 98.0284,14.2404 C98.0388,14.2656 98.0646,14.3137 98.0797,14.3364 C98.0949,14.3591 98.1295,14.4013 98.1488,14.4206 C98.1681,14.4399 98.2103,14.4745 98.233,14.4897 C98.2557,14.5049 98.3039,14.5306 98.3291,14.541 C98.3543,14.5515 98.4065,14.5673 98.4333,14.5727 C98.4601,14.578 98.5144,14.5833 98.5417,14.5833 L98.8195,14.5833 C98.8467,14.5833 98.901,14.578 98.9278,14.5727 C98.9546,14.5673 99.0068,14.5515 99.032,14.5411 C99.0572,14.5306 99.1054,14.5049 99.1281,14.4897 C99.1508,14.4746 99.193,14.4399 99.2123,14.4206 C99.2316,14.4013 99.2662,14.3591 99.2814,14.3364 C99.2965,14.3137 99.3223,14.2656 99.3327,14.2404 C99.3432,14.2152 99.359,14.1629 99.3643,14.1362 C99.3697,14.1094 99.375,14.0551 99.375,14.0278 L99.375,13.4722 M97.9861,14.0278 L97.9861,13.75 M97.0131,15.718 C97.0655,15.6788 97.1776,15.611 97.2366,15.5827 C97.2957,15.5545 97.4188,15.5099 97.4822,15.4937 C97.5037,15.4882 97.547,15.4787 97.5688,15.4747 C97.6941,15.4478 97.9488,15.4189 98.0769,15.417 C98.0888,15.4168 98.1126,15.4167 98.1245,15.4167 C98.2527,15.4162 98.508,15.4403 98.6339,15.4648 C98.6455,15.4671 98.6689,15.4718 98.6805,15.4743 C98.7449,15.4862 98.8707,15.5226 98.9315,15.5469 C98.9924,15.5712 99.1087,15.6314 99.1636,15.667 C99.1822,15.6791 99.2185,15.7045 99.2363,15.7177 C99.2488,15.7258 99.2721,15.7442 99.2828,15.7545 C99.2935,15.7649 99.3127,15.7875 99.3212,15.7997 C99.3297,15.8119 99.3442,15.8379 99.3501,15.8515 C99.356,15.8651 99.3652,15.8934 99.3683,15.9079 C99.3715,15.9225 99.3749,15.952 99.3752,15.9669 C99.3755,15.9817 99.3731,16.0114 99.3704,16.026 C99.3678,16.0406 99.3597,16.0692 99.3542,16.083 C99.3488,16.0969 99.3353,16.1233 99.3272,16.1358 C99.3192,16.1483 99.3007,16.1717 99.2904,16.1824 C99.2801,16.1931 99.2575,16.2123 99.2452,16.2208 C99.2432,16.2222 99.239,16.225 99.2369,16.2264 C99.1845,16.2656 99.0725,16.3334 99.0134,16.3617 C98.9543,16.3899 98.8312,16.4346 98.7678,16.4507 C98.7463,16.4562 98.703,16.4657 98.6813,16.4698 C98.5559,16.4966 98.3013,16.5256 98.1731,16.5275 C98.1612,16.5277 98.1374,16.5278 98.1255,16.5278 C97.9972,16.5283 97.7418,16.5041 97.616,16.4795 C97.6043,16.4773 97.5809,16.4725 97.5693,16.47 C97.5048,16.458 97.3789,16.4216 97.318,16.3973 C97.2572,16.373 97.1408,16.3127 97.0858,16.277 C97.0674,16.265 97.0315,16.24 97.014,16.2268 C97.0014,16.2188 96.9781,16.2004 96.9674,16.1901 C96.9567,16.1797 96.9374,16.1571 96.9289,16.1449 C96.9204,16.1327 96.9059,16.1067 96.9,16.0931 C96.894,16.0795 96.8849,16.0512 96.8817,16.0367 C96.8785,16.0221 96.8751,15.9926 96.8748,15.9778 C96.8745,15.9629 96.8769,15.9332 96.8795,15.9186 C96.8822,15.904 96.8903,15.8754 96.8957,15.8615 C96.9011,15.8477 96.9147,15.8212 96.9227,15.8087 C96.9307,15.7962 96.9491,15.7729 96.9595,15.7621 C96.9698,15.7514 96.9924,15.7322 97.0046,15.7237 C97.0067,15.7222 97.0109,15.7194 97.0131,15.718" style="stroke:#808080;stroke-width:0.25;"/>
            </g>
            <path d="M100,0 L99.5837,2.5 L100.4163,2.5 Z" style="stroke:#808080;stroke-width:0.25;fill:#808080;fill-rule:evenodd;"/>
            <path d="M100,30 L100.4163,27.5 L99.5837,27.5 Z" style="stroke:#808080;stroke-width:0.25;fill:#808080;fill-rule:evenodd;"/>
        </g>
        <path d="M95.625,0 L101.25,0 M95.625,30 L101.25,30 M100,0 L100,30 " style="stroke:#808080;stroke-width:0.25;"/>
        <!-- Rotated Dimension -->
        <g>
            <g>
                <path d="M101.875,15.3333 L101.875,15.8889 C101.875,15.9162 101.8804,15.9705 101.8857,15.9973 C101.891,16.024 101.9069,16.0763 101.9173,16.1015 C101.9278,16.1267 101.9535,16.1748 101.9687,16.1975 C101.9838,16.2202 102.0184,16.2624 102.0377,16.2817 C102.057,16.301 102.0992,16.3357 102.1219,16.3508 C102.1446,16.366 102.1928,16.3917 102.218,16.4022 C102.2432,16.4126 102.2954,16.4284 102.3222,16.4338 C102.349,16.4391 102.4033,16.4444 102.4306,16.4444 C102.4579,16.4444 102.5122,16.4391 102.539,16.4338 C102.5657,16.4284 102.618,16.4126 102.6432,16.4022 C102.6684,16.3917 102.7165,16.366 102.7392,16.3508 C102.7619,16.3357 102.8041,16.301 102.8234,16.2817 C102.8427,16.2624 102.8773,16.2202 102.8925,16.1975 C102.9077,16.1748 102.9334,16.1267 102.9438,16.1015 C102.9543,16.0763 102.9701,16.024 102.9755,15.9973 C102.9808,15.9705 102.9861,15.9162 102.9861,15.8889 C102.9861,15.9162 102.9915,15.9705 102.9968,15.9972 C103.0021,16.024 103.018,16.0763 103.0284,16.1015 C103.0389,16.1267 103.0646,16.1748 103.0798,16.1975 C103.0949,16.2202 103.1296,16.2624 103.1489,16.2817 C103.1682,16.301 103.2103,16.3356 103.233,16.3508 C103.2557,16.366 103.3039,16.3917 103.3291,16.4021 C103.3543,16.4126 103.4065,16.4284 103.4333,16.4338 C103.4601,16.4391 103.5144,16.4444 103.5417,16.4444 L103.8195,16.4444 C103.8468,16.4444 103.9011,16.4391 103.9278,16.4338 C103.9546,16.4284 104.0068,16.4126 104.0321,16.4022 C104.0573,16.3917 104.1054,16.366 104.1281,16.3508 C104.1508,16.3357 104.193,16.301 104.2123,16.2817 C104.2316,16.2624 104.2662,16.2202 104.2814,16.1975 C104.2966,16.1749 104.3223,16.1267 104.3327,16.1015 C104.3432,16.0763 104.359,16.024 104.3644,15.9973 C104.3697,15.9705 104.375,15.9162 104.375,15.8889 L104.375,15.3333 M102.9861,15.8889 L102.9861,15.6111 M101.875,18.1111 C101.9159,18.0402 102.0113,17.9071 102.0653,17.8455 C102.1193,17.7839 102.2389,17.672 102.3039,17.6221 C102.3688,17.5723 102.5079,17.4858 102.5814,17.4496 C102.6548,17.4134 102.8081,17.3557 102.8872,17.3345 C102.9663,17.3133 103.1279,17.2867 103.2096,17.2813 C103.2368,17.2796 103.2912,17.2778 103.3184,17.2778 L103.8195,17.2778 C103.8468,17.2778 103.9011,17.2831 103.9279,17.2885 C103.9546,17.2938 104.0069,17.3096 104.0321,17.3201 C104.0573,17.3305 104.1054,17.3562 104.1281,17.3714 C104.1508,17.3866 104.193,17.4212 104.2123,17.4405 C104.2316,17.4598 104.2662,17.502 104.2814,17.5247 C104.2966,17.5474 104.3223,17.5955 104.3327,17.6207 C104.3432,17.6459 104.359,17.6982 104.3644,17.7249 C104.3697,17.7517 104.375,17.806 104.375,17.8333 C104.375,17.8606 104.3697,17.9149 104.3644,17.9417 C104.359,17.9685 104.3432,18.0207 104.3327,18.0459 C104.3223,18.0712 104.2966,18.1193 104.2814,18.142 C104.2662,18.1647 104.2316,18.2069 104.2123,18.2262 C104.193,18.2455 104.1508,18.2801 104.1281,18.2953 C104.1054,18.3104 104.0573,18.3362 104.0321,18.3466 C104.0069,18.357 103.9546,18.3729 103.9279,18.3782 C103.9011,18.3835 103.8468,18.3889 103.8195,18.3889 L103.5417,18.3889 C103.5144,18.3889 103.4601,18.3835 103.4333,18.3782 C103.4065,18.3729 103.3543,18.357 103.3291,18.3466 C103.3039,18.3361 103.2557,18.3104 103.233,18.2953 C103.2103,18.2801 103.1682,18.2455 103.1489,18.2262 C103.1296,18.2069 103.0949,18.1647 103.0798,18.142 C103.0646,18.1193 103.0389,18.0711 103.0284,18.0459 C103.018,18.0207 103.0021,17.9685 102.9968,17.9417 C102.9915,17.9149 102.9861,17.8606 102.9861,17.8333 L102.9861,17.3112 M104.375,19.2222 L104.2361,19.2222 M101.875,21.1667 L101.875,20.0556 L102.9861,20.0556 L102.9861,20.6111 C102.9861,20.6384 102.9915,20.6927 102.9968,20.7195 C103.0021,20.7462 103.018,20.7985 103.0284,20.8237 C103.0389,20.8489 103.0646,20.8971 103.0798,20.9197 C103.0949,20.9424 103.1296,20.9846 103.1489,21.0039 C103.1682,21.0232 103.2103,21.0579 103.233,21.073 C103.2557,21.0882 103.3039,21.1139 103.3291,21.1244 C103.3543,21.1348 103.4065,21.1507 103.4333,21.156 C103.4601,21.1613 103.5144,21.1667 103.5417,21.1667 L103.8195,21.1667 C103.8468,21.1667 103.9011,21.1613 103.9278,21.156 C103.9546,21.1507 104.0068,21.1348 104.0321,21.1244 C104.0573,21.1139 104.1054,21.0882 104.1281,21.073 C104.1508,21.0579 104.193,21.0233 104.2123,21.004 C104.2316,20.9847 104.2662,20.9425 104.2814,20.9198 C104.2966,20.8971 104.3223,20.8489 104.3327,20.8237 C104.3432,20.7985 104.359,20.7463 104.3644,20.7195 C104.3697,20.6927 104.375,20.6384 104.375,20.6111 L104.375,20.0556" style="stroke:#808080;stroke-width:0.25;"/>
            </g>
            <path d="M105,0 L104.5837,2.5 L105.4163,2.5 Z" style="stroke:#808080;stroke-width:0.25;fill:#808080;fill-rule:evenodd;"/>
            <path d="M105,36.5 L105.4163,34 L104.5837,34 Z" style="stroke:#808080;stroke-width:0.25;fill:#808080;fill-rule:evenodd;"/>
        </g>
        <path d="M105,0 L105,36.5 M95.625,0 L106.25,0 M83.125,36.5 L106.25,36.5 " style="stroke:#808080;stroke-width:0.25;"/>
        <!-- Rotated Dimension -->
        <g>
            <g>
                <path d="M106.875,24.4444 L106.875,23.3333 L107.9861,23.3333 L107.9861,23.8889 C107.9861,23.9162 107.9915,23.9705 107.9968,23.9972 C108.0021,24.024 108.018,24.0763 108.0284,24.1015 C108.0388,24.1267 108.0646,24.1748 108.0797,24.1975 C108.0949,24.2202 108.1295,24.2624 108.1488,24.2817 C108.1681,24.301 108.2103,24.3356 108.233,24.3508 C108.2557,24.366 108.3038,24.3917 108.3291,24.4021 C108.3543,24.4126 108.4065,24.4284 108.4333,24.4338 C108.46,24.4391 108.5144,24.4444 108.5417,24.4444 L108.8194,24.4444 C108.8467,24.4444 108.901,24.4391 108.9278,24.4338 C108.9546,24.4284 109.0068,24.4126 109.032,24.4022 C109.0572,24.3917 109.1054,24.366 109.1281,24.3508 C109.1508,24.3357 109.193,24.301 109.2123,24.2817 C109.2316,24.2624 109.2662,24.2202 109.2814,24.1975 C109.2965,24.1749 109.3223,24.1267 109.3327,24.1015 C109.3432,24.0763 109.359,24.024 109.3643,23.9973 C109.3696,23.9705 109.375,23.9162 109.375,23.8889 L109.375,23.3333 M109.375,26.3889 L109.375,25.2778 L107.5286,26.3514 C107.5168,26.3582 107.492,26.3696 107.4791,26.374 C107.4662,26.3784 107.4397,26.3846 107.4262,26.3865 C107.4127,26.3883 107.3854,26.3892 107.3718,26.3884 C107.3582,26.3875 107.3313,26.3832 107.3181,26.3797 C107.3114,26.3779 107.2982,26.3737 107.2918,26.3713 C107.2653,26.3644 107.2141,26.3457 107.1895,26.3338 C107.1649,26.322 107.1183,26.2936 107.0965,26.2772 C107.0747,26.2607 107.0345,26.2238 107.0163,26.2034 C106.9981,26.1831 106.9659,26.139 106.9521,26.1155 C106.9382,26.092 106.9152,26.0425 106.9062,26.0167 C106.8972,25.9909 106.8843,25.9379 106.8805,25.9109 C106.8767,25.8839 106.8744,25.8293 106.8759,25.8021 C106.8775,25.7748 106.8859,25.7209 106.8927,25.6945 C106.8995,25.668 106.9183,25.6168 106.9301,25.5922 C106.942,25.5676 106.9704,25.521 106.9868,25.4992 C107.0032,25.4774 107.0401,25.4372 107.0605,25.419 C107.0809,25.4008 107.1249,25.3686 107.1484,25.3548 C107.172,25.3409 107.2215,25.3179 107.2472,25.3089 C107.2581,25.3051 107.2803,25.2984 107.2914,25.2955 M109.375,27.2222 L109.2361,27.2222 M106.875,29.1667 L106.875,28.0556 L107.9861,28.0556 L107.9861,28.6111 C107.9861,28.6384 107.9915,28.6927 107.9968,28.7195 C108.0021,28.7462 108.018,28.7985 108.0284,28.8237 C108.0388,28.8489 108.0646,28.8971 108.0797,28.9197 C108.0949,28.9424 108.1295,28.9846 108.1488,29.0039 C108.1681,29.0232 108.2103,29.0579 108.233,29.073 C108.2557,29.0882 108.3038,29.1139 108.3291,29.1244 C108.3543,29.1348 108.4065,29.1507 108.4333,29.156 C108.46,29.1613 108.5144,29.1667 108.5417,29.1667 L108.8194,29.1667 C108.8467,29.1667 108.901,29.1613 108.9278,29.156 C108.9546,29.1507 109.0068,29.1348 109.032,29.1244 C109.0572,29.1139 109.1054,29.0882 109.1281,29.073 C109.1508,29.0579 109.193,29.0233 109.2123,29.004 C109.2316,28.9847 109.2662,28.9425 109.2814,28.9198 C109.2965,28.8971 109.3223,28.8489 109.3327,28.8237 C109.3432,28.7985 109.359,28.7463 109.3643,28.7195 C109.3696,28.6927 109.375,28.6384 109.375,28.6111 L109.375,28.0556" style="stroke:#808080;stroke-width:0.25;"/>
            </g>
            <path d="M110,0 L109.5837,2.5 L110.4163,2.5 Z" style="stroke:#808080;stroke-width:0.25;fill:#808080;fill-rule:evenodd;"/>
            <path d="M110,52.5 L110.4163,50 L109.5837,50 Z" style="stroke:#808080;stroke-width:0.25;fill:#808080;fill-rule:evenodd;"/>
        </g>
        <path d="M110,0 L110,52.5 M95.625,0 L111.25,0 M83.125,52.5 L111.25,52.5 " style="stroke:#808080;stroke-width:0.25;"/>
        <!-- Rotated Dimension -->
        <g>
            <g>
                <path d="M111.875,29.3056 C111.9159,29.2346 112.0113,29.1015 112.0653,29.04 C112.1193,28.9784 112.2389,28.8664 112.3038,28.8166 C112.3688,28.7668 112.5079,28.6803 112.5814,28.6441 C112.6548,28.6079 112.8081,28.5502 112.8872,28.529 C112.9663,28.5078 113.1279,28.4811 113.2096,28.4758 C113.2368,28.474 113.2911,28.4722 113.3183,28.4722 L113.8195,28.4722 C113.8467,28.4722 113.9011,28.4776 113.9278,28.4829 C113.9546,28.4882 114.0068,28.5041 114.0321,28.5145 C114.0573,28.525 114.1054,28.5507 114.1281,28.5659 C114.1508,28.581 114.193,28.6157 114.2123,28.635 C114.2316,28.6542 114.2662,28.6964 114.2814,28.7191 C114.2965,28.7418 114.3223,28.79 114.3327,28.8152 C114.3432,28.8404 114.359,28.8926 114.3643,28.9194 C114.3697,28.9462 114.375,29.0005 114.375,29.0278 C114.375,29.0551 114.3697,29.1094 114.3643,29.1362 C114.359,29.1629 114.3432,29.2152 114.3327,29.2404 C114.3223,29.2656 114.2965,29.3137 114.2814,29.3364 C114.2662,29.3591 114.2316,29.4013 114.2123,29.4206 C114.193,29.4399 114.1508,29.4746 114.1281,29.4897 C114.1054,29.5049 114.0573,29.5306 114.0321,29.5411 C114.0068,29.5515 113.9546,29.5673 113.9278,29.5727 C113.9011,29.578 113.8467,29.5833 113.8195,29.5833 L113.5417,29.5833 C113.5144,29.5833 113.4601,29.578 113.4333,29.5727 C113.4065,29.5673 113.3543,29.5515 113.3291,29.541 C113.3039,29.5306 113.2557,29.5049 113.233,29.4897 C113.2103,29.4745 113.1681,29.4399 113.1488,29.4206 C113.1295,29.4013 113.0949,29.3591 113.0797,29.3364 C113.0646,29.3137 113.0388,29.2656 113.0284,29.2404 C113.018,29.2152 113.0021,29.1629 112.9968,29.1361 C112.9915,29.1094 112.9861,29.0551 112.9861,29.0278 L112.9861,28.5057 M112.0131,30.718 C112.0655,30.6788 112.1776,30.611 112.2366,30.5827 C112.2957,30.5545 112.4188,30.5099 112.4822,30.4937 C112.5037,30.4882 112.547,30.4787 112.5688,30.4747 C112.6941,30.4478 112.9488,30.4189 113.0769,30.417 C113.0888,30.4168 113.1126,30.4167 113.1245,30.4167 C113.2527,30.4162 113.508,30.4403 113.6339,30.4648 C113.6455,30.4671 113.6689,30.4718 113.6805,30.4743 C113.7449,30.4862 113.8707,30.5226 113.9315,30.5469 C113.9924,30.5712 114.1087,30.6314 114.1636,30.667 C114.1822,30.6791 114.2185,30.7045 114.2363,30.7177 C114.2488,30.7258 114.2721,30.7442 114.2828,30.7545 C114.2935,30.7649 114.3127,30.7875 114.3212,30.7997 C114.3297,30.8119 114.3442,30.8379 114.3501,30.8515 C114.356,30.8651 114.3652,30.8934 114.3683,30.9079 C114.3715,30.9225 114.3749,30.952 114.3752,30.9669 C114.3755,30.9817 114.3731,31.0114 114.3704,31.026 C114.3678,31.0406 114.3597,31.0692 114.3542,31.083 C114.3488,31.0969 114.3353,31.1233 114.3272,31.1358 C114.3192,31.1483 114.3007,31.1717 114.2904,31.1824 C114.2801,31.1931 114.2575,31.2123 114.2452,31.2208 C114.2432,31.2222 114.239,31.225 114.2369,31.2264 C114.1845,31.2656 114.0725,31.3334 114.0134,31.3617 C113.9543,31.3899 113.8312,31.4346 113.7678,31.4507 C113.7463,31.4562 113.703,31.4657 113.6813,31.4698 C113.5559,31.4966 113.3013,31.5256 113.1731,31.5275 C113.1612,31.5277 113.1374,31.5278 113.1255,31.5278 C112.9972,31.5283 112.7418,31.5041 112.616,31.4795 C112.6043,31.4773 112.5809,31.4725 112.5693,31.47 C112.5048,31.458 112.3789,31.4216 112.318,31.3973 C112.2572,31.373 112.1408,31.3127 112.0858,31.277 C112.0674,31.265 112.0315,31.24 112.014,31.2268 C112.0014,31.2188 111.9781,31.2004 111.9674,31.1901 C111.9567,31.1797 111.9374,31.1571 111.9289,31.1449 C111.9204,31.1327 111.9059,31.1067 111.9,31.0931 C111.894,31.0795 111.8849,31.0512 111.8817,31.0367 C111.8785,31.0221 111.8751,30.9926 111.8748,30.9778 C111.8745,30.9629 111.8769,30.9332 111.8795,30.9186 C111.8822,30.904 111.8903,30.8754 111.8957,30.8615 C111.9011,30.8477 111.9147,30.8212 111.9227,30.8087 C111.9307,30.7962 111.9491,30.7729 111.9595,30.7621 C111.9698,30.7514 111.9924,30.7322 112.0046,30.7237 C112.0067,30.7222 112.0109,30.7194 112.0131,30.718" style="stroke:#808080;stroke-width:0.25;"/>
            </g>
            <path d="M115,0 L114.5837,2.5 L115.4163,2.5 Z" style="stroke:#808080;stroke-width:0.25;fill:#808080;fill-rule:evenodd;"/>
            <path d="M115,60 L115.4163,57.5 L114.5837,57.5 Z" style="stroke:#808080;stroke-width:0.25;fill:#808080;fill-rule:evenodd;"/>
        </g>
        <path d="M115,0 L115,60 M95.625,0 L116.25,0 M95.625,60 L116.25,60 " style="stroke:#808080;stroke-width:0.25;"/>
        <!-- Rotated Dimension -->
        <g>
            <g>
                <path d="M-33.125,24.5833 L-33.125,23.4722 L-32.0139,23.4722 L-32.0139,24.0278 C-32.0139,24.0551 -32.0085,24.1094 -32.0032,24.1361 C-31.9979,24.1629 -31.982,24.2152 -31.9716,24.2404 C-31.9612,24.2656 -31.9354,24.3137 -31.9203,24.3364 C-31.9051,24.3591 -31.8705,24.4013 -31.8512,24.4206 C-31.8319,24.4399 -31.7897,24.4745 -31.767,24.4897 C-31.7443,24.5049 -31.6961,24.5306 -31.6709,24.541 C-31.6457,24.5515 -31.5935,24.5673 -31.5667,24.5727 C-31.5399,24.578 -31.4856,24.5833 -31.4583,24.5833 L-31.1805,24.5833 C-31.1533,24.5833 -31.099,24.578 -31.0722,24.5727 C-31.0454,24.5673 -30.9932,24.5515 -30.968,24.5411 C-30.9428,24.5306 -30.8946,24.5049 -30.8719,24.4897 C-30.8492,24.4746 -30.807,24.4399 -30.7877,24.4206 C-30.7684,24.4013 -30.7338,24.3591 -30.7186,24.3364 C-30.7035,24.3137 -30.6777,24.2656 -30.6673,24.2404 C-30.6568,24.2152 -30.641,24.1629 -30.6357,24.1362 C-30.6303,24.1094 -30.625,24.0551 -30.625,24.0278 L-30.625,23.4722 M-32.9869,25.718 C-32.9345,25.6788 -32.8224,25.611 -32.7634,25.5827 C-32.7043,25.5545 -32.5812,25.5099 -32.5178,25.4937 C-32.4963,25.4882 -32.453,25.4787 -32.4312,25.4747 C-32.3059,25.4478 -32.0512,25.4189 -31.9231,25.417 C-31.9112,25.4168 -31.8874,25.4167 -31.8755,25.4167 C-31.7473,25.4162 -31.492,25.4403 -31.3661,25.4648 C-31.3545,25.4671 -31.3311,25.4718 -31.3195,25.4743 C-31.2551,25.4862 -31.1293,25.5226 -31.0685,25.5469 C-31.0076,25.5712 -30.8913,25.6314 -30.8364,25.667 C-30.8178,25.6791 -30.7815,25.7045 -30.7637,25.7177 C-30.7512,25.7258 -30.7279,25.7442 -30.7172,25.7545 C-30.7065,25.7649 -30.6873,25.7875 -30.6788,25.7997 C-30.6703,25.8119 -30.6558,25.8379 -30.6499,25.8515 C-30.644,25.8651 -30.6348,25.8934 -30.6317,25.9079 C-30.6285,25.9225 -30.6251,25.952 -30.6248,25.9669 C-30.6245,25.9817 -30.6269,26.0114 -30.6296,26.026 C-30.6322,26.0406 -30.6403,26.0692 -30.6458,26.083 C-30.6512,26.0969 -30.6647,26.1233 -30.6728,26.1358 C-30.6808,26.1483 -30.6993,26.1717 -30.7096,26.1824 C-30.7199,26.1931 -30.7425,26.2123 -30.7548,26.2208 C-30.7568,26.2222 -30.761,26.225 -30.7631,26.2264 C-30.8155,26.2656 -30.9275,26.3334 -30.9866,26.3617 C-31.0457,26.3899 -31.1688,26.4346 -31.2322,26.4507 C-31.2537,26.4562 -31.297,26.4657 -31.3187,26.4698 C-31.4441,26.4966 -31.6987,26.5256 -31.8269,26.5275 C-31.8388,26.5277 -31.8626,26.5278 -31.8745,26.5278 C-32.0028,26.5283 -32.2582,26.5041 -32.384,26.4795 C-32.3957,26.4773 -32.4191,26.4725 -32.4307,26.47 C-32.4952,26.458 -32.6211,26.4216 -32.682,26.3973 C-32.7428,26.373 -32.8592,26.3127 -32.9142,26.277 C-32.9326,26.265 -32.9685,26.24 -32.986,26.2268 C-32.9986,26.2188 -33.0219,26.2004 -33.0326,26.1901 C-33.0433,26.1797 -33.0626,26.1571 -33.0711,26.1449 C-33.0796,26.1327 -33.0941,26.1067 -33.1,26.0931 C-33.106,26.0795 -33.1151,26.0512 -33.1183,26.0367 C-33.1215,26.0221 -33.1249,25.9926 -33.1252,25.9778 C-33.1255,25.9629 -33.1231,25.9332 -33.1205,25.9186 C-33.1178,25.904 -33.1097,25.8754 -33.1043,25.8615 C-33.0989,25.8477 -33.0853,25.8212 -33.0773,25.8087 C-33.0693,25.7962 -33.0509,25.7729 -33.0405,25.7621 C-33.0302,25.7514 -33.0076,25.7322 -32.9954,25.7237 C-32.9933,25.7222 -32.9891,25.7194 -32.9869,25.718" style="stroke:#808080;stroke-width:0.25;"/>
            </g>
            <path d="M-30,50 L-29.5837,47.5 L-30.4163,47.5 Z" style="stroke:#808080;stroke-width:0.25;fill:#808080;fill-rule:evenodd;"/>
            <path d="M-30,0 L-30.4163,2.5 L-29.5837,2.5 Z" style="stroke:#808080;stroke-width:0.25;fill:#808080;fill-rule:evenodd;"/>
        </g>
        <path d="M-30,50 L-30,0 M-0.625,50 L-31.25,50 M-0.625,0 L-31.25,0 " style="stroke:#808080;stroke-width:0.25;"/>
        <!-- Rotated Dimension -->
        <g>
            <g>
                <path d="M6.875,44.3056 L6.875,45.4167 L9.375,44.7222 M7.9861,44.8611 L7.9861,45.4167 M9.375,46.25 L9.2361,46.25 M6.875,48.1944 L6.875,47.0833 L7.9861,47.0833 L7.9861,47.6389 C7.9861,47.6662 7.9915,47.7205 7.9968,47.7472 C8.0021,47.774 8.018,47.8263 8.0284,47.8515 C8.0388,47.8767 8.0646,47.9248 8.0797,47.9475 C8.0949,47.9702 8.1295,48.0124 8.1488,48.0317 C8.1681,48.051 8.2103,48.0856 8.233,48.1008 C8.2557,48.116 8.3038,48.1417 8.3291,48.1521 C8.3543,48.1626 8.4065,48.1784 8.4333,48.1838 C8.46,48.1891 8.5144,48.1944 8.5417,48.1944 L8.8194,48.1944 C8.8467,48.1944 8.901,48.1891 8.9278,48.1838 C8.9546,48.1784 9.0068,48.1626 9.032,48.1522 C9.0572,48.1417 9.1054,48.116 9.1281,48.1008 C9.1508,48.0857 9.193,48.051 9.2123,48.0317 C9.2316,48.0124 9.2662,47.9702 9.2814,47.9475 C9.2965,47.9249 9.3223,47.8767 9.3327,47.8515 C9.3432,47.8263 9.359,47.774 9.3643,47.7473 C9.3696,47.7205 9.375,47.6662 9.375,47.6389 L9.375,47.0833" style="stroke:#808080;stroke-width:0.25;"/>
            </g>
            <path d="M10,50 L10.4163,47.5 L9.5837,47.5 Z" style="stroke:#808080;stroke-width:0.25;fill:#808080;fill-rule:evenodd;"/>
            <path d="M10,42.5 L9.5837,45 L10.4163,45 Z" style="stroke:#808080;stroke-width:0.25;fill:#808080;fill-rule:evenodd;"/>
        </g>
        <path d="M10,50 L10,42.5 M3.625,50 L11.25,50 M3.625,42.5 L11.25,42.5 " style="stroke:#808080;stroke-width:0.25;"/>
        <!-- Aligned Dimension -->
        <g>
            <g>
                <path d="M10.6667,15.125 L9.5556,15.125 L9.5556,14.0139 L10.1111,14.0139 C10.1384,14.0139 10.1927,14.0085 10.2195,14.0032 C10.2462,13.9979 10.2985,13.982 10.3237,13.9716 C10.3489,13.9612 10.3971,13.9354 10.4197,13.9203 C10.4424,13.9051 10.4846,13.8705 10.5039,13.8512 C10.5232,13.8319 10.5579,13.7897 10.573,13.767 C10.5882,13.7443 10.6139,13.6962 10.6244,13.6709 C10.6348,13.6457 10.6507,13.5935 10.656,13.5667 C10.6613,13.54 10.6667,13.4856 10.6667,13.4583 L10.6667,13.1806 C10.6667,13.1533 10.6613,13.099 10.656,13.0722 C10.6507,13.0454 10.6348,12.9932 10.6244,12.968 C10.6139,12.9428 10.5882,12.8946 10.573,12.8719 C10.5579,12.8492 10.5233,12.807 10.504,12.7877 C10.4847,12.7684 10.4425,12.7338 10.4198,12.7186 C10.3971,12.7035 10.3489,12.6777 10.3237,12.6673 C10.2985,12.6568 10.2463,12.641 10.2195,12.6357 C10.1927,12.6304 10.1384,12.625 10.1111,12.625 L9.5556,12.625 M11.5,12.625 L11.5,12.7639 M13.4444,12.625 L12.3333,12.625 L13.4069,14.4714 C13.4138,14.4832 13.4251,14.508 13.4295,14.5209 C13.4339,14.5338 13.4402,14.5603 13.442,14.5738 C13.4438,14.5873 13.4448,14.6146 13.4439,14.6282 C13.4431,14.6418 13.4387,14.6687 13.4352,14.6819 C13.4335,14.6886 13.4292,14.7018 13.4268,14.7083 C13.42,14.7347 13.4012,14.7859 13.3894,14.8105 C13.3775,14.8351 13.3491,14.8817 13.3327,14.9035 C13.3163,14.9253 13.2794,14.9655 13.259,14.9837 C13.2386,15.0019 13.1946,15.0341 13.1711,15.0479 C13.1475,15.0618 13.098,15.0848 13.0723,15.0938 C13.0465,15.1028 12.9935,15.1157 12.9664,15.1195 C12.9394,15.1233 12.8849,15.1256 12.8576,15.1241 C12.8304,15.1225 12.7764,15.1141 12.75,15.1073 C12.7236,15.1005 12.6723,15.0817 12.6477,15.0699 C12.6231,15.058 12.5765,15.0296 12.5547,15.0132 C12.5329,14.9968 12.4927,14.9599 12.4746,14.9395 C12.4564,14.9191 12.4242,14.8751 12.4103,14.8516 C12.3964,14.828 12.3735,14.7785 12.3645,14.7528 C12.3606,14.7419 12.3539,14.7197 12.351,14.7086" style="stroke:#808080;stroke-width:0.25;"/>
            </g>
            <path d="M8.9,12 L6.4,11.5837 L6.4,12.4163 Z" style="stroke:#808080;stroke-width:0.25;fill:#808080;fill-rule:evenodd;"/>
            <path d="M14.1,12 L16.6,12.4163 L16.6,11.5837 Z" style="stroke:#808080;stroke-width:0.25;fill:#808080;fill-rule:evenodd;"/>
        </g>
        <path d="M8.9,8.125 L8.9,13.25 M14.1,8.125 L14.1,13.25 M3.9,12 L19.1,12 " style="stroke:#808080;stroke-width:0.25;"/>
        <!-- Aligned Dimension -->
        <g>
            <g>
                <path d="M61.875,51.6667 L61.875,50.5556 L62.9861,50.5556 L62.9861,51.1111 C62.9861,51.1384 62.9915,51.1927 62.9968,51.2195 C63.0021,51.2462 63.018,51.2985 63.0284,51.3237 C63.0388,51.3489 63.0646,51.3971 63.0797,51.4197 C63.0949,51.4424 63.1295,51.4846 63.1488,51.5039 C63.1681,51.5232 63.2103,51.5579 63.233,51.573 C63.2557,51.5882 63.3038,51.6139 63.3291,51.6244 C63.3543,51.6348 63.4065,51.6507 63.4333,51.656 C63.46,51.6613 63.5144,51.6667 63.5417,51.6667 L63.8194,51.6667 C63.8467,51.6667 63.901,51.6613 63.9278,51.656 C63.9546,51.6507 64.0068,51.6348 64.032,51.6244 C64.0572,51.6139 64.1054,51.5882 64.1281,51.573 C64.1508,51.5579 64.193,51.5233 64.2123,51.504 C64.2316,51.4847 64.2662,51.4425 64.2814,51.4198 C64.2965,51.3971 64.3223,51.3489 64.3327,51.3237 C64.3432,51.2985 64.359,51.2463 64.3643,51.2195 C64.3696,51.1927 64.375,51.1384 64.375,51.1111 L64.375,50.5556 M64.375,52.5 L64.2361,52.5 M64.375,54.4444 L64.375,53.3333 L62.5286,54.4069 C62.5168,54.4138 62.492,54.4251 62.4791,54.4295 C62.4662,54.4339 62.4397,54.4402 62.4262,54.442 C62.4127,54.4438 62.3854,54.4448 62.3718,54.4439 C62.3582,54.4431 62.3313,54.4387 62.3181,54.4352 C62.3114,54.4335 62.2982,54.4292 62.2918,54.4268 C62.2653,54.42 62.2141,54.4012 62.1895,54.3894 C62.1649,54.3775 62.1183,54.3491 62.0965,54.3327 C62.0747,54.3163 62.0345,54.2794 62.0163,54.259 C61.9981,54.2386 61.9659,54.1946 61.9521,54.1711 C61.9382,54.1475 61.9152,54.098 61.9062,54.0723 C61.8972,54.0465 61.8843,53.9935 61.8805,53.9664 C61.8767,53.9394 61.8744,53.8849 61.8759,53.8576 C61.8775,53.8304 61.8859,53.7764 61.8927,53.75 C61.8995,53.7236 61.9183,53.6723 61.9301,53.6477 C61.942,53.6231 61.9704,53.5765 61.9868,53.5547 C62.0032,53.5329 62.0401,53.4927 62.0605,53.4746 C62.0809,53.4564 62.1249,53.4242 62.1484,53.4103 C62.172,53.3964 62.2215,53.3735 62.2472,53.3645 C62.2581,53.3606 62.2803,53.3539 62.2914,53.351" style="stroke:#808080;stroke-width:0.25;"/>
            </g>
            <path d="M65,55.1 L64.5837,57.6 L65.4163,57.6 Z" style="stroke:#808080;stroke-width:0.25;fill:#808080;fill-rule:evenodd;"/>
            <path d="M65,49.9 L65.4163,47.4 L64.5837,47.4 Z" style="stroke:#808080;stroke-width:0.25;fill:#808080;fill-rule:evenodd;"/>
        </g>
        <path d="M81.875,55.1 L63.75,55.1 M81.875,49.9 L63.75,49.9 M65,60.1 L65,44.9 " style="stroke:#808080;stroke-width:0.25;"/>
        <!-- Line -->
        <path d="M-40,-40 L130,-40 " style="stroke:#000000;stroke-width:0.25;"/>
        <!-- Line -->
        <path d="M130,-40 L130,80 " style="stroke:#000000;stroke-width:0.25;"/>
        <!-- Line -->
        <path d="M130,80 L-40,80 " style="stroke:#000000;stroke-width:0.25;"/>
        <!-- Line -->
        <path d="M-40,80 L-40,-40 " style="stroke:#000000;stroke-width:0.25;"/>
    </g>
</svg>
