<?xml version="1.0" encoding="UTF-8"?>
<!-- Sun Feb 1 19:59:33 2026 Generated by QCAD 3.32.6 SVG Exporter -->
<svg width="86mm" height="46mm" viewBox="-20 -22 86 46" version="1.1" xmlns="http://www.w3.org/2000/svg" style="stroke-linecap:round;stroke-linejoin:round;fill:none">
    <g transform="scale(1,-1)">
        <!-- Text: Side
 -->
        <g>
            <path d="M-4.0123,-17.1984 L-3.6378,-17.1657 C-3.6201,-17.3157 -3.5788,-17.4389 -3.514,-17.535 C-3.4492,-17.6312 -3.3486,-17.709 -3.2122,-17.7683 C-3.0757,-17.8277 -2.9223,-17.8573 -2.7517,-17.8573 C-2.6003,-17.8573 -2.4666,-17.8348 -2.3506,-17.7898 C-2.2347,-17.7448 -2.1484,-17.6831 -2.0918,-17.6046 C-2.0352,-17.5262 -2.0068,-17.4406 -2.0068,-17.3478 C-2.0068,-17.2537 -2.0341,-17.1715 -2.0887,-17.1012 C-2.1433,-17.0309 -2.2333,-16.9719 -2.3588,-16.9242 C-2.4393,-16.8928 -2.6174,-16.844 -2.8929,-16.7779 C-3.1685,-16.7117 -3.3616,-16.6493 -3.4721,-16.5906 C-3.6153,-16.5156 -3.7221,-16.4225 -3.7923,-16.3113 C-3.8626,-16.2001 -3.8977,-16.0756 -3.8977,-15.9378 C-3.8977,-15.7864 -3.8547,-15.6449 -3.7688,-15.5132 C-3.6828,-15.3816 -3.5573,-15.2816 -3.3923,-15.2134 C-3.2272,-15.1452 -3.0437,-15.1111 -2.8418,-15.1111 C-2.6194,-15.1111 -2.4233,-15.1469 -2.2534,-15.2185 C-2.0836,-15.2902 -1.953,-15.3955 -1.8616,-15.5347 C-1.7702,-15.6738 -1.721,-15.8314 -1.7142,-16.0074 L-2.0948,-16.0361 C-2.1153,-15.8464 -2.1845,-15.7032 -2.3026,-15.6063 C-2.4206,-15.5095 -2.5948,-15.461 -2.8254,-15.461 C-3.0655,-15.461 -3.2405,-15.505 -3.3503,-15.593 C-3.4601,-15.681 -3.515,-15.7871 -3.515,-15.9112 C-3.515,-16.019 -3.4762,-16.1077 -3.3984,-16.1773 C-3.322,-16.2468 -3.1225,-16.3181 -2.7998,-16.3911 C-2.4772,-16.4641 -2.2558,-16.5279 -2.1358,-16.5824 C-1.9611,-16.6629 -1.8322,-16.7649 -1.749,-16.8884 C-1.6658,-17.0118 -1.6242,-17.1541 -1.6242,-17.315 C-1.6242,-17.4747 -1.6699,-17.6251 -1.7613,-17.7663 C-1.8527,-17.9075 -1.984,-18.0173 -2.1552,-18.0957 C-2.3264,-18.1742 -2.5191,-18.2134 -2.7333,-18.2134 C-3.0048,-18.2134 -3.2323,-18.1738 -3.4158,-18.0947 C-3.5993,-18.0156 -3.7432,-17.8966 -3.8476,-17.7376 C-3.9519,-17.5787 -4.0068,-17.3989 -4.0123,-17.1984 M-1.1274,-15.5859 L-1.1274,-15.1623 L-0.759,-15.1623 L-0.759,-15.5859 Z M-1.1274,-18.1623 L-1.1274,-15.989 L-0.759,-15.989 L-0.759,-18.1623 Z M1.2111,-18.1623 L1.2111,-17.888 C1.0733,-18.1036 0.8707,-18.2114 0.6033,-18.2114 C0.43,-18.2114 0.2707,-18.1636 0.1254,-18.0681 C-0.0198,-17.9726 -0.1324,-17.8393 -0.2122,-17.668 C-0.292,-17.4968 -0.3319,-17.3 -0.3319,-17.0777 C-0.3319,-16.8608 -0.2958,-16.664 -0.2235,-16.4873 C-0.1512,-16.3106 -0.0427,-16.1752 0.1019,-16.0811 C0.2465,-15.9869 0.4082,-15.9399 0.5869,-15.9399 C0.7179,-15.9399 0.8345,-15.9675 0.9368,-16.0228 C1.0392,-16.078 1.1224,-16.15 1.1865,-16.2386 L1.1865,-15.1623 L1.5528,-15.1623 L1.5528,-18.1623 Z M0.0467,-17.0777 C0.0467,-17.356 0.1053,-17.564 0.2226,-17.7018 C0.34,-17.8396 0.4784,-17.9085 0.6381,-17.9085 C0.799,-17.9085 0.9358,-17.8427 1.0484,-17.711 C1.1609,-17.5794 1.2172,-17.3785 1.2172,-17.1084 C1.2172,-16.811 1.1599,-16.5927 1.0453,-16.4535 C0.9307,-16.3144 0.7895,-16.2448 0.6217,-16.2448 C0.458,-16.2448 0.3212,-16.3116 0.2114,-16.4453 C0.1016,-16.579 0.0467,-16.7898 0.0467,-17.0777 M3.6194,-17.4624 L4,-17.5095 C3.94,-17.7318 3.8288,-17.9044 3.6665,-18.0272 C3.5041,-18.15 3.2968,-18.2114 3.0444,-18.2114 C2.7265,-18.2114 2.4744,-18.1135 2.2882,-17.9177 C2.102,-17.7219 2.0089,-17.4474 2.0089,-17.094 C2.0089,-16.7284 2.103,-16.4447 2.2913,-16.2427 C2.4796,-16.0408 2.7238,-15.9399 3.0239,-15.9399 C3.3145,-15.9399 3.5519,-16.0388 3.736,-16.2366 C3.9202,-16.4344 4.0123,-16.7127 4.0123,-17.0715 C4.0123,-17.0934 4.0116,-17.1261 4.0103,-17.1698 L2.3895,-17.1698 C2.4032,-17.4085 2.4707,-17.5913 2.5921,-17.7182 C2.7135,-17.8451 2.865,-17.9085 3.0464,-17.9085 C3.1815,-17.9085 3.2968,-17.873 3.3923,-17.8021 C3.4877,-17.7311 3.5635,-17.6179 3.6194,-17.4624 M2.41,-16.8669 L3.6235,-16.8669 C3.6071,-16.6841 3.5607,-16.547 3.4843,-16.4556 C3.367,-16.3137 3.2149,-16.2427 3.028,-16.2427 C2.8588,-16.2427 2.7166,-16.2994 2.6013,-16.4126 C2.486,-16.5258 2.4223,-16.6773 2.41,-16.8669" style="fill:#000000;fill-rule:nonzero;"/>
            <path d="M0,-22.8377" style="stroke:#000000;stroke-width:0.25;"/>
        </g>
        <!-- Text: Top
 -->
        <g>
            <path d="M42.743,-18.1623 L42.743,-15.5163 L41.7546,-15.5163 L41.7546,-15.1623 L44.1325,-15.1623 L44.1325,-15.5163 L43.14,-15.5163 L43.14,-18.1623 Z M43.891,-17.0756 C43.891,-16.6732 44.0029,-16.3751 44.2266,-16.1814 C44.4135,-16.0204 44.6413,-15.9399 44.9101,-15.9399 C45.2089,-15.9399 45.4531,-16.0378 45.6427,-16.2335 C45.8323,-16.4293 45.9271,-16.6998 45.9271,-17.0449 C45.9271,-17.3246 45.8852,-17.5446 45.8013,-17.7049 C45.7174,-17.8652 45.5953,-17.9897 45.435,-18.0783 C45.2747,-18.167 45.0997,-18.2114 44.9101,-18.2114 C44.6059,-18.2114 44.3599,-18.1138 44.1724,-17.9187 C43.9848,-17.7236 43.891,-17.4426 43.891,-17.0756 M44.2696,-17.0756 C44.2696,-17.3539 44.3303,-17.5623 44.4517,-17.7008 C44.5731,-17.8393 44.7259,-17.9085 44.9101,-17.9085 C45.0929,-17.9085 45.245,-17.8389 45.3664,-17.6998 C45.4878,-17.5606 45.5486,-17.3485 45.5486,-17.0633 C45.5486,-16.7946 45.4875,-16.591 45.3654,-16.4525 C45.2433,-16.314 45.0915,-16.2448 44.9101,-16.2448 C44.7259,-16.2448 44.5731,-16.3137 44.4517,-16.4515 C44.3303,-16.5893 44.2696,-16.7973 44.2696,-17.0756 M46.3587,-18.9951 L46.3587,-15.989 L46.6943,-15.989 L46.6943,-16.2714 C46.7734,-16.1609 46.8628,-16.078 46.9624,-16.0228 C47.062,-15.9675 47.1827,-15.9399 47.3246,-15.9399 C47.5101,-15.9399 47.6738,-15.9876 47.8157,-16.0831 C47.9576,-16.1786 48.0647,-16.3133 48.137,-16.4873 C48.2093,-16.6612 48.2454,-16.8519 48.2454,-17.0592 C48.2454,-17.2816 48.2055,-17.4818 48.1257,-17.6599 C48.0459,-17.8379 47.93,-17.9743 47.7778,-18.0691 C47.6257,-18.164 47.4658,-18.2114 47.298,-18.2114 C47.1752,-18.2114 47.065,-18.1854 46.9675,-18.1336 C46.8699,-18.0818 46.7898,-18.0163 46.727,-17.9371 L46.727,-18.9951 Z M46.6922,-17.0879 C46.6922,-17.3676 46.7489,-17.5743 46.8621,-17.708 C46.9753,-17.8417 47.1124,-17.9085 47.2734,-17.9085 C47.4371,-17.9085 47.5773,-17.8393 47.6939,-17.7008 C47.8106,-17.5623 47.8689,-17.3478 47.8689,-17.0572 C47.8689,-16.7803 47.812,-16.5729 47.698,-16.4351 C47.5841,-16.2973 47.448,-16.2284 47.2898,-16.2284 C47.1329,-16.2284 46.9941,-16.3017 46.8733,-16.4484 C46.7526,-16.5951 46.6922,-16.8082 46.6922,-17.0879" style="fill:#000000;fill-rule:nonzero;"/>
            <path d="M45,-22.8377" style="stroke:#000000;stroke-width:0.25;"/>
        </g>
        <!-- Line -->
        <path d="M-7.5,0 L7.5,0 " style="stroke:#000000;stroke-width:0.09;"/>
        <!-- Line -->
        <path d="M7.5,0 L7.5,2.5 " style="stroke:#000000;stroke-width:0.09;"/>
        <!-- Line -->
        <path d="M-5,4.4 L-7.5,2.5 " style="stroke:#000000;stroke-width:0.09;"/>
        <!-- Line -->
        <path d="M-7.5,2.5 L-7.5,0 " style="stroke:#000000;stroke-width:0.09;"/>
        <!-- Line -->
        <path d="M7.5,2.5 L5,4.4 " style="stroke:#000000;stroke-width:0.09;"/>
        <!-- Line -->
        <path d="M-5,1.5 L5,1.5 " style="stroke:#000000;stroke-width:0.09;"/>
        <!-- Line -->
        <path d="M5,1.5 L5,1.5 " style="stroke:#000000;stroke-width:0.09;"/>
        <!-- Line -->
        <path d="M5,1.5 L-5,1.5 " style="stroke:#000000;stroke-width:0.09;"/>
        <!-- Line -->
        <path d="M-5,1.5 L-5,1.5 " style="stroke:#000000;stroke-width:0.09;"/>
        <!-- Line -->
        <path d="M-5,4.4 L5,4.4 " style="stroke:#000000;stroke-width:0.09;"/>
        <!-- Line -->
        <path d="M-5,4.4 L-5,1.5 " style="stroke:#000000;stroke-width:0.09;"/>
        <!-- Line -->
        <path d="M5,1.5 L5,4.4 " style="stroke:#000000;stroke-width:0.09;"/>
        <!-- Line -->
        <path d="M-2.6,0 L2.6,0 " style="stroke:#000000;stroke-width:0.09;"/>
        <!-- Line -->
        <path d="M2.6,0 L2.6,1.5 " style="stroke:#000000;stroke-width:0.09;"/>
        <!-- Line -->
        <path d="M2.6,1.5 L-2.6,1.5 " style="stroke:#000000;stroke-width:0.09;"/>
        <!-- Line -->
        <path d="M-2.6,1.5 L-2.6,0 " style="stroke:#000000;stroke-width:0.09;"/>
        <!-- Aligned Dimension -->
        <g>
            <g>
                <path d="M-0.8333,-1.875 L-1.9444,-1.875 L-1.9444,-2.9861 L-1.3889,-2.9861 C-1.3616,-2.9861 -1.3073,-2.9915 -1.2805,-2.9968 C-1.2538,-3.0021 -1.2015,-3.018 -1.1763,-3.0284 C-1.1511,-3.0388 -1.1029,-3.0646 -1.0803,-3.0797 C-1.0576,-3.0949 -1.0154,-3.1295 -0.9961,-3.1488 C-0.9768,-3.1681 -0.9421,-3.2103 -0.927,-3.233 C-0.9118,-3.2557 -0.8861,-3.3038 -0.8756,-3.3291 C-0.8652,-3.3543 -0.8493,-3.4065 -0.844,-3.4333 C-0.8387,-3.46 -0.8333,-3.5144 -0.8333,-3.5417 L-0.8333,-3.8194 C-0.8333,-3.8467 -0.8387,-3.901 -0.844,-3.9278 C-0.8493,-3.9546 -0.8652,-4.0068 -0.8756,-4.032 C-0.8861,-4.0572 -0.9118,-4.1054 -0.927,-4.1281 C-0.9421,-4.1508 -0.9767,-4.193 -0.996,-4.2123 C-1.0153,-4.2316 -1.0575,-4.2662 -1.0802,-4.2814 C-1.1029,-4.2965 -1.1511,-4.3223 -1.1763,-4.3327 C-1.2015,-4.3432 -1.2537,-4.359 -1.2805,-4.3643 C-1.3073,-4.3696 -1.3616,-4.375 -1.3889,-4.375 L-1.9444,-4.375 M0,-4.375 L0,-4.2361 M1.9444,-4.375 L0.8333,-4.375 L1.9069,-2.5286 C1.9138,-2.5168 1.9251,-2.492 1.9295,-2.4791 C1.9339,-2.4662 1.9402,-2.4397 1.942,-2.4262 C1.9438,-2.4127 1.9448,-2.3854 1.9439,-2.3718 C1.9431,-2.3582 1.9387,-2.3313 1.9352,-2.3181 C1.9335,-2.3114 1.9292,-2.2982 1.9268,-2.2918 C1.92,-2.2653 1.9012,-2.2141 1.8894,-2.1895 C1.8775,-2.1649 1.8491,-2.1183 1.8327,-2.0965 C1.8163,-2.0747 1.7794,-2.0345 1.759,-2.0163 C1.7386,-1.9981 1.6946,-1.9659 1.6711,-1.9521 C1.6475,-1.9382 1.598,-1.9152 1.5723,-1.9062 C1.5465,-1.8972 1.4935,-1.8843 1.4664,-1.8805 C1.4394,-1.8767 1.3849,-1.8744 1.3576,-1.8759 C1.3304,-1.8775 1.2764,-1.8859 1.25,-1.8927 C1.2236,-1.8995 1.1723,-1.9183 1.1477,-1.9301 C1.1231,-1.942 1.0765,-1.9704 1.0547,-1.9868 C1.0329,-2.0032 0.9927,-2.0401 0.9746,-2.0605 C0.9564,-2.0809 0.9242,-2.1249 0.9103,-2.1484 C0.8964,-2.172 0.8735,-2.2215 0.8645,-2.2472 C0.8606,-2.2581 0.8539,-2.2803 0.851,-2.2914" style="stroke:#808080;stroke-width:0.13;"/>
            </g>
            <path d="M-2.6,-5 L-5.1,-5.4163 L-5.1,-4.5837 Z" style="stroke:#808080;stroke-width:0.13;fill:#808080;fill-rule:evenodd;"/>
            <path d="M2.6,-5 L5.1,-4.5837 L5.1,-5.4163 Z" style="stroke:#808080;stroke-width:0.13;fill:#808080;fill-rule:evenodd;"/>
        </g>
        <path d="M-2.6,-0.625 L-2.6,-6.25 M2.6,-0.625 L2.6,-6.25 M-7.6,-5 L7.6,-5 " style="stroke:#808080;stroke-width:0.13;"/>
        <!-- Aligned Dimension -->
        <g>
            <g>
                <path d="M-1.25,-7.4306 L-0.6944,-6.875 L-0.6944,-9.375 M1.25,-6.875 L0.1389,-6.875 L0.1389,-7.9861 L0.6944,-7.9861 C0.7217,-7.9861 0.776,-7.9915 0.8028,-7.9968 C0.8296,-8.0021 0.8818,-8.018 0.907,-8.0284 C0.9322,-8.0388 0.9804,-8.0646 1.0031,-8.0797 C1.0258,-8.0949 1.068,-8.1295 1.0873,-8.1488 C1.1066,-8.1681 1.1412,-8.2103 1.1564,-8.233 C1.1715,-8.2557 1.1973,-8.3038 1.2077,-8.3291 C1.2182,-8.3543 1.234,-8.4065 1.2393,-8.4333 C1.2446,-8.46 1.25,-8.5144 1.25,-8.5417 L1.25,-8.8194 C1.25,-8.8467 1.2447,-8.901 1.2393,-8.9278 C1.234,-8.9546 1.2182,-9.0068 1.2077,-9.032 C1.1973,-9.0572 1.1715,-9.1054 1.1564,-9.1281 C1.1412,-9.1508 1.1066,-9.193 1.0873,-9.2123 C1.068,-9.2316 1.0258,-9.2662 1.0031,-9.2814 C0.9804,-9.2965 0.9323,-9.3223 0.9071,-9.3327 C0.8818,-9.3432 0.8296,-9.359 0.8028,-9.3643 C0.7761,-9.3696 0.7217,-9.375 0.6944,-9.375 L0.1389,-9.375" style="stroke:#808080;stroke-width:0.13;"/>
            </g>
            <path d="M-7.5,-10 L-5,-9.5837 L-5,-10.4163 Z" style="stroke:#808080;stroke-width:0.13;fill:#808080;fill-rule:evenodd;"/>
            <path d="M7.5,-10 L5,-10.4163 L5,-9.5837 Z" style="stroke:#808080;stroke-width:0.13;fill:#808080;fill-rule:evenodd;"/>
        </g>
        <path d="M-7.5,-0.625 L-7.5,-11.25 M7.5,-0.625 L7.5,-11.25 M-7.5,-10 L7.5,-10 " style="stroke:#808080;stroke-width:0.13;"/>
        <!-- Aligned Dimension -->
        <g>
            <g>
                <path d="M-1.25,11.7694 L-0.6944,12.325 L-0.6944,9.825 M0.4402,12.1869 C0.401,12.1345 0.3332,12.0224 0.305,11.9634 C0.2767,11.9043 0.2321,11.7812 0.2159,11.7178 C0.2105,11.6963 0.201,11.653 0.1969,11.6312 C0.17,11.5059 0.1411,11.2512 0.1392,11.1231 C0.139,11.1112 0.1389,11.0874 0.1389,11.0755 C0.1384,10.9473 0.1625,10.692 0.187,10.5661 C0.1893,10.5545 0.1941,10.5311 0.1965,10.5195 C0.2085,10.4551 0.2448,10.3293 0.2691,10.2685 C0.2934,10.2076 0.3536,10.0913 0.3893,10.0364 C0.4013,10.0178 0.4267,9.9815 0.44,9.9637 C0.448,9.9512 0.4664,9.9279 0.4768,9.9172 C0.4871,9.9065 0.5097,9.8873 0.5219,9.8788 C0.5341,9.8703 0.5601,9.8558 0.5737,9.8499 C0.5874,9.844 0.6156,9.8348 0.6302,9.8317 C0.6447,9.8285 0.6742,9.8251 0.6891,9.8248 C0.7039,9.8245 0.7336,9.8269 0.7482,9.8296 C0.7628,9.8322 0.7914,9.8403 0.8053,9.8458 C0.8191,9.8512 0.8456,9.8647 0.8581,9.8728 C0.8706,9.8808 0.8939,9.8993 0.9046,9.9096 C0.9153,9.9199 0.9345,9.9425 0.943,9.9548 C0.9444,9.9568 0.9472,9.961 0.9486,9.9631 C0.9878,10.0155 1.0556,10.1275 1.0839,10.1866 C1.1121,10.2457 1.1568,10.3688 1.173,10.4322 C1.1784,10.4537 1.1879,10.497 1.192,10.5187 C1.2189,10.6441 1.2478,10.8987 1.2497,11.0269 C1.2499,11.0388 1.25,11.0626 1.25,11.0745 C1.2505,11.2028 1.2263,11.4582 1.2018,11.584 C1.1995,11.5957 1.1947,11.6191 1.1922,11.6307 C1.1803,11.6952 1.1438,11.8211 1.1195,11.882 C1.0952,11.9428 1.0349,12.0592 0.9992,12.1142 C0.9873,12.1326 0.9622,12.1685 0.9491,12.186 C0.941,12.1986 0.9226,12.2219 0.9123,12.2326 C0.902,12.2433 0.8793,12.2626 0.8671,12.2711 C0.8549,12.2796 0.829,12.2941 0.8153,12.3 C0.8017,12.306 0.7734,12.3151 0.7589,12.3183 C0.7444,12.3215 0.7148,12.3249 0.7,12.3252 C0.6851,12.3255 0.6555,12.3231 0.6408,12.3205 C0.6262,12.3178 0.5976,12.3097 0.5838,12.3043 C0.5699,12.2989 0.5434,12.2853 0.5309,12.2773 C0.5184,12.2693 0.4951,12.2509 0.4844,12.2405 C0.4737,12.2302 0.4544,12.2076 0.4459,12.1954 C0.4444,12.1933 0.4416,12.1891 0.4402,12.1869" style="stroke:#808080;stroke-width:0.13;"/>
            </g>
            <path d="M-5,9.2 L-2.5,9.6163 L-2.5,8.7837 Z" style="stroke:#808080;stroke-width:0.13;fill:#808080;fill-rule:evenodd;"/>
            <path d="M5,9.2 L2.5,8.7837 L2.5,9.6163 Z" style="stroke:#808080;stroke-width:0.13;fill:#808080;fill-rule:evenodd;"/>
        </g>
        <path d="M-5,4.825 L-5,10.45 M5,4.825 L5,10.45 M-5,9.2 L5,9.2 " style="stroke:#808080;stroke-width:0.13;"/>
        <!-- Aligned Dimension -->
        <g>
            <g>
                <path d="M13.375,-3.4028 L13.375,-4.5139 L11.5286,-3.4403 C11.5168,-3.4334 11.492,-3.4221 11.4791,-3.4177 C11.4662,-3.4133 11.4397,-3.407 11.4262,-3.4052 C11.4127,-3.4034 11.3854,-3.4024 11.3718,-3.4033 C11.3582,-3.4041 11.3313,-3.4085 11.3181,-3.412 C11.3114,-3.4138 11.2982,-3.418 11.2918,-3.4204 C11.2653,-3.4272 11.2141,-3.446 11.1895,-3.4578 C11.1649,-3.4697 11.1183,-3.4981 11.0965,-3.5145 C11.0747,-3.5309 11.0345,-3.5679 11.0163,-3.5882 C10.9981,-3.6086 10.9659,-3.6527 10.9521,-3.6762 C10.9382,-3.6997 10.9152,-3.7492 10.9062,-3.775 C10.8972,-3.8007 10.8843,-3.8538 10.8805,-3.8808 C10.8767,-3.9078 10.8744,-3.9624 10.8759,-3.9896 C10.8775,-4.0169 10.8859,-4.0708 10.8927,-4.0972 C10.8995,-4.1236 10.9183,-4.1749 10.9301,-4.1995 C10.942,-4.2241 10.9704,-4.2707 10.9868,-4.2925 C11.0032,-4.3143 11.0401,-4.3545 11.0605,-4.3727 C11.0809,-4.3909 11.1249,-4.4231 11.1484,-4.4369 C11.172,-4.4508 11.2215,-4.4738 11.2472,-4.4828 C11.2581,-4.4866 11.2803,-4.4933 11.2914,-4.4962 M13.375,-2.5694 L13.2361,-2.5694 M10.875,-0.625 L10.875,-1.7361 L11.9861,-1.7361 L11.9861,-1.1806 C11.9861,-1.1533 11.9915,-1.099 11.9968,-1.0722 C12.0021,-1.0454 12.018,-0.9932 12.0284,-0.968 C12.0388,-0.9428 12.0646,-0.8946 12.0797,-0.8719 C12.0949,-0.8492 12.1295,-0.807 12.1488,-0.7877 C12.1681,-0.7684 12.2103,-0.7338 12.233,-0.7186 C12.2557,-0.7035 12.3038,-0.6777 12.3291,-0.6673 C12.3543,-0.6568 12.4065,-0.641 12.4333,-0.6357 C12.46,-0.6304 12.5144,-0.625 12.5417,-0.625 L12.8194,-0.625 C12.8467,-0.625 12.901,-0.6303 12.9278,-0.6357 C12.9546,-0.641 13.0068,-0.6568 13.032,-0.6673 C13.0572,-0.6777 13.1054,-0.7035 13.1281,-0.7186 C13.1508,-0.7338 13.193,-0.7684 13.2123,-0.7877 C13.2316,-0.807 13.2662,-0.8492 13.2814,-0.8719 C13.2965,-0.8946 13.3223,-0.9427 13.3327,-0.9679 C13.3432,-0.9932 13.359,-1.0454 13.3643,-1.0722 C13.3696,-1.0989 13.375,-1.1533 13.375,-1.1806 L13.375,-1.7361" style="stroke:#808080;stroke-width:0.13;"/>
            </g>
            <path d="M14,2.5 L13.5837,5 L14.4163,5 Z" style="stroke:#808080;stroke-width:0.13;fill:#808080;fill-rule:evenodd;"/>
            <path d="M14,0 L14.4163,-2.5 L13.5837,-2.5 Z" style="stroke:#808080;stroke-width:0.13;fill:#808080;fill-rule:evenodd;"/>
        </g>
        <path d="M9.625,2.5 L15.25,2.5 M9.625,0 L15.25,0 M14,7.5 L14,-5 " style="stroke:#808080;stroke-width:0.13;"/>
        <!-- Aligned Dimension -->
        <g>
            <g>
                <path d="M16.4305,-1.4583 L15.875,-0.9028 L18.375,-0.9028 M18.375,-0.0694 L18.2361,-0.0694 M18.375,1.0417 C18.3341,1.1126 18.2387,1.2457 18.1847,1.3073 C18.1307,1.3688 18.0111,1.4808 17.9461,1.5306 C17.8812,1.5805 17.7421,1.667 17.6686,1.7032 C17.5952,1.7394 17.4419,1.7971 17.3628,1.8182 C17.2837,1.8394 17.1221,1.8661 17.0404,1.8714 C17.0132,1.8732 16.9588,1.875 16.9316,1.875 L16.4305,1.875 C16.4032,1.875 16.3489,1.8696 16.3221,1.8643 C16.2954,1.859 16.2431,1.8432 16.2179,1.8327 C16.1927,1.8223 16.1446,1.7965 16.1219,1.7814 C16.0992,1.7662 16.057,1.7316 16.0377,1.7123 C16.0184,1.693 15.9838,1.6508 15.9686,1.6281 C15.9534,1.6054 15.9277,1.5573 15.9173,1.532 C15.9068,1.5068 15.891,1.4546 15.8856,1.4278 C15.8803,1.4011 15.875,1.3467 15.875,1.3194 C15.875,1.2922 15.8803,1.2378 15.8856,1.2111 C15.891,1.1843 15.9068,1.1321 15.9173,1.1068 C15.9277,1.0816 15.9534,1.0335 15.9686,1.0108 C15.9838,0.9881 16.0184,0.9459 16.0377,0.9266 C16.057,0.9073 16.0992,0.8727 16.1219,0.8575 C16.1446,0.8424 16.1927,0.8166 16.2179,0.8062 C16.2431,0.7957 16.2954,0.7799 16.3221,0.7746 C16.3489,0.7692 16.4032,0.7639 16.4305,0.7639 L16.7083,0.7639 C16.7356,0.7639 16.7899,0.7692 16.8167,0.7746 C16.8435,0.7799 16.8957,0.7957 16.9209,0.8062 C16.9461,0.8166 16.9943,0.8424 17.017,0.8575 C17.0397,0.8727 17.0818,0.9073 17.1011,0.9266 C17.1204,0.9459 17.1551,0.9881 17.1702,1.0108 C17.1854,1.0335 17.2111,1.0816 17.2216,1.1069 C17.232,1.1321 17.2479,1.1843 17.2532,1.2111 C17.2585,1.2378 17.2639,1.2922 17.2639,1.3194 L17.2639,1.8417" style="stroke:#808080;stroke-width:0.13;"/>
            </g>
            <path d="M19,4.4 L18.5837,6.9 L19.4163,6.9 Z" style="stroke:#808080;stroke-width:0.13;fill:#808080;fill-rule:evenodd;"/>
            <path d="M19,2.5 L19.4163,0 L18.5837,0 Z" style="stroke:#808080;stroke-width:0.13;fill:#808080;fill-rule:evenodd;"/>
        </g>
        <path d="M9.625,4.4 L20.25,4.4 M9.625,2.5 L20.25,2.5 M19,9.4 L19,-2.5 " style="stroke:#808080;stroke-width:0.13;"/>
        <!-- Aligned Dimension -->
        <g>
            <g>
                <path d="M7.2778,14.825 L7.2778,15.9361 M7.6944,15.3806 L6.3056,15.3806 L6.8611,17.325" style="stroke:#808080;stroke-width:0.13;"/>
            </g>
            <path d="M9,14.2 L11.5,14.6163 L11.5,13.7837 Z" style="stroke:#808080;stroke-width:0.13;fill:#808080;fill-rule:evenodd;"/>
            <path d="M5,14.2 L2.5,13.7837 L2.5,14.6163 Z" style="stroke:#808080;stroke-width:0.13;fill:#808080;fill-rule:evenodd;"/>
        </g>
        <path d="M9,4.825 L9,15.45 M5,4.825 L5,15.45 M14,14.2 L0,14.2 " style="stroke:#808080;stroke-width:0.13;"/>
        <!-- Aligned Dimension -->
        <g>
            <g>
                <path d="M-14.625,-4.0972 L-15.7361,-4.0972 M-15.1806,-3.6806 L-15.1806,-5.0694 L-17.125,-4.5139 M-14.625,-2.8472 L-14.7639,-2.8472 M-14.625,-1.0417 L-15.7361,-1.0417 M-15.1806,-0.625 L-15.1806,-2.0139 L-17.125,-1.4583" style="stroke:#808080;stroke-width:0.13;"/>
            </g>
            <path d="M-14,4.4 L-14.4163,6.9 L-13.5837,6.9 Z" style="stroke:#808080;stroke-width:0.13;fill:#808080;fill-rule:evenodd;"/>
            <path d="M-14,0 L-13.5837,-2.5 L-14.4163,-2.5 Z" style="stroke:#808080;stroke-width:0.13;fill:#808080;fill-rule:evenodd;"/>
        </g>
        <path d="M-9.625,4.4 L-15.25,4.4 M-9.625,0 L-15.25,0 M-14,9.4 L-14,-5 " style="stroke:#808080;stroke-width:0.13;"/>
        <!-- Circle -->
        <circle cx="45" cy="0" r="7.5" style="stroke:#000000;stroke-width:0.09;"/>
        <!-- Circle -->
        <circle cx="45" cy="0" r="5.000000000008122" style="stroke:#000000;stroke-width:0.09;"/>
        <!-- Circle -->
        <circle cx="45" cy="0" r="2.6" style="stroke:#000000;stroke-width:0.09;"/>
        <!-- Aligned Dimension -->
        <g>
            <g>
                <path d="M55.875,-0.8333 L55.875,-1.9444 L56.9861,-1.9444 L56.9861,-1.3889 C56.9861,-1.3616 56.9915,-1.3073 56.9968,-1.2805 C57.0021,-1.2538 57.018,-1.2015 57.0284,-1.1763 C57.0388,-1.1511 57.0646,-1.1029 57.0797,-1.0803 C57.0949,-1.0576 57.1295,-1.0154 57.1488,-0.9961 C57.1681,-0.9768 57.2103,-0.9421 57.233,-0.927 C57.2557,-0.9118 57.3038,-0.8861 57.3291,-0.8756 C57.3543,-0.8652 57.4065,-0.8493 57.4333,-0.844 C57.46,-0.8387 57.5144,-0.8333 57.5417,-0.8333 L57.8194,-0.8333 C57.8467,-0.8333 57.901,-0.8387 57.9278,-0.844 C57.9546,-0.8493 58.0068,-0.8652 58.032,-0.8756 C58.0572,-0.8861 58.1054,-0.9118 58.1281,-0.927 C58.1508,-0.9421 58.193,-0.9767 58.2123,-0.996 C58.2316,-1.0153 58.2662,-1.0575 58.2814,-1.0802 C58.2965,-1.1029 58.3223,-1.1511 58.3327,-1.1763 C58.3432,-1.2015 58.359,-1.2537 58.3643,-1.2805 C58.3696,-1.3073 58.375,-1.3616 58.375,-1.3889 L58.375,-1.9444 M58.375,0 L58.2361,0 M58.375,1.9444 L58.375,0.8333 L56.5286,1.9069 C56.5168,1.9138 56.492,1.9251 56.4791,1.9295 C56.4662,1.9339 56.4397,1.9402 56.4262,1.942 C56.4127,1.9438 56.3854,1.9448 56.3718,1.9439 C56.3582,1.9431 56.3313,1.9387 56.3181,1.9352 C56.3114,1.9335 56.2982,1.9292 56.2918,1.9268 C56.2653,1.92 56.2141,1.9012 56.1895,1.8894 C56.1649,1.8775 56.1183,1.8491 56.0965,1.8327 C56.0747,1.8163 56.0345,1.7794 56.0163,1.759 C55.9981,1.7386 55.9659,1.6946 55.9521,1.6711 C55.9382,1.6475 55.9152,1.598 55.9062,1.5723 C55.8972,1.5465 55.8843,1.4935 55.8805,1.4664 C55.8767,1.4394 55.8744,1.3849 55.8759,1.3576 C55.8775,1.3304 55.8859,1.2764 55.8927,1.25 C55.8995,1.2236 55.9183,1.1723 55.9301,1.1477 C55.942,1.1231 55.9704,1.0765 55.9868,1.0547 C56.0032,1.0329 56.0401,0.9927 56.0605,0.9746 C56.0809,0.9564 56.1249,0.9242 56.1484,0.9103 C56.172,0.8964 56.2215,0.8735 56.2472,0.8645 C56.2581,0.8606 56.2803,0.8539 56.2914,0.851" style="stroke:#808080;stroke-width:0.13;"/>
            </g>
            <path d="M59,2.6 L58.5837,5.1 L59.4163,5.1 Z" style="stroke:#808080;stroke-width:0.13;fill:#808080;fill-rule:evenodd;"/>
            <path d="M59,-2.6 L59.4163,-5.1 L58.5837,-5.1 Z" style="stroke:#808080;stroke-width:0.13;fill:#808080;fill-rule:evenodd;"/>
        </g>
        <path d="M45.625,2.6 L60.25,2.6 M45.625,-2.6 L60.25,-2.6 M59,7.6 L59,-7.6 " style="stroke:#808080;stroke-width:0.13;"/>
        <!-- Aligned Dimension -->
        <g>
            <g>
                <path d="M43.75,16.5694 L44.3056,17.125 L44.3056,14.625 M45.4402,16.9869 C45.401,16.9345 45.3332,16.8224 45.305,16.7634 C45.2767,16.7043 45.2321,16.5812 45.2159,16.5178 C45.2105,16.4963 45.201,16.453 45.1969,16.4312 C45.17,16.3059 45.1411,16.0512 45.1392,15.9231 C45.139,15.9112 45.1389,15.8874 45.1389,15.8755 C45.1384,15.7473 45.1625,15.492 45.187,15.3661 C45.1893,15.3545 45.1941,15.3311 45.1965,15.3195 C45.2085,15.2551 45.2448,15.1293 45.2691,15.0685 C45.2934,15.0076 45.3536,14.8913 45.3893,14.8364 C45.4013,14.8178 45.4267,14.7815 45.44,14.7637 C45.448,14.7512 45.4664,14.7279 45.4768,14.7172 C45.4871,14.7065 45.5097,14.6873 45.5219,14.6788 C45.5341,14.6703 45.5601,14.6558 45.5737,14.6499 C45.5874,14.644 45.6156,14.6348 45.6302,14.6317 C45.6447,14.6285 45.6742,14.6251 45.6891,14.6248 C45.7039,14.6245 45.7336,14.6269 45.7482,14.6296 C45.7628,14.6322 45.7914,14.6403 45.8053,14.6458 C45.8191,14.6512 45.8456,14.6647 45.8581,14.6728 C45.8706,14.6808 45.8939,14.6993 45.9046,14.7096 C45.9153,14.7199 45.9345,14.7425 45.943,14.7548 C45.9444,14.7568 45.9472,14.761 45.9486,14.7631 C45.9878,14.8155 46.0556,14.9275 46.0839,14.9866 C46.1121,15.0457 46.1568,15.1688 46.173,15.2322 C46.1784,15.2537 46.1879,15.297 46.192,15.3187 C46.2189,15.4441 46.2478,15.6987 46.2497,15.8269 C46.2499,15.8388 46.25,15.8626 46.25,15.8745 C46.2505,16.0028 46.2263,16.2582 46.2018,16.384 C46.1995,16.3957 46.1947,16.4191 46.1922,16.4307 C46.1803,16.4952 46.1438,16.6211 46.1195,16.682 C46.0952,16.7428 46.0349,16.8592 45.9992,16.9142 C45.9873,16.9326 45.9622,16.9685 45.9491,16.986 C45.941,16.9986 45.9226,17.0219 45.9123,17.0326 C45.902,17.0433 45.8793,17.0626 45.8671,17.0711 C45.8549,17.0796 45.829,17.0941 45.8153,17.1 C45.8017,17.106 45.7734,17.1151 45.7589,17.1183 C45.7444,17.1215 45.7148,17.1249 45.7,17.1252 C45.6851,17.1255 45.6555,17.1231 45.6408,17.1205 C45.6262,17.1178 45.5976,17.1097 45.5838,17.1043 C45.5699,17.0989 45.5434,17.0853 45.5309,17.0773 C45.5184,17.0693 45.4951,17.0509 45.4844,17.0405 C45.4737,17.0302 45.4544,17.0076 45.4459,16.9954 C45.4444,16.9933 45.4416,16.9891 45.4402,16.9869" style="stroke:#808080;stroke-width:0.13;"/>
            </g>
            <path d="M40,14 L42.5,14.4163 L42.5,13.5837 Z" style="stroke:#808080;stroke-width:0.13;fill:#808080;fill-rule:evenodd;"/>
            <path d="M50,14 L47.5,13.5837 L47.5,14.4163 Z" style="stroke:#808080;stroke-width:0.13;fill:#808080;fill-rule:evenodd;"/>
        </g>
        <path d="M40,0.625 L40,15.25 M50,0.625 L50,15.25 M40,14 L50,14 " style="stroke:#808080;stroke-width:0.13;"/>
        <!-- Aligned Dimension -->
        <g>
            <g>
                <path d="M28.4306,-1.25 L27.875,-0.6944 L30.375,-0.6944 M27.875,1.25 L27.875,0.1389 L28.9861,0.1389 L28.9861,0.6944 C28.9861,0.7217 28.9915,0.776 28.9968,0.8028 C29.0021,0.8296 29.018,0.8818 29.0284,0.907 C29.0388,0.9322 29.0646,0.9804 29.0797,1.0031 C29.0949,1.0258 29.1295,1.068 29.1488,1.0873 C29.1681,1.1066 29.2103,1.1412 29.233,1.1564 C29.2557,1.1715 29.3038,1.1973 29.3291,1.2077 C29.3543,1.2182 29.4065,1.234 29.4333,1.2393 C29.46,1.2446 29.5144,1.25 29.5417,1.25 L29.8194,1.25 C29.8467,1.25 29.901,1.2447 29.9278,1.2393 C29.9546,1.234 30.0068,1.2182 30.032,1.2077 C30.0572,1.1973 30.1054,1.1715 30.1281,1.1564 C30.1508,1.1412 30.193,1.1066 30.2123,1.0873 C30.2316,1.068 30.2662,1.0258 30.2814,1.0031 C30.2965,0.9804 30.3223,0.9323 30.3327,0.9071 C30.3432,0.8818 30.359,0.8296 30.3643,0.8028 C30.3696,0.7761 30.375,0.7217 30.375,0.6944 L30.375,0.1389" style="stroke:#808080;stroke-width:0.13;"/>
            </g>
            <path d="M31,7.5 L31.4163,5 L30.5837,5 Z" style="stroke:#808080;stroke-width:0.13;fill:#808080;fill-rule:evenodd;"/>
            <path d="M31,-7.5 L30.5837,-5 L31.4163,-5 Z" style="stroke:#808080;stroke-width:0.13;fill:#808080;fill-rule:evenodd;"/>
        </g>
        <path d="M44.375,7.5 L29.75,7.5 M44.375,-7.5 L29.75,-7.5 M31,7.5 L31,-7.5 " style="stroke:#808080;stroke-width:0.13;"/>
        <!-- Line -->
        <path d="M-20,22 L66,22 " style="stroke:#000000;stroke-width:0.09;"/>
        <!-- Line -->
        <path d="M66,22 L66,-24 " style="stroke:#000000;stroke-width:0.09;"/>
        <!-- Line -->
        <path d="M66,-24 L-20,-24 " style="stroke:#000000;stroke-width:0.09;"/>
        <!-- Line -->
        <path d="M-20,-24 L-20,22 " style="stroke:#000000;stroke-width:0.09;"/>
    </g>
</svg>
