<?xml version="1.0" encoding="UTF-8"?>
<!-- Sun Feb 1 19:59:11 2026 Generated by QCAD 3.32.6 SVG Exporter -->
<svg width="230mm" height="110mm" viewBox="-40 -70 230 110" version="1.1" xmlns="http://www.w3.org/2000/svg" style="stroke-linecap:round;stroke-linejoin:round;fill:none">
    <g transform="scale(1,-1)">
        <!-- Text: Side -->
        <g>
            <path d="M-0.3497,-30.7149 L0.1496,-30.6712 C0.1732,-30.8713 0.2282,-31.0355 0.3147,-31.1637 C0.4011,-31.292 0.5352,-31.3956 0.7171,-31.4748 C0.899,-31.5539 1.1036,-31.5935 1.331,-31.5935 C1.5329,-31.5935 1.7112,-31.5634 1.8658,-31.5034 C2.0204,-31.4434 2.1355,-31.3611 2.211,-31.2565 C2.2865,-31.1519 2.3242,-31.0377 2.3242,-30.9141 C2.3242,-30.7885 2.2878,-30.6789 2.2151,-30.5853 C2.1423,-30.4916 2.0222,-30.4129 1.8549,-30.3492 C1.7476,-30.3074 1.5102,-30.2424 1.1428,-30.1542 C0.7753,-30.0659 0.5179,-29.9827 0.3706,-29.9045 C0.1796,-29.8045 0.0373,-29.6803 -0.0564,-29.5321 C-0.1501,-29.3838 -0.1969,-29.2178 -0.1969,-29.0341 C-0.1969,-28.8322 -0.1396,-28.6435 -0.025,-28.4679 C0.0895,-28.2924 0.2569,-28.1592 0.477,-28.0682 C0.6971,-27.9773 0.9418,-27.9318 1.211,-27.9318 C1.5075,-27.9318 1.7689,-27.9795 1.9954,-28.075 C2.2219,-28.1705 2.3961,-28.3111 2.5179,-28.4966 C2.6398,-28.6821 2.7053,-28.8922 2.7144,-29.1269 L2.2069,-29.1651 C2.1796,-28.9122 2.0873,-28.7212 1.9299,-28.5921 C1.7726,-28.4629 1.5402,-28.3984 1.2328,-28.3984 C0.9127,-28.3984 0.6794,-28.457 0.5329,-28.5744 C0.3865,-28.6917 0.3133,-28.8331 0.3133,-28.9986 C0.3133,-29.1423 0.3651,-29.2606 0.4688,-29.3533 C0.5707,-29.4461 0.8367,-29.5412 1.2669,-29.6385 C1.6971,-29.7358 1.9922,-29.8208 2.1523,-29.8936 C2.3851,-30.0009 2.557,-30.1369 2.668,-30.3015 C2.779,-30.4661 2.8344,-30.6558 2.8344,-30.8704 C2.8344,-31.0832 2.7735,-31.2838 2.6516,-31.472 C2.5297,-31.6603 2.3547,-31.8067 2.1264,-31.9113 C1.8981,-32.0159 1.6412,-32.0682 1.3556,-32.0682 C0.9936,-32.0682 0.6903,-32.0155 0.4456,-31.91 C0.201,-31.8045 0.0091,-31.6457 -0.1301,-31.4338 C-0.2692,-31.2219 -0.3425,-30.9823 -0.3497,-30.7149 M3.4968,-28.5648 L3.4968,-28 L3.9879,-28 L3.9879,-28.5648 Z M3.4968,-32 L3.4968,-29.1023 L3.9879,-29.1023 L3.9879,-32 Z M6.6147,-32 L6.6147,-31.6344 C6.431,-31.9218 6.1609,-32.0655 5.8044,-32.0655 C5.5734,-32.0655 5.361,-32.0018 5.1673,-31.8745 C4.9735,-31.7472 4.8235,-31.5693 4.7171,-31.3411 C4.6106,-31.1128 4.5574,-30.8504 4.5574,-30.5539 C4.5574,-30.2647 4.6056,-30.0023 4.702,-29.7667 C4.7985,-29.5312 4.9431,-29.3506 5.1359,-29.2251 C5.3287,-29.0996 5.5442,-29.0368 5.7825,-29.0368 C5.9572,-29.0368 6.1127,-29.0737 6.2491,-29.1473 C6.3855,-29.221 6.4965,-29.317 6.582,-29.4352 L6.582,-28 L7.0704,-28 L7.0704,-32 Z M5.0622,-30.5539 C5.0622,-30.925 5.1404,-31.2024 5.2969,-31.3861 C5.4533,-31.5698 5.6379,-31.6617 5.8508,-31.6617 C6.0654,-31.6617 6.2477,-31.5739 6.3978,-31.3984 C6.5479,-31.2228 6.6229,-30.955 6.6229,-30.5948 C6.6229,-30.1983 6.5465,-29.9072 6.3937,-29.7217 C6.2409,-29.5362 6.0527,-29.4434 5.8289,-29.4434 C5.6106,-29.4434 5.4283,-29.5325 5.2819,-29.7108 C5.1354,-29.889 5.0622,-30.1701 5.0622,-30.5539 M9.8259,-31.0668 L10.3334,-31.1296 C10.2533,-31.4261 10.1051,-31.6562 9.8886,-31.8199 C9.6722,-31.9836 9.3957,-32.0655 9.0592,-32.0655 C8.6353,-32.0655 8.2993,-31.935 8.051,-31.6739 C7.8027,-31.4129 7.6785,-31.0468 7.6785,-30.5757 C7.6785,-30.0882 7.804,-29.7099 8.0551,-29.4407 C8.3061,-29.1714 8.6317,-29.0368 9.0319,-29.0368 C9.4193,-29.0368 9.7358,-29.1687 9.9814,-29.4325 C10.227,-29.6962 10.3497,-30.0673 10.3497,-30.5457 C10.3497,-30.5748 10.3488,-30.6185 10.347,-30.6767 L8.186,-30.6767 C8.2042,-30.995 8.2943,-31.2387 8.4562,-31.4079 C8.618,-31.5771 8.82,-31.6617 9.0619,-31.6617 C9.242,-31.6617 9.3957,-31.6144 9.523,-31.5198 C9.6503,-31.4252 9.7513,-31.2742 9.8259,-31.0668 M8.2133,-30.2729 L9.8313,-30.2729 C9.8095,-30.0291 9.7476,-29.8463 9.6458,-29.7244 C9.4893,-29.5352 9.2865,-29.4407 9.0373,-29.4407 C8.8118,-29.4407 8.6221,-29.5161 8.4684,-29.6671 C8.3147,-29.8181 8.2297,-30.02 8.2133,-30.2729" style="fill:#000000;fill-rule:nonzero;"/>
        </g>
        <!-- Text: Front -->
        <g>
            <path d="M118.7291,-31.9673 L118.7291,-27.9673 L121.4276,-27.9673 L121.4276,-28.4393 L119.2584,-28.4393 L119.2584,-29.678 L121.1357,-29.678 L121.1357,-30.1501 L119.2584,-30.1501 L119.2584,-31.9673 Z M122.0467,-31.9673 L122.0467,-29.0696 L122.4887,-29.0696 L122.4887,-29.5089 C122.6015,-29.3033 122.7056,-29.1678 122.8011,-29.1023 C122.8966,-29.0368 123.0016,-29.0041 123.1162,-29.0041 C123.2818,-29.0041 123.45,-29.0568 123.621,-29.1623 L123.4518,-29.618 C123.3318,-29.5471 123.2117,-29.5116 123.0917,-29.5116 C122.9844,-29.5116 122.8879,-29.5439 122.8025,-29.6085 C122.717,-29.673 122.656,-29.7626 122.6196,-29.8772 C122.5651,-30.0518 122.5378,-30.2428 122.5378,-30.4502 L122.5378,-31.9673 Z M123.7299,-30.5184 C123.7299,-29.9818 123.8791,-29.5844 124.1774,-29.3261 C124.4266,-29.1114 124.7304,-29.0041 125.0887,-29.0041 C125.4871,-29.0041 125.8127,-29.1346 126.0655,-29.3956 C126.3184,-29.6567 126.4448,-30.0173 126.4448,-30.4775 C126.4448,-30.8504 126.3889,-31.1437 126.277,-31.3574 C126.1651,-31.5712 126.0023,-31.7372 125.7886,-31.8554 C125.5749,-31.9736 125.3416,-32.0327 125.0887,-32.0327 C124.6831,-32.0327 124.3552,-31.9027 124.1051,-31.6426 C123.855,-31.3824 123.7299,-31.0077 123.7299,-30.5184 M124.2347,-30.5184 C124.2347,-30.8895 124.3157,-31.1673 124.4775,-31.352 C124.6394,-31.5366 124.8432,-31.6289 125.0887,-31.6289 C125.3325,-31.6289 125.5353,-31.5362 125.6972,-31.3506 C125.8591,-31.1651 125.94,-30.8822 125.94,-30.502 C125.94,-30.1437 125.8586,-29.8722 125.6958,-29.6876 C125.533,-29.503 125.3307,-29.4106 125.0887,-29.4106 C124.8432,-29.4106 124.6394,-29.5025 124.4775,-29.6862 C124.3157,-29.8699 124.2347,-30.1473 124.2347,-30.5184 M127.0202,-31.9673 L127.0202,-29.0696 L127.4622,-29.0696 L127.4622,-29.4816 C127.675,-29.1633 127.9824,-29.0041 128.3844,-29.0041 C128.5591,-29.0041 128.7196,-29.0355 128.866,-29.0982 C129.0125,-29.161 129.1221,-29.2433 129.1948,-29.3452 C129.2676,-29.447 129.3185,-29.568 129.3476,-29.708 C129.3658,-29.799 129.3749,-29.9582 129.3749,-30.1855 L129.3749,-31.9673 L128.8838,-31.9673 L128.8838,-30.2046 C128.8838,-30.0045 128.8647,-29.8549 128.8265,-29.7558 C128.7883,-29.6567 128.7205,-29.5775 128.6232,-29.5184 C128.5259,-29.4593 128.4117,-29.4297 128.2808,-29.4297 C128.0716,-29.4297 127.891,-29.4961 127.7392,-29.6289 C127.5873,-29.7617 127.5113,-30.0136 127.5113,-30.3847 L127.5113,-31.9673 Z M131.1999,-31.528 L131.2709,-31.9618 C131.1326,-31.9909 131.0089,-32.0055 130.8998,-32.0055 C130.7215,-32.0055 130.5833,-31.9773 130.4851,-31.9209 C130.3868,-31.8645 130.3177,-31.7904 130.2777,-31.6985 C130.2377,-31.6066 130.2177,-31.4134 130.2177,-31.1187 L130.2177,-29.4516 L129.8575,-29.4516 L129.8575,-29.0696 L130.2177,-29.0696 L130.2177,-28.352 L130.7061,-28.0573 L130.7061,-29.0696 L131.1999,-29.0696 L131.1999,-29.4516 L130.7061,-29.4516 L130.7061,-31.146 C130.7061,-31.286 130.7147,-31.3761 130.732,-31.4161 C130.7493,-31.4561 130.7775,-31.4879 130.8166,-31.5116 C130.8557,-31.5352 130.9116,-31.5471 130.9844,-31.5471 C131.039,-31.5471 131.1108,-31.5407 131.1999,-31.528" style="fill:#000000;fill-rule:nonzero;"/>
        </g>
        <!-- Line -->
        <path d="M0,0 L35,0 " style="stroke:#000000;stroke-width:0.25;"/>
        <!-- Line -->
        <path d="M35,0 L35,5.5 " style="stroke:#000000;stroke-width:0.25;"/>
        <!-- Line -->
        <path d="M33,7.5 L0,7.5 " style="stroke:#000000;stroke-width:0.25;"/>
        <!-- Line -->
        <path d="M0,42.5 L3,42.5 " style="stroke:#000000;stroke-width:0.25;"/>
        <!-- Line -->
        <path d="M5,44.5 L5,48 " style="stroke:#000000;stroke-width:0.25;"/>
        <!-- Line -->
        <path d="M3,50 L0,50 " style="stroke:#000000;stroke-width:0.25;"/>
        <!-- Arc -->
        <!-- Arc -->
        <!-- Arc -->
        <!-- Arc -->
        <!-- Arc -->
        <!-- Arc -->
        <!-- Arc -->
        <!-- Arc -->
        <!-- Arc -->
        <!-- Arc -->
        <!-- Arc -->
        <!-- Arc -->
        <path d="M0,42.5 A17.5,17.5 0 0,1 0,7.5" style="stroke:#000000;stroke-width:0.25;"/>
        <!-- Arc -->
        <path d="M0,50 A25,25 0 0,1 0,0" style="stroke:#000000;stroke-width:0.25;"/>
        <!-- Line -->
        <path d="M-5,25 L5,25 " style="stroke:#000000;stroke-width:0.25;"/>
        <!-- Line -->
        <path d="M5,25 L5,25 " style="stroke:#000000;stroke-width:0.25;"/>
        <!-- Line -->
        <path d="M0,30 L0,20 " style="stroke:#000000;stroke-width:0.25;"/>
        <!-- Line -->
        <path d="M0,20 L0,20 " style="stroke:#000000;stroke-width:0.25;"/>
        <!-- Line -->
        <path d="M0,20 L0,20 " style="stroke:#000000;stroke-width:0.25;"/>
        <!-- Line -->
        <path d="M0,20 L0,20 " style="stroke:#000000;stroke-width:0.25;"/>
        <!-- Block Reference: Screw / entities: 8 -->
        <g>
            <!-- Line -->
            <path d="M25,0 L25,0 " style="stroke:#000000;stroke-width:0.25;"/>
            <!-- Line -->
            <path d="M25,0 L25,0 " style="stroke:#000000;stroke-width:0.25;"/>
            <!-- Line -->
            <path d="M25,0 L25,0 " style="stroke:#000000;stroke-width:0.25;"/>
            <!-- Line -->
            <path d="M25,0 L25,0 " style="stroke:#000000;stroke-width:0.25;"/>
            <!-- Line -->
            <path d="M24.9,0 L30.1,0 " style="stroke:#000000;stroke-width:0.25;"/>
            <!-- Line -->
            <path d="M30.1,0 L30.1,7.5 " style="stroke:#000000;stroke-width:0.25;"/>
            <!-- Line -->
            <path d="M30.1,7.5 L24.9,7.5 " style="stroke:#000000;stroke-width:0.25;"/>
            <!-- Line -->
            <path d="M24.9,7.5 L24.9,0 " style="stroke:#000000;stroke-width:0.25;"/>
            <!-- Line -->
            <path d="M9,0 L9,0 " style="stroke:#000000;stroke-width:0.25;"/>
            <!-- Line -->
            <path d="M9,0 L9,0 " style="stroke:#000000;stroke-width:0.25;"/>
            <!-- Line -->
            <path d="M9,0 L9,0 " style="stroke:#000000;stroke-width:0.25;"/>
            <!-- Line -->
            <path d="M9,0 L9,0 " style="stroke:#000000;stroke-width:0.25;"/>
            <!-- Line -->
            <path d="M8.9,0 L14.1,0 " style="stroke:#000000;stroke-width:0.25;"/>
            <!-- Line -->
            <path d="M14.1,0 L14.1,7.5 " style="stroke:#000000;stroke-width:0.25;"/>
            <!-- Line -->
            <path d="M14.1,7.5 L8.9,7.5 " style="stroke:#000000;stroke-width:0.25;"/>
            <!-- Line -->
            <path d="M8.9,7.5 L8.9,0 " style="stroke:#000000;stroke-width:0.25;"/>
        </g>
        <!-- Aligned Dimension -->
        <g>
            <g>
                <path d="M-11.3889,27.5694 L-10.8333,28.125 L-10.8333,25.625 M-10,28.125 L-8.8889,28.125 L-9.5833,25.625 M-9.4444,27.0139 L-8.8889,27.0139 M-8.0556,25.625 L-8.0556,25.7639 M-6.1111,28.125 L-7.2222,28.125 L-7.2222,27.0139 L-6.6667,27.0139 C-6.6394,27.0139 -6.5851,27.0085 -6.5583,27.0032 C-6.5315,26.9979 -6.4793,26.982 -6.4541,26.9716 C-6.4289,26.9612 -6.3807,26.9354 -6.358,26.9203 C-6.3353,26.9051 -6.2931,26.8705 -6.2738,26.8512 C-6.2545,26.8319 -6.2199,26.7897 -6.2047,26.767 C-6.1896,26.7443 -6.1639,26.6962 -6.1534,26.6709 C-6.143,26.6457 -6.1271,26.5935 -6.1218,26.5667 C-6.1165,26.54 -6.1111,26.4856 -6.1111,26.4583 L-6.1111,26.1806 C-6.1111,26.1533 -6.1165,26.099 -6.1218,26.0722 C-6.1271,26.0454 -6.143,25.9932 -6.1534,25.968 C-6.1638,25.9428 -6.1896,25.8946 -6.2047,25.8719 C-6.2199,25.8492 -6.2545,25.807 -6.2738,25.7877 C-6.2931,25.7684 -6.3353,25.7338 -6.358,25.7186 C-6.3807,25.7035 -6.4288,25.6777 -6.4541,25.6673 C-6.4793,25.6568 -6.5315,25.641 -6.5583,25.6357 C-6.585,25.6304 -6.6394,25.625 -6.6667,25.625 L-7.2222,25.625" style="stroke:#808080;stroke-width:0.25;"/>
            </g>
            <path d="M0,25 L-2.5,24.5837 L-2.5,25.4163 Z" style="stroke:#808080;stroke-width:0.25;fill:#808080;fill-rule:evenodd;"/>
            <path d="M-17.5,25 L-15,25.4163 L-15,24.5837 Z" style="stroke:#808080;stroke-width:0.25;fill:#808080;fill-rule:evenodd;"/>
        </g>
        <path d="M0,25.625 L0,26.25 M-17.5,25.625 L-17.5,26.25 M0,25 L-17.5,25 " style="stroke:#808080;stroke-width:0.25;"/>
        <!-- Aligned Dimension -->
        <g>
            <g>
                <path d="M-12.9167,30.625 L-14.0278,30.625 L-12.9542,32.4714 C-12.9473,32.4832 -12.936,32.508 -12.9316,32.5209 C-12.9272,32.5338 -12.9209,32.5603 -12.9191,32.5738 C-12.9173,32.5873 -12.9163,32.6146 -12.9172,32.6282 C-12.918,32.6418 -12.9224,32.6687 -12.9259,32.6819 C-12.9277,32.6886 -12.9319,32.7018 -12.9343,32.7083 C-12.9411,32.7347 -12.9599,32.7859 -12.9717,32.8105 C-12.9836,32.8351 -13.012,32.8817 -13.0284,32.9035 C-13.0448,32.9253 -13.0818,32.9655 -13.1021,32.9837 C-13.1225,33.0019 -13.1665,33.0341 -13.1901,33.0479 C-13.2136,33.0618 -13.2631,33.0848 -13.2888,33.0938 C-13.3146,33.1028 -13.3677,33.1157 -13.3947,33.1195 C-13.4217,33.1233 -13.4762,33.1256 -13.5035,33.1241 C-13.5307,33.1225 -13.5847,33.1141 -13.6111,33.1073 C-13.6375,33.1005 -13.6888,33.0817 -13.7134,33.0699 C-13.738,33.058 -13.7846,33.0296 -13.8064,33.0132 C-13.8282,32.9968 -13.8684,32.9599 -13.8866,32.9395 C-13.9047,32.9191 -13.9369,32.8751 -13.9508,32.8516 C-13.9647,32.828 -13.9876,32.7785 -13.9967,32.7528 C-14.0005,32.7419 -14.0072,32.7197 -14.0101,32.7086 M-10.9722,33.125 L-12.0833,33.125 L-12.0833,32.0139 L-11.5278,32.0139 C-11.5005,32.0139 -11.4462,32.0085 -11.4194,32.0032 C-11.3926,31.9979 -11.3404,31.982 -11.3152,31.9716 C-11.29,31.9612 -11.2418,31.9354 -11.2191,31.9203 C-11.1965,31.9051 -11.1543,31.8705 -11.135,31.8512 C-11.1157,31.8319 -11.081,31.7897 -11.0659,31.767 C-11.0507,31.7443 -11.025,31.6962 -11.0145,31.6709 C-11.0041,31.6457 -10.9882,31.5935 -10.9829,31.5667 C-10.9776,31.54 -10.9722,31.4856 -10.9722,31.4583 L-10.9722,31.1806 C-10.9722,31.1533 -10.9776,31.099 -10.9829,31.0722 C-10.9882,31.0454 -11.0041,30.9932 -11.0145,30.968 C-11.025,30.9428 -11.0507,30.8946 -11.0658,30.8719 C-11.081,30.8492 -11.1156,30.807 -11.1349,30.7877 C-11.1542,30.7684 -11.1964,30.7338 -11.2191,30.7186 C-11.2418,30.7035 -11.29,30.6777 -11.3152,30.6673 C-11.3404,30.6568 -11.3926,30.641 -11.4194,30.6357 C-11.4462,30.6304 -11.5005,30.625 -11.5278,30.625 L-12.0833,30.625" style="stroke:#808080;stroke-width:0.25;"/>
            </g>
            <path d="M0,30 L-2.5,29.5837 L-2.5,30.4163 Z" style="stroke:#808080;stroke-width:0.25;fill:#808080;fill-rule:evenodd;"/>
            <path d="M-25,30 L-22.5,30.4163 L-22.5,29.5837 Z" style="stroke:#808080;stroke-width:0.25;fill:#808080;fill-rule:evenodd;"/>
        </g>
        <path d="M0,25.625 L0,31.25 M-25,25.625 L-25,31.25 M0,30 L-25,30 " style="stroke:#808080;stroke-width:0.25;"/>
        <!-- Arc -->
        <path d="M3,50 A2,2 0 0,0 5,48" style="stroke:#000000;stroke-width:0.25;"/>
        <!-- Arc -->
        <path d="M3,42.5 A2,2 0 0,1 5,44.5" style="stroke:#000000;stroke-width:0.25;"/>
        <!-- Arc -->
        <path d="M33,7.5 A2,2 0 0,0 35,5.5" style="stroke:#000000;stroke-width:0.25;"/>
        <!-- Rotated Dimension -->
        <g>
            <g>
                <path d="M-12.9167,-4.375 L-14.0278,-4.375 L-12.9542,-2.5286 C-12.9473,-2.5168 -12.936,-2.492 -12.9316,-2.4791 C-12.9272,-2.4662 -12.9209,-2.4397 -12.9191,-2.4262 C-12.9173,-2.4127 -12.9163,-2.3854 -12.9172,-2.3718 C-12.918,-2.3582 -12.9224,-2.3313 -12.9259,-2.3181 C-12.9277,-2.3114 -12.9319,-2.2982 -12.9343,-2.2918 C-12.9411,-2.2653 -12.9599,-2.2141 -12.9717,-2.1895 C-12.9836,-2.1649 -13.012,-2.1183 -13.0284,-2.0965 C-13.0448,-2.0747 -13.0818,-2.0345 -13.1021,-2.0163 C-13.1225,-1.9981 -13.1665,-1.9659 -13.1901,-1.9521 C-13.2136,-1.9382 -13.2631,-1.9152 -13.2888,-1.9062 C-13.3146,-1.8972 -13.3677,-1.8843 -13.3947,-1.8805 C-13.4217,-1.8767 -13.4762,-1.8744 -13.5035,-1.8759 C-13.5307,-1.8775 -13.5847,-1.8859 -13.6111,-1.8927 C-13.6375,-1.8995 -13.6888,-1.9183 -13.7134,-1.9301 C-13.738,-1.942 -13.7846,-1.9704 -13.8064,-1.9868 C-13.8282,-2.0032 -13.8684,-2.0401 -13.8866,-2.0605 C-13.9047,-2.0809 -13.9369,-2.1249 -13.9508,-2.1484 C-13.9647,-2.172 -13.9876,-2.2215 -13.9967,-2.2472 C-14.0005,-2.2581 -14.0072,-2.2803 -14.0101,-2.2914 M-10.9722,-1.875 L-12.0833,-1.875 L-12.0833,-2.9861 L-11.5278,-2.9861 C-11.5005,-2.9861 -11.4462,-2.9915 -11.4194,-2.9968 C-11.3926,-3.0021 -11.3404,-3.018 -11.3152,-3.0284 C-11.29,-3.0388 -11.2418,-3.0646 -11.2191,-3.0797 C-11.1965,-3.0949 -11.1543,-3.1295 -11.135,-3.1488 C-11.1157,-3.1681 -11.081,-3.2103 -11.0659,-3.233 C-11.0507,-3.2557 -11.025,-3.3038 -11.0145,-3.3291 C-11.0041,-3.3543 -10.9882,-3.4065 -10.9829,-3.4333 C-10.9776,-3.46 -10.9722,-3.5144 -10.9722,-3.5417 L-10.9722,-3.8194 C-10.9722,-3.8467 -10.9776,-3.901 -10.9829,-3.9278 C-10.9882,-3.9546 -11.0041,-4.0068 -11.0145,-4.032 C-11.025,-4.0572 -11.0507,-4.1054 -11.0658,-4.1281 C-11.081,-4.1508 -11.1156,-4.193 -11.1349,-4.2123 C-11.1542,-4.2316 -11.1964,-4.2662 -11.2191,-4.2814 C-11.2418,-4.2965 -11.29,-4.3223 -11.3152,-4.3327 C-11.3404,-4.3432 -11.3926,-4.359 -11.4194,-4.3643 C-11.4462,-4.3696 -11.5005,-4.375 -11.5278,-4.375 L-12.0833,-4.375" style="stroke:#808080;stroke-width:0.25;"/>
            </g>
            <path d="M-25,-5 L-22.5,-4.5837 L-22.5,-5.4163 Z" style="stroke:#808080;stroke-width:0.25;fill:#808080;fill-rule:evenodd;"/>
            <path d="M0,-5 L-2.5,-5.4163 L-2.5,-4.5837 Z" style="stroke:#808080;stroke-width:0.25;fill:#808080;fill-rule:evenodd;"/>
        </g>
        <path d="M-25,-5 L0,-5 M-25,24.375 L-25,-6.25 M0,-0.625 L0,-6.25 " style="stroke:#808080;stroke-width:0.25;"/>
        <!-- Rotated Dimension -->
        <g>
            <g>
                <path d="M-9.6667,-6.875 L-9.1111,-6.875 C-9.0838,-6.875 -9.0295,-6.8804 -9.0027,-6.8857 C-8.976,-6.891 -8.9237,-6.9069 -8.8985,-6.9173 C-8.8733,-6.9278 -8.8252,-6.9535 -8.8025,-6.9687 C-8.7798,-6.9838 -8.7376,-7.0184 -8.7183,-7.0377 C-8.699,-7.057 -8.6643,-7.0992 -8.6492,-7.1219 C-8.634,-7.1446 -8.6083,-7.1928 -8.5978,-7.218 C-8.5874,-7.2432 -8.5716,-7.2954 -8.5662,-7.3222 C-8.5609,-7.349 -8.5556,-7.4033 -8.5556,-7.4306 C-8.5556,-7.4579 -8.5609,-7.5122 -8.5662,-7.539 C-8.5716,-7.5657 -8.5874,-7.618 -8.5978,-7.6432 C-8.6083,-7.6684 -8.634,-7.7165 -8.6492,-7.7392 C-8.6643,-7.7619 -8.699,-7.8041 -8.7183,-7.8234 C-8.7376,-7.8427 -8.7798,-7.8773 -8.8025,-7.8925 C-8.8252,-7.9077 -8.8733,-7.9334 -8.8985,-7.9438 C-8.9237,-7.9543 -8.976,-7.9701 -9.0027,-7.9755 C-9.0295,-7.9808 -9.0838,-7.9861 -9.1111,-7.9861 C-9.0838,-7.9861 -9.0295,-7.9915 -9.0028,-7.9968 C-8.976,-8.0021 -8.9237,-8.018 -8.8985,-8.0284 C-8.8733,-8.0389 -8.8252,-8.0646 -8.8025,-8.0798 C-8.7798,-8.0949 -8.7376,-8.1296 -8.7183,-8.1489 C-8.699,-8.1682 -8.6644,-8.2103 -8.6492,-8.233 C-8.634,-8.2557 -8.6083,-8.3039 -8.5979,-8.3291 C-8.5874,-8.3543 -8.5716,-8.4065 -8.5662,-8.4333 C-8.5609,-8.4601 -8.5556,-8.5144 -8.5556,-8.5417 L-8.5556,-8.8195 C-8.5556,-8.8468 -8.5609,-8.9011 -8.5662,-8.9278 C-8.5716,-8.9546 -8.5874,-9.0068 -8.5978,-9.0321 C-8.6083,-9.0573 -8.634,-9.1054 -8.6492,-9.1281 C-8.6643,-9.1508 -8.699,-9.193 -8.7183,-9.2123 C-8.7376,-9.2316 -8.7798,-9.2662 -8.8025,-9.2814 C-8.8251,-9.2966 -8.8733,-9.3223 -8.8985,-9.3327 C-8.9237,-9.3432 -8.976,-9.359 -9.0027,-9.3644 C-9.0295,-9.3697 -9.0838,-9.375 -9.1111,-9.375 L-9.6667,-9.375 M-9.1111,-7.9861 L-9.3889,-7.9861 M-6.8889,-6.875 C-6.9598,-6.9159 -7.0929,-7.0113 -7.1545,-7.0653 C-7.2161,-7.1193 -7.328,-7.2389 -7.3779,-7.3039 C-7.4277,-7.3688 -7.5142,-7.5079 -7.5504,-7.5814 C-7.5866,-7.6548 -7.6443,-7.8081 -7.6655,-7.8872 C-7.6867,-7.9663 -7.7133,-8.1279 -7.7187,-8.2096 C-7.7204,-8.2368 -7.7222,-8.2912 -7.7222,-8.3184 L-7.7222,-8.8195 C-7.7222,-8.8468 -7.7169,-8.9011 -7.7115,-8.9279 C-7.7062,-8.9546 -7.6904,-9.0069 -7.6799,-9.0321 C-7.6695,-9.0573 -7.6438,-9.1054 -7.6286,-9.1281 C-7.6134,-9.1508 -7.5788,-9.193 -7.5595,-9.2123 C-7.5402,-9.2316 -7.498,-9.2662 -7.4753,-9.2814 C-7.4526,-9.2966 -7.4045,-9.3223 -7.3793,-9.3327 C-7.3541,-9.3432 -7.3018,-9.359 -7.2751,-9.3644 C-7.2483,-9.3697 -7.194,-9.375 -7.1667,-9.375 C-7.1394,-9.375 -7.0851,-9.3697 -7.0583,-9.3644 C-7.0315,-9.359 -6.9793,-9.3432 -6.9541,-9.3327 C-6.9288,-9.3223 -6.8807,-9.2966 -6.858,-9.2814 C-6.8353,-9.2662 -6.7931,-9.2316 -6.7738,-9.2123 C-6.7545,-9.193 -6.7199,-9.1508 -6.7047,-9.1281 C-6.6896,-9.1054 -6.6638,-9.0573 -6.6534,-9.0321 C-6.643,-9.0069 -6.6271,-8.9546 -6.6218,-8.9279 C-6.6165,-8.9011 -6.6111,-8.8468 -6.6111,-8.8195 L-6.6111,-8.5417 C-6.6111,-8.5144 -6.6165,-8.4601 -6.6218,-8.4333 C-6.6271,-8.4065 -6.643,-8.3543 -6.6534,-8.3291 C-6.6639,-8.3039 -6.6896,-8.2557 -6.7047,-8.233 C-6.7199,-8.2103 -6.7545,-8.1682 -6.7738,-8.1489 C-6.7931,-8.1296 -6.8353,-8.0949 -6.858,-8.0798 C-6.8807,-8.0646 -6.9289,-8.0389 -6.9541,-8.0284 C-6.9793,-8.018 -7.0315,-8.0021 -7.0583,-7.9968 C-7.0851,-7.9915 -7.1394,-7.9861 -7.1667,-7.9861 L-7.6888,-7.9861 M-5.7778,-9.375 L-5.7778,-9.2361 M-3.8333,-6.875 L-4.9444,-6.875 L-4.9444,-7.9861 L-4.3889,-7.9861 C-4.3616,-7.9861 -4.3073,-7.9915 -4.2805,-7.9968 C-4.2538,-8.0021 -4.2015,-8.018 -4.1763,-8.0284 C-4.1511,-8.0389 -4.1029,-8.0646 -4.0803,-8.0798 C-4.0576,-8.0949 -4.0154,-8.1296 -3.9961,-8.1489 C-3.9768,-8.1682 -3.9421,-8.2103 -3.927,-8.233 C-3.9118,-8.2557 -3.8861,-8.3039 -3.8756,-8.3291 C-3.8652,-8.3543 -3.8493,-8.4065 -3.844,-8.4333 C-3.8387,-8.4601 -3.8333,-8.5144 -3.8333,-8.5417 L-3.8333,-8.8195 C-3.8333,-8.8468 -3.8387,-8.9011 -3.844,-8.9278 C-3.8493,-8.9546 -3.8652,-9.0068 -3.8756,-9.0321 C-3.8861,-9.0573 -3.9118,-9.1054 -3.927,-9.1281 C-3.9421,-9.1508 -3.9767,-9.193 -3.996,-9.2123 C-4.0153,-9.2316 -4.0575,-9.2662 -4.0802,-9.2814 C-4.1029,-9.2966 -4.1511,-9.3223 -4.1763,-9.3327 C-4.2015,-9.3432 -4.2537,-9.359 -4.2805,-9.3644 C-4.3073,-9.3697 -4.3616,-9.375 -4.3889,-9.375 L-4.9444,-9.375" style="stroke:#808080;stroke-width:0.25;"/>
            </g>
            <path d="M-25,-10 L-22.5,-9.5837 L-22.5,-10.4163 Z" style="stroke:#808080;stroke-width:0.25;fill:#808080;fill-rule:evenodd;"/>
            <path d="M11.5,-10 L9,-10.4163 L9,-9.5837 Z" style="stroke:#808080;stroke-width:0.25;fill:#808080;fill-rule:evenodd;"/>
        </g>
        <path d="M-25,-10 L11.5,-10 M-25,24.375 L-25,-11.25 M11.5,-0.625 L11.5,-11.25 " style="stroke:#808080;stroke-width:0.25;"/>
        <!-- Rotated Dimension -->
        <g>
            <g>
                <path d="M-0.5556,-11.875 L-1.6667,-11.875 L-1.6667,-12.9861 L-1.1111,-12.9861 C-1.0838,-12.9861 -1.0295,-12.9915 -1.0028,-12.9968 C-0.976,-13.0021 -0.9237,-13.018 -0.8985,-13.0284 C-0.8733,-13.0388 -0.8252,-13.0646 -0.8025,-13.0797 C-0.7798,-13.0949 -0.7376,-13.1295 -0.7183,-13.1488 C-0.699,-13.1681 -0.6644,-13.2103 -0.6492,-13.233 C-0.634,-13.2557 -0.6083,-13.3038 -0.5979,-13.3291 C-0.5874,-13.3543 -0.5716,-13.4065 -0.5662,-13.4333 C-0.5609,-13.46 -0.5556,-13.5144 -0.5556,-13.5417 L-0.5556,-13.8194 C-0.5556,-13.8467 -0.5609,-13.901 -0.5662,-13.9278 C-0.5716,-13.9546 -0.5874,-14.0068 -0.5978,-14.032 C-0.6083,-14.0572 -0.634,-14.1054 -0.6492,-14.1281 C-0.6643,-14.1508 -0.699,-14.193 -0.7183,-14.2123 C-0.7376,-14.2316 -0.7798,-14.2662 -0.8025,-14.2814 C-0.8251,-14.2965 -0.8733,-14.3223 -0.8985,-14.3327 C-0.9237,-14.3432 -0.976,-14.359 -1.0027,-14.3643 C-1.0295,-14.3696 -1.0838,-14.375 -1.1111,-14.375 L-1.6667,-14.375 M1.3889,-14.375 L0.2778,-14.375 L1.3514,-12.5286 C1.3582,-12.5168 1.3696,-12.492 1.374,-12.4791 C1.3784,-12.4662 1.3846,-12.4397 1.3865,-12.4262 C1.3883,-12.4127 1.3892,-12.3854 1.3884,-12.3718 C1.3875,-12.3582 1.3832,-12.3313 1.3797,-12.3181 C1.3779,-12.3114 1.3737,-12.2982 1.3713,-12.2918 C1.3644,-12.2653 1.3457,-12.2141 1.3338,-12.1895 C1.322,-12.1649 1.2936,-12.1183 1.2772,-12.0965 C1.2607,-12.0747 1.2238,-12.0345 1.2034,-12.0163 C1.1831,-11.9981 1.139,-11.9659 1.1155,-11.9521 C1.092,-11.9382 1.0425,-11.9152 1.0167,-11.9062 C0.9909,-11.8972 0.9379,-11.8843 0.9109,-11.8805 C0.8839,-11.8767 0.8293,-11.8744 0.8021,-11.8759 C0.7748,-11.8775 0.7209,-11.8859 0.6945,-11.8927 C0.668,-11.8995 0.6168,-11.9183 0.5922,-11.9301 C0.5676,-11.942 0.521,-11.9704 0.4992,-11.9868 C0.4774,-12.0032 0.4372,-12.0401 0.419,-12.0605 C0.4008,-12.0809 0.3686,-12.1249 0.3548,-12.1484 C0.3409,-12.172 0.3179,-12.2215 0.3089,-12.2472 C0.3051,-12.2581 0.2984,-12.2803 0.2955,-12.2914 M2.2222,-14.375 L2.2222,-14.2361 M4.1667,-11.875 L3.0556,-11.875 L3.0556,-12.9861 L3.6111,-12.9861 C3.6384,-12.9861 3.6927,-12.9915 3.7195,-12.9968 C3.7462,-13.0021 3.7985,-13.018 3.8237,-13.0284 C3.8489,-13.0388 3.8971,-13.0646 3.9197,-13.0797 C3.9424,-13.0949 3.9846,-13.1295 4.0039,-13.1488 C4.0232,-13.1681 4.0579,-13.2103 4.073,-13.233 C4.0882,-13.2557 4.1139,-13.3038 4.1244,-13.3291 C4.1348,-13.3543 4.1507,-13.4065 4.156,-13.4333 C4.1613,-13.46 4.1667,-13.5144 4.1667,-13.5417 L4.1667,-13.8194 C4.1667,-13.8467 4.1613,-13.901 4.156,-13.9278 C4.1507,-13.9546 4.1348,-14.0068 4.1244,-14.032 C4.1139,-14.0572 4.0882,-14.1054 4.073,-14.1281 C4.0579,-14.1508 4.0233,-14.193 4.004,-14.2123 C3.9847,-14.2316 3.9425,-14.2662 3.9198,-14.2814 C3.8971,-14.2965 3.8489,-14.3223 3.8237,-14.3327 C3.7985,-14.3432 3.7463,-14.359 3.7195,-14.3643 C3.6927,-14.3696 3.6384,-14.375 3.6111,-14.375 L3.0556,-14.375" style="stroke:#808080;stroke-width:0.25;"/>
            </g>
            <path d="M-25,-15 L-22.5,-14.5837 L-22.5,-15.4163 Z" style="stroke:#808080;stroke-width:0.25;fill:#808080;fill-rule:evenodd;"/>
            <path d="M27.5,-15 L25,-15.4163 L25,-14.5837 Z" style="stroke:#808080;stroke-width:0.25;fill:#808080;fill-rule:evenodd;"/>
        </g>
        <path d="M-25,-15 L27.5,-15 M-25,24.375 L-25,-16.25 M27.5,-0.625 L27.5,-16.25 " style="stroke:#808080;stroke-width:0.25;"/>
        <!-- Rotated Dimension -->
        <g>
            <g>
                <path d="M4.3056,-16.875 C4.2346,-16.9159 4.1015,-17.0113 4.04,-17.0653 C3.9784,-17.1193 3.8664,-17.2389 3.8166,-17.3038 C3.7668,-17.3688 3.6803,-17.5079 3.6441,-17.5814 C3.6079,-17.6548 3.5502,-17.8081 3.529,-17.8872 C3.5078,-17.9663 3.4811,-18.1279 3.4758,-18.2096 C3.474,-18.2368 3.4722,-18.2911 3.4722,-18.3183 L3.4722,-18.8195 C3.4722,-18.8467 3.4776,-18.9011 3.4829,-18.9278 C3.4882,-18.9546 3.5041,-19.0068 3.5145,-19.0321 C3.525,-19.0573 3.5507,-19.1054 3.5659,-19.1281 C3.581,-19.1508 3.6157,-19.193 3.635,-19.2123 C3.6542,-19.2316 3.6964,-19.2662 3.7191,-19.2814 C3.7418,-19.2965 3.79,-19.3223 3.8152,-19.3327 C3.8404,-19.3432 3.8926,-19.359 3.9194,-19.3643 C3.9462,-19.3697 4.0005,-19.375 4.0278,-19.375 C4.0551,-19.375 4.1094,-19.3697 4.1362,-19.3643 C4.1629,-19.359 4.2152,-19.3432 4.2404,-19.3327 C4.2656,-19.3223 4.3137,-19.2965 4.3364,-19.2814 C4.3591,-19.2662 4.4013,-19.2316 4.4206,-19.2123 C4.4399,-19.193 4.4746,-19.1508 4.4897,-19.1281 C4.5049,-19.1054 4.5306,-19.0573 4.5411,-19.0321 C4.5515,-19.0068 4.5673,-18.9546 4.5727,-18.9278 C4.578,-18.9011 4.5833,-18.8467 4.5833,-18.8195 L4.5833,-18.5417 C4.5833,-18.5144 4.578,-18.4601 4.5727,-18.4333 C4.5673,-18.4065 4.5515,-18.3543 4.541,-18.3291 C4.5306,-18.3039 4.5049,-18.2557 4.4897,-18.233 C4.4745,-18.2103 4.4399,-18.1681 4.4206,-18.1488 C4.4013,-18.1295 4.3591,-18.0949 4.3364,-18.0797 C4.3137,-18.0646 4.2656,-18.0388 4.2404,-18.0284 C4.2152,-18.018 4.1629,-18.0021 4.1361,-17.9968 C4.1094,-17.9915 4.0551,-17.9861 4.0278,-17.9861 L3.5057,-17.9861 M5.718,-17.0131 C5.6788,-17.0655 5.611,-17.1776 5.5827,-17.2366 C5.5545,-17.2957 5.5099,-17.4188 5.4937,-17.4822 C5.4882,-17.5037 5.4787,-17.547 5.4747,-17.5688 C5.4478,-17.6941 5.4189,-17.9488 5.417,-18.0769 C5.4168,-18.0888 5.4167,-18.1126 5.4167,-18.1245 C5.4162,-18.2527 5.4403,-18.508 5.4648,-18.6339 C5.4671,-18.6455 5.4718,-18.6689 5.4743,-18.6805 C5.4862,-18.7449 5.5226,-18.8707 5.5469,-18.9315 C5.5712,-18.9924 5.6314,-19.1087 5.667,-19.1636 C5.6791,-19.1822 5.7045,-19.2185 5.7177,-19.2363 C5.7258,-19.2488 5.7442,-19.2721 5.7545,-19.2828 C5.7649,-19.2935 5.7875,-19.3127 5.7997,-19.3212 C5.8119,-19.3297 5.8379,-19.3442 5.8515,-19.3501 C5.8651,-19.356 5.8934,-19.3652 5.9079,-19.3683 C5.9225,-19.3715 5.952,-19.3749 5.9669,-19.3752 C5.9817,-19.3755 6.0114,-19.3731 6.026,-19.3704 C6.0406,-19.3678 6.0692,-19.3597 6.083,-19.3542 C6.0969,-19.3488 6.1233,-19.3353 6.1358,-19.3272 C6.1483,-19.3192 6.1717,-19.3007 6.1824,-19.2904 C6.1931,-19.2801 6.2123,-19.2575 6.2208,-19.2452 C6.2222,-19.2432 6.225,-19.239 6.2264,-19.2369 C6.2656,-19.1845 6.3334,-19.0725 6.3617,-19.0134 C6.3899,-18.9543 6.4346,-18.8312 6.4507,-18.7678 C6.4562,-18.7463 6.4657,-18.703 6.4698,-18.6813 C6.4966,-18.5559 6.5256,-18.3013 6.5275,-18.1731 C6.5277,-18.1612 6.5278,-18.1374 6.5278,-18.1255 C6.5283,-17.9972 6.5041,-17.7418 6.4795,-17.616 C6.4773,-17.6043 6.4725,-17.5809 6.47,-17.5693 C6.458,-17.5048 6.4216,-17.3789 6.3973,-17.318 C6.373,-17.2572 6.3127,-17.1408 6.277,-17.0858 C6.265,-17.0674 6.24,-17.0315 6.2268,-17.014 C6.2188,-17.0014 6.2004,-16.9781 6.1901,-16.9674 C6.1797,-16.9567 6.1571,-16.9374 6.1449,-16.9289 C6.1327,-16.9204 6.1067,-16.9059 6.0931,-16.9 C6.0795,-16.894 6.0512,-16.8849 6.0367,-16.8817 C6.0221,-16.8785 5.9926,-16.8751 5.9778,-16.8748 C5.9629,-16.8745 5.9332,-16.8769 5.9186,-16.8795 C5.904,-16.8822 5.8754,-16.8903 5.8615,-16.8957 C5.8477,-16.9011 5.8212,-16.9147 5.8087,-16.9227 C5.7962,-16.9307 5.7729,-16.9491 5.7621,-16.9595 C5.7514,-16.9698 5.7322,-16.9924 5.7237,-17.0046 C5.7222,-17.0067 5.7194,-17.0109 5.718,-17.0131" style="stroke:#808080;stroke-width:0.25;"/>
            </g>
            <path d="M-25,-20 L-22.5,-19.5837 L-22.5,-20.4163 Z" style="stroke:#808080;stroke-width:0.25;fill:#808080;fill-rule:evenodd;"/>
            <path d="M35,-20 L32.5,-20.4163 L32.5,-19.5837 Z" style="stroke:#808080;stroke-width:0.25;fill:#808080;fill-rule:evenodd;"/>
        </g>
        <path d="M-25,-20 L35,-20 M-25,24.375 L-25,-21.25 M35,-0.625 L35,-21.25 " style="stroke:#808080;stroke-width:0.25;"/>
        <!-- Rotated Dimension -->
        <g>
            <g>
                <path d="M-11.5278,58.125 L-10.9722,58.125 C-10.9449,58.125 -10.8906,58.1196 -10.8638,58.1143 C-10.8371,58.109 -10.7848,58.0931 -10.7596,58.0827 C-10.7344,58.0723 -10.6863,58.0465 -10.6636,58.0314 C-10.6409,58.0162 -10.5987,57.9816 -10.5794,57.9623 C-10.5601,57.943 -10.5254,57.9008 -10.5103,57.8781 C-10.4951,57.8554 -10.4694,57.8073 -10.4589,57.782 C-10.4485,57.7568 -10.4327,57.7046 -10.4273,57.6778 C-10.422,57.6511 -10.4167,57.5967 -10.4167,57.5694 C-10.4167,57.5421 -10.422,57.4878 -10.4273,57.4611 C-10.4327,57.4343 -10.4485,57.3821 -10.4589,57.3568 C-10.4694,57.3316 -10.4951,57.2835 -10.5103,57.2608 C-10.5254,57.2381 -10.5601,57.1959 -10.5794,57.1766 C-10.5987,57.1573 -10.6409,57.1227 -10.6636,57.1075 C-10.6863,57.0923 -10.7344,57.0666 -10.7596,57.0562 C-10.7848,57.0457 -10.8371,57.0299 -10.8638,57.0246 C-10.8906,57.0192 -10.9449,57.0139 -10.9722,57.0139 C-10.9449,57.0139 -10.8906,57.0085 -10.8639,57.0032 C-10.8371,56.9979 -10.7848,56.982 -10.7596,56.9716 C-10.7344,56.9612 -10.6863,56.9354 -10.6636,56.9203 C-10.6409,56.9051 -10.5987,56.8705 -10.5794,56.8512 C-10.5601,56.8319 -10.5255,56.7897 -10.5103,56.767 C-10.4951,56.7443 -10.4694,56.6961 -10.459,56.6709 C-10.4485,56.6457 -10.4327,56.5935 -10.4273,56.5667 C-10.422,56.5399 -10.4167,56.4856 -10.4167,56.4583 L-10.4167,56.1805 C-10.4167,56.1533 -10.422,56.099 -10.4273,56.0722 C-10.4327,56.0454 -10.4485,55.9932 -10.4589,55.968 C-10.4694,55.9428 -10.4951,55.8946 -10.5103,55.8719 C-10.5254,55.8492 -10.5601,55.807 -10.5794,55.7877 C-10.5987,55.7684 -10.6409,55.7338 -10.6636,55.7186 C-10.6863,55.7035 -10.7344,55.6777 -10.7596,55.6673 C-10.7848,55.6568 -10.8371,55.641 -10.8638,55.6357 C-10.8906,55.6303 -10.9449,55.625 -10.9722,55.625 L-11.5278,55.625 M-10.9722,57.0139 L-11.25,57.0139 M-9.282,57.9869 C-9.3212,57.9345 -9.389,57.8224 -9.4173,57.7634 C-9.4455,57.7043 -9.4901,57.5812 -9.5063,57.5178 C-9.5118,57.4963 -9.5213,57.453 -9.5253,57.4312 C-9.5522,57.3059 -9.5811,57.0512 -9.583,56.9231 C-9.5832,56.9112 -9.5833,56.8874 -9.5833,56.8755 C-9.5838,56.7473 -9.5597,56.492 -9.5352,56.3661 C-9.5329,56.3545 -9.5282,56.3311 -9.5257,56.3195 C-9.5138,56.2551 -9.4774,56.1293 -9.4531,56.0685 C-9.4288,56.0076 -9.3686,55.8913 -9.333,55.8364 C-9.3209,55.8178 -9.2955,55.7815 -9.2823,55.7637 C-9.2742,55.7512 -9.2558,55.7279 -9.2455,55.7172 C-9.2351,55.7065 -9.2125,55.6873 -9.2003,55.6788 C-9.1881,55.6703 -9.1621,55.6558 -9.1485,55.6499 C-9.1349,55.644 -9.1066,55.6348 -9.0921,55.6317 C-9.0775,55.6285 -9.048,55.6251 -9.0331,55.6248 C-9.0183,55.6245 -8.9886,55.6269 -8.974,55.6296 C-8.9594,55.6322 -8.9308,55.6403 -8.917,55.6458 C-8.9031,55.6512 -8.8767,55.6647 -8.8642,55.6728 C-8.8517,55.6808 -8.8283,55.6993 -8.8176,55.7096 C-8.8069,55.7199 -8.7877,55.7425 -8.7792,55.7548 C-8.7778,55.7568 -8.775,55.761 -8.7736,55.7631 C-8.7344,55.8155 -8.6666,55.9275 -8.6383,55.9866 C-8.6101,56.0457 -8.5654,56.1688 -8.5493,56.2322 C-8.5438,56.2537 -8.5343,56.297 -8.5302,56.3187 C-8.5034,56.4441 -8.4744,56.6987 -8.4725,56.8269 C-8.4723,56.8388 -8.4722,56.8626 -8.4722,56.8745 C-8.4717,57.0028 -8.4959,57.2582 -8.5205,57.384 C-8.5227,57.3957 -8.5275,57.4191 -8.53,57.4307 C-8.542,57.4952 -8.5784,57.6211 -8.6027,57.682 C-8.627,57.7428 -8.6873,57.8592 -8.723,57.9142 C-8.735,57.9326 -8.76,57.9685 -8.7732,57.986 C-8.7812,57.9986 -8.7996,58.0219 -8.8099,58.0326 C-8.8203,58.0433 -8.8429,58.0626 -8.8551,58.0711 C-8.8673,58.0796 -8.8933,58.0941 -8.9069,58.1 C-8.9205,58.106 -8.9488,58.1151 -8.9633,58.1183 C-8.9779,58.1215 -9.0074,58.1249 -9.0222,58.1252 C-9.0371,58.1255 -9.0668,58.1231 -9.0814,58.1205 C-9.096,58.1178 -9.1246,58.1097 -9.1385,58.1043 C-9.1523,58.0989 -9.1788,58.0853 -9.1913,58.0773 C-9.2038,58.0693 -9.2271,58.0509 -9.2379,58.0405 C-9.2486,58.0302 -9.2678,58.0076 -9.2763,57.9954 C-9.2778,57.9933 -9.2806,57.9891 -9.282,57.9869" style="stroke:#808080;stroke-width:0.25;"/>
            </g>
            <path d="M-25,55 L-22.5,55.4163 L-22.5,54.5837 Z" style="stroke:#808080;stroke-width:0.25;fill:#808080;fill-rule:evenodd;"/>
            <path d="M5,55 L2.5,54.5837 L2.5,55.4163 Z" style="stroke:#808080;stroke-width:0.25;fill:#808080;fill-rule:evenodd;"/>
        </g>
        <path d="M-25,55 L5,55 M-25,25.625 L-25,56.25 M5,46.875 L5,56.25 " style="stroke:#808080;stroke-width:0.25;"/>
        <!-- Rotated Dimension -->
        <g>
            <g>
                <path d="M36.7361,12.625 L35.625,12.625 L36.6986,14.4714 C36.7055,14.4832 36.7168,14.508 36.7212,14.5209 C36.7256,14.5338 36.7319,14.5603 36.7337,14.5738 C36.7355,14.5873 36.7365,14.6146 36.7356,14.6282 C36.7348,14.6418 36.7304,14.6687 36.7269,14.6819 C36.7251,14.6886 36.7209,14.7018 36.7185,14.7083 C36.7116,14.7347 36.6929,14.7859 36.681,14.8105 C36.6692,14.8351 36.6408,14.8817 36.6244,14.9035 C36.608,14.9253 36.571,14.9655 36.5507,14.9837 C36.5303,15.0019 36.4862,15.0341 36.4627,15.0479 C36.4392,15.0618 36.3897,15.0848 36.3639,15.0938 C36.3382,15.1028 36.2851,15.1157 36.2581,15.1195 C36.2311,15.1233 36.1765,15.1256 36.1493,15.1241 C36.122,15.1225 36.0681,15.1141 36.0417,15.1073 C36.0152,15.1005 35.964,15.0817 35.9394,15.0699 C35.9148,15.058 35.8682,15.0296 35.8464,15.0132 C35.8246,14.9968 35.7844,14.9599 35.7662,14.9395 C35.748,14.9191 35.7158,14.8751 35.702,14.8516 C35.6881,14.828 35.6651,14.7785 35.6561,14.7528 C35.6523,14.7419 35.6456,14.7197 35.6427,14.7086" style="stroke:#808080;stroke-width:0.25;"/>
            </g>
            <path d="M33,12 L30.5,11.5837 L30.5,12.4163 Z" style="stroke:#808080;stroke-width:0.25;fill:#808080;fill-rule:evenodd;"/>
            <path d="M35,12 L37.5,12.4163 L37.5,11.5837 Z" style="stroke:#808080;stroke-width:0.25;fill:#808080;fill-rule:evenodd;"/>
        </g>
        <path d="M28,12 L40,12 M33,8.125 L33,13.25 M35,6.125 L35,13.25 " style="stroke:#808080;stroke-width:0.25;"/>
        <!-- Rotated Dimension -->
        <g>
            <g>
                <path d="M39.375,4.875 L39.375,3.7639 L37.5286,4.8375 C37.5168,4.8443 37.492,4.8557 37.4791,4.8601 C37.4662,4.8645 37.4397,4.8708 37.4262,4.8726 C37.4127,4.8744 37.3854,4.8754 37.3718,4.8745 C37.3582,4.8736 37.3313,4.8693 37.3181,4.8658 C37.3114,4.864 37.2982,4.8598 37.2918,4.8574 C37.2653,4.8505 37.2141,4.8318 37.1895,4.8199 C37.1649,4.8081 37.1183,4.7797 37.0965,4.7633 C37.0747,4.7469 37.0345,4.7099 37.0163,4.6896 C36.9981,4.6692 36.9659,4.6251 36.9521,4.6016 C36.9382,4.5781 36.9152,4.5286 36.9062,4.5028 C36.8972,4.4771 36.8843,4.424 36.8805,4.397 C36.8767,4.37 36.8744,4.3154 36.8759,4.2882 C36.8775,4.2609 36.8859,4.207 36.8927,4.1806 C36.8995,4.1541 36.9183,4.1029 36.9301,4.0783 C36.942,4.0537 36.9704,4.0071 36.9868,3.9853 C37.0032,3.9635 37.0401,3.9233 37.0605,3.9051 C37.0809,3.8869 37.1249,3.8547 37.1484,3.8409 C37.172,3.827 37.2215,3.804 37.2472,3.795 C37.2581,3.7912 37.2803,3.7845 37.2914,3.7816" style="stroke:#808080;stroke-width:0.25;"/>
            </g>
            <path d="M40,7.5 L39.5837,10 L40.4163,10 Z" style="stroke:#808080;stroke-width:0.25;fill:#808080;fill-rule:evenodd;"/>
            <path d="M40,5.5 L40.4163,3 L39.5837,3 Z" style="stroke:#808080;stroke-width:0.25;fill:#808080;fill-rule:evenodd;"/>
        </g>
        <path d="M40,12.5 L40,0.5 M33.625,7.5 L41.25,7.5 M35.625,5.5 L41.25,5.5 " style="stroke:#808080;stroke-width:0.25;"/>
        <!-- Rotated Dimension -->
        <g>
            <g>
                <path d="M-33.125,24.5833 L-33.125,23.4722 L-32.0139,23.4722 L-32.0139,24.0278 C-32.0139,24.0551 -32.0085,24.1094 -32.0032,24.1361 C-31.9979,24.1629 -31.982,24.2152 -31.9716,24.2404 C-31.9612,24.2656 -31.9354,24.3137 -31.9203,24.3364 C-31.9051,24.3591 -31.8705,24.4013 -31.8512,24.4206 C-31.8319,24.4399 -31.7897,24.4745 -31.767,24.4897 C-31.7443,24.5049 -31.6961,24.5306 -31.6709,24.541 C-31.6457,24.5515 -31.5935,24.5673 -31.5667,24.5727 C-31.5399,24.578 -31.4856,24.5833 -31.4583,24.5833 L-31.1805,24.5833 C-31.1533,24.5833 -31.099,24.578 -31.0722,24.5727 C-31.0454,24.5673 -30.9932,24.5515 -30.968,24.5411 C-30.9428,24.5306 -30.8946,24.5049 -30.8719,24.4897 C-30.8492,24.4746 -30.807,24.4399 -30.7877,24.4206 C-30.7684,24.4013 -30.7338,24.3591 -30.7186,24.3364 C-30.7035,24.3137 -30.6777,24.2656 -30.6673,24.2404 C-30.6568,24.2152 -30.641,24.1629 -30.6357,24.1362 C-30.6303,24.1094 -30.625,24.0551 -30.625,24.0278 L-30.625,23.4722 M-32.9869,25.718 C-32.9345,25.6788 -32.8224,25.611 -32.7634,25.5827 C-32.7043,25.5545 -32.5812,25.5099 -32.5178,25.4937 C-32.4963,25.4882 -32.453,25.4787 -32.4312,25.4747 C-32.3059,25.4478 -32.0512,25.4189 -31.9231,25.417 C-31.9112,25.4168 -31.8874,25.4167 -31.8755,25.4167 C-31.7473,25.4162 -31.492,25.4403 -31.3661,25.4648 C-31.3545,25.4671 -31.3311,25.4718 -31.3195,25.4743 C-31.2551,25.4862 -31.1293,25.5226 -31.0685,25.5469 C-31.0076,25.5712 -30.8913,25.6314 -30.8364,25.667 C-30.8178,25.6791 -30.7815,25.7045 -30.7637,25.7177 C-30.7512,25.7258 -30.7279,25.7442 -30.7172,25.7545 C-30.7065,25.7649 -30.6873,25.7875 -30.6788,25.7997 C-30.6703,25.8119 -30.6558,25.8379 -30.6499,25.8515 C-30.644,25.8651 -30.6348,25.8934 -30.6317,25.9079 C-30.6285,25.9225 -30.6251,25.952 -30.6248,25.9669 C-30.6245,25.9817 -30.6269,26.0114 -30.6296,26.026 C-30.6322,26.0406 -30.6403,26.0692 -30.6458,26.083 C-30.6512,26.0969 -30.6647,26.1233 -30.6728,26.1358 C-30.6808,26.1483 -30.6993,26.1717 -30.7096,26.1824 C-30.7199,26.1931 -30.7425,26.2123 -30.7548,26.2208 C-30.7568,26.2222 -30.761,26.225 -30.7631,26.2264 C-30.8155,26.2656 -30.9275,26.3334 -30.9866,26.3617 C-31.0457,26.3899 -31.1688,26.4346 -31.2322,26.4507 C-31.2537,26.4562 -31.297,26.4657 -31.3187,26.4698 C-31.4441,26.4966 -31.6987,26.5256 -31.8269,26.5275 C-31.8388,26.5277 -31.8626,26.5278 -31.8745,26.5278 C-32.0028,26.5283 -32.2582,26.5041 -32.384,26.4795 C-32.3957,26.4773 -32.4191,26.4725 -32.4307,26.47 C-32.4952,26.458 -32.6211,26.4216 -32.682,26.3973 C-32.7428,26.373 -32.8592,26.3127 -32.9142,26.277 C-32.9326,26.265 -32.9685,26.24 -32.986,26.2268 C-32.9986,26.2188 -33.0219,26.2004 -33.0326,26.1901 C-33.0433,26.1797 -33.0626,26.1571 -33.0711,26.1449 C-33.0796,26.1327 -33.0941,26.1067 -33.1,26.0931 C-33.106,26.0795 -33.1151,26.0512 -33.1183,26.0367 C-33.1215,26.0221 -33.1249,25.9926 -33.1252,25.9778 C-33.1255,25.9629 -33.1231,25.9332 -33.1205,25.9186 C-33.1178,25.904 -33.1097,25.8754 -33.1043,25.8615 C-33.0989,25.8477 -33.0853,25.8212 -33.0773,25.8087 C-33.0693,25.7962 -33.0509,25.7729 -33.0405,25.7621 C-33.0302,25.7514 -33.0076,25.7322 -32.9954,25.7237 C-32.9933,25.7222 -32.9891,25.7194 -32.9869,25.718" style="stroke:#808080;stroke-width:0.25;"/>
            </g>
            <path d="M-30,50 L-29.5837,47.5 L-30.4163,47.5 Z" style="stroke:#808080;stroke-width:0.25;fill:#808080;fill-rule:evenodd;"/>
            <path d="M-30,0 L-30.4163,2.5 L-29.5837,2.5 Z" style="stroke:#808080;stroke-width:0.25;fill:#808080;fill-rule:evenodd;"/>
        </g>
        <path d="M-30,50 L-30,0 M-0.625,50 L-31.25,50 M-0.625,0 L-31.25,0 " style="stroke:#808080;stroke-width:0.25;"/>
        <!-- Rotated Dimension -->
        <g>
            <g>
                <path d="M6.875,44.3056 L6.875,45.4167 L9.375,44.7222 M7.9861,44.8611 L7.9861,45.4167 M9.375,46.25 L9.2361,46.25 M6.875,48.1944 L6.875,47.0833 L7.9861,47.0833 L7.9861,47.6389 C7.9861,47.6662 7.9915,47.7205 7.9968,47.7472 C8.0021,47.774 8.018,47.8263 8.0284,47.8515 C8.0388,47.8767 8.0646,47.9248 8.0797,47.9475 C8.0949,47.9702 8.1295,48.0124 8.1488,48.0317 C8.1681,48.051 8.2103,48.0856 8.233,48.1008 C8.2557,48.116 8.3038,48.1417 8.3291,48.1521 C8.3543,48.1626 8.4065,48.1784 8.4333,48.1838 C8.46,48.1891 8.5144,48.1944 8.5417,48.1944 L8.8194,48.1944 C8.8467,48.1944 8.901,48.1891 8.9278,48.1838 C8.9546,48.1784 9.0068,48.1626 9.032,48.1522 C9.0572,48.1417 9.1054,48.116 9.1281,48.1008 C9.1508,48.0857 9.193,48.051 9.2123,48.0317 C9.2316,48.0124 9.2662,47.9702 9.2814,47.9475 C9.2965,47.9249 9.3223,47.8767 9.3327,47.8515 C9.3432,47.8263 9.359,47.774 9.3643,47.7473 C9.3696,47.7205 9.375,47.6662 9.375,47.6389 L9.375,47.0833" style="stroke:#808080;stroke-width:0.25;"/>
            </g>
            <path d="M10,50 L10.4163,47.5 L9.5837,47.5 Z" style="stroke:#808080;stroke-width:0.25;fill:#808080;fill-rule:evenodd;"/>
            <path d="M10,42.5 L9.5837,45 L10.4163,45 Z" style="stroke:#808080;stroke-width:0.25;fill:#808080;fill-rule:evenodd;"/>
        </g>
        <path d="M10,50 L10,42.5 M3.625,50 L11.25,50 M3.625,42.5 L11.25,42.5 " style="stroke:#808080;stroke-width:0.25;"/>
        <!-- Aligned Dimension -->
        <g>
            <g>
                <path d="M10.6667,15.125 L9.5556,15.125 L9.5556,14.0139 L10.1111,14.0139 C10.1384,14.0139 10.1927,14.0085 10.2195,14.0032 C10.2462,13.9979 10.2985,13.982 10.3237,13.9716 C10.3489,13.9612 10.3971,13.9354 10.4197,13.9203 C10.4424,13.9051 10.4846,13.8705 10.5039,13.8512 C10.5232,13.8319 10.5579,13.7897 10.573,13.767 C10.5882,13.7443 10.6139,13.6962 10.6244,13.6709 C10.6348,13.6457 10.6507,13.5935 10.656,13.5667 C10.6613,13.54 10.6667,13.4856 10.6667,13.4583 L10.6667,13.1806 C10.6667,13.1533 10.6613,13.099 10.656,13.0722 C10.6507,13.0454 10.6348,12.9932 10.6244,12.968 C10.6139,12.9428 10.5882,12.8946 10.573,12.8719 C10.5579,12.8492 10.5233,12.807 10.504,12.7877 C10.4847,12.7684 10.4425,12.7338 10.4198,12.7186 C10.3971,12.7035 10.3489,12.6777 10.3237,12.6673 C10.2985,12.6568 10.2463,12.641 10.2195,12.6357 C10.1927,12.6304 10.1384,12.625 10.1111,12.625 L9.5556,12.625 M11.5,12.625 L11.5,12.7639 M13.4444,12.625 L12.3333,12.625 L13.4069,14.4714 C13.4138,14.4832 13.4251,14.508 13.4295,14.5209 C13.4339,14.5338 13.4402,14.5603 13.442,14.5738 C13.4438,14.5873 13.4448,14.6146 13.4439,14.6282 C13.4431,14.6418 13.4387,14.6687 13.4352,14.6819 C13.4335,14.6886 13.4292,14.7018 13.4268,14.7083 C13.42,14.7347 13.4012,14.7859 13.3894,14.8105 C13.3775,14.8351 13.3491,14.8817 13.3327,14.9035 C13.3163,14.9253 13.2794,14.9655 13.259,14.9837 C13.2386,15.0019 13.1946,15.0341 13.1711,15.0479 C13.1475,15.0618 13.098,15.0848 13.0723,15.0938 C13.0465,15.1028 12.9935,15.1157 12.9664,15.1195 C12.9394,15.1233 12.8849,15.1256 12.8576,15.1241 C12.8304,15.1225 12.7764,15.1141 12.75,15.1073 C12.7236,15.1005 12.6723,15.0817 12.6477,15.0699 C12.6231,15.058 12.5765,15.0296 12.5547,15.0132 C12.5329,14.9968 12.4927,14.9599 12.4746,14.9395 C12.4564,14.9191 12.4242,14.8751 12.4103,14.8516 C12.3964,14.828 12.3735,14.7785 12.3645,14.7528 C12.3606,14.7419 12.3539,14.7197 12.351,14.7086" style="stroke:#808080;stroke-width:0.25;"/>
            </g>
            <path d="M8.9,12 L6.4,11.5837 L6.4,12.4163 Z" style="stroke:#808080;stroke-width:0.25;fill:#808080;fill-rule:evenodd;"/>
            <path d="M14.1,12 L16.6,12.4163 L16.6,11.5837 Z" style="stroke:#808080;stroke-width:0.25;fill:#808080;fill-rule:evenodd;"/>
        </g>
        <path d="M8.9,8.125 L8.9,13.25 M14.1,8.125 L14.1,13.25 M3.9,12 L19.1,12 " style="stroke:#808080;stroke-width:0.25;"/>
        <!-- Line -->
        <path d="M70,0 L90,0 " style="stroke:#000000;stroke-width:0.25;"/>
        <!-- Line -->
        <path d="M90,0 L90,30 " style="stroke:#000000;stroke-width:0.25;"/>
        <!-- Line -->
        <path d="M90,30 L70,30 " style="stroke:#000000;stroke-width:0.25;"/>
        <!-- Line -->
        <path d="M70,30 L70,0 " style="stroke:#000000;stroke-width:0.25;"/>
        <!-- Line -->
        <path d="M70,25 L180,25 " style="stroke:#000000;stroke-width:0.25;"/>
        <!-- Line -->
        <path d="M180,25 L180,57 " style="stroke:#000000;stroke-width:0.25;"/>
        <!-- Line -->
        <path d="M180,57 L70,57 " style="stroke:#000000;stroke-width:0.25;"/>
        <!-- Line -->
        <path d="M70,57 L70,25 " style="stroke:#000000;stroke-width:0.25;"/>
        <!-- Line -->
        <path d="M180,0 L180,0 " style="stroke:#000000;stroke-width:0.25;"/>
        <!-- Line -->
        <path d="M180,0 L180,0 " style="stroke:#000000;stroke-width:0.25;"/>
        <!-- Line -->
        <path d="M180,0 L180,0 " style="stroke:#000000;stroke-width:0.25;"/>
        <!-- Line -->
        <path d="M180,0 L180,0 " style="stroke:#000000;stroke-width:0.25;"/>
        <!-- Line -->
        <path d="M160,30 L180,30 " style="stroke:#000000;stroke-width:0.25;"/>
        <!-- Line -->
        <path d="M180,30 L180,0 " style="stroke:#000000;stroke-width:0.25;"/>
        <!-- Line -->
        <path d="M180,0 L160,0 " style="stroke:#000000;stroke-width:0.25;"/>
        <!-- Line -->
        <path d="M160,0 L160,30 " style="stroke:#000000;stroke-width:0.25;"/>
        <!-- Circle -->
        <circle cx="125" cy="33" r="2.6" style="stroke:#000000;stroke-width:0.25;"/>
        <!-- Circle -->
        <circle cx="125" cy="49" r="2.6" style="stroke:#000000;stroke-width:0.25;"/>
        <!-- Aligned Dimension -->
        <g>
            <g>
                <path d="M79.5833,-4.375 L78.4722,-4.375 L79.5458,-2.5286 C79.5527,-2.5168 79.564,-2.492 79.5684,-2.4791 C79.5728,-2.4662 79.5791,-2.4397 79.5809,-2.4262 C79.5827,-2.4127 79.5837,-2.3854 79.5828,-2.3718 C79.582,-2.3582 79.5776,-2.3313 79.5741,-2.3181 C79.5724,-2.3114 79.5681,-2.2982 79.5657,-2.2918 C79.5589,-2.2653 79.5401,-2.2141 79.5283,-2.1895 C79.5164,-2.1649 79.488,-2.1183 79.4716,-2.0965 C79.4552,-2.0747 79.4182,-2.0345 79.3979,-2.0163 C79.3775,-1.9981 79.3335,-1.9659 79.31,-1.9521 C79.2864,-1.9382 79.2369,-1.9152 79.2112,-1.9062 C79.1854,-1.8972 79.1324,-1.8843 79.1053,-1.8805 C79.0783,-1.8767 79.0238,-1.8744 78.9965,-1.8759 C78.9693,-1.8775 78.9153,-1.8859 78.8889,-1.8927 C78.8625,-1.8995 78.8112,-1.9183 78.7866,-1.9301 C78.762,-1.942 78.7154,-1.9704 78.6936,-1.9868 C78.6718,-2.0032 78.6316,-2.0402 78.6135,-2.0605 C78.5953,-2.0809 78.5631,-2.1249 78.5492,-2.1485 C78.5353,-2.172 78.5124,-2.2215 78.5034,-2.2472 C78.4995,-2.2581 78.4928,-2.2803 78.4899,-2.2915 M80.718,-2.0131 C80.6788,-2.0655 80.611,-2.1776 80.5827,-2.2366 C80.5545,-2.2957 80.5099,-2.4188 80.4937,-2.4822 C80.4882,-2.5037 80.4787,-2.547 80.4747,-2.5688 C80.4478,-2.6941 80.4189,-2.9488 80.417,-3.0769 C80.4168,-3.0888 80.4167,-3.1126 80.4167,-3.1245 C80.4162,-3.2527 80.4403,-3.508 80.4648,-3.6339 C80.4671,-3.6455 80.4718,-3.6689 80.4743,-3.6805 C80.4862,-3.7449 80.5226,-3.8707 80.5469,-3.9315 C80.5712,-3.9924 80.6314,-4.1087 80.667,-4.1636 C80.6791,-4.1822 80.7045,-4.2185 80.7177,-4.2363 C80.7258,-4.2488 80.7442,-4.2721 80.7545,-4.2828 C80.7649,-4.2935 80.7875,-4.3127 80.7997,-4.3212 C80.8119,-4.3297 80.8379,-4.3442 80.8515,-4.3501 C80.8651,-4.356 80.8934,-4.3652 80.9079,-4.3683 C80.9225,-4.3715 80.952,-4.3749 80.9669,-4.3752 C80.9817,-4.3755 81.0114,-4.3731 81.026,-4.3704 C81.0406,-4.3678 81.0692,-4.3597 81.083,-4.3542 C81.0969,-4.3488 81.1233,-4.3353 81.1358,-4.3272 C81.1483,-4.3192 81.1717,-4.3007 81.1824,-4.2904 C81.1931,-4.2801 81.2123,-4.2575 81.2208,-4.2452 C81.2222,-4.2432 81.225,-4.239 81.2264,-4.2369 C81.2656,-4.1845 81.3334,-4.0725 81.3617,-4.0134 C81.3899,-3.9543 81.4346,-3.8312 81.4507,-3.7678 C81.4562,-3.7463 81.4657,-3.703 81.4698,-3.6813 C81.4966,-3.5559 81.5256,-3.3013 81.5275,-3.1731 C81.5277,-3.1612 81.5278,-3.1374 81.5278,-3.1255 C81.5283,-2.9972 81.5041,-2.7418 81.4795,-2.616 C81.4773,-2.6043 81.4725,-2.5809 81.47,-2.5693 C81.458,-2.5048 81.4216,-2.3789 81.3973,-2.318 C81.373,-2.2572 81.3127,-2.1408 81.277,-2.0858 C81.265,-2.0674 81.24,-2.0315 81.2268,-2.014 C81.2188,-2.0014 81.2004,-1.9781 81.1901,-1.9674 C81.1797,-1.9567 81.1571,-1.9374 81.1449,-1.9289 C81.1327,-1.9204 81.1067,-1.9059 81.0931,-1.9 C81.0795,-1.894 81.0512,-1.8849 81.0367,-1.8817 C81.0221,-1.8785 80.9926,-1.8751 80.9778,-1.8748 C80.9629,-1.8745 80.9332,-1.8769 80.9186,-1.8795 C80.904,-1.8822 80.8754,-1.8903 80.8615,-1.8957 C80.8477,-1.9011 80.8212,-1.9147 80.8087,-1.9227 C80.7962,-1.9307 80.7729,-1.9491 80.7621,-1.9595 C80.7514,-1.9698 80.7322,-1.9924 80.7237,-2.0046 C80.7222,-2.0067 80.7194,-2.0109 80.718,-2.0131" style="stroke:#808080;stroke-width:0.25;"/>
            </g>
            <path d="M70,-5 L72.5,-4.5837 L72.5,-5.4163 Z" style="stroke:#808080;stroke-width:0.25;fill:#808080;fill-rule:evenodd;"/>
            <path d="M90,-5 L87.5,-5.4163 L87.5,-4.5837 Z" style="stroke:#808080;stroke-width:0.25;fill:#808080;fill-rule:evenodd;"/>
        </g>
        <path d="M70,-0.625 L70,-6.25 M90,-0.625 L90,-6.25 M70,-5 L90,-5 " style="stroke:#808080;stroke-width:0.25;"/>
        <!-- Aligned Dimension -->
        <g>
            <g>
                <path d="M64.375,12.0833 L64.375,10.9722 L62.5286,12.0458 C62.5168,12.0527 62.492,12.064 62.4791,12.0684 C62.4662,12.0728 62.4397,12.0791 62.4262,12.0809 C62.4127,12.0827 62.3854,12.0837 62.3718,12.0828 C62.3582,12.082 62.3313,12.0776 62.3181,12.0741 C62.3114,12.0723 62.2982,12.0681 62.2918,12.0657 C62.2653,12.0589 62.2141,12.0401 62.1895,12.0283 C62.1649,12.0164 62.1183,11.988 62.0965,11.9716 C62.0747,11.9552 62.0345,11.9182 62.0163,11.8979 C61.9981,11.8775 61.9659,11.8335 61.9521,11.8099 C61.9382,11.7864 61.9152,11.7369 61.9062,11.7112 C61.8972,11.6854 61.8843,11.6323 61.8805,11.6053 C61.8767,11.5783 61.8744,11.5238 61.8759,11.4965 C61.8775,11.4693 61.8859,11.4153 61.8927,11.3889 C61.8995,11.3625 61.9183,11.3112 61.9301,11.2866 C61.942,11.262 61.9704,11.2154 61.9868,11.1936 C62.0032,11.1718 62.0401,11.1316 62.0605,11.1134 C62.0809,11.0953 62.1249,11.0631 62.1484,11.0492 C62.172,11.0353 62.2215,11.0124 62.2472,11.0033 C62.2581,10.9995 62.2803,10.9928 62.2914,10.9899 M61.875,14.0278 L61.875,12.9167 L62.9861,12.9167 L62.9861,13.4722 C62.9861,13.4995 62.9915,13.5538 62.9968,13.5806 C63.0021,13.6074 63.018,13.6596 63.0284,13.6848 C63.0388,13.71 63.0646,13.7582 63.0797,13.7809 C63.0949,13.8035 63.1295,13.8457 63.1488,13.865 C63.1681,13.8843 63.2103,13.919 63.233,13.9341 C63.2557,13.9493 63.3038,13.975 63.3291,13.9855 C63.3543,13.9959 63.4065,14.0118 63.4333,14.0171 C63.46,14.0224 63.5144,14.0278 63.5417,14.0278 L63.8194,14.0278 C63.8467,14.0278 63.901,14.0224 63.9278,14.0171 C63.9546,14.0118 64.0068,13.9959 64.032,13.9855 C64.0572,13.975 64.1054,13.9493 64.1281,13.9342 C64.1508,13.919 64.193,13.8844 64.2123,13.8651 C64.2316,13.8458 64.2662,13.8036 64.2814,13.7809 C64.2965,13.7582 64.3223,13.71 64.3327,13.6848 C64.3432,13.6596 64.359,13.6074 64.3643,13.5806 C64.3696,13.5538 64.375,13.4995 64.375,13.4722 L64.375,12.9167" style="stroke:#808080;stroke-width:0.25;"/>
            </g>
            <path d="M65,25 L65.4163,22.5 L64.5837,22.5 Z" style="stroke:#808080;stroke-width:0.25;fill:#808080;fill-rule:evenodd;"/>
            <path d="M65,0 L64.5837,2.5 L65.4163,2.5 Z" style="stroke:#808080;stroke-width:0.25;fill:#808080;fill-rule:evenodd;"/>
        </g>
        <path d="M69.375,25 L63.75,25 M69.375,0 L63.75,0 M65,25 L65,0 " style="stroke:#808080;stroke-width:0.25;"/>
        <!-- Aligned Dimension -->
        <g>
            <g>
                <path d="M56.875,13.4722 L56.875,14.0278 C56.875,14.0551 56.8804,14.1094 56.8857,14.1362 C56.891,14.1629 56.9069,14.2152 56.9173,14.2404 C56.9277,14.2656 56.9535,14.3137 56.9686,14.3364 C56.9838,14.3591 57.0184,14.4013 57.0377,14.4206 C57.057,14.4399 57.0992,14.4746 57.1219,14.4897 C57.1446,14.5049 57.1927,14.5306 57.218,14.5411 C57.2432,14.5515 57.2954,14.5673 57.3222,14.5727 C57.3489,14.578 57.4033,14.5833 57.4306,14.5833 C57.4579,14.5833 57.5122,14.578 57.5389,14.5727 C57.5657,14.5673 57.6179,14.5515 57.6432,14.5411 C57.6684,14.5306 57.7165,14.5049 57.7392,14.4897 C57.7619,14.4746 57.8041,14.4399 57.8234,14.4206 C57.8427,14.4013 57.8773,14.3591 57.8925,14.3364 C57.9077,14.3137 57.9334,14.2656 57.9438,14.2404 C57.9543,14.2152 57.9701,14.1629 57.9754,14.1362 C57.9808,14.1094 57.9861,14.0551 57.9861,14.0278 C57.9861,14.0551 57.9915,14.1094 57.9968,14.1361 C58.0021,14.1629 58.018,14.2152 58.0284,14.2404 C58.0388,14.2656 58.0646,14.3137 58.0797,14.3364 C58.0949,14.3591 58.1295,14.4013 58.1488,14.4206 C58.1681,14.4399 58.2103,14.4745 58.233,14.4897 C58.2557,14.5049 58.3039,14.5306 58.3291,14.541 C58.3543,14.5515 58.4065,14.5673 58.4333,14.5727 C58.4601,14.578 58.5144,14.5833 58.5417,14.5833 L58.8195,14.5833 C58.8467,14.5833 58.901,14.578 58.9278,14.5727 C58.9546,14.5673 59.0068,14.5515 59.032,14.5411 C59.0572,14.5306 59.1054,14.5049 59.1281,14.4897 C59.1508,14.4746 59.193,14.4399 59.2123,14.4206 C59.2316,14.4013 59.2662,14.3591 59.2814,14.3364 C59.2965,14.3137 59.3223,14.2656 59.3327,14.2404 C59.3432,14.2152 59.359,14.1629 59.3643,14.1362 C59.3697,14.1094 59.375,14.0551 59.375,14.0278 L59.375,13.4722 M57.9861,14.0278 L57.9861,13.75 M57.0131,15.718 C57.0655,15.6788 57.1776,15.611 57.2366,15.5827 C57.2957,15.5545 57.4188,15.5099 57.4822,15.4937 C57.5037,15.4882 57.547,15.4787 57.5688,15.4747 C57.6941,15.4478 57.9488,15.4189 58.0769,15.417 C58.0888,15.4168 58.1126,15.4167 58.1245,15.4167 C58.2527,15.4162 58.508,15.4403 58.6339,15.4648 C58.6455,15.4671 58.6689,15.4718 58.6805,15.4743 C58.7449,15.4862 58.8707,15.5226 58.9315,15.5469 C58.9924,15.5712 59.1087,15.6314 59.1636,15.667 C59.1822,15.6791 59.2185,15.7045 59.2363,15.7177 C59.2488,15.7258 59.2721,15.7442 59.2828,15.7545 C59.2935,15.7649 59.3127,15.7875 59.3212,15.7997 C59.3297,15.8119 59.3442,15.8379 59.3501,15.8515 C59.356,15.8651 59.3652,15.8934 59.3683,15.9079 C59.3715,15.9225 59.3749,15.952 59.3752,15.9669 C59.3755,15.9817 59.3731,16.0114 59.3704,16.026 C59.3678,16.0406 59.3597,16.0692 59.3542,16.083 C59.3488,16.0969 59.3353,16.1233 59.3272,16.1358 C59.3192,16.1483 59.3007,16.1717 59.2904,16.1824 C59.2801,16.1931 59.2575,16.2123 59.2452,16.2208 C59.2432,16.2222 59.239,16.225 59.2369,16.2264 C59.1845,16.2656 59.0725,16.3334 59.0134,16.3617 C58.9543,16.3899 58.8312,16.4346 58.7678,16.4507 C58.7463,16.4562 58.703,16.4657 58.6813,16.4698 C58.5559,16.4966 58.3013,16.5256 58.1731,16.5275 C58.1612,16.5277 58.1374,16.5278 58.1255,16.5278 C57.9972,16.5283 57.7418,16.5041 57.616,16.4795 C57.6043,16.4773 57.5809,16.4725 57.5693,16.47 C57.5048,16.458 57.3789,16.4216 57.318,16.3973 C57.2572,16.373 57.1408,16.3127 57.0858,16.277 C57.0674,16.265 57.0315,16.24 57.014,16.2268 C57.0014,16.2188 56.9781,16.2004 56.9674,16.1901 C56.9567,16.1797 56.9374,16.1571 56.9289,16.1449 C56.9204,16.1327 56.9059,16.1067 56.9,16.0931 C56.894,16.0795 56.8849,16.0512 56.8817,16.0367 C56.8785,16.0221 56.8751,15.9926 56.8748,15.9778 C56.8745,15.9629 56.8769,15.9332 56.8795,15.9186 C56.8822,15.904 56.8903,15.8754 56.8957,15.8615 C56.9011,15.8477 56.9147,15.8212 56.9227,15.8087 C56.9307,15.7962 56.9491,15.7729 56.9595,15.7621 C56.9698,15.7514 56.9924,15.7322 57.0046,15.7237 C57.0067,15.7222 57.0109,15.7194 57.0131,15.718" style="stroke:#808080;stroke-width:0.25;"/>
            </g>
            <path d="M60,30 L60.4163,27.5 L59.5837,27.5 Z" style="stroke:#808080;stroke-width:0.25;fill:#808080;fill-rule:evenodd;"/>
            <path d="M60,0 L59.5837,2.5 L60.4163,2.5 Z" style="stroke:#808080;stroke-width:0.25;fill:#808080;fill-rule:evenodd;"/>
        </g>
        <path d="M69.375,30 L58.75,30 M69.375,0 L58.75,0 M60,30 L60,0 " style="stroke:#808080;stroke-width:0.25;"/>
        <!-- Aligned Dimension -->
        <g>
            <g>
                <path d="M51.875,28.0833 L51.875,26.9722 L52.9861,26.9722 L52.9861,27.5278 C52.9861,27.5551 52.9915,27.6094 52.9968,27.6361 C53.0021,27.6629 53.018,27.7151 53.0284,27.7404 C53.0388,27.7656 53.0646,27.8137 53.0797,27.8364 C53.0949,27.8591 53.1295,27.9013 53.1488,27.9206 C53.1681,27.9399 53.2103,27.9745 53.233,27.9897 C53.2557,28.0049 53.3038,28.0306 53.3291,28.041 C53.3543,28.0515 53.4065,28.0673 53.4333,28.0727 C53.46,28.078 53.5144,28.0833 53.5417,28.0833 L53.8194,28.0833 C53.8467,28.0833 53.901,28.078 53.9278,28.0727 C53.9546,28.0673 54.0068,28.0515 54.032,28.041 C54.0572,28.0306 54.1054,28.0049 54.1281,27.9897 C54.1508,27.9745 54.193,27.9399 54.2123,27.9206 C54.2316,27.9013 54.2662,27.8591 54.2814,27.8364 C54.2965,27.8137 54.3223,27.7656 54.3327,27.7404 C54.3432,27.7152 54.359,27.6629 54.3643,27.6362 C54.3696,27.6094 54.375,27.5551 54.375,27.5278 L54.375,26.9722 M51.875,28.9167 L51.875,30.0278 L54.375,29.3333 M52.9861,29.4722 L52.9861,30.0278" style="stroke:#808080;stroke-width:0.25;"/>
            </g>
            <path d="M55,0 L54.5837,2.5 L55.4163,2.5 Z" style="stroke:#808080;stroke-width:0.25;fill:#808080;fill-rule:evenodd;"/>
            <path d="M55,57 L55.4163,54.5 L54.5837,54.5 Z" style="stroke:#808080;stroke-width:0.25;fill:#808080;fill-rule:evenodd;"/>
        </g>
        <path d="M69.375,0 L53.75,0 M69.375,57 L53.75,57 M55,0 L55,57 " style="stroke:#808080;stroke-width:0.25;"/>
        <!-- Aligned Dimension -->
        <g>
            <g>
                <path d="M123.0556,64.5694 L123.6111,65.125 L123.6111,62.625 M124.4445,64.5694 L125,65.125 L125,62.625 M126.1346,64.9869 C126.0954,64.9345 126.0276,64.8224 125.9994,64.7634 C125.9712,64.7043 125.9266,64.5812 125.9104,64.5178 C125.9049,64.4963 125.8954,64.453 125.8914,64.4312 C125.8645,64.3059 125.8356,64.0512 125.8336,63.9231 C125.8335,63.9112 125.8333,63.8874 125.8334,63.8755 C125.8329,63.7473 125.857,63.492 125.8815,63.3661 C125.8837,63.3545 125.8885,63.3311 125.891,63.3195 C125.9029,63.2551 125.9393,63.1293 125.9636,63.0685 C125.9878,63.0076 126.048,62.8913 126.0837,62.8364 C126.0958,62.8178 126.1211,62.7815 126.1344,62.7637 C126.1424,62.7512 126.1609,62.7279 126.1712,62.7172 C126.1815,62.7065 126.2042,62.6873 126.2164,62.6788 C126.2286,62.6703 126.2545,62.6558 126.2682,62.6499 C126.2818,62.644 126.3101,62.6348 126.3246,62.6317 C126.3391,62.6285 126.3687,62.6251 126.3835,62.6248 C126.3984,62.6245 126.428,62.6269 126.4427,62.6296 C126.4573,62.6322 126.4859,62.6403 126.4997,62.6458 C126.5135,62.6512 126.54,62.6647 126.5525,62.6728 C126.565,62.6808 126.5883,62.6993 126.599,62.7096 C126.6097,62.7199 126.629,62.7425 126.6375,62.7548 C126.6389,62.7568 126.6417,62.761 126.643,62.7631 C126.6823,62.8155 126.7501,62.9275 126.7783,62.9866 C126.8066,63.0457 126.8512,63.1688 126.8674,63.2322 C126.8729,63.2537 126.8824,63.297 126.8864,63.3187 C126.9133,63.4441 126.9422,63.6987 126.9442,63.8269 C126.9443,63.8388 126.9445,63.8626 126.9444,63.8745 C126.9449,64.0028 126.9208,64.2582 126.8962,64.384 C126.8939,64.3957 126.8892,64.4191 126.8867,64.4307 C126.8747,64.4952 126.8383,64.6211 126.814,64.682 C126.7897,64.7428 126.7294,64.8592 126.6936,64.9142 C126.6817,64.9326 126.6566,64.9685 126.6435,64.986 C126.6355,64.9986 126.617,65.0219 126.6067,65.0326 C126.5964,65.0433 126.5738,65.0626 126.5616,65.0711 C126.5494,65.0796 126.5234,65.0941 126.5098,65.1 C126.4962,65.106 126.4679,65.1151 126.4533,65.1183 C126.4388,65.1215 126.4093,65.1249 126.3944,65.1252 C126.3796,65.1255 126.3499,65.1231 126.3353,65.1205 C126.3206,65.1178 126.292,65.1097 126.2782,65.1043 C126.2644,65.0989 126.2379,65.0853 126.2254,65.0773 C126.2129,65.0693 126.1895,65.0509 126.1788,65.0405 C126.1681,65.0302 126.1488,65.0076 126.1403,64.9954 C126.1389,64.9933 126.136,64.9891 126.1346,64.9869" style="stroke:#808080;stroke-width:0.25;"/>
            </g>
            <path d="M70,62 L72.5,62.4163 L72.5,61.5837 Z" style="stroke:#808080;stroke-width:0.25;fill:#808080;fill-rule:evenodd;"/>
            <path d="M180,62 L177.5,61.5837 L177.5,62.4163 Z" style="stroke:#808080;stroke-width:0.25;fill:#808080;fill-rule:evenodd;"/>
        </g>
        <path d="M70,57.625 L70,63.25 M180,57.625 L180,63.25 M70,62 L180,62 " style="stroke:#808080;stroke-width:0.25;"/>
        <!-- Aligned Dimension -->
        <g>
            <g>
                <path d="M97.0833,52.125 L95.9722,52.125 L95.9722,51.0139 L96.5278,51.0139 C96.5551,51.0139 96.6094,51.0085 96.6361,51.0032 C96.6629,50.9979 96.7151,50.982 96.7404,50.9716 C96.7656,50.9612 96.8137,50.9354 96.8364,50.9203 C96.8591,50.9051 96.9013,50.8705 96.9206,50.8512 C96.9399,50.8319 96.9745,50.7897 96.9897,50.767 C97.0049,50.7443 97.0306,50.6962 97.041,50.6709 C97.0515,50.6457 97.0673,50.5935 97.0727,50.5667 C97.078,50.54 97.0833,50.4856 97.0833,50.4583 L97.0833,50.1806 C97.0833,50.1533 97.078,50.099 97.0727,50.0722 C97.0673,50.0454 97.0515,49.9932 97.041,49.968 C97.0306,49.9428 97.0049,49.8946 96.9897,49.8719 C96.9745,49.8492 96.9399,49.807 96.9206,49.7877 C96.9013,49.7684 96.8591,49.7338 96.8364,49.7186 C96.8137,49.7035 96.7656,49.6777 96.7404,49.6673 C96.7152,49.6568 96.6629,49.641 96.6362,49.6357 C96.6094,49.6304 96.5551,49.625 96.5278,49.625 L95.9722,49.625 M99.0278,52.125 L97.9167,52.125 L97.9167,51.0139 L98.4722,51.0139 C98.4995,51.0139 98.5538,51.0085 98.5806,51.0032 C98.6074,50.9979 98.6596,50.982 98.6848,50.9716 C98.71,50.9612 98.7582,50.9354 98.7809,50.9203 C98.8035,50.9051 98.8457,50.8705 98.865,50.8512 C98.8843,50.8319 98.919,50.7897 98.9341,50.767 C98.9493,50.7443 98.975,50.6962 98.9855,50.6709 C98.9959,50.6457 99.0118,50.5935 99.0171,50.5667 C99.0224,50.54 99.0278,50.4856 99.0278,50.4583 L99.0278,50.1806 C99.0278,50.1533 99.0224,50.099 99.0171,50.0722 C99.0118,50.0454 98.9959,49.9932 98.9855,49.968 C98.975,49.9428 98.9493,49.8946 98.9342,49.8719 C98.919,49.8492 98.8844,49.807 98.8651,49.7877 C98.8458,49.7684 98.8036,49.7338 98.7809,49.7186 C98.7582,49.7035 98.71,49.6777 98.6848,49.6673 C98.6596,49.6568 98.6074,49.641 98.5806,49.6357 C98.5538,49.6304 98.4995,49.625 98.4722,49.625 L97.9167,49.625" style="stroke:#808080;stroke-width:0.25;"/>
            </g>
            <path d="M125,49 L122.5,48.5837 L122.5,49.4163 Z" style="stroke:#808080;stroke-width:0.25;fill:#808080;fill-rule:evenodd;"/>
            <path d="M70,49 L72.5,49.4163 L72.5,48.5837 Z" style="stroke:#808080;stroke-width:0.25;fill:#808080;fill-rule:evenodd;"/>
        </g>
        <path d="M125,49.625 L125,50.25 M70,49.625 L70,50.25 M125,49 L70,49 " style="stroke:#808080;stroke-width:0.25;"/>
        <!-- Aligned Dimension -->
        <g>
            <g>
                <path d="M124.1667,41.125 L123.0556,41.125 L123.0556,40.0139 L123.6111,40.0139 C123.6384,40.0139 123.6927,40.0085 123.7195,40.0032 C123.7462,39.9979 123.7985,39.982 123.8237,39.9716 C123.8489,39.9612 123.8971,39.9354 123.9197,39.9203 C123.9424,39.9051 123.9846,39.8705 124.0039,39.8512 C124.0232,39.8319 124.0579,39.7897 124.073,39.767 C124.0882,39.7443 124.1139,39.6962 124.1244,39.6709 C124.1348,39.6457 124.1507,39.5935 124.156,39.5667 C124.1613,39.54 124.1667,39.4856 124.1667,39.4583 L124.1667,39.1806 C124.1667,39.1533 124.1613,39.099 124.156,39.0722 C124.1507,39.0454 124.1348,38.9932 124.1244,38.968 C124.1139,38.9428 124.0882,38.8946 124.073,38.8719 C124.0579,38.8492 124.0233,38.807 124.004,38.7877 C123.9847,38.7684 123.9425,38.7338 123.9198,38.7186 C123.8971,38.7035 123.8489,38.6777 123.8237,38.6673 C123.7985,38.6568 123.7463,38.641 123.7195,38.6357 C123.6927,38.6304 123.6384,38.625 123.6111,38.625 L123.0556,38.625 M125,38.625 L125,38.7639 M126.9444,38.625 L125.8333,38.625 L126.9069,40.4714 C126.9138,40.4832 126.9251,40.508 126.9295,40.5209 C126.9339,40.5338 126.9402,40.5603 126.942,40.5738 C126.9438,40.5873 126.9448,40.6146 126.9439,40.6282 C126.9431,40.6418 126.9387,40.6687 126.9352,40.6819 C126.9335,40.6886 126.9292,40.7018 126.9268,40.7083 C126.92,40.7347 126.9012,40.7859 126.8894,40.8105 C126.8775,40.8351 126.8491,40.8817 126.8327,40.9035 C126.8163,40.9253 126.7794,40.9655 126.759,40.9837 C126.7386,41.0019 126.6946,41.0341 126.6711,41.0479 C126.6475,41.0618 126.598,41.0848 126.5723,41.0938 C126.5465,41.1028 126.4935,41.1157 126.4664,41.1195 C126.4394,41.1233 126.3849,41.1256 126.3576,41.1241 C126.3304,41.1225 126.2764,41.1141 126.25,41.1073 C126.2236,41.1005 126.1723,41.0817 126.1477,41.0699 C126.1231,41.058 126.0765,41.0296 126.0547,41.0132 C126.0329,40.9968 125.9927,40.9599 125.9746,40.9395 C125.9564,40.9191 125.9242,40.8751 125.9103,40.8516 C125.8964,40.828 125.8735,40.7785 125.8645,40.7528 C125.8606,40.7419 125.8539,40.7197 125.851,40.7086" style="stroke:#808080;stroke-width:0.25;"/>
            </g>
            <path d="M122.4,38 L119.9,37.5837 L119.9,38.4163 Z" style="stroke:#808080;stroke-width:0.25;fill:#808080;fill-rule:evenodd;"/>
            <path d="M127.6,38 L130.1,38.4163 L130.1,37.5837 Z" style="stroke:#808080;stroke-width:0.25;fill:#808080;fill-rule:evenodd;"/>
        </g>
        <path d="M122.4,33.625 L122.4,39.25 M127.6,33.625 L127.6,39.25 M117.4,38 L132.6,38 " style="stroke:#808080;stroke-width:0.25;"/>
        <!-- Line -->
        <path d="M-40,70 L190,70 " style="stroke:#000000;stroke-width:0.25;"/>
        <!-- Line -->
        <path d="M190,70 L190,-40 " style="stroke:#000000;stroke-width:0.25;"/>
        <!-- Line -->
        <path d="M190,-40 L-40,-40 " style="stroke:#000000;stroke-width:0.25;"/>
        <!-- Line -->
        <path d="M-40,-40 L-40,70 " style="stroke:#000000;stroke-width:0.25;"/>
    </g>
</svg>
