<?xml version="1.0" encoding="UTF-8"?>
<!-- Sat Jan 31 06:58:36 2026 Generated by QCAD 3.32.6 SVG Exporter -->
<svg width="189.625mm" height="136.9803mm" viewBox="-26.375 -99.425 189.625 136.9803" version="1.1" xmlns="http://www.w3.org/2000/svg" style="stroke-linecap:round;stroke-linejoin:round;fill:none">
    <g transform="scale(1,-1)">
        <!-- Text: Front -->
        <g>
            <path d="M-6.2709,-36.9673 L-6.2709,-32.9673 L-3.5724,-32.9673 L-3.5724,-33.4393 L-5.7416,-33.4393 L-5.7416,-34.678 L-3.8643,-34.678 L-3.8643,-35.1501 L-5.7416,-35.1501 L-5.7416,-36.9673 Z M-2.9533,-36.9673 L-2.9533,-34.0696 L-2.5113,-34.0696 L-2.5113,-34.5089 C-2.3985,-34.3033 -2.2944,-34.1678 -2.1989,-34.1023 C-2.1034,-34.0368 -1.9984,-34.0041 -1.8838,-34.0041 C-1.7182,-34.0041 -1.55,-34.0568 -1.379,-34.1623 L-1.5482,-34.618 C-1.6682,-34.5471 -1.7883,-34.5116 -1.9083,-34.5116 C-2.0156,-34.5116 -2.1121,-34.5439 -2.1975,-34.6085 C-2.283,-34.673 -2.344,-34.7626 -2.3804,-34.8772 C-2.4349,-35.0518 -2.4622,-35.2428 -2.4622,-35.4502 L-2.4622,-36.9673 Z M-1.2701,-35.5184 C-1.2701,-34.9818 -1.1209,-34.5844 -0.8226,-34.3261 C-0.5734,-34.1114 -0.2696,-34.0041 0.0887,-34.0041 C0.4871,-34.0041 0.8127,-34.1346 1.0655,-34.3956 C1.3184,-34.6567 1.4448,-35.0173 1.4448,-35.4775 C1.4448,-35.8504 1.3889,-36.1437 1.277,-36.3574 C1.1651,-36.5712 1.0023,-36.7372 0.7886,-36.8554 C0.5749,-36.9736 0.3416,-37.0327 0.0887,-37.0327 C-0.3169,-37.0327 -0.6448,-36.9027 -0.8949,-36.6426 C-1.145,-36.3824 -1.2701,-36.0077 -1.2701,-35.5184 M-0.7653,-35.5184 C-0.7653,-35.8895 -0.6843,-36.1673 -0.5225,-36.352 C-0.3606,-36.5366 -0.1568,-36.6289 0.0887,-36.6289 C0.3325,-36.6289 0.5353,-36.5362 0.6972,-36.3506 C0.8591,-36.1651 0.94,-35.8822 0.94,-35.502 C0.94,-35.1437 0.8586,-34.8722 0.6958,-34.6876 C0.533,-34.503 0.3307,-34.4106 0.0887,-34.4106 C-0.1568,-34.4106 -0.3606,-34.5025 -0.5225,-34.6862 C-0.6843,-34.8699 -0.7653,-35.1473 -0.7653,-35.5184 M2.0202,-36.9673 L2.0202,-34.0696 L2.4622,-34.0696 L2.4622,-34.4816 C2.675,-34.1633 2.9824,-34.0041 3.3844,-34.0041 C3.5591,-34.0041 3.7196,-34.0355 3.866,-34.0982 C4.0125,-34.161 4.1221,-34.2433 4.1948,-34.3452 C4.2676,-34.447 4.3185,-34.568 4.3476,-34.708 C4.3658,-34.799 4.3749,-34.9582 4.3749,-35.1855 L4.3749,-36.9673 L3.8838,-36.9673 L3.8838,-35.2046 C3.8838,-35.0045 3.8647,-34.8549 3.8265,-34.7558 C3.7883,-34.6567 3.7205,-34.5775 3.6232,-34.5184 C3.5259,-34.4593 3.4117,-34.4297 3.2808,-34.4297 C3.0716,-34.4297 2.891,-34.4961 2.7392,-34.6289 C2.5873,-34.7617 2.5113,-35.0136 2.5113,-35.3847 L2.5113,-36.9673 Z M6.1999,-36.528 L6.2709,-36.9618 C6.1326,-36.9909 6.0089,-37.0055 5.8998,-37.0055 C5.7215,-37.0055 5.5833,-36.9773 5.4851,-36.9209 C5.3868,-36.8645 5.3177,-36.7904 5.2777,-36.6985 C5.2377,-36.6066 5.2177,-36.4134 5.2177,-36.1187 L5.2177,-34.4516 L4.8575,-34.4516 L4.8575,-34.0696 L5.2177,-34.0696 L5.2177,-33.352 L5.7061,-33.0573 L5.7061,-34.0696 L6.1999,-34.0696 L6.1999,-34.4516 L5.7061,-34.4516 L5.7061,-36.146 C5.7061,-36.286 5.7147,-36.3761 5.732,-36.4161 C5.7493,-36.4561 5.7775,-36.4879 5.8166,-36.5116 C5.8557,-36.5352 5.9116,-36.5471 5.9844,-36.5471 C6.039,-36.5471 6.1108,-36.5407 6.1999,-36.528" style="fill:#000000;fill-rule:nonzero;"/>
        </g>
        <!-- Text: Side -->
        <g>
            <path d="M62.6503,-35.7149 L63.1496,-35.6712 C63.1732,-35.8713 63.2282,-36.0355 63.3147,-36.1637 C63.4011,-36.292 63.5352,-36.3956 63.7171,-36.4748 C63.899,-36.5539 64.1036,-36.5935 64.331,-36.5935 C64.5329,-36.5935 64.7112,-36.5634 64.8658,-36.5034 C65.0204,-36.4434 65.1355,-36.3611 65.211,-36.2565 C65.2865,-36.1519 65.3242,-36.0377 65.3242,-35.9141 C65.3242,-35.7885 65.2878,-35.6789 65.2151,-35.5853 C65.1423,-35.4916 65.0222,-35.4129 64.8549,-35.3492 C64.7476,-35.3074 64.5102,-35.2424 64.1428,-35.1542 C63.7753,-35.0659 63.5179,-34.9827 63.3706,-34.9045 C63.1796,-34.8045 63.0373,-34.6803 62.9436,-34.5321 C62.8499,-34.3838 62.8031,-34.2178 62.8031,-34.0341 C62.8031,-33.8322 62.8604,-33.6435 62.975,-33.4679 C63.0895,-33.2924 63.2569,-33.1592 63.477,-33.0682 C63.6971,-32.9773 63.9418,-32.9318 64.211,-32.9318 C64.5075,-32.9318 64.7689,-32.9795 64.9954,-33.075 C65.2219,-33.1705 65.3961,-33.3111 65.5179,-33.4966 C65.6398,-33.6821 65.7053,-33.8922 65.7144,-34.1269 L65.2069,-34.1651 C65.1796,-33.9122 65.0873,-33.7212 64.9299,-33.5921 C64.7726,-33.4629 64.5402,-33.3984 64.2328,-33.3984 C63.9127,-33.3984 63.6794,-33.457 63.5329,-33.5744 C63.3865,-33.6917 63.3133,-33.8331 63.3133,-33.9986 C63.3133,-34.1423 63.3651,-34.2606 63.4688,-34.3533 C63.5707,-34.4461 63.8367,-34.5412 64.2669,-34.6385 C64.6971,-34.7358 64.9922,-34.8208 65.1523,-34.8936 C65.3851,-35.0009 65.557,-35.1369 65.668,-35.3015 C65.779,-35.4661 65.8344,-35.6558 65.8344,-35.8704 C65.8344,-36.0832 65.7735,-36.2838 65.6516,-36.472 C65.5297,-36.6603 65.3547,-36.8067 65.1264,-36.9113 C64.8981,-37.0159 64.6412,-37.0682 64.3556,-37.0682 C63.9936,-37.0682 63.6903,-37.0155 63.4456,-36.91 C63.201,-36.8045 63.0091,-36.6457 62.8699,-36.4338 C62.7308,-36.2219 62.6575,-35.9823 62.6503,-35.7149 M66.4968,-33.5648 L66.4968,-33 L66.9879,-33 L66.9879,-33.5648 Z M66.4968,-37 L66.4968,-34.1023 L66.9879,-34.1023 L66.9879,-37 Z M69.6147,-37 L69.6147,-36.6344 C69.431,-36.9218 69.1609,-37.0655 68.8044,-37.0655 C68.5734,-37.0655 68.361,-37.0018 68.1673,-36.8745 C67.9735,-36.7472 67.8235,-36.5693 67.7171,-36.3411 C67.6106,-36.1128 67.5574,-35.8504 67.5574,-35.5539 C67.5574,-35.2647 67.6056,-35.0023 67.702,-34.7667 C67.7985,-34.5312 67.9431,-34.3506 68.1359,-34.2251 C68.3287,-34.0996 68.5442,-34.0368 68.7825,-34.0368 C68.9572,-34.0368 69.1127,-34.0737 69.2491,-34.1473 C69.3855,-34.221 69.4965,-34.317 69.582,-34.4352 L69.582,-33 L70.0704,-33 L70.0704,-37 Z M68.0622,-35.5539 C68.0622,-35.925 68.1404,-36.2024 68.2969,-36.3861 C68.4533,-36.5698 68.6379,-36.6617 68.8508,-36.6617 C69.0654,-36.6617 69.2477,-36.5739 69.3978,-36.3984 C69.5479,-36.2228 69.6229,-35.955 69.6229,-35.5948 C69.6229,-35.1983 69.5465,-34.9072 69.3937,-34.7217 C69.2409,-34.5362 69.0527,-34.4434 68.8289,-34.4434 C68.6106,-34.4434 68.4283,-34.5325 68.2819,-34.7108 C68.1354,-34.889 68.0622,-35.1701 68.0622,-35.5539 M72.8259,-36.0668 L73.3334,-36.1296 C73.2533,-36.4261 73.1051,-36.6562 72.8886,-36.8199 C72.6722,-36.9836 72.3957,-37.0655 72.0592,-37.0655 C71.6353,-37.0655 71.2993,-36.935 71.051,-36.6739 C70.8027,-36.4129 70.6785,-36.0468 70.6785,-35.5757 C70.6785,-35.0882 70.804,-34.7099 71.0551,-34.4407 C71.3061,-34.1714 71.6317,-34.0368 72.0319,-34.0368 C72.4193,-34.0368 72.7358,-34.1687 72.9814,-34.4325 C73.227,-34.6962 73.3497,-35.0673 73.3497,-35.5457 C73.3497,-35.5748 73.3488,-35.6185 73.347,-35.6767 L71.186,-35.6767 C71.2042,-35.995 71.2943,-36.2387 71.4562,-36.4079 C71.618,-36.5771 71.82,-36.6617 72.0619,-36.6617 C72.242,-36.6617 72.3957,-36.6144 72.523,-36.5198 C72.6503,-36.4252 72.7513,-36.2742 72.8259,-36.0668 M71.2133,-35.2729 L72.8313,-35.2729 C72.8095,-35.0291 72.7476,-34.8463 72.6458,-34.7244 C72.4893,-34.5352 72.2865,-34.4407 72.0373,-34.4407 C71.8118,-34.4407 71.6221,-34.5161 71.4684,-34.6671 C71.3147,-34.8181 71.2297,-35.02 71.2133,-35.2729" style="fill:#000000;fill-rule:nonzero;"/>
        </g>
        <!-- Text: Top -->
        <g>
            <path d="M126.9906,-36.4447 L126.9906,-32.9168 L125.6727,-32.9168 L125.6727,-32.4447 L128.8433,-32.4447 L128.8433,-32.9168 L127.5199,-32.9168 L127.5199,-36.4447 Z M128.5213,-34.9959 C128.5213,-34.4593 128.6705,-34.0618 128.9688,-33.8035 C129.218,-33.5889 129.5218,-33.4816 129.8801,-33.4816 C130.2785,-33.4816 130.6041,-33.6121 130.8569,-33.8731 C131.1098,-34.1342 131.2362,-34.4948 131.2362,-34.955 C131.2362,-35.3279 131.1802,-35.6212 131.0684,-35.8349 C130.9565,-36.0487 130.7937,-36.2146 130.58,-36.3329 C130.3662,-36.4511 130.133,-36.5102 129.8801,-36.5102 C129.4745,-36.5102 129.1466,-36.3802 128.8965,-36.1201 C128.6464,-35.8599 128.5213,-35.4852 128.5213,-34.9959 M129.0261,-34.9959 C129.0261,-35.367 129.107,-35.6448 129.2689,-35.8295 C129.4308,-36.0141 129.6345,-36.1064 129.8801,-36.1064 C130.1239,-36.1064 130.3267,-36.0136 130.4886,-35.8281 C130.6505,-35.6426 130.7314,-35.3597 130.7314,-34.9795 C130.7314,-34.6212 130.65,-34.3497 130.4872,-34.1651 C130.3244,-33.9804 130.122,-33.8881 129.8801,-33.8881 C129.6345,-33.8881 129.4308,-33.98 129.2689,-34.1637 C129.107,-34.3474 129.0261,-34.6248 129.0261,-34.9959 M131.8116,-37.5553 L131.8116,-33.5471 L132.259,-33.5471 L132.259,-33.9236 C132.3645,-33.7763 132.4837,-33.6658 132.6165,-33.5921 C132.7493,-33.5184 132.9103,-33.4816 133.0994,-33.4816 C133.3468,-33.4816 133.5651,-33.5452 133.7543,-33.6726 C133.9434,-33.7999 134.0862,-33.9795 134.1826,-34.2115 C134.2791,-34.4434 134.3273,-34.6976 134.3273,-34.9741 C134.3273,-35.2706 134.2741,-35.5375 134.1676,-35.7749 C134.0612,-36.0123 133.9066,-36.1942 133.7038,-36.3206 C133.501,-36.447 133.2877,-36.5102 133.064,-36.5102 C132.9002,-36.5102 132.7534,-36.4757 132.6233,-36.4065 C132.4932,-36.3374 132.3864,-36.2501 132.3027,-36.1446 L132.3027,-37.5553 Z M132.2563,-35.0123 C132.2563,-35.3852 132.3318,-35.6608 132.4828,-35.839 C132.6338,-36.0173 132.8166,-36.1064 133.0312,-36.1064 C133.2495,-36.1064 133.4364,-36.0141 133.5919,-35.8295 C133.7474,-35.6448 133.8252,-35.3588 133.8252,-34.9714 C133.8252,-34.6021 133.7493,-34.3256 133.5974,-34.1419 C133.4455,-33.9582 133.264,-33.8663 133.053,-33.8663 C132.8439,-33.8663 132.6588,-33.9641 132.4978,-34.1596 C132.3368,-34.3552 132.2563,-34.6394 132.2563,-35.0123" style="fill:#000000;fill-rule:nonzero;"/>
        </g>
        <!-- Block Reference: Bolt Large / entities: 7 -->
        <g>
            <!-- Line -->
            <path d="M-17,-5 L17,-5 " style="stroke:#000000;stroke-width:0.25;"/>
            <!-- Line -->
            <path d="M17,-5 L17,0 " style="stroke:#000000;stroke-width:0.25;"/>
            <!-- Line -->
            <path d="M17,0 L-17,0 " style="stroke:#000000;stroke-width:0.25;"/>
            <!-- Line -->
            <path d="M-17,0 L-17,-5 " style="stroke:#000000;stroke-width:0.25;"/>
            <!-- Line -->
            <path d="M13.25,0 L13.25,76.3 " style="stroke:#000000;stroke-width:0.25;"/>
            <!-- Line -->
            <path d="M13.25,76.3 L-13.25,76.3 " style="stroke:#000000;stroke-width:0.25;"/>
            <!-- Line -->
            <path d="M-13.25,76.3 L-13.25,0 " style="stroke:#000000;stroke-width:0.25;"/>
            <!-- Line -->
            <path d="M43,-5 L77,-5 " style="stroke:#000000;stroke-width:0.25;"/>
            <!-- Line -->
            <path d="M77,-5 L77,0 " style="stroke:#000000;stroke-width:0.25;"/>
            <!-- Line -->
            <path d="M77,0 L43,0 " style="stroke:#000000;stroke-width:0.25;"/>
            <!-- Line -->
            <path d="M43,0 L43,-5 " style="stroke:#000000;stroke-width:0.25;"/>
            <!-- Line -->
            <path d="M73.25,0 L73.25,76.3 " style="stroke:#000000;stroke-width:0.25;"/>
            <!-- Line -->
            <path d="M73.25,76.3 L46.75,76.3 " style="stroke:#000000;stroke-width:0.25;"/>
            <!-- Line -->
            <path d="M46.75,76.3 L46.75,0 " style="stroke:#000000;stroke-width:0.25;"/>
        </g>
        <!-- Block Reference: Bolt Small / entities: 8 -->
        <g>
            <!-- Line -->
            <path d="M-12,0 L12,0 " style="stroke:#000000;stroke-width:0.25;"/>
            <!-- Line -->
            <path d="M12,0 L12,-5 " style="stroke:#000000;stroke-width:0.25;"/>
            <!-- Line -->
            <path d="M12,-5 L-12,-5 " style="stroke:#000000;stroke-width:0.25;"/>
            <!-- Line -->
            <path d="M-12,-5 L-12,0 " style="stroke:#000000;stroke-width:0.25;"/>
            <!-- Line -->
            <path d="M-8.25,0 L8.25,0 " style="stroke:#000000;stroke-width:0.25;"/>
            <!-- Line -->
            <path d="M8.25,0 L8.25,76.3 " style="stroke:#000000;stroke-width:0.25;"/>
            <!-- Line -->
            <path d="M8.25,76.3 L-8.25,76.3 " style="stroke:#000000;stroke-width:0.25;"/>
            <!-- Line -->
            <path d="M-8.25,76.3 L-8.25,0 " style="stroke:#000000;stroke-width:0.25;"/>
            <!-- Line -->
            <path d="M64,0 L88,0 " style="stroke:#000000;stroke-width:0.25;"/>
            <!-- Line -->
            <path d="M88,0 L88,-5 " style="stroke:#000000;stroke-width:0.25;"/>
            <!-- Line -->
            <path d="M88,-5 L64,-5 " style="stroke:#000000;stroke-width:0.25;"/>
            <!-- Line -->
            <path d="M64,-5 L64,0 " style="stroke:#000000;stroke-width:0.25;"/>
            <!-- Line -->
            <path d="M67.75,0 L84.25,0 " style="stroke:#000000;stroke-width:0.25;"/>
            <!-- Line -->
            <path d="M84.25,0 L84.25,76.3 " style="stroke:#000000;stroke-width:0.25;"/>
            <!-- Line -->
            <path d="M84.25,76.3 L67.75,76.3 " style="stroke:#000000;stroke-width:0.25;"/>
            <!-- Line -->
            <path d="M67.75,76.3 L67.75,0 " style="stroke:#000000;stroke-width:0.25;"/>
        </g>
        <!-- Block Reference: Thread Insert / entities: 16 -->
        <g>
            <!-- Line -->
            <path d="M-3.3,76.3 L3.3,76.3 " style="stroke:#000000;stroke-width:0.25;"/>
            <!-- Line -->
            <path d="M3.3,76.3 L3.3,64.3 " style="stroke:#000000;stroke-width:0.25;"/>
            <!-- Line -->
            <path d="M3.3,64.3 L-3.3,64.3 " style="stroke:#000000;stroke-width:0.25;"/>
            <!-- Line -->
            <path d="M-3.3,64.3 L-3.3,76.3 " style="stroke:#000000;stroke-width:0.25;"/>
            <!-- Line -->
            <path d="M3.3,64.3 L3.3,64.3 " style="stroke:#000000;stroke-width:0.25;"/>
            <!-- Line -->
            <path d="M3.3,64.3 L3.3,64.3 " style="stroke:#000000;stroke-width:0.25;"/>
            <!-- Line -->
            <path d="M3.3,64.3 L3.3,64.3 " style="stroke:#000000;stroke-width:0.25;"/>
            <!-- Line -->
            <path d="M3.3,64.3 L3.3,64.3 " style="stroke:#000000;stroke-width:0.25;"/>
            <!-- Line -->
            <path d="M-2.5,64.3 L2.5,64.3 " style="stroke:#000000;stroke-width:0.25;"/>
            <!-- Line -->
            <path d="M2.5,64.3 L2.5,59.3 " style="stroke:#000000;stroke-width:0.25;"/>
            <!-- Line -->
            <path d="M2.5,59.3 L-2.5,59.3 " style="stroke:#000000;stroke-width:0.25;"/>
            <!-- Line -->
            <path d="M-2.5,59.3 L-2.5,64.3 " style="stroke:#000000;stroke-width:0.25;"/>
            <!-- Line -->
            <path d="M2.5,59.3 L2.5,59.3 " style="stroke:#000000;stroke-width:0.25;"/>
            <!-- Line -->
            <path d="M2.5,59.3 L2.5,59.3 " style="stroke:#000000;stroke-width:0.25;"/>
            <!-- Line -->
            <path d="M2.5,59.3 L2.5,59.3 " style="stroke:#000000;stroke-width:0.25;"/>
            <!-- Line -->
            <path d="M2.5,59.3 L2.5,59.3 " style="stroke:#000000;stroke-width:0.25;"/>
        </g>
        <!-- Block Reference: Thread Insert / entities: 16 -->
        <g>
            <!-- Line -->
            <path d="M56.7,76.3 L63.3,76.3 " style="stroke:#000000;stroke-width:0.25;"/>
            <!-- Line -->
            <path d="M63.3,76.3 L63.3,64.3 " style="stroke:#000000;stroke-width:0.25;"/>
            <!-- Line -->
            <path d="M63.3,64.3 L56.7,64.3 " style="stroke:#000000;stroke-width:0.25;"/>
            <!-- Line -->
            <path d="M56.7,64.3 L56.7,76.3 " style="stroke:#000000;stroke-width:0.25;"/>
            <!-- Line -->
            <path d="M63.3,64.3 L63.3,64.3 " style="stroke:#000000;stroke-width:0.25;"/>
            <!-- Line -->
            <path d="M63.3,64.3 L63.3,64.3 " style="stroke:#000000;stroke-width:0.25;"/>
            <!-- Line -->
            <path d="M63.3,64.3 L63.3,64.3 " style="stroke:#000000;stroke-width:0.25;"/>
            <!-- Line -->
            <path d="M63.3,64.3 L63.3,64.3 " style="stroke:#000000;stroke-width:0.25;"/>
            <!-- Line -->
            <path d="M57.5,64.3 L62.5,64.3 " style="stroke:#000000;stroke-width:0.25;"/>
            <!-- Line -->
            <path d="M62.5,64.3 L62.5,59.3 " style="stroke:#000000;stroke-width:0.25;"/>
            <!-- Line -->
            <path d="M62.5,59.3 L57.5,59.3 " style="stroke:#000000;stroke-width:0.25;"/>
            <!-- Line -->
            <path d="M57.5,59.3 L57.5,64.3 " style="stroke:#000000;stroke-width:0.25;"/>
            <!-- Line -->
            <path d="M62.5,59.3 L62.5,59.3 " style="stroke:#000000;stroke-width:0.25;"/>
            <!-- Line -->
            <path d="M62.5,59.3 L62.5,59.3 " style="stroke:#000000;stroke-width:0.25;"/>
            <!-- Line -->
            <path d="M62.5,59.3 L62.5,59.3 " style="stroke:#000000;stroke-width:0.25;"/>
            <!-- Line -->
            <path d="M62.5,59.3 L62.5,59.3 " style="stroke:#000000;stroke-width:0.25;"/>
            <!-- Line -->
            <path d="M72.7,76.3 L79.3,76.3 " style="stroke:#000000;stroke-width:0.25;"/>
            <!-- Line -->
            <path d="M79.3,76.3 L79.3,64.3 " style="stroke:#000000;stroke-width:0.25;"/>
            <!-- Line -->
            <path d="M79.3,64.3 L72.7,64.3 " style="stroke:#000000;stroke-width:0.25;"/>
            <!-- Line -->
            <path d="M72.7,64.3 L72.7,76.3 " style="stroke:#000000;stroke-width:0.25;"/>
            <!-- Line -->
            <path d="M79.3,64.3 L79.3,64.3 " style="stroke:#000000;stroke-width:0.25;"/>
            <!-- Line -->
            <path d="M79.3,64.3 L79.3,64.3 " style="stroke:#000000;stroke-width:0.25;"/>
            <!-- Line -->
            <path d="M79.3,64.3 L79.3,64.3 " style="stroke:#000000;stroke-width:0.25;"/>
            <!-- Line -->
            <path d="M79.3,64.3 L79.3,64.3 " style="stroke:#000000;stroke-width:0.25;"/>
            <!-- Line -->
            <path d="M73.5,64.3 L78.5,64.3 " style="stroke:#000000;stroke-width:0.25;"/>
            <!-- Line -->
            <path d="M78.5,64.3 L78.5,59.3 " style="stroke:#000000;stroke-width:0.25;"/>
            <!-- Line -->
            <path d="M78.5,59.3 L73.5,59.3 " style="stroke:#000000;stroke-width:0.25;"/>
            <!-- Line -->
            <path d="M73.5,59.3 L73.5,64.3 " style="stroke:#000000;stroke-width:0.25;"/>
            <!-- Line -->
            <path d="M78.5,59.3 L78.5,59.3 " style="stroke:#000000;stroke-width:0.25;"/>
            <!-- Line -->
            <path d="M78.5,59.3 L78.5,59.3 " style="stroke:#000000;stroke-width:0.25;"/>
            <!-- Line -->
            <path d="M78.5,59.3 L78.5,59.3 " style="stroke:#000000;stroke-width:0.25;"/>
            <!-- Line -->
            <path d="M78.5,59.3 L78.5,59.3 " style="stroke:#000000;stroke-width:0.25;"/>
        </g>
        <!-- Circle -->
        <circle cx="130" cy="0" r="17.00000000002387" style="stroke:#000000;stroke-width:0.25;"/>
        <!-- Circle -->
        <circle cx="130" cy="0" r="2.499999999685751" style="stroke:#000000;stroke-width:0.25;"/>
        <!-- Circle -->
        <circle cx="130" cy="0" r="3.300000000116094" style="stroke:#000000;stroke-width:0.25;"/>
        <!-- Circle -->
        <circle cx="130" cy="0" r="13.25000000004975" style="stroke:#000000;stroke-width:0.25;"/>
        <!-- Circle -->
        <circle cx="130" cy="16" r="2.499999999685751" style="stroke:#000000;stroke-width:0.25;"/>
        <!-- Circle -->
        <circle cx="130" cy="16" r="3.300000000116094" style="stroke:#000000;stroke-width:0.25;"/>
        <!-- Circle -->
        <!-- Circle -->
        <!-- Circle -->
        <!-- Circle -->
        <circle cx="130" cy="16" r="12.00000000004071" style="stroke:#000000;stroke-width:0.25;"/>
        <!-- Circle -->
        <circle cx="130" cy="16" r="8.25" style="stroke:#000000;stroke-width:0.25;"/>
        <!-- Line -->
        <path d="M118,16 L118,12 " style="stroke:#000000;stroke-width:0.25;"/>
        <!-- Line -->
        <path d="M142,16 L142,12 " style="stroke:#000000;stroke-width:0.25;"/>
        <!-- Aligned Dimension -->
        <g>
            <g>
                <path d="M130.5556,-18.875 L129.4444,-18.875 L129.4444,-19.9861 L130,-19.9861 C130.0273,-19.9861 130.0816,-19.9915 130.1084,-19.9968 C130.1351,-20.0021 130.1874,-20.018 130.2126,-20.0284 C130.2378,-20.0388 130.2859,-20.0646 130.3086,-20.0797 C130.3313,-20.0949 130.3735,-20.1295 130.3928,-20.1488 C130.4121,-20.1681 130.4468,-20.2103 130.4619,-20.233 C130.4771,-20.2557 130.5028,-20.3038 130.5133,-20.3291 C130.5237,-20.3543 130.5396,-20.4065 130.5449,-20.4333 C130.5502,-20.46 130.5556,-20.5144 130.5556,-20.5417 L130.5556,-20.8194 C130.5556,-20.8467 130.5502,-20.901 130.5449,-20.9278 C130.5396,-20.9546 130.5237,-21.0068 130.5133,-21.032 C130.5028,-21.0572 130.4771,-21.1054 130.4619,-21.1281 C130.4468,-21.1508 130.4121,-21.193 130.3928,-21.2123 C130.3735,-21.2316 130.3313,-21.2662 130.3087,-21.2814 C130.286,-21.2965 130.2378,-21.3223 130.2126,-21.3327 C130.1874,-21.3432 130.1352,-21.359 130.1084,-21.3643 C130.0816,-21.3696 130.0273,-21.375 130,-21.375 L129.4444,-21.375" style="stroke:#808080;stroke-width:0.25;"/>
            </g>
            <path d="M127.5,-22 L125,-22.4163 L125,-21.5837 Z" style="stroke:#808080;stroke-width:0.25;fill:#808080;fill-rule:evenodd;"/>
            <path d="M132.5,-22 L135,-21.5837 L135,-22.4163 Z" style="stroke:#808080;stroke-width:0.25;fill:#808080;fill-rule:evenodd;"/>
        </g>
        <path d="M127.5,-0.625 L127.5,-23.25 M132.5,-0.625 L132.5,-23.25 M122.5,-22 L137.5,-22 " style="stroke:#808080;stroke-width:0.25;"/>
        <!-- Aligned Dimension -->
        <g>
            <g>
                <path d="M128.8889,-23.875 C128.818,-23.9159 128.6849,-24.0113 128.6233,-24.0653 C128.5617,-24.1193 128.4498,-24.2389 128.3999,-24.3039 C128.3501,-24.3688 128.2636,-24.5079 128.2274,-24.5814 C128.1912,-24.6548 128.1335,-24.8081 128.1123,-24.8872 C128.0911,-24.9663 128.0645,-25.1279 128.0591,-25.2096 C128.0573,-25.2368 128.0556,-25.2912 128.0556,-25.3184 L128.0556,-25.8195 C128.0556,-25.8468 128.0609,-25.9011 128.0662,-25.9279 C128.0716,-25.9546 128.0874,-26.0069 128.0978,-26.0321 C128.1083,-26.0573 128.134,-26.1054 128.1492,-26.1281 C128.1643,-26.1508 128.199,-26.193 128.2183,-26.2123 C128.2376,-26.2316 128.2798,-26.2662 128.3025,-26.2814 C128.3252,-26.2966 128.3733,-26.3223 128.3985,-26.3327 C128.4237,-26.3432 128.476,-26.359 128.5027,-26.3644 C128.5295,-26.3697 128.5838,-26.375 128.6111,-26.375 C128.6384,-26.375 128.6927,-26.3697 128.7195,-26.3644 C128.7463,-26.359 128.7985,-26.3432 128.8237,-26.3327 C128.8489,-26.3223 128.8971,-26.2966 128.9198,-26.2814 C128.9425,-26.2662 128.9846,-26.2316 129.0039,-26.2123 C129.0232,-26.193 129.0579,-26.1508 129.073,-26.1281 C129.0882,-26.1054 129.1139,-26.0573 129.1244,-26.0321 C129.1348,-26.0069 129.1507,-25.9546 129.156,-25.9279 C129.1613,-25.9011 129.1667,-25.8468 129.1667,-25.8195 L129.1667,-25.5417 C129.1667,-25.5144 129.1613,-25.4601 129.156,-25.4333 C129.1507,-25.4065 129.1348,-25.3543 129.1244,-25.3291 C129.1139,-25.3039 129.0882,-25.2557 129.073,-25.233 C129.0579,-25.2103 129.0232,-25.1682 129.0039,-25.1489 C128.9846,-25.1296 128.9424,-25.0949 128.9197,-25.0798 C128.8971,-25.0646 128.8489,-25.0389 128.8237,-25.0284 C128.7985,-25.018 128.7462,-25.0021 128.7195,-24.9968 C128.6927,-24.9915 128.6384,-24.9861 128.6111,-24.9861 L128.089,-24.9861 M130,-26.375 L130,-26.2361 M131.6667,-23.875 C131.5958,-23.9159 131.4626,-24.0113 131.4011,-24.0653 C131.3395,-24.1193 131.2276,-24.2389 131.1777,-24.3039 C131.1279,-24.3688 131.0414,-24.5079 131.0052,-24.5814 C130.969,-24.6548 130.9113,-24.8081 130.8901,-24.8872 C130.8689,-24.9663 130.8422,-25.1279 130.8369,-25.2096 C130.8351,-25.2368 130.8333,-25.2912 130.8333,-25.3184 L130.8333,-25.8195 C130.8333,-25.8468 130.8387,-25.9011 130.844,-25.9279 C130.8493,-25.9546 130.8652,-26.0069 130.8756,-26.0321 C130.8861,-26.0573 130.9118,-26.1054 130.927,-26.1281 C130.9421,-26.1508 130.9768,-26.193 130.9961,-26.2123 C131.0154,-26.2316 131.0575,-26.2662 131.0802,-26.2814 C131.1029,-26.2966 131.1511,-26.3223 131.1763,-26.3327 C131.2015,-26.3432 131.2537,-26.359 131.2805,-26.3644 C131.3073,-26.3697 131.3616,-26.375 131.3889,-26.375 C131.4162,-26.375 131.4705,-26.3697 131.4973,-26.3644 C131.524,-26.359 131.5763,-26.3432 131.6015,-26.3327 C131.6267,-26.3223 131.6748,-26.2966 131.6975,-26.2814 C131.7202,-26.2662 131.7624,-26.2316 131.7817,-26.2123 C131.801,-26.193 131.8357,-26.1508 131.8508,-26.1281 C131.866,-26.1054 131.8917,-26.0573 131.9022,-26.0321 C131.9126,-26.0069 131.9284,-25.9546 131.9338,-25.9279 C131.9391,-25.9011 131.9444,-25.8468 131.9444,-25.8195 L131.9444,-25.5417 C131.9444,-25.5144 131.9391,-25.4601 131.9338,-25.4333 C131.9284,-25.4065 131.9126,-25.3543 131.9021,-25.3291 C131.8917,-25.3039 131.866,-25.2557 131.8508,-25.233 C131.8356,-25.2103 131.801,-25.1682 131.7817,-25.1489 C131.7624,-25.1296 131.7202,-25.0949 131.6975,-25.0798 C131.6748,-25.0646 131.6267,-25.0389 131.6015,-25.0284 C131.5763,-25.018 131.524,-25.0021 131.4972,-24.9968 C131.4705,-24.9915 131.4162,-24.9861 131.3889,-24.9861 L130.8668,-24.9861" style="stroke:#808080;stroke-width:0.25;"/>
            </g>
            <path d="M126.7,-27 L129.2,-26.5837 L129.2,-27.4163 Z" style="stroke:#808080;stroke-width:0.25;fill:#808080;fill-rule:evenodd;"/>
            <path d="M133.3,-27 L130.8,-27.4163 L130.8,-26.5837 Z" style="stroke:#808080;stroke-width:0.25;fill:#808080;fill-rule:evenodd;"/>
        </g>
        <path d="M126.7,-0.625 L126.7,-28.25 M133.3,-0.625 L133.3,-28.25 M126.7,-27 L133.3,-27 " style="stroke:#808080;stroke-width:0.25;"/>
        <!-- Aligned Dimension -->
        <g>
            <g>
                <path d="M156.375,-1.8056 L156.375,-2.9167 L154.5286,-1.8431 C154.5169,-1.8362 154.492,-1.8249 154.4792,-1.8205 C154.4663,-1.8161 154.4397,-1.8098 154.4262,-1.808 C154.4127,-1.8062 154.3855,-1.8052 154.3719,-1.8061 C154.3582,-1.8069 154.3313,-1.8113 154.3182,-1.8148 C154.3115,-1.8165 154.2983,-1.8208 154.2918,-1.8232 C154.2654,-1.83 154.2141,-1.8488 154.1895,-1.8606 C154.1649,-1.8725 154.1183,-1.9009 154.0965,-1.9173 C154.0747,-1.9337 154.0345,-1.9706 154.0163,-1.991 C153.9981,-2.0114 153.9659,-2.0554 153.9521,-2.0789 C153.9382,-2.1025 153.9152,-2.152 153.9062,-2.1777 C153.8972,-2.2035 153.8843,-2.2565 153.8805,-2.2836 C153.8767,-2.3106 153.8744,-2.3651 153.876,-2.3924 C153.8775,-2.4196 153.8859,-2.4736 153.8927,-2.5 C153.8995,-2.5264 153.9183,-2.5777 153.9301,-2.6023 C153.942,-2.6269 153.9704,-2.6735 153.9868,-2.6953 C154.0032,-2.7171 154.0402,-2.7573 154.0605,-2.7754 C154.0809,-2.7936 154.125,-2.8258 154.1485,-2.8397 C154.172,-2.8536 154.2215,-2.8765 154.2473,-2.8855 C154.2582,-2.8894 154.2803,-2.8961 154.2915,-2.899 M153.875,-0.1389 C153.9159,-0.2098 154.0113,-0.3429 154.0653,-0.4045 C154.1193,-0.4661 154.2389,-0.578 154.3039,-0.6279 C154.3688,-0.6777 154.5079,-0.7642 154.5814,-0.8004 C154.6548,-0.8366 154.8081,-0.8943 154.8872,-0.9155 C154.9663,-0.9367 155.1279,-0.9633 155.2096,-0.9687 C155.2368,-0.9704 155.2912,-0.9722 155.3184,-0.9722 L155.8195,-0.9722 C155.8468,-0.9722 155.9011,-0.9669 155.9279,-0.9615 C155.9546,-0.9562 156.0069,-0.9404 156.0321,-0.9299 C156.0573,-0.9195 156.1054,-0.8938 156.1281,-0.8786 C156.1508,-0.8634 156.193,-0.8288 156.2123,-0.8095 C156.2316,-0.7902 156.2662,-0.748 156.2814,-0.7253 C156.2966,-0.7026 156.3223,-0.6545 156.3327,-0.6293 C156.3432,-0.6041 156.359,-0.5518 156.3644,-0.5251 C156.3697,-0.4983 156.375,-0.444 156.375,-0.4167 C156.375,-0.3894 156.3697,-0.3351 156.3644,-0.3083 C156.359,-0.2815 156.3432,-0.2293 156.3327,-0.2041 C156.3223,-0.1788 156.2966,-0.1307 156.2814,-0.108 C156.2662,-0.0853 156.2316,-0.0431 156.2123,-0.0238 C156.193,-0.0045 156.1508,0.0301 156.1281,0.0453 C156.1054,0.0604 156.0573,0.0862 156.0321,0.0966 C156.0069,0.107 155.9546,0.1229 155.9279,0.1282 C155.9011,0.1335 155.8468,0.1389 155.8195,0.1389 L155.5417,0.1389 C155.5144,0.1389 155.4601,0.1335 155.4333,0.1282 C155.4065,0.1229 155.3543,0.107 155.3291,0.0966 C155.3039,0.0861 155.2557,0.0604 155.233,0.0453 C155.2103,0.0301 155.1682,-0.0045 155.1489,-0.0238 C155.1296,-0.0431 155.0949,-0.0853 155.0798,-0.108 C155.0646,-0.1307 155.0389,-0.1789 155.0284,-0.2041 C155.018,-0.2293 155.0021,-0.2815 154.9968,-0.3083 C154.9915,-0.3351 154.9861,-0.3894 154.9861,-0.4167 L154.9861,-0.9388 M156.375,0.9722 L156.2361,0.9722 M153.875,2.9167 L153.875,1.8056 L154.9861,1.8056 L154.9861,2.3611 C154.9861,2.3884 154.9915,2.4427 154.9968,2.4695 C155.0021,2.4962 155.018,2.5485 155.0284,2.5737 C155.0389,2.5989 155.0646,2.6471 155.0798,2.6697 C155.0949,2.6924 155.1296,2.7346 155.1489,2.7539 C155.1682,2.7732 155.2103,2.8079 155.233,2.823 C155.2557,2.8382 155.3039,2.8639 155.3291,2.8744 C155.3543,2.8848 155.4065,2.9007 155.4333,2.906 C155.4601,2.9113 155.5144,2.9167 155.5417,2.9167 L155.8195,2.9167 C155.8468,2.9167 155.9011,2.9113 155.9278,2.906 C155.9546,2.9007 156.0068,2.8848 156.0321,2.8744 C156.0573,2.8639 156.1054,2.8382 156.1281,2.823 C156.1508,2.8079 156.193,2.7733 156.2123,2.754 C156.2316,2.7347 156.2662,2.6925 156.2814,2.6698 C156.2966,2.6471 156.3223,2.5989 156.3327,2.5737 C156.3432,2.5485 156.359,2.4963 156.3644,2.4695 C156.3697,2.4427 156.375,2.3884 156.375,2.3611 L156.375,1.8056" style="stroke:#808080;stroke-width:0.25;"/>
            </g>
            <path d="M157,13.25 L157.4163,10.75 L156.5837,10.75 Z" style="stroke:#808080;stroke-width:0.25;fill:#808080;fill-rule:evenodd;"/>
            <path d="M157,-13.25 L156.5837,-10.75 L157.4163,-10.75 Z" style="stroke:#808080;stroke-width:0.25;fill:#808080;fill-rule:evenodd;"/>
        </g>
        <path d="M130.625,13.25 L158.25,13.25 M130.625,-13.25 L158.25,-13.25 M157,13.25 L157,-13.25 " style="stroke:#808080;stroke-width:0.25;"/>
        <!-- Aligned Dimension -->
        <g>
            <g>
                <path d="M158.875,-1.6667 L158.875,-1.1111 C158.875,-1.0838 158.8804,-1.0295 158.8857,-1.0027 C158.891,-0.976 158.9068,-0.9237 158.9173,-0.8985 C158.9277,-0.8733 158.9535,-0.8252 158.9686,-0.8025 C158.9838,-0.7798 159.0184,-0.7376 159.0377,-0.7183 C159.057,-0.699 159.0992,-0.6643 159.1219,-0.6492 C159.1446,-0.634 159.1927,-0.6083 159.218,-0.5978 C159.2432,-0.5874 159.2954,-0.5716 159.3222,-0.5662 C159.3489,-0.5609 159.4033,-0.5556 159.4306,-0.5556 C159.4578,-0.5556 159.5122,-0.5609 159.5389,-0.5662 C159.5657,-0.5716 159.6179,-0.5874 159.6432,-0.5978 C159.6684,-0.6083 159.7165,-0.634 159.7392,-0.6492 C159.7619,-0.6643 159.8041,-0.699 159.8234,-0.7183 C159.8427,-0.7376 159.8773,-0.7798 159.8925,-0.8025 C159.9076,-0.8252 159.9334,-0.8733 159.9438,-0.8985 C159.9543,-0.9237 159.9701,-0.976 159.9754,-1.0027 C159.9808,-1.0295 159.9861,-1.0838 159.9861,-1.1111 C159.9861,-1.0838 159.9915,-1.0295 159.9968,-1.0028 C160.0021,-0.976 160.018,-0.9237 160.0284,-0.8985 C160.0388,-0.8733 160.0646,-0.8252 160.0797,-0.8025 C160.0949,-0.7798 160.1295,-0.7376 160.1488,-0.7183 C160.1681,-0.699 160.2103,-0.6644 160.233,-0.6492 C160.2557,-0.634 160.3038,-0.6083 160.3291,-0.5979 C160.3543,-0.5874 160.4065,-0.5716 160.4333,-0.5662 C160.46,-0.5609 160.5144,-0.5556 160.5417,-0.5556 L160.8194,-0.5556 C160.8467,-0.5556 160.901,-0.5609 160.9278,-0.5662 C160.9546,-0.5716 161.0068,-0.5874 161.032,-0.5978 C161.0572,-0.6083 161.1054,-0.634 161.1281,-0.6492 C161.1508,-0.6643 161.193,-0.699 161.2123,-0.7183 C161.2316,-0.7376 161.2662,-0.7798 161.2814,-0.8025 C161.2965,-0.8251 161.3223,-0.8733 161.3327,-0.8985 C161.3432,-0.9237 161.359,-0.976 161.3643,-1.0027 C161.3696,-1.0295 161.375,-1.0838 161.375,-1.1111 L161.375,-1.6667 M159.9861,-1.1111 L159.9861,-1.3889 M161.375,1.25 L160.2639,1.25 M160.8194,1.6667 L160.8194,0.2778 L158.875,0.8333" style="stroke:#808080;stroke-width:0.25;"/>
            </g>
            <path d="M162,17 L162.4163,14.5 L161.5837,14.5 Z" style="stroke:#808080;stroke-width:0.25;fill:#808080;fill-rule:evenodd;"/>
            <path d="M162,-17 L161.5837,-14.5 L162.4163,-14.5 Z" style="stroke:#808080;stroke-width:0.25;fill:#808080;fill-rule:evenodd;"/>
        </g>
        <path d="M130.625,17 L163.25,17 M130.625,-17 L163.25,-17 M162,17 L162,-17 " style="stroke:#808080;stroke-width:0.25;"/>
        <!-- Aligned Dimension -->
        <g>
            <g>
                <path d="M104.7348,13.3611 L104.1792,13.9167 L106.6792,13.9167 M104.1792,15.5833 C104.2201,15.5124 104.3155,15.3793 104.3695,15.3177 C104.4235,15.2562 104.5431,15.1442 104.6081,15.0944 C104.673,15.0445 104.8121,14.958 104.8856,14.9218 C104.959,14.8856 105.1123,14.8279 105.1914,14.8068 C105.2705,14.7856 105.4321,14.7589 105.5138,14.7536 C105.541,14.7518 105.5954,14.75 105.6226,14.75 L106.1237,14.75 C106.151,14.75 106.2053,14.7554 106.2321,14.7607 C106.2588,14.766 106.3111,14.7818 106.3363,14.7923 C106.3615,14.8027 106.4096,14.8285 106.4323,14.8436 C106.455,14.8588 106.4972,14.8934 106.5165,14.9127 C106.5358,14.932 106.5704,14.9742 106.5856,14.9969 C106.6008,15.0196 106.6265,15.0677 106.6369,15.093 C106.6474,15.1182 106.6632,15.1704 106.6686,15.1972 C106.6739,15.2239 106.6792,15.2783 106.6792,15.3056 C106.6792,15.3328 106.6739,15.3872 106.6686,15.4139 C106.6632,15.4407 106.6474,15.4929 106.6369,15.5182 C106.6265,15.5434 106.6008,15.5915 106.5856,15.6142 C106.5704,15.6369 106.5358,15.6791 106.5165,15.6984 C106.4972,15.7177 106.455,15.7523 106.4323,15.7675 C106.4096,15.7826 106.3615,15.8084 106.3363,15.8188 C106.3111,15.8293 106.2588,15.8451 106.2321,15.8504 C106.2053,15.8558 106.151,15.8611 106.1237,15.8611 L105.8459,15.8611 C105.8186,15.8611 105.7643,15.8558 105.7375,15.8504 C105.7107,15.8451 105.6585,15.8293 105.6333,15.8188 C105.6081,15.8084 105.5599,15.7826 105.5372,15.7675 C105.5145,15.7523 105.4723,15.7177 105.453,15.6984 C105.4338,15.6791 105.3991,15.6369 105.384,15.6142 C105.3688,15.5915 105.3431,15.5434 105.3326,15.5181 C105.3222,15.4929 105.3063,15.4407 105.301,15.4139 C105.2957,15.3872 105.2903,15.3328 105.2903,15.3056 L105.2903,14.7834 M106.6792,16.6944 L106.5403,16.6944 M104.1792,18.6389 L104.1792,17.5278 L105.2903,17.5278 L105.2903,18.0833 C105.2903,18.1106 105.2957,18.1649 105.301,18.1917 C105.3063,18.2185 105.3222,18.2707 105.3326,18.2959 C105.3431,18.3211 105.3688,18.3693 105.384,18.392 C105.3991,18.4147 105.4338,18.4569 105.453,18.4762 C105.4723,18.4955 105.5145,18.5301 105.5372,18.5453 C105.5599,18.5604 105.6081,18.5861 105.6333,18.5966 C105.6585,18.607 105.7107,18.6229 105.7375,18.6282 C105.7643,18.6335 105.8186,18.6389 105.8459,18.6389 L106.1237,18.6389 C106.151,18.6389 106.2053,18.6335 106.232,18.6282 C106.2588,18.6229 106.311,18.607 106.3363,18.5966 C106.3615,18.5862 106.4096,18.5604 106.4323,18.5453 C106.455,18.5301 106.4972,18.4955 106.5165,18.4762 C106.5358,18.4569 106.5704,18.4147 106.5856,18.392 C106.6008,18.3693 106.6265,18.3212 106.6369,18.2959 C106.6474,18.2707 106.6632,18.2185 106.6685,18.1917 C106.6739,18.165 106.6792,18.1106 106.6792,18.0833 L106.6792,17.5278" style="stroke:#808080;stroke-width:0.25;"/>
            </g>
            <path d="M108,24.25 L108.4163,21.75 L107.5837,21.75 Z" style="stroke:#808080;stroke-width:0.25;fill:#808080;fill-rule:evenodd;"/>
            <path d="M108,7.75 L107.5837,10.25 L108.4163,10.25 Z" style="stroke:#808080;stroke-width:0.25;fill:#808080;fill-rule:evenodd;"/>
        </g>
        <path d="M129.375,24.25 L106.75,24.25 M129.375,7.75 L106.75,7.75 M108,24.25 L108,7.75 " style="stroke:#808080;stroke-width:0.25;"/>
        <!-- Aligned Dimension -->
        <g>
            <g>
                <path d="M102.375,15.4444 L102.375,14.3333 L100.5286,15.4069 C100.5168,15.4138 100.492,15.4251 100.4791,15.4295 C100.4662,15.4339 100.4397,15.4402 100.4262,15.442 C100.4127,15.4438 100.3854,15.4448 100.3718,15.4439 C100.3582,15.4431 100.3313,15.4387 100.3181,15.4352 C100.3114,15.4335 100.2982,15.4292 100.2918,15.4268 C100.2653,15.42 100.2141,15.4012 100.1895,15.3894 C100.1649,15.3775 100.1183,15.3491 100.0965,15.3327 C100.0747,15.3163 100.0345,15.2794 100.0163,15.259 C99.9981,15.2386 99.9659,15.1946 99.9521,15.1711 C99.9382,15.1475 99.9152,15.098 99.9062,15.0723 C99.8972,15.0465 99.8843,14.9935 99.8805,14.9664 C99.8767,14.9394 99.8744,14.8849 99.8759,14.8576 C99.8775,14.8304 99.8859,14.7764 99.8927,14.75 C99.8995,14.7236 99.9183,14.6723 99.9301,14.6477 C99.942,14.6231 99.9704,14.5765 99.9868,14.5547 C100.0032,14.5329 100.0401,14.4927 100.0605,14.4746 C100.0809,14.4564 100.1249,14.4242 100.1484,14.4103 C100.172,14.3964 100.2215,14.3735 100.2472,14.3645 C100.2581,14.3606 100.2803,14.3539 100.2914,14.351 M102.375,17.25 L101.2639,17.25 M101.8194,17.6667 L101.8194,16.2778 L99.875,16.8333" style="stroke:#808080;stroke-width:0.25;"/>
            </g>
            <path d="M103,4 L102.5837,6.5 L103.4163,6.5 Z" style="stroke:#808080;stroke-width:0.25;fill:#808080;fill-rule:evenodd;"/>
            <path d="M103,28 L103.4163,25.5 L102.5837,25.5 Z" style="stroke:#808080;stroke-width:0.25;fill:#808080;fill-rule:evenodd;"/>
        </g>
        <path d="M129.375,4 L101.75,4 M129.375,28 L101.75,28 M103,4 L103,28 " style="stroke:#808080;stroke-width:0.25;"/>
        <!-- Aligned Dimension -->
        <g>
            <g>
                <path d="M149.4306,6.75 L148.875,7.3056 L151.375,7.3056 M148.875,8.9722 C148.9159,8.9013 149.0113,8.7682 149.0653,8.7066 C149.1193,8.6451 149.2389,8.5331 149.3039,8.4833 C149.3688,8.4334 149.5079,8.3469 149.5814,8.3107 C149.6548,8.2745 149.8081,8.2168 149.8872,8.1956 C149.9663,8.1745 150.1279,8.1478 150.2096,8.1424 C150.2368,8.1407 150.2912,8.1389 150.3184,8.1389 L150.8195,8.1389 C150.8468,8.1389 150.9011,8.1442 150.9279,8.1496 C150.9546,8.1549 151.0069,8.1707 151.0321,8.1812 C151.0573,8.1916 151.1054,8.2174 151.1281,8.2325 C151.1508,8.2477 151.193,8.2823 151.2123,8.3016 C151.2316,8.3209 151.2662,8.3631 151.2814,8.3858 C151.2966,8.4085 151.3223,8.4566 151.3327,8.4818 C151.3432,8.5071 151.359,8.5593 151.3644,8.5861 C151.3697,8.6128 151.375,8.6672 151.375,8.6944 C151.375,8.7217 151.3697,8.7761 151.3644,8.8028 C151.359,8.8296 151.3432,8.8818 151.3327,8.907 C151.3223,8.9323 151.2966,8.9804 151.2814,9.0031 C151.2662,9.0258 151.2316,9.068 151.2123,9.0873 C151.193,9.1066 151.1508,9.1412 151.1281,9.1564 C151.1054,9.1715 151.0573,9.1973 151.0321,9.2077 C151.0069,9.2182 150.9546,9.234 150.9279,9.2393 C150.9011,9.2446 150.8468,9.25 150.8195,9.25 L150.5417,9.25 C150.5144,9.25 150.4601,9.2446 150.4333,9.2393 C150.4065,9.234 150.3543,9.2182 150.3291,9.2077 C150.3039,9.1973 150.2557,9.1715 150.233,9.1564 C150.2103,9.1412 150.1682,9.1066 150.1489,9.0873 C150.1296,9.068 150.0949,9.0258 150.0798,9.0031 C150.0646,8.9804 150.0389,8.9322 150.0284,8.907 C150.018,8.8818 150.0021,8.8296 149.9968,8.8028 C149.9915,8.776 149.9861,8.7217 149.9861,8.6944 L149.9861,8.1723" style="stroke:#808080;stroke-width:0.25;"/>
            </g>
            <path d="M152,16 L152.4163,13.5 L151.5837,13.5 Z" style="stroke:#808080;stroke-width:0.25;fill:#808080;fill-rule:evenodd;"/>
            <path d="M152,0 L151.5837,2.5 L152.4163,2.5 Z" style="stroke:#808080;stroke-width:0.25;fill:#808080;fill-rule:evenodd;"/>
        </g>
        <path d="M130.625,16 L153.25,16 M130.625,0 L153.25,0 M152,16 L152,0 " style="stroke:#808080;stroke-width:0.25;"/>
        <!-- Aligned Dimension -->
        <g>
            <g>
                <path d="M75.4444,-14.375 L74.3333,-14.375 L75.4069,-12.5286 C75.4138,-12.5168 75.4251,-12.492 75.4295,-12.4791 C75.4339,-12.4662 75.4402,-12.4397 75.442,-12.4262 C75.4438,-12.4127 75.4448,-12.3854 75.4439,-12.3718 C75.4431,-12.3582 75.4387,-12.3313 75.4352,-12.3181 C75.4335,-12.3114 75.4292,-12.2982 75.4268,-12.2918 C75.42,-12.2653 75.4012,-12.2141 75.3894,-12.1895 C75.3775,-12.1649 75.3491,-12.1183 75.3327,-12.0965 C75.3163,-12.0747 75.2794,-12.0345 75.259,-12.0163 C75.2386,-11.9981 75.1946,-11.9659 75.1711,-11.9521 C75.1475,-11.9382 75.098,-11.9152 75.0723,-11.9062 C75.0465,-11.8972 74.9935,-11.8843 74.9664,-11.8805 C74.9394,-11.8767 74.8849,-11.8744 74.8576,-11.8759 C74.8304,-11.8775 74.7764,-11.8859 74.75,-11.8927 C74.7236,-11.8995 74.6723,-11.9183 74.6477,-11.9301 C74.6231,-11.942 74.5765,-11.9704 74.5547,-11.9868 C74.5329,-12.0032 74.4927,-12.0401 74.4746,-12.0605 C74.4564,-12.0809 74.4242,-12.1249 74.4103,-12.1484 C74.3964,-12.172 74.3735,-12.2215 74.3645,-12.2472 C74.3606,-12.2581 74.3539,-12.2803 74.351,-12.2914 M77.25,-14.375 L77.25,-13.2639 M77.6667,-13.8194 L76.2778,-13.8194 L76.8333,-11.875" style="stroke:#808080;stroke-width:0.25;"/>
            </g>
            <path d="M64,-15 L66.5,-14.5837 L66.5,-15.4163 Z" style="stroke:#808080;stroke-width:0.25;fill:#808080;fill-rule:evenodd;"/>
            <path d="M88,-15 L85.5,-15.4163 L85.5,-14.5837 Z" style="stroke:#808080;stroke-width:0.25;fill:#808080;fill-rule:evenodd;"/>
        </g>
        <path d="M64,-5.625 L64,-16.25 M88,-5.625 L88,-16.25 M64,-15 L88,-15 " style="stroke:#808080;stroke-width:0.25;"/>
        <!-- Aligned Dimension -->
        <g>
            <g>
                <path d="M58.3333,-6.875 L58.8889,-6.875 C58.9162,-6.875 58.9705,-6.8804 58.9973,-6.8857 C59.024,-6.891 59.0763,-6.9068 59.1015,-6.9173 C59.1267,-6.9277 59.1748,-6.9535 59.1975,-6.9686 C59.2202,-6.9838 59.2624,-7.0184 59.2817,-7.0377 C59.301,-7.057 59.3357,-7.0992 59.3508,-7.1219 C59.366,-7.1446 59.3917,-7.1927 59.4022,-7.218 C59.4126,-7.2432 59.4284,-7.2954 59.4338,-7.3222 C59.4391,-7.3489 59.4444,-7.4033 59.4444,-7.4306 C59.4444,-7.4578 59.4391,-7.5122 59.4338,-7.5389 C59.4284,-7.5657 59.4126,-7.6179 59.4022,-7.6432 C59.3917,-7.6684 59.366,-7.7165 59.3508,-7.7392 C59.3357,-7.7619 59.301,-7.8041 59.2817,-7.8234 C59.2624,-7.8427 59.2202,-7.8773 59.1975,-7.8925 C59.1748,-7.9076 59.1267,-7.9334 59.1015,-7.9438 C59.0763,-7.9543 59.024,-7.9701 58.9973,-7.9754 C58.9705,-7.9808 58.9162,-7.9861 58.8889,-7.9861 C58.9162,-7.9861 58.9705,-7.9915 58.9972,-7.9968 C59.024,-8.0021 59.0763,-8.018 59.1015,-8.0284 C59.1267,-8.0388 59.1748,-8.0646 59.1975,-8.0797 C59.2202,-8.0949 59.2624,-8.1295 59.2817,-8.1488 C59.301,-8.1681 59.3356,-8.2103 59.3508,-8.233 C59.366,-8.2557 59.3917,-8.3038 59.4021,-8.3291 C59.4126,-8.3543 59.4284,-8.4065 59.4338,-8.4333 C59.4391,-8.46 59.4444,-8.5144 59.4444,-8.5417 L59.4444,-8.8194 C59.4444,-8.8467 59.4391,-8.901 59.4338,-8.9278 C59.4284,-8.9546 59.4126,-9.0068 59.4022,-9.032 C59.3917,-9.0572 59.366,-9.1054 59.3508,-9.1281 C59.3357,-9.1508 59.301,-9.193 59.2817,-9.2123 C59.2624,-9.2316 59.2202,-9.2662 59.1975,-9.2814 C59.1749,-9.2965 59.1267,-9.3223 59.1015,-9.3327 C59.0763,-9.3432 59.024,-9.359 58.9973,-9.3643 C58.9705,-9.3696 58.9162,-9.375 58.8889,-9.375 L58.3333,-9.375 M58.8889,-7.9861 L58.6111,-7.9861 M61.25,-9.375 L61.25,-8.2639 M61.6667,-8.8194 L60.2778,-8.8194 L60.8333,-6.875" style="stroke:#808080;stroke-width:0.25;"/>
            </g>
            <path d="M43,-10 L45.5,-9.5837 L45.5,-10.4163 Z" style="stroke:#808080;stroke-width:0.25;fill:#808080;fill-rule:evenodd;"/>
            <path d="M77,-10 L74.5,-10.4163 L74.5,-9.5837 Z" style="stroke:#808080;stroke-width:0.25;fill:#808080;fill-rule:evenodd;"/>
        </g>
        <path d="M43,-5.625 L43,-11.25 M77,-5.625 L77,-11.25 M43,-10 L77,-10 " style="stroke:#808080;stroke-width:0.25;"/>
        <!-- Aligned Dimension -->
        <g>
            <g>
                <path d="M73.3611,83.8694 L73.9167,84.425 L73.9167,81.925 M75.5833,84.425 C75.5124,84.3841 75.3793,84.2887 75.3177,84.2347 C75.2562,84.1807 75.1442,84.0611 75.0944,83.9961 C75.0445,83.9312 74.958,83.7921 74.9218,83.7186 C74.8856,83.6452 74.8279,83.4919 74.8068,83.4128 C74.7856,83.3337 74.7589,83.1721 74.7536,83.0904 C74.7518,83.0632 74.75,83.0088 74.75,82.9816 L74.75,82.4805 C74.75,82.4532 74.7554,82.3989 74.7607,82.3721 C74.766,82.3454 74.7818,82.2931 74.7923,82.2679 C74.8027,82.2427 74.8285,82.1946 74.8436,82.1719 C74.8588,82.1492 74.8934,82.107 74.9127,82.0877 C74.932,82.0684 74.9742,82.0338 74.9969,82.0186 C75.0196,82.0034 75.0677,81.9777 75.093,81.9673 C75.1182,81.9568 75.1704,81.941 75.1972,81.9356 C75.2239,81.9303 75.2783,81.925 75.3056,81.925 C75.3328,81.925 75.3872,81.9303 75.4139,81.9356 C75.4407,81.941 75.4929,81.9568 75.5182,81.9673 C75.5434,81.9777 75.5915,82.0034 75.6142,82.0186 C75.6369,82.0338 75.6791,82.0684 75.6984,82.0877 C75.7177,82.107 75.7523,82.1492 75.7675,82.1719 C75.7826,82.1946 75.8084,82.2427 75.8188,82.2679 C75.8293,82.2931 75.8451,82.3454 75.8504,82.3721 C75.8558,82.3989 75.8611,82.4532 75.8611,82.4805 L75.8611,82.7583 C75.8611,82.7856 75.8558,82.8399 75.8504,82.8667 C75.8451,82.8935 75.8293,82.9457 75.8188,82.9709 C75.8084,82.9961 75.7826,83.0443 75.7675,83.067 C75.7523,83.0897 75.7177,83.1318 75.6984,83.1511 C75.6791,83.1704 75.6369,83.2051 75.6142,83.2202 C75.5915,83.2354 75.5434,83.2611 75.5181,83.2716 C75.4929,83.282 75.4407,83.2979 75.4139,83.3032 C75.3872,83.3085 75.3328,83.3139 75.3056,83.3139 L74.7834,83.3139 M76.6944,81.925 L76.6944,82.0639 M78.6389,84.425 L77.5278,84.425 L77.5278,83.3139 L78.0833,83.3139 C78.1106,83.3139 78.1649,83.3085 78.1917,83.3032 C78.2185,83.2979 78.2707,83.282 78.2959,83.2716 C78.3211,83.2611 78.3693,83.2354 78.392,83.2202 C78.4147,83.2051 78.4569,83.1704 78.4762,83.1511 C78.4955,83.1318 78.5301,83.0897 78.5453,83.067 C78.5604,83.0443 78.5861,82.9961 78.5966,82.9709 C78.607,82.9457 78.6229,82.8935 78.6282,82.8667 C78.6335,82.8399 78.6389,82.7856 78.6389,82.7583 L78.6389,82.4805 C78.6389,82.4532 78.6335,82.3989 78.6282,82.3722 C78.6229,82.3454 78.607,82.2932 78.5966,82.2679 C78.5862,82.2427 78.5604,82.1946 78.5453,82.1719 C78.5301,82.1492 78.4955,82.107 78.4762,82.0877 C78.4569,82.0684 78.4147,82.0338 78.392,82.0186 C78.3693,82.0034 78.3212,81.9777 78.2959,81.9673 C78.2707,81.9568 78.2185,81.941 78.1917,81.9356 C78.165,81.9303 78.1106,81.925 78.0833,81.925 L77.5278,81.925" style="stroke:#808080;stroke-width:0.25;"/>
            </g>
            <path d="M67.75,81.3 L70.25,81.7163 L70.25,80.8837 Z" style="stroke:#808080;stroke-width:0.25;fill:#808080;fill-rule:evenodd;"/>
            <path d="M84.25,81.3 L81.75,80.8837 L81.75,81.7163 Z" style="stroke:#808080;stroke-width:0.25;fill:#808080;fill-rule:evenodd;"/>
        </g>
        <path d="M67.75,76.925 L67.75,82.55 M84.25,76.925 L84.25,82.55 M67.75,81.3 L84.25,81.3 " style="stroke:#808080;stroke-width:0.25;"/>
        <!-- Aligned Dimension -->
        <g>
            <g>
                <path d="M66.75,88.8694 L67.3056,89.425 L67.3056,86.925 M68.9722,89.425 C68.9013,89.3841 68.7682,89.2887 68.7066,89.2347 C68.6451,89.1807 68.5331,89.0611 68.4833,88.9961 C68.4334,88.9312 68.3469,88.7921 68.3107,88.7186 C68.2745,88.6452 68.2168,88.4919 68.1956,88.4128 C68.1745,88.3337 68.1478,88.1721 68.1424,88.0904 C68.1407,88.0632 68.1389,88.0088 68.1389,87.9816 L68.1389,87.4805 C68.1389,87.4532 68.1442,87.3989 68.1496,87.3721 C68.1549,87.3454 68.1707,87.2931 68.1812,87.2679 C68.1916,87.2427 68.2174,87.1946 68.2325,87.1719 C68.2477,87.1492 68.2823,87.107 68.3016,87.0877 C68.3209,87.0684 68.3631,87.0338 68.3858,87.0186 C68.4085,87.0034 68.4566,86.9777 68.4818,86.9673 C68.5071,86.9568 68.5593,86.941 68.5861,86.9356 C68.6128,86.9303 68.6672,86.925 68.6944,86.925 C68.7217,86.925 68.7761,86.9303 68.8028,86.9356 C68.8296,86.941 68.8818,86.9568 68.907,86.9673 C68.9323,86.9777 68.9804,87.0034 69.0031,87.0186 C69.0258,87.0338 69.068,87.0684 69.0873,87.0877 C69.1066,87.107 69.1412,87.1492 69.1564,87.1719 C69.1715,87.1946 69.1973,87.2427 69.2077,87.2679 C69.2182,87.2931 69.234,87.3454 69.2393,87.3721 C69.2446,87.3989 69.25,87.4532 69.25,87.4805 L69.25,87.7583 C69.25,87.7856 69.2446,87.8399 69.2393,87.8667 C69.234,87.8935 69.2182,87.9457 69.2077,87.9709 C69.1973,87.9961 69.1715,88.0443 69.1564,88.067 C69.1412,88.0897 69.1066,88.1318 69.0873,88.1511 C69.068,88.1704 69.0258,88.2051 69.0031,88.2202 C68.9804,88.2354 68.9322,88.2611 68.907,88.2716 C68.8818,88.282 68.8296,88.2979 68.8028,88.3032 C68.776,88.3085 68.7217,88.3139 68.6944,88.3139 L68.1723,88.3139" style="stroke:#808080;stroke-width:0.25;"/>
            </g>
            <path d="M60,86.3 L62.5,86.7163 L62.5,85.8837 Z" style="stroke:#808080;stroke-width:0.25;fill:#808080;fill-rule:evenodd;"/>
            <path d="M76,86.3 L73.5,85.8837 L73.5,86.7163 Z" style="stroke:#808080;stroke-width:0.25;fill:#808080;fill-rule:evenodd;"/>
        </g>
        <path d="M60,76.925 L60,87.55 M76,76.925 L76,87.55 M60,86.3 L76,86.3 " style="stroke:#808080;stroke-width:0.25;"/>
        <!-- Aligned Dimension -->
        <g>
            <g>
                <path d="M-0.5556,-9.375 L-1.6667,-9.375 L-0.5931,-7.5286 C-0.5862,-7.5168 -0.5749,-7.492 -0.5705,-7.4791 C-0.5661,-7.4662 -0.5598,-7.4397 -0.558,-7.4262 C-0.5562,-7.4127 -0.5552,-7.3854 -0.5561,-7.3718 C-0.5569,-7.3582 -0.5613,-7.3313 -0.5648,-7.3181 C-0.5665,-7.3114 -0.5708,-7.2982 -0.5732,-7.2918 C-0.58,-7.2653 -0.5988,-7.2141 -0.6106,-7.1895 C-0.6225,-7.1649 -0.6509,-7.1183 -0.6673,-7.0965 C-0.6837,-7.0747 -0.7206,-7.0345 -0.741,-7.0163 C-0.7614,-6.9981 -0.8054,-6.9659 -0.8289,-6.9521 C-0.8525,-6.9382 -0.902,-6.9152 -0.9277,-6.9062 C-0.9535,-6.8972 -1.0065,-6.8843 -1.0336,-6.8805 C-1.0606,-6.8767 -1.1151,-6.8744 -1.1424,-6.8759 C-1.1696,-6.8775 -1.2236,-6.8859 -1.25,-6.8927 C-1.2764,-6.8995 -1.3277,-6.9183 -1.3523,-6.9301 C-1.3769,-6.942 -1.4235,-6.9704 -1.4453,-6.9868 C-1.4671,-7.0032 -1.5073,-7.0401 -1.5254,-7.0605 C-1.5436,-7.0809 -1.5758,-7.1249 -1.5897,-7.1484 C-1.6036,-7.172 -1.6265,-7.2215 -1.6355,-7.2472 C-1.6394,-7.2581 -1.6461,-7.2803 -1.649,-7.2914 M1.25,-9.375 L1.25,-8.2639 M1.6667,-8.8194 L0.2778,-8.8194 L0.8333,-6.875" style="stroke:#808080;stroke-width:0.25;"/>
            </g>
            <path d="M-12,-10 L-9.5,-9.5837 L-9.5,-10.4163 Z" style="stroke:#808080;stroke-width:0.25;fill:#808080;fill-rule:evenodd;"/>
            <path d="M12,-10 L9.5,-10.4163 L9.5,-9.5837 Z" style="stroke:#808080;stroke-width:0.25;fill:#808080;fill-rule:evenodd;"/>
        </g>
        <path d="M-12,-5.625 L-12,-11.25 M12,-5.625 L12,-11.25 M-12,-10 L12,-10 " style="stroke:#808080;stroke-width:0.25;"/>
        <!-- Aligned Dimension -->
        <g>
            <g>
                <path d="M-1.6667,-11.875 L-1.1111,-11.875 C-1.0838,-11.875 -1.0295,-11.8804 -1.0027,-11.8857 C-0.976,-11.891 -0.9237,-11.9068 -0.8985,-11.9173 C-0.8733,-11.9277 -0.8252,-11.9535 -0.8025,-11.9686 C-0.7798,-11.9838 -0.7376,-12.0184 -0.7183,-12.0377 C-0.699,-12.057 -0.6643,-12.0992 -0.6492,-12.1219 C-0.634,-12.1446 -0.6083,-12.1927 -0.5978,-12.218 C-0.5874,-12.2432 -0.5716,-12.2954 -0.5662,-12.3222 C-0.5609,-12.3489 -0.5556,-12.4033 -0.5556,-12.4306 C-0.5556,-12.4578 -0.5609,-12.5122 -0.5662,-12.5389 C-0.5716,-12.5657 -0.5874,-12.6179 -0.5978,-12.6432 C-0.6083,-12.6684 -0.634,-12.7165 -0.6492,-12.7392 C-0.6643,-12.7619 -0.699,-12.8041 -0.7183,-12.8234 C-0.7376,-12.8427 -0.7798,-12.8773 -0.8025,-12.8925 C-0.8252,-12.9076 -0.8733,-12.9334 -0.8985,-12.9438 C-0.9237,-12.9543 -0.976,-12.9701 -1.0027,-12.9754 C-1.0295,-12.9808 -1.0838,-12.9861 -1.1111,-12.9861 C-1.0838,-12.9861 -1.0295,-12.9915 -1.0028,-12.9968 C-0.976,-13.0021 -0.9237,-13.018 -0.8985,-13.0284 C-0.8733,-13.0388 -0.8252,-13.0646 -0.8025,-13.0797 C-0.7798,-13.0949 -0.7376,-13.1295 -0.7183,-13.1488 C-0.699,-13.1681 -0.6644,-13.2103 -0.6492,-13.233 C-0.634,-13.2557 -0.6083,-13.3038 -0.5979,-13.3291 C-0.5874,-13.3543 -0.5716,-13.4065 -0.5662,-13.4333 C-0.5609,-13.46 -0.5556,-13.5144 -0.5556,-13.5417 L-0.5556,-13.8194 C-0.5556,-13.8467 -0.5609,-13.901 -0.5662,-13.9278 C-0.5716,-13.9546 -0.5874,-14.0068 -0.5978,-14.032 C-0.6083,-14.0572 -0.634,-14.1054 -0.6492,-14.1281 C-0.6643,-14.1508 -0.699,-14.193 -0.7183,-14.2123 C-0.7376,-14.2316 -0.7798,-14.2662 -0.8025,-14.2814 C-0.8251,-14.2965 -0.8733,-14.3223 -0.8985,-14.3327 C-0.9237,-14.3432 -0.976,-14.359 -1.0027,-14.3643 C-1.0295,-14.3696 -1.0838,-14.375 -1.1111,-14.375 L-1.6667,-14.375 M-1.1111,-12.9861 L-1.3889,-12.9861 M1.25,-14.375 L1.25,-13.2639 M1.6667,-13.8194 L0.2778,-13.8194 L0.8333,-11.875" style="stroke:#808080;stroke-width:0.25;"/>
            </g>
            <path d="M-17,-15 L-14.5,-14.5837 L-14.5,-15.4163 Z" style="stroke:#808080;stroke-width:0.25;fill:#808080;fill-rule:evenodd;"/>
            <path d="M17,-15 L14.5,-15.4163 L14.5,-14.5837 Z" style="stroke:#808080;stroke-width:0.25;fill:#808080;fill-rule:evenodd;"/>
        </g>
        <path d="M-17,-5.625 L-17,-16.25 M17,-5.625 L17,-16.25 M-17,-15 L17,-15 " style="stroke:#808080;stroke-width:0.25;"/>
        <!-- Aligned Dimension -->
        <g>
            <g>
                <path d="M-26.125,-1.9444 L-26.125,-3.0556 L-25.0139,-3.0556 L-25.0139,-2.5 C-25.0139,-2.4727 -25.0085,-2.4184 -25.0032,-2.3916 C-24.9979,-2.3649 -24.982,-2.3126 -24.9716,-2.2874 C-24.9612,-2.2622 -24.9354,-2.2141 -24.9203,-2.1914 C-24.9051,-2.1687 -24.8705,-2.1265 -24.8512,-2.1072 C-24.8319,-2.0879 -24.7897,-2.0532 -24.767,-2.0381 C-24.7443,-2.0229 -24.6962,-1.9972 -24.6709,-1.9867 C-24.6457,-1.9763 -24.5935,-1.9604 -24.5667,-1.9551 C-24.54,-1.9498 -24.4856,-1.9444 -24.4583,-1.9444 L-24.1806,-1.9444 C-24.1533,-1.9444 -24.099,-1.9498 -24.0722,-1.9551 C-24.0454,-1.9604 -23.9932,-1.9763 -23.968,-1.9867 C-23.9428,-1.9972 -23.8946,-2.0229 -23.8719,-2.0381 C-23.8492,-2.0532 -23.807,-2.0879 -23.7877,-2.1072 C-23.7684,-2.1265 -23.7338,-2.1687 -23.7186,-2.1913 C-23.7035,-2.214 -23.6777,-2.2622 -23.6673,-2.2874 C-23.6568,-2.3126 -23.641,-2.3648 -23.6357,-2.3916 C-23.6304,-2.4184 -23.625,-2.4727 -23.625,-2.5 L-23.625,-3.0556" style="stroke:#808080;stroke-width:0.25;"/>
            </g>
            <path d="M-23,0 L-23.4163,2.5 L-22.5837,2.5 Z" style="stroke:#808080;stroke-width:0.25;fill:#808080;fill-rule:evenodd;"/>
            <path d="M-23,-5 L-22.5837,-7.5 L-23.4163,-7.5 Z" style="stroke:#808080;stroke-width:0.25;fill:#808080;fill-rule:evenodd;"/>
        </g>
        <path d="M-17.625,0 L-24.25,0 M-17.625,-5 L-24.25,-5 M-23,5 L-23,-10 " style="stroke:#808080;stroke-width:0.25;"/>
        <!-- Aligned Dimension -->
        <g>
            <g>
                <path d="M15.125,35.2333 L15.125,36.3444 L17.625,35.65 M16.2361,35.7889 L16.2361,36.3444 M15.125,38.0111 C15.1659,37.9402 15.2613,37.8071 15.3153,37.7455 C15.3693,37.6839 15.4889,37.572 15.5539,37.5221 C15.6188,37.4723 15.7579,37.3858 15.8314,37.3496 C15.9048,37.3134 16.0581,37.2557 16.1372,37.2345 C16.2163,37.2133 16.3779,37.1867 16.4596,37.1813 C16.4868,37.1796 16.5412,37.1778 16.5684,37.1778 L17.0695,37.1778 C17.0968,37.1778 17.1511,37.1831 17.1779,37.1885 C17.2046,37.1938 17.2569,37.2096 17.2821,37.2201 C17.3073,37.2305 17.3554,37.2562 17.3781,37.2714 C17.4008,37.2866 17.443,37.3212 17.4623,37.3405 C17.4816,37.3598 17.5162,37.402 17.5314,37.4247 C17.5466,37.4474 17.5723,37.4955 17.5827,37.5207 C17.5932,37.5459 17.609,37.5982 17.6144,37.6249 C17.6197,37.6517 17.625,37.706 17.625,37.7333 C17.625,37.7606 17.6197,37.8149 17.6144,37.8417 C17.609,37.8685 17.5932,37.9207 17.5827,37.9459 C17.5723,37.9712 17.5466,38.0193 17.5314,38.042 C17.5162,38.0647 17.4816,38.1069 17.4623,38.1262 C17.443,38.1455 17.4008,38.1801 17.3781,38.1953 C17.3554,38.2104 17.3073,38.2362 17.2821,38.2466 C17.2569,38.257 17.2046,38.2729 17.1779,38.2782 C17.1511,38.2835 17.0968,38.2889 17.0695,38.2889 L16.7917,38.2889 C16.7644,38.2889 16.7101,38.2835 16.6833,38.2782 C16.6565,38.2729 16.6043,38.257 16.5791,38.2466 C16.5539,38.2361 16.5057,38.2104 16.483,38.1953 C16.4603,38.1801 16.4182,38.1455 16.3989,38.1262 C16.3796,38.1069 16.3449,38.0647 16.3298,38.042 C16.3146,38.0193 16.2889,37.9711 16.2784,37.9459 C16.268,37.9207 16.2521,37.8685 16.2468,37.8417 C16.2415,37.8149 16.2361,37.7606 16.2361,37.7333 L16.2361,37.2112 M17.625,39.1222 L17.4861,39.1222 M15.125,39.9556 L15.125,40.5111 C15.125,40.5384 15.1304,40.5927 15.1357,40.6195 C15.141,40.6463 15.1569,40.6985 15.1673,40.7237 C15.1778,40.7489 15.2035,40.7971 15.2187,40.8198 C15.2338,40.8425 15.2684,40.8846 15.2877,40.9039 C15.307,40.9232 15.3492,40.9579 15.3719,40.973 C15.3946,40.9882 15.4428,41.0139 15.468,41.0244 C15.4932,41.0348 15.5454,41.0507 15.5722,41.056 C15.599,41.0613 15.6533,41.0667 15.6806,41.0667 C15.7079,41.0667 15.7622,41.0613 15.789,41.056 C15.8157,41.0507 15.868,41.0348 15.8932,41.0244 C15.9184,41.0139 15.9665,40.9882 15.9892,40.973 C16.0119,40.9579 16.0541,40.9232 16.0734,40.9039 C16.0927,40.8846 16.1273,40.8425 16.1425,40.8198 C16.1577,40.7971 16.1834,40.7489 16.1938,40.7237 C16.2043,40.6985 16.2201,40.6463 16.2255,40.6195 C16.2308,40.5927 16.2361,40.5384 16.2361,40.5111 C16.2361,40.5384 16.2415,40.5927 16.2468,40.6195 C16.2521,40.6462 16.268,40.6985 16.2784,40.7237 C16.2889,40.7489 16.3146,40.7971 16.3298,40.8197 C16.3449,40.8424 16.3796,40.8846 16.3989,40.9039 C16.4182,40.9232 16.4603,40.9579 16.483,40.973 C16.5057,40.9882 16.5539,41.0139 16.5791,41.0244 C16.6043,41.0348 16.6565,41.0507 16.6833,41.056 C16.7101,41.0613 16.7644,41.0667 16.7917,41.0667 L17.0695,41.0667 C17.0968,41.0667 17.1511,41.0613 17.1778,41.056 C17.2046,41.0507 17.2568,41.0348 17.2821,41.0244 C17.3073,41.0139 17.3554,40.9882 17.3781,40.973 C17.4008,40.9579 17.443,40.9233 17.4623,40.904 C17.4816,40.8847 17.5162,40.8425 17.5314,40.8198 C17.5466,40.7971 17.5723,40.7489 17.5827,40.7237 C17.5932,40.6985 17.609,40.6463 17.6144,40.6195 C17.6197,40.5927 17.625,40.5384 17.625,40.5111 L17.625,39.9556 M16.2361,40.5111 L16.2361,40.2333" style="stroke:#808080;stroke-width:0.25;"/>
            </g>
            <path d="M18.25,76.3 L18.6663,73.8 L17.8337,73.8 Z" style="stroke:#808080;stroke-width:0.25;fill:#808080;fill-rule:evenodd;"/>
            <path d="M18.25,0 L17.8337,2.5 L18.6663,2.5 Z" style="stroke:#808080;stroke-width:0.25;fill:#808080;fill-rule:evenodd;"/>
        </g>
        <path d="M13.875,76.3 L19.5,76.3 M13.875,0 L19.5,0 M18.25,76.3 L18.25,0 " style="stroke:#808080;stroke-width:0.25;"/>
        <!-- Aligned Dimension -->
        <g>
            <g>
                <path d="M-21.375,62.3556 L-21.375,61.2444 L-20.2639,61.2444 L-20.2639,61.8 C-20.2639,61.8273 -20.2585,61.8816 -20.2532,61.9084 C-20.2479,61.9351 -20.232,61.9874 -20.2216,62.0126 C-20.2112,62.0378 -20.1854,62.0859 -20.1703,62.1086 C-20.1551,62.1313 -20.1205,62.1735 -20.1012,62.1928 C-20.0819,62.2121 -20.0397,62.2468 -20.017,62.2619 C-19.9943,62.2771 -19.9462,62.3028 -19.9209,62.3133 C-19.8957,62.3237 -19.8435,62.3396 -19.8167,62.3449 C-19.79,62.3502 -19.7356,62.3556 -19.7083,62.3556 L-19.4306,62.3556 C-19.4033,62.3556 -19.349,62.3502 -19.3222,62.3449 C-19.2954,62.3396 -19.2432,62.3237 -19.218,62.3133 C-19.1928,62.3028 -19.1446,62.2771 -19.1219,62.2619 C-19.0992,62.2468 -19.057,62.2121 -19.0377,62.1928 C-19.0184,62.1735 -18.9838,62.1313 -18.9686,62.1087 C-18.9535,62.086 -18.9277,62.0378 -18.9173,62.0126 C-18.9068,61.9874 -18.891,61.9352 -18.8857,61.9084 C-18.8804,61.8816 -18.875,61.8273 -18.875,61.8 L-18.875,61.2444" style="stroke:#808080;stroke-width:0.25;"/>
            </g>
            <path d="M-18.25,64.3 L-18.6663,66.8 L-17.8337,66.8 Z" style="stroke:#808080;stroke-width:0.25;fill:#808080;fill-rule:evenodd;"/>
            <path d="M-18.25,59.3 L-17.8337,56.8 L-18.6663,56.8 Z" style="stroke:#808080;stroke-width:0.25;fill:#808080;fill-rule:evenodd;"/>
        </g>
        <path d="M-3.125,64.3 L-19.5,64.3 M-3.125,59.3 L-19.5,59.3 M-18.25,69.3 L-18.25,54.3 " style="stroke:#808080;stroke-width:0.25;"/>
        <!-- Aligned Dimension -->
        <g>
            <g>
                <path d="M-25.8194,69.05 L-26.375,69.6056 L-23.875,69.6056 M-23.875,71.55 L-23.875,70.4389 L-25.7214,71.5125 C-25.7332,71.5193 -25.758,71.5307 -25.7709,71.5351 C-25.7838,71.5395 -25.8103,71.5458 -25.8238,71.5476 C-25.8373,71.5494 -25.8646,71.5504 -25.8782,71.5495 C-25.8918,71.5486 -25.9187,71.5443 -25.9319,71.5408 C-25.9386,71.539 -25.9518,71.5348 -25.9583,71.5324 C-25.9847,71.5255 -26.0359,71.5068 -26.0605,71.4949 C-26.0851,71.4831 -26.1317,71.4547 -26.1535,71.4383 C-26.1753,71.4219 -26.2155,71.3849 -26.2337,71.3646 C-26.2519,71.3442 -26.2841,71.3001 -26.2979,71.2766 C-26.3118,71.2531 -26.3348,71.2036 -26.3438,71.1778 C-26.3528,71.1521 -26.3657,71.099 -26.3695,71.072 C-26.3733,71.045 -26.3756,70.9904 -26.3741,70.9632 C-26.3725,70.9359 -26.3641,70.882 -26.3573,70.8556 C-26.3505,70.8291 -26.3317,70.7779 -26.3199,70.7533 C-26.308,70.7287 -26.2796,70.6821 -26.2632,70.6603 C-26.2468,70.6385 -26.2099,70.5983 -26.1895,70.5801 C-26.1691,70.5619 -26.1251,70.5297 -26.1016,70.5159 C-26.078,70.502 -26.0285,70.479 -26.0028,70.47 C-25.9919,70.4662 -25.9697,70.4595 -25.9586,70.4566" style="stroke:#808080;stroke-width:0.25;"/>
            </g>
            <path d="M-23.25,64.3 L-23.6663,66.8 L-22.8337,66.8 Z" style="stroke:#808080;stroke-width:0.25;fill:#808080;fill-rule:evenodd;"/>
            <path d="M-23.25,76.3 L-22.8337,73.8 L-23.6663,73.8 Z" style="stroke:#808080;stroke-width:0.25;fill:#808080;fill-rule:evenodd;"/>
        </g>
        <path d="M-3.925,64.3 L-24.5,64.3 M-3.925,76.3 L-24.5,76.3 M-23.25,64.3 L-23.25,76.3 " style="stroke:#808080;stroke-width:0.25;"/>
        <!-- Aligned Dimension -->
        <g>
            <g>
                <path d="M0.5556,84.425 L-0.5556,84.425 L-0.5556,83.3139 L0,83.3139 C0.0273,83.3139 0.0816,83.3085 0.1084,83.3032 C0.1351,83.2979 0.1874,83.282 0.2126,83.2716 C0.2378,83.2612 0.2859,83.2354 0.3086,83.2203 C0.3313,83.2051 0.3735,83.1705 0.3928,83.1512 C0.4121,83.1319 0.4468,83.0897 0.4619,83.067 C0.4771,83.0443 0.5028,82.9962 0.5133,82.9709 C0.5237,82.9457 0.5396,82.8935 0.5449,82.8667 C0.5502,82.84 0.5556,82.7856 0.5556,82.7583 L0.5556,82.4806 C0.5556,82.4533 0.5502,82.399 0.5449,82.3722 C0.5396,82.3454 0.5237,82.2932 0.5133,82.268 C0.5028,82.2428 0.4771,82.1946 0.4619,82.1719 C0.4468,82.1492 0.4121,82.107 0.3928,82.0877 C0.3735,82.0684 0.3313,82.0338 0.3087,82.0186 C0.286,82.0035 0.2378,81.9777 0.2126,81.9673 C0.1874,81.9568 0.1352,81.941 0.1084,81.9357 C0.0816,81.9304 0.0273,81.925 0,81.925 L-0.5556,81.925" style="stroke:#808080;stroke-width:0.25;"/>
            </g>
            <path d="M-2.5,81.3 L-5,80.8837 L-5,81.7163 Z" style="stroke:#808080;stroke-width:0.25;fill:#808080;fill-rule:evenodd;"/>
            <path d="M2.5,81.3 L5,81.7163 L5,80.8837 Z" style="stroke:#808080;stroke-width:0.25;fill:#808080;fill-rule:evenodd;"/>
        </g>
        <path d="M-2.5,64.925 L-2.5,82.55 M2.5,64.925 L2.5,82.55 M-7.5,81.3 L7.5,81.3 " style="stroke:#808080;stroke-width:0.25;"/>
        <!-- Aligned Dimension -->
        <g>
            <g>
                <path d="M-1.1111,89.425 C-1.182,89.3841 -1.3151,89.2887 -1.3767,89.2347 C-1.4383,89.1807 -1.5502,89.0611 -1.6001,88.9961 C-1.6499,88.9312 -1.7364,88.7921 -1.7726,88.7186 C-1.8088,88.6452 -1.8665,88.4919 -1.8877,88.4128 C-1.9089,88.3337 -1.9355,88.1721 -1.9409,88.0904 C-1.9427,88.0632 -1.9444,88.0088 -1.9444,87.9816 L-1.9444,87.4805 C-1.9444,87.4532 -1.9391,87.3989 -1.9338,87.3721 C-1.9284,87.3454 -1.9126,87.2931 -1.9022,87.2679 C-1.8917,87.2427 -1.866,87.1946 -1.8508,87.1719 C-1.8357,87.1492 -1.801,87.107 -1.7817,87.0877 C-1.7624,87.0684 -1.7202,87.0338 -1.6975,87.0186 C-1.6748,87.0034 -1.6267,86.9777 -1.6015,86.9673 C-1.5763,86.9568 -1.524,86.941 -1.4973,86.9356 C-1.4705,86.9303 -1.4162,86.925 -1.3889,86.925 C-1.3616,86.925 -1.3073,86.9303 -1.2805,86.9356 C-1.2537,86.941 -1.2015,86.9568 -1.1763,86.9673 C-1.1511,86.9777 -1.1029,87.0034 -1.0802,87.0186 C-1.0575,87.0338 -1.0154,87.0684 -0.9961,87.0877 C-0.9768,87.107 -0.9421,87.1492 -0.927,87.1719 C-0.9118,87.1946 -0.8861,87.2427 -0.8756,87.2679 C-0.8652,87.2931 -0.8493,87.3454 -0.844,87.3721 C-0.8387,87.3989 -0.8333,87.4532 -0.8333,87.4805 L-0.8333,87.7583 C-0.8333,87.7856 -0.8387,87.8399 -0.844,87.8667 C-0.8493,87.8935 -0.8652,87.9457 -0.8756,87.9709 C-0.8861,87.9961 -0.9118,88.0443 -0.927,88.067 C-0.9421,88.0897 -0.9768,88.1318 -0.9961,88.1511 C-1.0154,88.1704 -1.0576,88.2051 -1.0803,88.2202 C-1.1029,88.2354 -1.1511,88.2611 -1.1763,88.2716 C-1.2015,88.282 -1.2538,88.2979 -1.2805,88.3032 C-1.3073,88.3085 -1.3616,88.3139 -1.3889,88.3139 L-1.911,88.3139 M0,86.925 L0,87.0639 M1.6667,89.425 C1.5958,89.3841 1.4626,89.2887 1.4011,89.2347 C1.3395,89.1807 1.2276,89.0611 1.1777,88.9961 C1.1279,88.9312 1.0414,88.7921 1.0052,88.7186 C0.969,88.6452 0.9113,88.4919 0.8901,88.4128 C0.8689,88.3337 0.8422,88.1721 0.8369,88.0904 C0.8351,88.0632 0.8333,88.0088 0.8333,87.9816 L0.8333,87.4805 C0.8333,87.4532 0.8387,87.3989 0.844,87.3721 C0.8493,87.3454 0.8652,87.2931 0.8756,87.2679 C0.8861,87.2427 0.9118,87.1946 0.927,87.1719 C0.9421,87.1492 0.9768,87.107 0.9961,87.0877 C1.0154,87.0684 1.0575,87.0338 1.0802,87.0186 C1.1029,87.0034 1.1511,86.9777 1.1763,86.9673 C1.2015,86.9568 1.2537,86.941 1.2805,86.9356 C1.3073,86.9303 1.3616,86.925 1.3889,86.925 C1.4162,86.925 1.4705,86.9303 1.4973,86.9356 C1.524,86.941 1.5763,86.9568 1.6015,86.9673 C1.6267,86.9777 1.6748,87.0034 1.6975,87.0186 C1.7202,87.0338 1.7624,87.0684 1.7817,87.0877 C1.801,87.107 1.8357,87.1492 1.8508,87.1719 C1.866,87.1946 1.8917,87.2427 1.9022,87.2679 C1.9126,87.2931 1.9284,87.3454 1.9338,87.3721 C1.9391,87.3989 1.9444,87.4532 1.9444,87.4805 L1.9444,87.7583 C1.9444,87.7856 1.9391,87.8399 1.9338,87.8667 C1.9284,87.8935 1.9126,87.9457 1.9021,87.9709 C1.8917,87.9961 1.866,88.0443 1.8508,88.067 C1.8356,88.0897 1.801,88.1318 1.7817,88.1511 C1.7624,88.1704 1.7202,88.2051 1.6975,88.2202 C1.6748,88.2354 1.6267,88.2611 1.6015,88.2716 C1.5763,88.282 1.524,88.2979 1.4972,88.3032 C1.4705,88.3085 1.4162,88.3139 1.3889,88.3139 L0.8668,88.3139" style="stroke:#808080;stroke-width:0.25;"/>
            </g>
            <path d="M-3.3,86.3 L-0.8,86.7163 L-0.8,85.8837 Z" style="stroke:#808080;stroke-width:0.25;fill:#808080;fill-rule:evenodd;"/>
            <path d="M3.3,86.3 L0.8,85.8837 L0.8,86.7163 Z" style="stroke:#808080;stroke-width:0.25;fill:#808080;fill-rule:evenodd;"/>
        </g>
        <path d="M-3.3,76.925 L-3.3,87.55 M3.3,76.925 L3.3,87.55 M-3.3,86.3 L3.3,86.3 " style="stroke:#808080;stroke-width:0.25;"/>
        <!-- Aligned Dimension -->
        <g>
            <g>
                <path d="M-2.6389,93.8694 L-2.0833,94.425 L-2.0833,91.925 M-0.4167,94.425 C-0.4876,94.3841 -0.6207,94.2887 -0.6823,94.2347 C-0.7438,94.1807 -0.8558,94.0611 -0.9056,93.9961 C-0.9555,93.9312 -1.042,93.7921 -1.0782,93.7186 C-1.1144,93.6452 -1.1721,93.4919 -1.1932,93.4128 C-1.2144,93.3337 -1.2411,93.1721 -1.2464,93.0904 C-1.2482,93.0632 -1.25,93.0088 -1.25,92.9816 L-1.25,92.4805 C-1.25,92.4532 -1.2446,92.3989 -1.2393,92.3721 C-1.234,92.3454 -1.2182,92.2931 -1.2077,92.2679 C-1.1973,92.2427 -1.1715,92.1946 -1.1564,92.1719 C-1.1412,92.1492 -1.1066,92.107 -1.0873,92.0877 C-1.068,92.0684 -1.0258,92.0338 -1.0031,92.0186 C-0.9804,92.0034 -0.9323,91.9777 -0.907,91.9673 C-0.8818,91.9568 -0.8296,91.941 -0.8028,91.9356 C-0.7761,91.9303 -0.7217,91.925 -0.6944,91.925 C-0.6672,91.925 -0.6128,91.9303 -0.5861,91.9356 C-0.5593,91.941 -0.5071,91.9568 -0.4818,91.9673 C-0.4566,91.9777 -0.4085,92.0034 -0.3858,92.0186 C-0.3631,92.0338 -0.3209,92.0684 -0.3016,92.0877 C-0.2823,92.107 -0.2477,92.1492 -0.2325,92.1719 C-0.2174,92.1946 -0.1916,92.2427 -0.1812,92.2679 C-0.1707,92.2931 -0.1549,92.3454 -0.1496,92.3721 C-0.1442,92.3989 -0.1389,92.4532 -0.1389,92.4805 L-0.1389,92.7583 C-0.1389,92.7856 -0.1442,92.8399 -0.1496,92.8667 C-0.1549,92.8935 -0.1707,92.9457 -0.1812,92.9709 C-0.1916,92.9961 -0.2174,93.0443 -0.2325,93.067 C-0.2477,93.0897 -0.2823,93.1318 -0.3016,93.1511 C-0.3209,93.1704 -0.3631,93.2051 -0.3858,93.2202 C-0.4085,93.2354 -0.4566,93.2611 -0.4819,93.2716 C-0.5071,93.282 -0.5593,93.2979 -0.5861,93.3032 C-0.6128,93.3085 -0.6672,93.3139 -0.6944,93.3139 L-1.2166,93.3139 M0.6944,91.925 L0.6944,92.0639 M2.6389,94.425 L1.5278,94.425 L1.5278,93.3139 L2.0833,93.3139 C2.1106,93.3139 2.1649,93.3085 2.1917,93.3032 C2.2185,93.2979 2.2707,93.282 2.2959,93.2716 C2.3211,93.2611 2.3693,93.2354 2.392,93.2202 C2.4147,93.2051 2.4569,93.1704 2.4762,93.1511 C2.4955,93.1318 2.5301,93.0897 2.5453,93.067 C2.5604,93.0443 2.5861,92.9961 2.5966,92.9709 C2.607,92.9457 2.6229,92.8935 2.6282,92.8667 C2.6335,92.8399 2.6389,92.7856 2.6389,92.7583 L2.6389,92.4805 C2.6389,92.4532 2.6335,92.3989 2.6282,92.3722 C2.6229,92.3454 2.607,92.2932 2.5966,92.2679 C2.5862,92.2427 2.5604,92.1946 2.5453,92.1719 C2.5301,92.1492 2.4955,92.107 2.4762,92.0877 C2.4569,92.0684 2.4147,92.0338 2.392,92.0186 C2.3693,92.0034 2.3212,91.9777 2.2959,91.9673 C2.2707,91.9568 2.2185,91.941 2.1917,91.9356 C2.165,91.9303 2.1106,91.925 2.0833,91.925 L1.5278,91.925" style="stroke:#808080;stroke-width:0.25;"/>
            </g>
            <path d="M-8.25,91.3 L-5.75,91.7163 L-5.75,90.8837 Z" style="stroke:#808080;stroke-width:0.25;fill:#808080;fill-rule:evenodd;"/>
            <path d="M8.25,91.3 L5.75,90.8837 L5.75,91.7163 Z" style="stroke:#808080;stroke-width:0.25;fill:#808080;fill-rule:evenodd;"/>
        </g>
        <path d="M-8.25,76.925 L-8.25,92.55 M8.25,76.925 L8.25,92.55 M-8.25,91.3 L8.25,91.3 " style="stroke:#808080;stroke-width:0.25;"/>
        <!-- Aligned Dimension -->
        <g>
            <g>
                <path d="M-1.8056,96.925 L-2.9167,96.925 L-1.8431,98.7714 C-1.8362,98.7831 -1.8249,98.808 -1.8205,98.8208 C-1.8161,98.8337 -1.8098,98.8603 -1.808,98.8738 C-1.8062,98.8873 -1.8052,98.9145 -1.8061,98.9281 C-1.8069,98.9418 -1.8113,98.9687 -1.8148,98.9818 C-1.8165,98.9885 -1.8208,99.0017 -1.8232,99.0082 C-1.83,99.0346 -1.8488,99.0859 -1.8606,99.1105 C-1.8725,99.1351 -1.9009,99.1817 -1.9173,99.2035 C-1.9337,99.2253 -1.9706,99.2655 -1.991,99.2837 C-2.0114,99.3019 -2.0554,99.3341 -2.0789,99.3479 C-2.1025,99.3618 -2.152,99.3848 -2.1777,99.3938 C-2.2035,99.4028 -2.2565,99.4157 -2.2836,99.4195 C-2.3106,99.4233 -2.3651,99.4256 -2.3924,99.424 C-2.4196,99.4225 -2.4736,99.4141 -2.5,99.4073 C-2.5264,99.4005 -2.5777,99.3817 -2.6023,99.3699 C-2.6269,99.358 -2.6735,99.3296 -2.6953,99.3132 C-2.7171,99.2968 -2.7573,99.2598 -2.7754,99.2395 C-2.7936,99.2191 -2.8258,99.175 -2.8397,99.1515 C-2.8536,99.128 -2.8765,99.0785 -2.8855,99.0527 C-2.8894,99.0418 -2.8961,99.0197 -2.899,99.0085 M-0.1389,99.425 C-0.2098,99.3841 -0.3429,99.2887 -0.4045,99.2347 C-0.4661,99.1807 -0.578,99.0611 -0.6279,98.9961 C-0.6777,98.9312 -0.7642,98.7921 -0.8004,98.7186 C-0.8366,98.6452 -0.8943,98.4919 -0.9155,98.4128 C-0.9367,98.3337 -0.9633,98.1721 -0.9687,98.0904 C-0.9704,98.0632 -0.9722,98.0088 -0.9722,97.9816 L-0.9722,97.4805 C-0.9722,97.4532 -0.9669,97.3989 -0.9615,97.3721 C-0.9562,97.3454 -0.9404,97.2931 -0.9299,97.2679 C-0.9195,97.2427 -0.8938,97.1946 -0.8786,97.1719 C-0.8634,97.1492 -0.8288,97.107 -0.8095,97.0877 C-0.7902,97.0684 -0.748,97.0338 -0.7253,97.0186 C-0.7026,97.0034 -0.6545,96.9777 -0.6293,96.9673 C-0.6041,96.9568 -0.5518,96.941 -0.5251,96.9356 C-0.4983,96.9303 -0.444,96.925 -0.4167,96.925 C-0.3894,96.925 -0.3351,96.9303 -0.3083,96.9356 C-0.2815,96.941 -0.2293,96.9568 -0.2041,96.9673 C-0.1788,96.9777 -0.1307,97.0034 -0.108,97.0186 C-0.0853,97.0338 -0.0431,97.0684 -0.0238,97.0877 C-0.0045,97.107 0.0301,97.1492 0.0453,97.1719 C0.0604,97.1946 0.0862,97.2427 0.0966,97.2679 C0.107,97.2931 0.1229,97.3454 0.1282,97.3721 C0.1335,97.3989 0.1389,97.4532 0.1389,97.4805 L0.1389,97.7583 C0.1389,97.7856 0.1335,97.8399 0.1282,97.8667 C0.1229,97.8935 0.107,97.9457 0.0966,97.9709 C0.0861,97.9961 0.0604,98.0443 0.0453,98.067 C0.0301,98.0897 -0.0045,98.1318 -0.0238,98.1511 C-0.0431,98.1704 -0.0853,98.2051 -0.108,98.2202 C-0.1307,98.2354 -0.1789,98.2611 -0.2041,98.2716 C-0.2293,98.282 -0.2815,98.2979 -0.3083,98.3032 C-0.3351,98.3085 -0.3894,98.3139 -0.4167,98.3139 L-0.9388,98.3139 M0.9722,96.925 L0.9722,97.0639 M2.9167,99.425 L1.8056,99.425 L1.8056,98.3139 L2.3611,98.3139 C2.3884,98.3139 2.4427,98.3085 2.4695,98.3032 C2.4962,98.2979 2.5485,98.282 2.5737,98.2716 C2.5989,98.2611 2.6471,98.2354 2.6697,98.2202 C2.6924,98.2051 2.7346,98.1704 2.7539,98.1511 C2.7732,98.1318 2.8079,98.0897 2.823,98.067 C2.8382,98.0443 2.8639,97.9961 2.8744,97.9709 C2.8848,97.9457 2.9007,97.8935 2.906,97.8667 C2.9113,97.8399 2.9167,97.7856 2.9167,97.7583 L2.9167,97.4805 C2.9167,97.4532 2.9113,97.3989 2.906,97.3722 C2.9007,97.3454 2.8848,97.2932 2.8744,97.2679 C2.8639,97.2427 2.8382,97.1946 2.823,97.1719 C2.8079,97.1492 2.7733,97.107 2.754,97.0877 C2.7347,97.0684 2.6925,97.0338 2.6698,97.0186 C2.6471,97.0034 2.5989,96.9777 2.5737,96.9673 C2.5485,96.9568 2.4963,96.941 2.4695,96.9356 C2.4427,96.9303 2.3884,96.925 2.3611,96.925 L1.8056,96.925" style="stroke:#808080;stroke-width:0.25;"/>
            </g>
            <path d="M-13.25,96.3 L-10.75,96.7163 L-10.75,95.8837 Z" style="stroke:#808080;stroke-width:0.25;fill:#808080;fill-rule:evenodd;"/>
            <path d="M13.25,96.3 L10.75,95.8837 L10.75,96.7163 Z" style="stroke:#808080;stroke-width:0.25;fill:#808080;fill-rule:evenodd;"/>
        </g>
        <path d="M-13.25,76.925 L-13.25,97.55 M13.25,76.925 L13.25,97.55 M-13.25,96.3 L13.25,96.3 " style="stroke:#808080;stroke-width:0.25;"/>
    </g>
</svg>
