<?xml version="1.0" encoding="UTF-8"?>
<!-- Sun Feb 1 19:58:30 2026 Generated by QCAD 3.32.6 SVG Exporter -->
<svg width="70mm" height="140mm" viewBox="-40 -110 70 140" version="1.1" xmlns="http://www.w3.org/2000/svg" style="stroke-linecap:round;stroke-linejoin:round;fill:none">
    <g transform="scale(1,-1)">
        <!-- Line -->
        <path d="M-13,0 L13,0 " style="stroke:#000000;stroke-width:0.25;"/>
        <!-- Line -->
        <path d="M13,0 L13,85 " style="stroke:#000000;stroke-width:0.25;"/>
        <!-- Line -->
        <path d="M13,85 L-13,85 " style="stroke:#000000;stroke-width:0.25;"/>
        <!-- Line -->
        <path d="M-13,85 L-13,0 " style="stroke:#000000;stroke-width:0.25;"/>
        <!-- Line -->
        <path d="M13,85 L13,85 " style="stroke:#000000;stroke-width:0.25;"/>
        <!-- Line -->
        <path d="M13,85 L13,85 " style="stroke:#000000;stroke-width:0.25;"/>
        <!-- Line -->
        <path d="M13,85 L13,85 " style="stroke:#000000;stroke-width:0.25;"/>
        <!-- Line -->
        <path d="M13,85 L13,85 " style="stroke:#000000;stroke-width:0.25;"/>
        <!-- Line -->
        <path d="M13,85 L13,85 " style="stroke:#000000;stroke-width:0.25;"/>
        <!-- Line -->
        <path d="M13,85 L13,85 " style="stroke:#000000;stroke-width:0.25;"/>
        <!-- Line -->
        <path d="M13,85 L13,85 " style="stroke:#000000;stroke-width:0.25;"/>
        <!-- Line -->
        <path d="M13,85 L13,85 " style="stroke:#000000;stroke-width:0.25;"/>
        <!-- Line -->
        <path d="M13,85 L13,85 " style="stroke:#000000;stroke-width:0.25;"/>
        <!-- Line -->
        <path d="M13,85 L13,85 " style="stroke:#000000;stroke-width:0.25;"/>
        <!-- Line -->
        <path d="M13,85 L13,85 " style="stroke:#000000;stroke-width:0.25;"/>
        <!-- Line -->
        <path d="M13,85 L13,85 " style="stroke:#000000;stroke-width:0.25;"/>
        <!-- Line -->
        <path d="M-3.3,85 L3.3,85 " style="stroke:#000000;stroke-width:0.25;"/>
        <!-- Line -->
        <path d="M3.3,85 L3.3,73 " style="stroke:#000000;stroke-width:0.25;"/>
        <!-- Line -->
        <path d="M3.3,73 L-3.3,73 " style="stroke:#000000;stroke-width:0.25;"/>
        <!-- Line -->
        <path d="M-3.3,73 L-3.3,85 " style="stroke:#000000;stroke-width:0.25;"/>
        <!-- Line -->
        <path d="M-2.5,73 L2.5,73 " style="stroke:#000000;stroke-width:0.25;"/>
        <!-- Line -->
        <path d="M2.5,73 L2.5,68 " style="stroke:#000000;stroke-width:0.25;"/>
        <!-- Line -->
        <path d="M2.5,68 L-2.5,68 " style="stroke:#000000;stroke-width:0.25;"/>
        <!-- Line -->
        <path d="M-2.5,68 L-2.5,73 " style="stroke:#000000;stroke-width:0.25;"/>
        <!-- Text: Front -->
        <g>
            <path d="M-6.2709,-19.9673 L-6.2709,-15.9673 L-3.5724,-15.9673 L-3.5724,-16.4393 L-5.7416,-16.4393 L-5.7416,-17.678 L-3.8643,-17.678 L-3.8643,-18.1501 L-5.7416,-18.1501 L-5.7416,-19.9673 Z M-2.9533,-19.9673 L-2.9533,-17.0696 L-2.5113,-17.0696 L-2.5113,-17.5089 C-2.3985,-17.3033 -2.2944,-17.1678 -2.1989,-17.1023 C-2.1034,-17.0368 -1.9984,-17.0041 -1.8838,-17.0041 C-1.7182,-17.0041 -1.55,-17.0568 -1.379,-17.1623 L-1.5482,-17.618 C-1.6682,-17.5471 -1.7883,-17.5116 -1.9083,-17.5116 C-2.0156,-17.5116 -2.1121,-17.5439 -2.1975,-17.6085 C-2.283,-17.673 -2.344,-17.7626 -2.3804,-17.8772 C-2.4349,-18.0518 -2.4622,-18.2428 -2.4622,-18.4502 L-2.4622,-19.9673 Z M-1.2701,-18.5184 C-1.2701,-17.9818 -1.1209,-17.5844 -0.8226,-17.3261 C-0.5734,-17.1114 -0.2696,-17.0041 0.0887,-17.0041 C0.4871,-17.0041 0.8127,-17.1346 1.0655,-17.3956 C1.3184,-17.6567 1.4448,-18.0173 1.4448,-18.4775 C1.4448,-18.8504 1.3889,-19.1437 1.277,-19.3574 C1.1651,-19.5712 1.0023,-19.7372 0.7886,-19.8554 C0.5749,-19.9736 0.3416,-20.0327 0.0887,-20.0327 C-0.3169,-20.0327 -0.6448,-19.9027 -0.8949,-19.6426 C-1.145,-19.3824 -1.2701,-19.0077 -1.2701,-18.5184 M-0.7653,-18.5184 C-0.7653,-18.8895 -0.6843,-19.1673 -0.5225,-19.352 C-0.3606,-19.5366 -0.1568,-19.6289 0.0887,-19.6289 C0.3325,-19.6289 0.5353,-19.5362 0.6972,-19.3506 C0.8591,-19.1651 0.94,-18.8822 0.94,-18.502 C0.94,-18.1437 0.8586,-17.8722 0.6958,-17.6876 C0.533,-17.503 0.3307,-17.4106 0.0887,-17.4106 C-0.1568,-17.4106 -0.3606,-17.5025 -0.5225,-17.6862 C-0.6843,-17.8699 -0.7653,-18.1473 -0.7653,-18.5184 M2.0202,-19.9673 L2.0202,-17.0696 L2.4622,-17.0696 L2.4622,-17.4816 C2.675,-17.1633 2.9824,-17.0041 3.3844,-17.0041 C3.5591,-17.0041 3.7196,-17.0355 3.866,-17.0982 C4.0125,-17.161 4.1221,-17.2433 4.1948,-17.3452 C4.2676,-17.447 4.3185,-17.568 4.3476,-17.708 C4.3658,-17.799 4.3749,-17.9582 4.3749,-18.1855 L4.3749,-19.9673 L3.8838,-19.9673 L3.8838,-18.2046 C3.8838,-18.0045 3.8647,-17.8549 3.8265,-17.7558 C3.7883,-17.6567 3.7205,-17.5775 3.6232,-17.5184 C3.5259,-17.4593 3.4117,-17.4297 3.2808,-17.4297 C3.0716,-17.4297 2.891,-17.4961 2.7392,-17.6289 C2.5873,-17.7617 2.5113,-18.0136 2.5113,-18.3847 L2.5113,-19.9673 Z M6.1999,-19.528 L6.2709,-19.9618 C6.1326,-19.9909 6.0089,-20.0055 5.8998,-20.0055 C5.7215,-20.0055 5.5833,-19.9773 5.4851,-19.9209 C5.3868,-19.8645 5.3177,-19.7904 5.2777,-19.6985 C5.2377,-19.6066 5.2177,-19.4134 5.2177,-19.1187 L5.2177,-17.4516 L4.8575,-17.4516 L4.8575,-17.0696 L5.2177,-17.0696 L5.2177,-16.352 L5.7061,-16.0573 L5.7061,-17.0696 L6.1999,-17.0696 L6.1999,-17.4516 L5.7061,-17.4516 L5.7061,-19.146 C5.7061,-19.286 5.7147,-19.3761 5.732,-19.4161 C5.7493,-19.4561 5.7775,-19.4879 5.8166,-19.5116 C5.8557,-19.5352 5.9116,-19.5471 5.9844,-19.5471 C6.039,-19.5471 6.1108,-19.5407 6.1999,-19.528" style="fill:#000000;fill-rule:nonzero;"/>
        </g>
        <!-- Aligned Dimension -->
        <g>
            <g>
                <path d="M-20.2539,71.0556 L-20.2539,69.9444 L-19.1428,69.9444 L-19.1428,70.5 C-19.1428,70.5273 -19.1375,70.5816 -19.1322,70.6084 C-19.1268,70.6351 -19.111,70.6874 -19.1005,70.7126 C-19.0901,70.7378 -19.0644,70.7859 -19.0492,70.8086 C-19.034,70.8313 -18.9994,70.8735 -18.9801,70.8928 C-18.9608,70.9121 -18.9186,70.9468 -18.8959,70.9619 C-18.8732,70.9771 -18.8251,71.0028 -18.7999,71.0133 C-18.7747,71.0237 -18.7224,71.0396 -18.6957,71.0449 C-18.6689,71.0502 -18.6146,71.0556 -18.5873,71.0556 L-18.3095,71.0556 C-18.2822,71.0556 -18.2279,71.0502 -18.2011,71.0449 C-18.1744,71.0396 -18.1221,71.0237 -18.0969,71.0133 C-18.0717,71.0028 -18.0236,70.9771 -18.0009,70.9619 C-17.9782,70.9468 -17.936,70.9121 -17.9167,70.8928 C-17.8974,70.8735 -17.8627,70.8313 -17.8476,70.8087 C-17.8324,70.786 -17.8067,70.7378 -17.7962,70.7126 C-17.7858,70.6874 -17.7699,70.6352 -17.7646,70.6084 C-17.7593,70.5816 -17.7539,70.5273 -17.7539,70.5 L-17.7539,69.9444" style="stroke:#808080;stroke-width:0.25;"/>
            </g>
            <path d="M-17.1289,73 L-17.5452,75.5 L-16.7127,75.5 Z" style="stroke:#808080;stroke-width:0.25;fill:#808080;fill-rule:evenodd;"/>
            <path d="M-17.1289,68 L-16.7127,65.5 L-17.5452,65.5 Z" style="stroke:#808080;stroke-width:0.25;fill:#808080;fill-rule:evenodd;"/>
        </g>
        <path d="M-3.125,73 L-18.3789,73 M-3.125,68 L-18.3789,68 M-17.1289,78 L-17.1289,63 " style="stroke:#808080;stroke-width:0.25;"/>
        <!-- Aligned Dimension -->
        <g>
            <g>
                <path d="M0.5556,90.521 L-0.5556,90.521 L-0.5556,89.4099 L0,89.4099 C0.0273,89.4099 0.0816,89.4046 0.1084,89.3993 C0.1351,89.3939 0.1874,89.3781 0.2126,89.3676 C0.2378,89.3572 0.2859,89.3315 0.3086,89.3163 C0.3313,89.3011 0.3735,89.2665 0.3928,89.2472 C0.4121,89.2279 0.4468,89.1857 0.4619,89.163 C0.4771,89.1403 0.5028,89.0922 0.5133,89.067 C0.5237,89.0418 0.5396,88.9895 0.5449,88.9628 C0.5502,88.936 0.5556,88.8817 0.5556,88.8544 L0.5556,88.5766 C0.5556,88.5493 0.5502,88.495 0.5449,88.4682 C0.5396,88.4415 0.5237,88.3892 0.5133,88.364 C0.5028,88.3388 0.4771,88.2907 0.4619,88.268 C0.4468,88.2453 0.4121,88.2031 0.3928,88.1838 C0.3735,88.1645 0.3313,88.1298 0.3087,88.1147 C0.286,88.0995 0.2378,88.0738 0.2126,88.0633 C0.1874,88.0529 0.1352,88.037 0.1084,88.0317 C0.0816,88.0264 0.0273,88.021 0,88.021 L-0.5556,88.021" style="stroke:#808080;stroke-width:0.25;"/>
            </g>
            <path d="M-2.5,87.396 L-5,86.9798 L-5,87.8123 Z" style="stroke:#808080;stroke-width:0.25;fill:#808080;fill-rule:evenodd;"/>
            <path d="M2.5,87.396 L5,87.8123 L5,86.9798 Z" style="stroke:#808080;stroke-width:0.25;fill:#808080;fill-rule:evenodd;"/>
        </g>
        <path d="M-2.5,73.625 L-2.5,88.646 M2.5,73.625 L2.5,88.646 M-7.5,87.396 L7.5,87.396 " style="stroke:#808080;stroke-width:0.25;"/>
        <!-- Aligned Dimension -->
        <g>
            <g>
                <path d="M-1.1111,96.1697 C-1.182,96.1287 -1.3151,96.0333 -1.3767,95.9793 C-1.4383,95.9253 -1.5502,95.8057 -1.6001,95.7408 C-1.6499,95.6758 -1.7364,95.5367 -1.7726,95.4633 C-1.8088,95.3898 -1.8665,95.2365 -1.8877,95.1574 C-1.9089,95.0783 -1.9355,94.9167 -1.9409,94.835 C-1.9427,94.8079 -1.9444,94.7535 -1.9444,94.7263 L-1.9444,94.2252 C-1.9444,94.1979 -1.9391,94.1435 -1.9338,94.1168 C-1.9284,94.09 -1.9126,94.0378 -1.9022,94.0126 C-1.8917,93.9873 -1.866,93.9392 -1.8508,93.9165 C-1.8357,93.8938 -1.801,93.8516 -1.7817,93.8323 C-1.7624,93.813 -1.7202,93.7784 -1.6975,93.7632 C-1.6748,93.7481 -1.6267,93.7223 -1.6015,93.7119 C-1.5763,93.7015 -1.524,93.6856 -1.4973,93.6803 C-1.4705,93.675 -1.4162,93.6696 -1.3889,93.6696 C-1.3616,93.6696 -1.3073,93.675 -1.2805,93.6803 C-1.2537,93.6856 -1.2015,93.7015 -1.1763,93.7119 C-1.1511,93.7223 -1.1029,93.7481 -1.0802,93.7632 C-1.0575,93.7784 -1.0154,93.813 -0.9961,93.8323 C-0.9768,93.8516 -0.9421,93.8938 -0.927,93.9165 C-0.9118,93.9392 -0.8861,93.9873 -0.8756,94.0126 C-0.8652,94.0378 -0.8493,94.09 -0.844,94.1168 C-0.8387,94.1435 -0.8333,94.1979 -0.8333,94.2252 L-0.8333,94.5029 C-0.8333,94.5302 -0.8387,94.5846 -0.844,94.6113 C-0.8493,94.6381 -0.8652,94.6903 -0.8756,94.7155 C-0.8861,94.7408 -0.9118,94.7889 -0.927,94.8116 C-0.9421,94.8343 -0.9768,94.8765 -0.9961,94.8958 C-1.0154,94.9151 -1.0576,94.9497 -1.0803,94.9649 C-1.1029,94.98 -1.1511,95.0058 -1.1763,95.0162 C-1.2015,95.0267 -1.2538,95.0425 -1.2805,95.0478 C-1.3073,95.0531 -1.3616,95.0585 -1.3889,95.0585 L-1.911,95.0585 M0,93.6696 L0,93.8085 M1.6667,96.1697 C1.5958,96.1287 1.4626,96.0333 1.4011,95.9793 C1.3395,95.9253 1.2276,95.8057 1.1777,95.7408 C1.1279,95.6758 1.0414,95.5367 1.0052,95.4633 C0.969,95.3898 0.9113,95.2365 0.8901,95.1574 C0.8689,95.0783 0.8422,94.9167 0.8369,94.835 C0.8351,94.8079 0.8333,94.7535 0.8333,94.7263 L0.8333,94.2252 C0.8333,94.1979 0.8387,94.1435 0.844,94.1168 C0.8493,94.09 0.8652,94.0378 0.8756,94.0126 C0.8861,93.9873 0.9118,93.9392 0.927,93.9165 C0.9421,93.8938 0.9768,93.8516 0.9961,93.8323 C1.0154,93.813 1.0575,93.7784 1.0802,93.7632 C1.1029,93.7481 1.1511,93.7223 1.1763,93.7119 C1.2015,93.7015 1.2537,93.6856 1.2805,93.6803 C1.3073,93.675 1.3616,93.6696 1.3889,93.6696 C1.4162,93.6696 1.4705,93.675 1.4973,93.6803 C1.524,93.6856 1.5763,93.7015 1.6015,93.7119 C1.6267,93.7223 1.6748,93.7481 1.6975,93.7632 C1.7202,93.7784 1.7624,93.813 1.7817,93.8323 C1.801,93.8516 1.8357,93.8938 1.8508,93.9165 C1.866,93.9392 1.8917,93.9873 1.9022,94.0126 C1.9126,94.0378 1.9284,94.09 1.9338,94.1168 C1.9391,94.1435 1.9444,94.1979 1.9444,94.2252 L1.9444,94.5029 C1.9444,94.5302 1.9391,94.5846 1.9338,94.6113 C1.9284,94.6381 1.9126,94.6903 1.9021,94.7155 C1.8917,94.7408 1.866,94.7889 1.8508,94.8116 C1.8356,94.8343 1.801,94.8765 1.7817,94.8958 C1.7624,94.9151 1.7202,94.9497 1.6975,94.9649 C1.6748,94.98 1.6267,95.0058 1.6015,95.0162 C1.5763,95.0267 1.524,95.0425 1.4972,95.0478 C1.4705,95.0531 1.4162,95.0585 1.3889,95.0585 L0.8668,95.0585" style="stroke:#808080;stroke-width:0.25;"/>
            </g>
            <path d="M-3.3,93.0446 L-0.8,93.4609 L-0.8,92.6284 Z" style="stroke:#808080;stroke-width:0.25;fill:#808080;fill-rule:evenodd;"/>
            <path d="M3.3,93.0446 L0.8,92.6284 L0.8,93.4609 Z" style="stroke:#808080;stroke-width:0.25;fill:#808080;fill-rule:evenodd;"/>
        </g>
        <path d="M-3.3,85.625 L-3.3,94.2946 M3.3,85.625 L3.3,94.2946 M-3.3,93.0446 L3.3,93.0446 " style="stroke:#808080;stroke-width:0.25;"/>
        <!-- Aligned Dimension -->
        <g>
            <g>
                <path d="M14.2355,77.75 L13.6799,78.3056 L16.1799,78.3056 M16.1799,80.25 L16.1799,79.1389 L14.3335,80.2125 C14.3217,80.2193 14.2969,80.2307 14.284,80.2351 C14.2711,80.2395 14.2446,80.2458 14.2311,80.2476 C14.2176,80.2494 14.1903,80.2504 14.1767,80.2495 C14.1631,80.2486 14.1362,80.2443 14.123,80.2408 C14.1163,80.239 14.1031,80.2348 14.0967,80.2324 C14.0702,80.2255 14.019,80.2068 13.9944,80.1949 C13.9698,80.1831 13.9232,80.1547 13.9014,80.1383 C13.8796,80.1219 13.8394,80.0849 13.8212,80.0646 C13.803,80.0442 13.7708,80.0001 13.757,79.9766 C13.7431,79.9531 13.7201,79.9036 13.7111,79.8778 C13.7021,79.8521 13.6892,79.799 13.6854,79.772 C13.6816,79.745 13.6793,79.6904 13.6808,79.6632 C13.6824,79.6359 13.6908,79.582 13.6976,79.5556 C13.7044,79.5291 13.7232,79.4779 13.735,79.4533 C13.7469,79.4287 13.7753,79.3821 13.7917,79.3603 C13.8081,79.3385 13.845,79.2983 13.8654,79.2801 C13.8858,79.2619 13.9298,79.2297 13.9533,79.2159 C13.9769,79.202 14.0264,79.179 14.0521,79.17 C14.063,79.1662 14.0852,79.1595 14.0963,79.1566" style="stroke:#808080;stroke-width:0.25;"/>
            </g>
            <path d="M16.8049,85 L17.2212,82.5 L16.3886,82.5 Z" style="stroke:#808080;stroke-width:0.25;fill:#808080;fill-rule:evenodd;"/>
            <path d="M16.8049,73 L16.3886,75.5 L17.2212,75.5 Z" style="stroke:#808080;stroke-width:0.25;fill:#808080;fill-rule:evenodd;"/>
        </g>
        <path d="M3.925,85 L18.0549,85 M3.925,73 L18.0549,73 M16.8049,85 L16.8049,73 " style="stroke:#808080;stroke-width:0.25;"/>
        <!-- Aligned Dimension -->
        <g>
            <g>
                <path d="M-24.0336,40.9722 C-24.0063,40.9722 -23.9519,40.9776 -23.9252,40.9829 C-23.8984,40.9882 -23.8462,41.0041 -23.821,41.0145 C-23.7957,41.025 -23.7476,41.0507 -23.7249,41.0659 C-23.7022,41.081 -23.66,41.1156 -23.6407,41.1349 C-23.6214,41.1542 -23.5868,41.1964 -23.5716,41.2191 C-23.5565,41.2418 -23.5307,41.29 -23.5203,41.3152 C-23.5098,41.3404 -23.494,41.3926 -23.4887,41.4194 C-23.4833,41.4462 -23.478,41.5005 -23.478,41.5278 C-23.478,41.5551 -23.4833,41.6094 -23.4887,41.6362 C-23.494,41.6629 -23.5098,41.7152 -23.5203,41.7404 C-23.5307,41.7656 -23.5565,41.8137 -23.5716,41.8364 C-23.5868,41.8591 -23.6214,41.9013 -23.6407,41.9206 C-23.66,41.9399 -23.7022,41.9745 -23.7249,41.9897 C-23.7476,42.0049 -23.7957,42.0306 -23.821,42.041 C-23.8462,42.0515 -23.8984,42.0673 -23.9252,42.0727 C-23.9519,42.078 -24.0063,42.0833 -24.0336,42.0833 L-24.3113,42.0833 C-24.3386,42.0833 -24.3929,42.078 -24.4197,42.0727 C-24.4465,42.0673 -24.4987,42.0515 -24.5239,42.041 C-24.5491,42.0306 -24.5973,42.0049 -24.62,41.9897 C-24.6427,41.9745 -24.6849,41.9399 -24.7042,41.9206 C-24.7235,41.9013 -24.7581,41.8591 -24.7733,41.8364 C-24.7884,41.8137 -24.8142,41.7656 -24.8246,41.7404 C-24.835,41.7152 -24.8509,41.6629 -24.8562,41.6362 C-24.8615,41.6094 -24.8669,41.5551 -24.8669,41.5278 C-24.8669,41.5005 -24.8615,41.4462 -24.8562,41.4194 C-24.8509,41.3926 -24.835,41.3404 -24.8246,41.3152 C-24.8142,41.29 -24.7884,41.2418 -24.7733,41.2191 C-24.7581,41.1964 -24.7235,41.1542 -24.7042,41.1349 C-24.6849,41.1156 -24.6427,41.081 -24.62,41.0659 C-24.5973,41.0507 -24.5491,41.025 -24.5239,41.0145 C-24.4987,41.0041 -24.4465,40.9882 -24.4197,40.9829 C-24.3929,40.9776 -24.3386,40.9722 -24.3113,40.9722 Z M-25.353,41.0417 C-25.3291,41.0417 -25.2816,41.0463 -25.2582,41.051 C-25.2347,41.0557 -25.189,41.0695 -25.167,41.0787 C-25.1449,41.0878 -25.1028,41.1103 -25.0829,41.1236 C-25.0631,41.1369 -25.0262,41.1672 -25.0093,41.184 C-24.9924,41.2009 -24.9621,41.2379 -24.9488,41.2577 C-24.9355,41.2776 -24.913,41.3197 -24.9039,41.3418 C-24.8948,41.3638 -24.8809,41.4095 -24.8762,41.4329 C-24.8716,41.4564 -24.8669,41.5039 -24.8669,41.5278 C-24.8669,41.5517 -24.8716,41.5992 -24.8762,41.6226 C-24.8809,41.646 -24.8948,41.6917 -24.9039,41.7138 C-24.913,41.7359 -24.9355,41.778 -24.9488,41.7978 C-24.9621,41.8177 -24.9924,41.8546 -25.0093,41.8715 C-25.0262,41.8884 -25.0631,41.9187 -25.0829,41.932 C-25.1028,41.9452 -25.1449,41.9677 -25.167,41.9769 C-25.189,41.986 -25.2347,41.9999 -25.2582,42.0045 C-25.2816,42.0092 -25.3291,42.0139 -25.353,42.0139 L-25.4919,42.0139 C-25.5158,42.0139 -25.5633,42.0092 -25.5867,42.0045 C-25.6101,41.9999 -25.6559,41.986 -25.6779,41.9769 C-25.7,41.9677 -25.7421,41.9452 -25.762,41.932 C-25.7818,41.9187 -25.8187,41.8884 -25.8356,41.8715 C-25.8525,41.8546 -25.8828,41.8177 -25.8961,41.7978 C-25.9093,41.778 -25.9319,41.7359 -25.941,41.7138 C-25.9501,41.6917 -25.964,41.646 -25.9687,41.6226 C-25.9733,41.5992 -25.978,41.5517 -25.978,41.5278 C-25.978,41.5039 -25.9733,41.4564 -25.9687,41.4329 C-25.964,41.4095 -25.9501,41.3638 -25.941,41.3418 C-25.9319,41.3197 -25.9093,41.2776 -25.8961,41.2577 C-25.8828,41.2379 -25.8525,41.2009 -25.8356,41.184 C-25.8187,41.1672 -25.7818,41.1369 -25.762,41.1236 C-25.7421,41.1103 -25.7,41.0878 -25.6779,41.0787 C-25.6559,41.0695 -25.6101,41.0557 -25.5867,41.051 C-25.5633,41.0463 -25.5158,41.0417 -25.4919,41.0417 Z M-25.978,44.0278 L-25.978,42.9167 L-24.8669,42.9167 L-24.8669,43.4722 C-24.8669,43.4995 -24.8615,43.5538 -24.8562,43.5806 C-24.8509,43.6074 -24.835,43.6596 -24.8246,43.6848 C-24.8142,43.71 -24.7884,43.7582 -24.7733,43.7809 C-24.7581,43.8035 -24.7235,43.8457 -24.7042,43.865 C-24.6849,43.8843 -24.6427,43.919 -24.62,43.9341 C-24.5973,43.9493 -24.5492,43.975 -24.5239,43.9855 C-24.4987,43.9959 -24.4465,44.0118 -24.4197,44.0171 C-24.3929,44.0224 -24.3386,44.0278 -24.3113,44.0278 L-24.0336,44.0278 C-24.0063,44.0278 -23.952,44.0224 -23.9252,44.0171 C-23.8984,44.0118 -23.8462,43.9959 -23.821,43.9855 C-23.7958,43.975 -23.7476,43.9493 -23.7249,43.9342 C-23.7022,43.919 -23.66,43.8844 -23.6407,43.8651 C-23.6214,43.8458 -23.5868,43.8036 -23.5716,43.7809 C-23.5565,43.7582 -23.5307,43.71 -23.5203,43.6848 C-23.5098,43.6596 -23.494,43.6074 -23.4887,43.5806 C-23.4834,43.5538 -23.478,43.4995 -23.478,43.4722 L-23.478,42.9167" style="stroke:#808080;stroke-width:0.25;"/>
            </g>
            <path d="M-22.853,85 L-22.4367,82.5 L-23.2693,82.5 Z" style="stroke:#808080;stroke-width:0.25;fill:#808080;fill-rule:evenodd;"/>
            <path d="M-22.853,0 L-23.2693,2.5 L-22.4367,2.5 Z" style="stroke:#808080;stroke-width:0.25;fill:#808080;fill-rule:evenodd;"/>
        </g>
        <path d="M-13.625,85 L-24.103,85 M-13.625,0 L-24.103,0 M-22.853,85 L-22.853,0 " style="stroke:#808080;stroke-width:0.25;"/>
        <!-- Aligned Dimension -->
        <g>
            <g>
                <path d="M-0.4167,-4.215 L-1.5278,-4.215 L-0.4542,-2.3686 C-0.4473,-2.3568 -0.436,-2.332 -0.4316,-2.3191 C-0.4272,-2.3062 -0.4209,-2.2797 -0.4191,-2.2662 C-0.4173,-2.2526 -0.4163,-2.2254 -0.4172,-2.2118 C-0.418,-2.1982 -0.4224,-2.1713 -0.4259,-2.1581 C-0.4277,-2.1514 -0.4319,-2.1382 -0.4343,-2.1317 C-0.4411,-2.1053 -0.4599,-2.054 -0.4717,-2.0294 C-0.4836,-2.0049 -0.512,-1.9582 -0.5284,-1.9364 C-0.5448,-1.9146 -0.5818,-1.8744 -0.6021,-1.8563 C-0.6225,-1.8381 -0.6665,-1.8059 -0.6901,-1.792 C-0.7136,-1.7782 -0.7631,-1.7552 -0.7888,-1.7462 C-0.8146,-1.7372 -0.8677,-1.7243 -0.8947,-1.7205 C-0.9217,-1.7167 -0.9762,-1.7144 -1.0035,-1.7159 C-1.0307,-1.7174 -1.0847,-1.7258 -1.1111,-1.7327 C-1.1375,-1.7395 -1.1888,-1.7582 -1.2134,-1.7701 C-1.238,-1.7819 -1.2846,-1.8103 -1.3064,-1.8268 C-1.3282,-1.8432 -1.3684,-1.8801 -1.3866,-1.9005 C-1.4047,-1.9208 -1.4369,-1.9649 -1.4508,-1.9884 C-1.4647,-2.0119 -1.4876,-2.0614 -1.4967,-2.0872 C-1.5005,-2.0981 -1.5072,-2.1202 -1.5101,-2.1314 M1.25,-1.7149 C1.1791,-1.7559 1.046,-1.8513 0.9844,-1.9053 C0.9228,-1.9593 0.8109,-2.0788 0.761,-2.1438 C0.7112,-2.2088 0.6247,-2.3479 0.5885,-2.4213 C0.5523,-2.4948 0.4946,-2.6481 0.4734,-2.7272 C0.4522,-2.8063 0.4256,-2.9679 0.4202,-3.0496 C0.4184,-3.0767 0.4167,-3.1311 0.4167,-3.1583 L0.4167,-3.6594 C0.4167,-3.6867 0.422,-3.741 0.4273,-3.7678 C0.4327,-3.7946 0.4485,-3.8468 0.459,-3.872 C0.4694,-3.8972 0.4951,-3.9454 0.5103,-3.9681 C0.5255,-3.9908 0.5601,-4.033 0.5794,-4.0522 C0.5987,-4.0715 0.6409,-4.1062 0.6636,-4.1213 C0.6863,-4.1365 0.7344,-4.1622 0.7596,-4.1727 C0.7848,-4.1831 0.8371,-4.199 0.8638,-4.2043 C0.8906,-4.2096 0.9449,-4.215 0.9722,-4.215 C0.9995,-4.215 1.0538,-4.2096 1.0806,-4.2043 C1.1074,-4.199 1.1596,-4.1831 1.1848,-4.1727 C1.21,-4.1622 1.2582,-4.1365 1.2809,-4.1213 C1.3036,-4.1062 1.3458,-4.0715 1.3651,-4.0522 C1.3844,-4.033 1.419,-3.9908 1.4341,-3.9681 C1.4493,-3.9454 1.475,-3.8972 1.4855,-3.872 C1.4959,-3.8468 1.5118,-3.7946 1.5171,-3.7678 C1.5224,-3.741 1.5278,-3.6867 1.5278,-3.6594 L1.5278,-3.3816 C1.5278,-3.3543 1.5224,-3.3 1.5171,-3.2732 C1.5118,-3.2465 1.4959,-3.1942 1.4855,-3.169 C1.475,-3.1438 1.4493,-3.0957 1.4341,-3.073 C1.419,-3.0503 1.3843,-3.0081 1.365,-2.9888 C1.3457,-2.9695 1.3035,-2.9349 1.2809,-2.9197 C1.2582,-2.9045 1.21,-2.8788 1.1848,-2.8684 C1.1596,-2.8579 1.1074,-2.8421 1.0806,-2.8368 C1.0538,-2.8314 0.9995,-2.8261 0.9722,-2.8261 L0.4501,-2.8261" style="stroke:#808080;stroke-width:0.25;"/>
            </g>
            <path d="M-13,-4.8399 L-10.5,-4.4237 L-10.5,-5.2562 Z" style="stroke:#808080;stroke-width:0.25;fill:#808080;fill-rule:evenodd;"/>
            <path d="M13,-4.8399 L10.5,-5.2562 L10.5,-4.4237 Z" style="stroke:#808080;stroke-width:0.25;fill:#808080;fill-rule:evenodd;"/>
        </g>
        <path d="M-13,-0.625 L-13,-6.0899 M13,-0.625 L13,-6.0899 M-13,-4.8399 L13,-4.8399 " style="stroke:#808080;stroke-width:0.25;"/>
        <!-- Line -->
        <path d="M-40,-30 L30,-30 " style="stroke:#808080;stroke-width:0.25;"/>
        <!-- Line -->
        <path d="M30,-30 L30,110 " style="stroke:#808080;stroke-width:0.25;"/>
        <!-- Line -->
        <path d="M30,110 L-40,110 " style="stroke:#808080;stroke-width:0.25;"/>
        <!-- Line -->
        <path d="M-40,110 L-40,-30 " style="stroke:#808080;stroke-width:0.25;"/>
    </g>
</svg>
